<svg width="448" height="82" viewBox="0 0 448 82" fill="none" xmlns="http://www.w3.org/2000/svg">
<path d="M0 5C0 2.23858 2.23858 0 5 0H443C445.761 0 448 2.23858 448 5V81.9512H0V5Z" fill="url(#paint0_linear)"/>
<mask id="mask0" mask-type="alpha" maskUnits="userSpaceOnUse" x="0" y="0" width="448" height="82">
<path d="M0 5C0 2.23858 2.23858 0 5 0H443C445.761 0 448 2.23858 448 5V81.9512H0V5Z" fill="url(#paint1_linear)"/>
</mask>
<g mask="url(#mask0)">
<ellipse cx="470.74" cy="78.7394" rx="47.0039" ry="47.0039" transform="rotate(43.3785 470.74 78.7394)" fill="url(#paint2_linear)" fill-opacity="0.5"/>
<ellipse cx="301.368" cy="89.6605" rx="35.262" ry="35.262" transform="rotate(-91.8673 301.368 89.6605)" fill="url(#paint3_linear)" fill-opacity="0.5"/>
<ellipse cx="343.426" cy="0.596151" rx="26.8007" ry="26.8007" transform="rotate(-5.57973 343.426 0.596151)" fill="url(#paint4_linear)" fill-opacity="0.5"/>
</g>
<g clip-path="url(#clip0)">
<path d="M41.6435 16.3901C47.6799 16.507 52.5381 17.561 56.8629 20.4797C59.7327 22.4149 61.8805 24.9718 62.9855 28.3117C64.5945 33.175 63.2055 37.6523 59.2031 40.8067C56.742 42.7475 53.9088 43.9536 51.0299 45.0762C50.3482 45.3415 49.6719 45.6254 48.9902 45.8907C48.325 46.1505 48.2719 46.5197 48.5651 47.1803C49.3989 49.0543 50.3573 50.9098 50.8796 52.8785C52.8148 60.1632 47.3886 64.3863 42.5066 65.1081C39.6679 65.5275 37.0419 64.9875 34.5771 63.6163C31.9583 62.1597 30.6829 59.8534 30.5106 56.8456C30.3383 53.849 31.2674 51.1418 32.4843 48.4977C35.2606 42.4692 38.1231 36.4796 40.8023 30.4084C41.7919 28.1688 43.5713 27.4304 45.6494 27.011C46.8864 26.7624 47.4655 27.4433 47.1247 28.6754C46.9304 29.3805 46.6225 30.0633 46.3 30.722C43.5218 36.411 40.6795 42.0665 37.9692 47.7889C37.018 49.7984 36.1916 51.9118 35.6473 54.0661C34.9198 56.9476 36.9759 59.6233 39.9062 60.0723C44.3025 60.7477 46.815 56.7936 46.1846 53.3461C45.818 51.3385 45.008 49.5423 43.8755 47.8724C43.6006 47.466 43.3148 47.0671 43.049 46.6533C42.2024 45.3359 42.4828 44.2913 43.9195 43.6975C45.4405 43.0685 47.0165 42.5731 48.5302 41.9255C50.0128 41.2928 51.5448 40.6953 52.8863 39.8195C58.1952 36.3535 58.3473 29.3434 53.2454 25.5507C50.3921 23.4299 47.1448 22.4391 43.6318 22.1663C40.0546 21.888 36.5727 22.2906 33.2045 23.5097C29.9535 24.6879 27.4869 26.7698 26.2682 30.1357C25.22 33.0321 25.942 35.7894 28.2895 37.7933C29.0775 38.465 29.9388 39.0588 30.8093 39.6228C31.7348 40.2222 32.2552 40.9848 32.2021 42.1315C32.1562 43.1075 31.7861 43.525 30.8954 43.1761C29.4587 42.6139 27.9432 42.0684 26.7208 41.1592C21.148 37.0196 20.2739 29.72 24.5474 24.1944C27.672 20.1512 31.8685 17.9673 36.7523 17.0229C38.6564 16.6555 40.6062 16.52 41.6435 16.3901Z" fill="white"/>
<path d="M79.2895 57.4916C78.6774 57.4916 78.3493 57.4916 78.0231 57.4916C76.284 57.4916 74.5468 57.4972 72.8077 57.4897C71.7649 57.4842 71.5652 57.2801 71.545 56.2633C71.4955 53.7917 71.4955 53.7917 73.9567 53.7917C76.7623 53.7917 79.5698 53.788 82.3755 53.7936C83.4787 53.7973 83.6326 53.9662 83.651 55.0906C83.7279 59.8499 81.0157 63.5554 76.4655 64.908C71.6 66.3535 66.5641 64.6 63.8959 60.5328C59.8661 54.3929 63.3901 46.0228 70.6745 44.568C74.7703 43.7498 78.342 44.8594 81.2393 47.9543C82.0896 48.8617 82.0273 49.1493 80.9479 49.7542C80.2589 50.1401 79.5314 50.797 78.8551 50.7598C78.2064 50.7227 77.5888 49.9601 76.9786 49.4851C74.7685 47.7669 71.9738 47.5888 69.6172 49.0342C67.3154 50.4444 65.9025 53.2982 66.3295 55.6732C66.8775 58.7237 68.9776 61.0412 71.6843 61.5422C74.4863 62.0598 76.7843 61.1618 78.5638 58.937C78.835 58.5938 78.9669 58.1429 79.2895 57.4916Z" fill="white"/>
<path d="M95.2772 58.6896C95.2772 60.5229 95.2827 62.2077 95.2754 63.8943C95.2699 65.0466 95.1563 65.1542 94.0072 65.1579C93.3054 65.1616 92.6053 65.1412 91.9035 65.1616C91.2914 65.1802 91 64.8814 90.9615 64.2914C90.945 64.0465 90.9469 63.7997 90.9469 63.5529C90.9469 57.7359 90.945 51.9189 90.9469 46.1019C90.9469 44.6324 91.0623 44.5173 92.4917 44.5155C94.9602 44.5155 97.4305 44.4895 99.899 44.5229C103 44.5656 105.503 45.7067 106.824 48.7163C108.358 52.2121 106.989 56.1884 103.702 58.0161C103.575 58.0866 103.456 58.172 103.267 58.2963C104.557 59.9903 105.816 61.6417 107.073 63.2931C107.259 63.5362 107.48 63.7644 107.612 64.0353C107.739 64.2914 107.905 64.6662 107.805 64.8573C107.708 65.0447 107.301 65.1171 107.022 65.1431C106.538 65.1876 106.036 65.0855 105.562 65.169C103.828 65.4752 102.699 64.7237 101.779 63.2876C100.905 61.9219 99.8311 60.688 98.8874 59.3669C98.53 58.8678 98.147 58.6266 97.5239 58.6748C96.8331 58.7305 96.133 58.6896 95.2772 58.6896ZM95.2809 54.871C95.7665 54.871 96.1275 54.8747 96.4867 54.871C97.8575 54.858 99.2374 54.936 100.597 54.8024C102.116 54.6539 103.141 53.1899 103.062 51.5348C102.972 49.6534 102.019 48.4621 100.388 48.3731C98.8984 48.2914 97.4012 48.323 95.9094 48.3638C95.695 48.3694 95.312 48.7071 95.3065 48.8963C95.2626 50.8297 95.2809 52.765 95.2809 54.871Z" fill="white"/>
<path d="M185.623 63.8374C181.476 66.2031 177.452 65.8691 175.144 62.9653C172.608 59.772 172.665 54.7324 175.223 51.7803C177.18 49.5203 181.751 47.8801 185.7 51.1087C185.7 49.1864 185.7 47.355 185.7 45.5255C185.7 43.8592 185.7 43.8536 187.384 43.8592C190.012 43.8685 189.755 43.6032 189.757 46.2138C189.763 52.0605 189.759 57.9072 189.755 63.7539C189.755 65.0806 189.671 65.1566 188.346 65.1585C187.95 65.1585 187.554 65.1585 187.157 65.1585C185.817 65.1585 185.817 65.1585 185.623 63.8374ZM181.558 61.8353C184.148 61.8464 185.836 60.1542 185.869 57.512C185.902 54.8419 184.184 52.9901 181.648 52.9604C179.084 52.9308 177.32 54.7417 177.329 57.3951C177.334 60.0095 179.064 61.8242 181.558 61.8353Z" fill="white"/>
<path d="M156.959 51.097C157.263 49.6571 157.263 49.6589 158.725 49.6552C161.316 49.6515 161.153 49.4196 161.15 52.0841C161.144 55.9621 161.15 59.8401 161.148 63.7162C161.148 65.0948 161.084 65.1561 159.682 65.1579C159.315 65.1579 158.947 65.1227 158.586 65.1653C157.609 65.2804 156.959 65.0169 157.061 63.6809C155.718 64.8313 154.305 65.3917 152.718 65.49C148.498 65.7535 145.049 62.7458 144.71 58.4818C144.499 55.8285 145.014 53.3903 146.945 51.4347C149.605 48.7405 154.314 48.5327 156.959 51.097ZM157.219 57.4724C157.228 54.7616 155.548 52.9692 152.986 52.9599C150.455 52.9506 148.725 54.7207 148.705 57.3407C148.685 59.9866 150.44 61.8347 152.973 61.8347C155.57 61.8347 157.21 60.1499 157.219 57.4724Z" fill="white"/>
<path d="M112.04 59.0374C112.255 60.5514 113.429 61.5794 115.196 61.828C116.765 62.0488 118.243 61.8429 119.469 60.7166C119.948 60.2768 120.421 60.2397 120.958 60.5848C121.368 60.8483 121.797 61.0858 122.215 61.3363C123.191 61.9227 123.223 62.24 122.385 63.0749C119.796 65.6578 115.669 66.3035 112.2 64.667C108.938 63.1287 107.473 60.2453 107.904 56.2151C108.241 53.0497 110.757 50.3351 113.985 49.6522C117.771 48.8507 121.232 50.1922 123.105 53.1536C124.018 54.5971 124.229 56.1892 124.15 57.8424C124.11 58.7089 123.666 59.0337 122.638 59.0355C119.438 59.0429 116.237 59.0374 113.037 59.0374C112.705 59.0374 112.379 59.0374 112.04 59.0374ZM119.717 56.0556C119.539 54.1073 117.915 52.955 115.603 53.0905C113.644 53.2055 112.141 54.4951 112.178 56.0556C114.688 56.0556 117.201 56.0556 119.717 56.0556Z" fill="white"/>
<path d="M134.281 57.5784C133.378 59.3411 132.528 60.998 131.677 62.655C131.397 63.2005 131.151 63.7665 130.831 64.2878C130.655 64.5754 130.358 64.787 130.116 65.0319C129.903 64.7517 129.619 64.5012 129.489 64.1858C128.195 61.0686 126.927 57.9402 125.654 54.8137C125.144 53.5631 124.627 52.3162 124.129 51.0618C123.707 50.0042 123.893 49.6888 124.981 49.698C128.54 49.7277 127.757 49.249 128.969 52.4052C129.48 53.7356 129.98 55.0716 130.57 56.6302C131.274 55.1829 131.875 53.9564 132.469 52.7281C132.843 51.9543 133.186 51.1657 133.591 50.4087C133.752 50.1081 134.047 49.8799 134.281 49.6201C134.518 49.8688 134.827 50.0784 134.976 50.3716C135.867 52.1213 136.717 53.8915 137.586 55.6523C137.716 55.9158 137.871 56.1645 138.115 56.5987C138.709 55.066 139.218 53.6985 139.766 52.3477C141.02 49.2657 140.193 49.7259 143.721 49.698C144.822 49.6906 145.022 50.0191 144.601 51.047C142.806 55.4186 141.012 59.792 139.196 64.1542C139.057 64.4882 138.747 64.7517 138.516 65.0467C138.264 64.761 137.945 64.5105 137.771 64.1839C136.717 62.2078 135.696 60.215 134.663 58.2296C134.569 58.0515 134.457 57.8808 134.281 57.5784Z" fill="white"/>
<path d="M197.861 49.3384C199.85 49.3495 201.653 49.9117 203.33 50.9564C203.923 51.3256 204.046 51.7505 203.628 52.322C203.557 52.4204 203.489 52.5243 203.414 52.6208C202.131 54.2851 202.351 54.5746 200.302 53.5633C199.212 53.0253 197.971 52.7247 196.756 53.1644C196.333 53.3166 195.811 53.7452 195.714 54.1423C195.556 54.7954 196.183 55.0737 196.736 55.1999C198.129 55.519 199.54 55.764 200.927 56.1054C203.557 56.7548 204.708 58.1409 204.708 60.5623C204.708 62.9188 203.387 64.6314 200.927 65.214C197.828 65.9488 194.883 65.4515 192.138 63.7964C191.462 63.3882 191.358 62.9076 191.825 62.2823C191.862 62.2341 191.898 62.184 191.935 62.1358C193.454 60.1114 193.099 60.2932 195.197 61.1523C196.241 61.5791 197.429 61.6774 198.563 61.8315C198.954 61.8853 199.459 61.7647 199.769 61.529C200.115 61.2674 200.486 60.7905 200.493 60.4009C200.498 60.1133 199.98 59.6531 199.619 59.5529C198.538 59.2542 197.418 59.102 196.315 58.8794C195.899 58.7959 195.483 58.6938 195.078 58.5658C192.578 57.7753 191.438 56.2909 191.532 53.9753C191.627 51.6411 192.864 50.2457 195.422 49.6705C196.221 49.4942 197.048 49.446 197.861 49.3384Z" fill="white"/>
<path d="M59.8317 54.9302C59.8317 57.9157 59.8134 60.8993 59.8427 63.8848C59.8519 64.7606 59.522 65.1335 58.6552 65.0779C58.078 65.0408 57.4952 65.0426 56.9198 65.0779C56.1135 65.1261 55.7525 64.8051 55.7543 63.959C55.7708 57.8971 55.7708 51.8352 55.7525 45.7733C55.7506 44.9754 56.0383 44.647 56.83 44.7008C57.4366 44.7416 58.0505 44.7416 58.6571 44.7008C59.5202 44.6433 59.8556 44.9995 59.8446 45.8846C59.8116 48.8979 59.8317 51.9131 59.8317 54.9302Z" fill="white"/>
<path d="M167.784 51.7389C168.927 50.4864 170.084 49.798 171.462 49.5104C172.772 49.2377 173.054 49.4641 173.06 50.7963C173.06 50.8278 173.062 50.8575 173.06 50.8891C173.032 51.5923 173.241 52.4625 172.906 52.9524C172.596 53.4051 171.704 53.4552 171.066 53.6723C169.154 54.3218 167.932 55.5538 167.859 57.6765C167.797 59.4893 167.798 61.3059 167.789 63.1187C167.778 65.1579 167.787 65.1579 165.726 65.1579C165.359 65.1579 164.995 65.1486 164.628 65.1579C164.029 65.1746 163.714 64.9 163.714 64.2821C163.714 59.6971 163.714 55.1122 163.714 50.5291C163.714 49.9632 164.011 49.6737 164.557 49.6626C165.319 49.6478 166.079 49.6589 166.842 49.6552C167.487 49.6515 167.791 49.9817 167.782 50.6256C167.782 50.8984 167.784 51.1711 167.784 51.7389Z" fill="white"/>
</g>
<defs>
<linearGradient id="paint0_linear" x1="448" y1="21.6421" x2="133.392" y2="258.861" gradientUnits="userSpaceOnUse">
<stop stop-color="#BF3173"/>
<stop offset="1" stop-color="#F37160"/>
</linearGradient>
<linearGradient id="paint1_linear" x1="448" y1="21.6421" x2="133.392" y2="258.861" gradientUnits="userSpaceOnUse">
<stop stop-color="#BF3173"/>
<stop offset="1" stop-color="#F37160"/>
</linearGradient>
<linearGradient id="paint2_linear" x1="495.025" y1="25.0766" x2="449.98" y2="118.693" gradientUnits="userSpaceOnUse">
<stop stop-color="#F37160"/>
<stop offset="1" stop-color="#BF3173"/>
</linearGradient>
<linearGradient id="paint3_linear" x1="319.587" y1="49.403" x2="285.794" y2="119.633" gradientUnits="userSpaceOnUse">
<stop stop-color="#F37160"/>
<stop offset="1" stop-color="#BF3173"/>
</linearGradient>
<linearGradient id="paint4_linear" x1="357.273" y1="-30.0013" x2="331.589" y2="23.3767" gradientUnits="userSpaceOnUse">
<stop stop-color="#F37160"/>
<stop offset="1" stop-color="#BF3173"/>
</linearGradient>
<clipPath id="clip0">
<rect width="182.854" height="49.1707" fill="white" transform="translate(21.8538 16.3901)"/>
</clipPath>
</defs>
</svg>
