<svg width="40" height="19" viewBox="0 0 40 19" fill="none" xmlns="http://www.w3.org/2000/svg">
<g clip-path="url(#clip0)">
<path d="M19.4873 8.11234C19.1784 8.05561 18.8791 7.95524 18.5985 7.81423C17.9802 7.54649 17.3978 7.20146 16.7767 6.93786C16.5353 6.81963 16.2768 6.74 16.0107 6.70186C15.7582 6.67564 15.6768 6.7681 15.7499 7.00962C15.8519 7.29268 15.9997 7.55705 16.1874 7.79215C16.6939 8.51257 17.2832 9.17227 17.8532 9.83335C18.0657 10.0818 18.2769 10.333 18.4853 10.5841C18.5129 10.6173 18.5598 10.649 18.5267 10.7028C18.4936 10.7566 18.4453 10.729 18.4039 10.718C16.5959 10.2474 14.8611 9.59873 13.2974 8.56226C12.3783 7.95363 11.5599 7.23734 10.965 6.29472C10.6322 5.79605 10.4296 5.22192 10.3757 4.62478C10.3357 4.16725 10.4414 3.70878 10.6776 3.31491C10.9138 2.92104 11.2685 2.61193 11.691 2.43177C12.354 2.14223 13.079 2.02315 13.7998 2.08536C14.9977 2.15022 16.1267 2.49939 17.2225 2.96035C17.3605 3.01832 17.3909 2.96035 17.4447 2.8665C17.8487 2.09934 18.392 1.41416 19.047 0.84601C19.5228 0.422406 20.1074 0.139936 20.7349 0.0303608C21.5285 -0.0897096 22.2296 0.14353 22.8561 0.625192C22.961 0.690785 23.0543 0.773332 23.1322 0.869472C23.1322 0.943998 23.0563 0.934339 23.0121 0.959181C22.8451 1.02129 22.6795 1.08477 22.518 1.1593C22.4055 1.21577 22.2967 1.27939 22.1923 1.34975C22.133 1.39668 22.0543 1.42152 21.9977 1.4643C21.8486 1.56505 21.7065 1.67684 21.5643 1.78725C21.3985 1.92114 21.243 2.06739 21.0992 2.22475C20.913 2.41042 20.7431 2.61174 20.5914 2.82648C20.5265 2.92447 20.4533 3.0197 20.3912 3.11907C20.3291 3.21844 20.2532 3.33161 20.2008 3.44478C20.1483 3.55795 20.089 3.66283 20.0366 3.77324C19.9841 3.88365 19.9482 3.9775 19.8985 4.07825C19.8273 4.25046 19.7655 4.42646 19.7136 4.60546C19.6091 4.92388 19.5352 5.25153 19.4928 5.58396C19.4061 6.0911 19.3806 6.60682 19.4169 7.12003C19.4149 7.41455 19.445 7.7084 19.5066 7.99641C19.514 8.0157 19.5161 8.03662 19.5127 8.057C19.5093 8.07739 19.5005 8.09649 19.4873 8.11234Z" fill="#0093E2"/>
<path d="M9.07295 13.9599C9.54771 13.2662 10.022 12.571 10.4958 11.8745C10.5154 11.8398 10.5445 11.8114 10.5797 11.7928C10.615 11.7742 10.6549 11.7662 10.6946 11.7697C11.0369 11.7697 11.3846 11.7697 11.72 11.7697C11.8263 11.7697 11.858 11.7931 11.858 11.9077C11.847 12.5812 11.8442 13.2547 11.8387 13.9282C11.8369 13.9566 11.8458 13.9846 11.8635 14.0068C11.9671 13.8412 12.0692 13.6756 12.1713 13.5086C12.5108 12.9566 12.8489 12.4045 13.1857 11.8525C13.1967 11.8254 13.216 11.8026 13.2408 11.7872C13.2656 11.7719 13.2946 11.7647 13.3237 11.7669C13.7253 11.7669 14.1256 11.7669 14.5272 11.7669C14.5512 11.7682 14.5752 11.7709 14.5989 11.7752C14.4499 11.9808 14.3133 12.1699 14.1739 12.359C13.4672 13.3306 12.7606 14.3013 12.054 15.271C12.0292 15.3129 11.9931 15.3469 11.95 15.3694C11.9068 15.3918 11.8582 15.4017 11.8097 15.398C11.4812 15.3916 11.1532 15.3916 10.8257 15.398C10.7208 15.398 10.6877 15.3773 10.6877 15.26C10.6877 14.5948 10.6877 13.9309 10.6877 13.2602C10.6463 13.2699 10.6297 13.3209 10.6049 13.3568C10.1614 14.0009 9.71976 14.6449 9.27996 15.289C9.26148 15.3217 9.2339 15.3483 9.2006 15.3657C9.16729 15.3831 9.12966 15.3905 9.09225 15.387C8.75412 15.387 8.41738 15.387 8.08063 15.387C7.9716 15.387 7.93297 15.3663 7.93159 15.2489C7.91364 14.4209 7.88879 13.5928 7.86671 12.7647C7.85843 12.4735 7.85291 12.1823 7.83911 11.8911C7.83911 11.7904 7.85154 11.7531 7.96747 11.7531C8.34148 11.7614 8.71549 11.76 9.08813 11.7531C9.19302 11.7531 9.22614 11.7766 9.2082 11.8828C9.14609 12.5122 9.09227 13.1415 9.03568 13.7722C9.0481 13.8467 8.98324 13.9185 9.07295 13.9599Z" fill="#201A17"/>
<path d="M33.2126 14.1366L33.8474 13.1567C34.1235 12.7316 34.3963 12.307 34.6659 11.8828C34.6855 11.8454 34.7157 11.8146 34.7528 11.7942C34.7899 11.7738 34.8321 11.7648 34.8743 11.7683C35.2469 11.7752 35.6209 11.7683 35.9949 11.7683C36.0183 11.7628 36.0426 11.7621 36.0663 11.7661C36.09 11.7702 36.1126 11.7789 36.1329 11.7918C35.9853 11.9933 35.8403 12.1947 35.694 12.3935C34.8522 13.5417 34.0094 14.6891 33.1657 15.8355C32.9752 16.1145 32.7364 16.3571 32.4604 16.5518C32.0257 16.8375 31.5358 16.8913 31.032 16.8623C30.8236 16.8499 30.618 16.8168 30.4068 16.8002C30.3295 16.8002 30.3157 16.7629 30.3309 16.6967C30.3958 16.4276 30.4606 16.1585 30.5227 15.8879C30.5393 15.8217 30.5697 15.8189 30.6304 15.8369C30.8582 15.9034 31.0971 15.9236 31.3329 15.8962C31.6517 15.8645 31.8518 15.6575 32.0229 15.4173C32.056 15.3718 32.0367 15.3207 32.0326 15.271C31.9456 14.1462 31.8615 13.0214 31.7676 11.8966C31.7579 11.7738 31.8007 11.7586 31.9056 11.7655C32.3114 11.7655 32.7171 11.7655 33.1229 11.7655C33.2416 11.7655 33.2775 11.7918 33.2719 11.9146C33.2416 12.5826 33.2195 13.2519 33.1946 13.9199C33.1946 13.9875 33.1946 14.0579 33.1946 14.1242L33.2126 14.1366Z" fill="#201A17"/>
<path d="M1.67961 13.5072C1.64316 13.6358 1.61321 13.7662 1.5899 13.8978C1.54436 14.2732 1.72793 14.3726 2.06744 14.298C2.34346 14.2387 2.48146 14.022 2.59187 13.7846C2.78923 13.3485 2.92449 12.8903 3.08458 12.4404C3.3192 11.7862 3.54692 11.1293 3.77464 10.4737C3.7806 10.4473 3.79621 10.424 3.81841 10.4084C3.84061 10.3929 3.86781 10.3861 3.89471 10.3895C4.36395 10.3895 4.83319 10.3895 5.30243 10.3895C5.36177 10.3895 5.39903 10.3895 5.37005 10.4723C4.97672 11.5475 4.63308 12.6405 4.20524 13.7032C3.9651 14.2994 3.60626 14.8073 3.02799 15.1234C2.59237 15.3731 2.09751 15.5009 1.59543 15.4932C1.3314 15.4983 1.06773 15.4714 0.810148 15.4132C0.271902 15.2752 -0.00965492 14.9081 0.00414627 14.3519C0.0128661 14.17 0.0382818 13.9894 0.0800596 13.8122C0.0924807 13.7557 0.109039 13.7129 0.180806 13.7046C0.672128 13.637 1.16759 13.5721 1.67961 13.5072Z" fill="#201A17"/>
<path d="M21.6154 11.6924C21.8636 11.6881 22.1113 11.7159 22.3524 11.7752C22.533 11.8214 22.6926 11.9273 22.8056 12.0755C22.9185 12.2238 22.9782 12.4059 22.9748 12.5922C22.9748 12.646 22.9583 12.6626 22.9072 12.6667C22.4932 12.7054 22.0791 12.744 21.6568 12.7854C21.5947 12.7854 21.5754 12.7703 21.574 12.7123C21.574 12.6614 21.5581 12.6117 21.5284 12.5703C21.4986 12.529 21.4567 12.498 21.4084 12.4818C21.2908 12.431 21.1622 12.4113 21.0348 12.4246C20.9074 12.4379 20.7856 12.4838 20.6811 12.5577C20.6393 12.5824 20.6054 12.6185 20.5834 12.6618C20.5614 12.705 20.5522 12.7537 20.5569 12.802C20.5748 12.9083 20.67 12.9331 20.7611 12.9566C20.9605 13.0019 21.1623 13.0355 21.3656 13.0573C21.6286 13.0847 21.887 13.146 22.1343 13.2395C22.2323 13.2724 22.322 13.3259 22.3974 13.3965C22.4729 13.4671 22.5322 13.5531 22.5715 13.6487C22.6108 13.7442 22.629 13.8471 22.625 13.9503C22.6211 14.0536 22.5949 14.1547 22.5484 14.247C22.4506 14.481 22.3051 14.6921 22.1212 14.8668C21.9373 15.0414 21.7189 15.1758 21.4801 15.2614C20.7401 15.5347 19.9339 15.5732 19.1712 15.3718C18.9735 15.3341 18.7977 15.2221 18.6799 15.0589C18.5621 14.8957 18.5113 14.6936 18.5377 14.494C18.5377 14.4195 18.5653 14.3919 18.6399 14.385C19.0705 14.3473 19.5006 14.3073 19.9303 14.2649C19.9951 14.2649 20.0034 14.2884 20.0131 14.3408C20.0683 14.6169 20.1773 14.7121 20.4699 14.7204C20.6951 14.7402 20.9191 14.6708 21.0937 14.5271C21.135 14.4982 21.167 14.4579 21.1859 14.4111C21.2048 14.3643 21.2097 14.3131 21.2 14.2635C21.1765 14.1614 21.0882 14.1255 20.9957 14.1076C20.7197 14.0455 20.4437 13.9834 20.1566 13.9268C20.0002 13.895 19.8458 13.8539 19.6943 13.804C19.5193 13.7532 19.3715 13.6354 19.2831 13.4761C19.1947 13.3169 19.1728 13.1291 19.2223 12.9538C19.3603 12.4128 19.7357 12.0899 20.2298 11.8856C20.6259 11.7186 21.0551 11.6882 21.6154 11.6924Z" fill="#201A17"/>
<path d="M25.3114 12.2665C25.4511 12.1111 25.6081 11.9722 25.7793 11.8525C25.9462 11.7476 26.1382 11.6893 26.3353 11.6838C26.5323 11.6782 26.7273 11.7255 26.8999 11.8207C26.9869 11.8649 26.9814 11.8966 26.9234 11.967C26.7039 12.2334 26.4928 12.5066 26.2761 12.7771C26.2444 12.8172 26.2195 12.8806 26.1478 12.842C25.7337 12.6198 25.3418 12.8972 25.1182 13.256C24.8871 13.6586 24.7019 14.0859 24.5661 14.5299C24.475 14.7866 24.3826 15.0433 24.2901 15.3014C24.2667 15.369 24.2404 15.4035 24.1521 15.4021C23.7381 15.4021 23.3323 15.4021 22.9224 15.4021C22.8286 15.4021 22.8203 15.3814 22.852 15.2945C23.2541 14.1646 23.6525 13.0334 24.0472 11.9008C24.0498 11.8798 24.0565 11.8596 24.0669 11.8413C24.0773 11.823 24.0913 11.807 24.108 11.7941C24.1247 11.7813 24.1438 11.7719 24.1642 11.7665C24.1845 11.7611 24.2058 11.7598 24.2266 11.7627C24.5868 11.771 24.9457 11.7696 25.3059 11.7627C25.4135 11.7627 25.4315 11.789 25.3901 11.8856C25.3487 11.9822 25.3059 12.1216 25.2645 12.2403L25.3114 12.2665Z" fill="#201A17"/>
<path d="M27.7487 10.4351C27.5875 10.4804 27.4218 10.5073 27.2546 10.5151C27.2546 10.4544 27.3029 10.453 27.3388 10.4475C27.3867 10.441 27.4312 10.4192 27.4657 10.3854C27.5003 10.3516 27.523 10.3076 27.5306 10.2598C27.6396 9.88856 27.7652 9.52283 27.8687 9.15571C27.9896 8.7077 28.0858 8.25343 28.1572 7.79492C28.2741 7.07766 28.3327 6.3521 28.3324 5.62537C28.3308 5.28476 28.3036 4.94475 28.251 4.60822C28.24 4.52955 28.1558 4.49781 28.1572 4.41914C28.3559 4.41914 28.5546 4.43571 28.7534 4.44813C28.8661 4.46007 28.9795 4.46514 29.0929 4.46331C29.1116 4.4604 29.1306 4.46136 29.1489 4.46612C29.1672 4.47088 29.1843 4.47935 29.1992 4.49099C29.2141 4.50264 29.2264 4.51721 29.2354 4.53382C29.2444 4.55042 29.2499 4.5687 29.2516 4.58752C29.2634 4.6269 29.2726 4.66701 29.2792 4.70759C29.3234 5.22237 29.3979 5.7413 29.3358 6.25608C29.2861 6.66184 29.2972 7.07173 29.2406 7.47611C29.1398 8.24638 28.9778 9.0074 28.7561 9.75193C28.603 10.2501 28.6099 10.2529 28.102 10.3661C27.9847 10.3868 27.8646 10.4033 27.7487 10.4351Z" fill="#007ACC"/>
<path d="M4.64551 15.4007C4.75454 15.0916 4.85667 14.7976 4.96018 14.5023C5.27117 13.6245 5.58123 12.7463 5.89038 11.8676C5.89578 11.8364 5.91333 11.8085 5.93918 11.7902C5.96504 11.7718 5.99711 11.7644 6.02839 11.7696C6.43414 11.7696 6.83853 11.7696 7.24428 11.7696C7.33537 11.7696 7.35192 11.7876 7.32018 11.8759C6.9135 13.0233 6.50868 14.1734 6.10568 15.3262C6.08912 15.369 6.07808 15.4076 6.01597 15.4076C5.56191 15.3994 5.11199 15.4007 4.64551 15.4007Z" fill="#201A17"/>
<path d="M27.7487 10.4351C27.9163 10.3748 28.0898 10.3323 28.2663 10.3081C28.345 10.3087 28.4217 10.2836 28.4848 10.2365C28.5478 10.1894 28.5937 10.1229 28.6154 10.0473C28.7327 9.67186 28.8431 9.29509 28.9328 8.91142C29.006 8.59951 29.0805 8.28622 29.1219 7.97018C29.1736 7.68156 29.21 7.3904 29.231 7.09794C29.2364 6.82089 29.2581 6.54439 29.2958 6.26987C29.3441 5.95428 29.3441 5.63318 29.2958 5.31759C29.253 5.06778 29.2958 4.8097 29.2075 4.56542C29.184 4.50194 29.1606 4.48123 29.0957 4.48123C28.7838 4.48123 28.4719 4.45501 28.1614 4.42741C28.131 4.42741 28.1227 4.41775 28.1365 4.39153L29.1895 4.46329C29.2378 4.46329 29.2875 4.47571 29.3358 4.48123C29.5596 4.51401 29.7848 4.5352 30.0107 4.54472C30.1335 4.54472 30.1363 4.61787 30.1487 4.70481C30.1832 5.15749 30.1708 5.61293 30.1777 6.06699C30.1835 6.51662 30.1596 6.96615 30.1059 7.41261C30.0866 7.72105 30.0405 8.02722 29.9679 8.32763C29.9086 8.52084 29.9017 8.72924 29.8589 8.92936C29.7954 9.22332 29.7057 9.50901 29.6436 9.80298C29.6378 9.86433 29.6108 9.92173 29.5672 9.96531C29.5236 10.0089 29.4662 10.0359 29.4048 10.0417C29.3256 10.054 29.2491 10.0797 29.1785 10.1176C28.7106 10.2594 28.2326 10.3655 27.7487 10.4351Z" fill="#007FD0"/>
<path d="M25.7475 6.71844C25.5188 6.86179 25.2814 6.99085 25.0368 7.10488C25.0133 6.94333 25.0133 6.77924 25.0368 6.6177C25.0602 6.39274 25.0533 6.1664 25.0989 5.94144C25.1171 5.78323 25.1077 5.62308 25.0713 5.46806C25.0395 5.22972 25.0243 4.98946 25.0257 4.74901C25.028 4.60873 25.0079 4.46898 24.9664 4.33498C24.9433 4.21886 24.9286 4.10126 24.9222 3.98305C24.7661 3.19699 24.5187 2.43183 24.1852 1.70309C24.0652 1.43673 23.9092 1.18693 23.7905 0.924704C23.7629 0.863978 23.7132 0.808774 23.7436 0.732867C23.8098 0.679042 23.8912 0.695603 23.9658 0.684562C24.1038 0.66386 24.2418 0.648679 24.3798 0.639018C24.4202 0.63232 24.4616 0.639617 24.4973 0.659698C24.5329 0.679779 24.5606 0.711438 24.5758 0.749428C24.7718 1.13862 24.9678 1.52781 25.1279 1.93495C25.4228 2.69824 25.6356 3.49075 25.7627 4.2991C25.8207 4.65379 25.8428 5.01124 25.869 5.37007C25.8952 5.7289 25.869 6.05047 25.8607 6.38998C25.8676 6.50867 25.8717 6.63702 25.7475 6.71844Z" fill="#0069BD"/>
<path d="M29.1716 10.1107C29.2518 10.0499 29.3474 10.0127 29.4476 10.0031C29.4787 9.99849 29.5075 9.9841 29.5298 9.96201C29.5521 9.93992 29.5668 9.91128 29.5718 9.88026C29.6491 9.56007 29.7346 9.24264 29.8106 8.92245C29.8768 8.64643 29.9237 8.37041 29.9665 8.0861C30.0093 7.8018 30.0576 7.49955 30.0811 7.20282C30.1335 6.53623 30.1307 5.87101 30.1294 5.20441C30.1294 5.0181 30.088 4.83454 30.1032 4.65236C30.1114 4.56542 30.0562 4.5599 29.9914 4.56128C29.7816 4.56128 29.5773 4.51435 29.3703 4.50193C29.3593 4.50193 29.3482 4.48675 29.3372 4.47847C29.7313 4.49109 30.1244 4.52657 30.5144 4.58474C30.6137 4.61435 30.716 4.63241 30.8194 4.63856C30.8531 4.64261 30.8845 4.65722 30.9093 4.68028C30.9341 4.70334 30.951 4.73367 30.9574 4.76691C30.9737 4.82411 30.9839 4.88286 30.9878 4.94219C31.015 5.66882 31.0007 6.3964 30.945 7.1214C30.9133 7.4333 30.8857 7.74659 30.8484 8.0585C30.8228 8.29071 30.7832 8.52115 30.7297 8.74856C30.6759 8.96938 30.6497 9.19572 30.5821 9.41378C30.5675 9.48449 30.5364 9.55076 30.4913 9.60713C30.4462 9.66351 30.3884 9.70839 30.3226 9.73811C29.9502 9.89467 29.5651 10.0193 29.1716 10.1107Z" fill="#0083D3"/>
<path d="M28.1338 4.38463L28.1586 4.42052C28.1949 4.43261 28.2272 4.45468 28.2516 4.48421C28.276 4.51374 28.2916 4.54953 28.2966 4.58751C28.3522 5.02277 28.3789 5.46122 28.3767 5.9C28.3632 6.47765 28.3171 7.05408 28.2386 7.62653C28.1472 8.28934 27.9975 8.94282 27.7915 9.5794C27.7142 9.81126 27.6535 10.0473 27.5748 10.2777C27.5279 10.4158 27.4561 10.4958 27.2988 10.4889C27.285 10.4889 27.2698 10.5055 27.2546 10.5151C26.9847 10.5735 26.7106 10.6099 26.4348 10.6242C26.4348 10.5565 26.4928 10.5662 26.5328 10.5551C26.6156 10.5331 26.7026 10.5317 26.7868 10.511C26.893 10.4489 26.8972 10.3288 26.9344 10.235C27.1581 9.66779 27.3389 9.08467 27.4754 8.49049C27.571 8.01992 27.6406 7.54443 27.6838 7.06621C27.7399 6.43622 27.7561 5.80332 27.7321 5.1713C27.7158 4.77683 27.6794 4.38345 27.6231 3.99268C27.5283 3.29998 27.3746 2.61664 27.1635 1.9501C27.1603 1.94156 27.1556 1.93363 27.1497 1.92664C27.1332 1.88938 27.1152 1.85349 27.1497 1.81761C27.4172 2.12208 27.6275 2.47224 27.7708 2.85132C27.9656 3.34208 28.0879 3.85861 28.1338 4.38463Z" fill="#0076C8"/>
<path d="M30.3199 9.72844C30.5517 9.56835 30.5614 9.30613 30.6166 9.06875C30.6856 8.7665 30.7408 8.46149 30.7974 8.15649C30.8195 8.03642 30.825 7.91359 30.8374 7.79214C30.8733 7.42962 30.9087 7.06573 30.9437 6.70046C30.9458 6.65954 30.9458 6.61855 30.9437 6.57763C30.9437 6.06009 30.9437 5.54392 30.9437 5.02776C30.9397 4.93732 30.9287 4.84734 30.9106 4.75863C30.8913 4.64132 30.7864 4.65374 30.7063 4.64132C30.6343 4.64383 30.5635 4.62248 30.5048 4.5806C30.7446 4.59477 30.9826 4.63127 31.2156 4.68963C31.3441 4.73022 31.4756 4.76068 31.6089 4.78072C31.6517 4.78573 31.6913 4.80612 31.7203 4.8381C31.7492 4.87008 31.7655 4.91148 31.7662 4.95461C31.7787 5.10504 31.8007 5.25272 31.8035 5.40315C31.8194 6.18704 31.7798 6.97107 31.6848 7.74935C31.6338 8.18271 31.5606 8.61331 31.475 9.04252C31.4637 9.0906 31.4422 9.13568 31.412 9.17473C31.3817 9.21378 31.3435 9.24588 31.2998 9.26886C30.9897 9.45505 30.6613 9.60905 30.3199 9.72844Z" fill="#0087D7"/>
<path d="M25.5322 10.7042C24.9001 10.7677 24.2666 10.776 23.6318 10.7773C23.5153 10.7908 23.3974 10.7857 23.2826 10.7622C23.3309 10.707 23.3985 10.718 23.4606 10.7166C23.687 10.7166 23.9119 10.6821 24.1383 10.6904C24.3025 10.6904 24.4654 10.6904 24.6282 10.6904C24.8325 10.6904 25.0353 10.6642 25.241 10.66C25.3638 10.66 25.4342 10.551 25.4922 10.4516C25.5869 10.2798 25.6667 10.1002 25.7309 9.91476C26.0502 9.09119 26.2757 8.23425 26.403 7.36016C26.403 7.31186 26.4251 7.26493 26.4389 7.18903C26.3699 7.25251 26.3244 7.30772 26.2705 7.35326C26.2167 7.3988 26.1933 7.43883 26.1325 7.39742L27.1124 6.41202C27.1235 6.40444 27.1337 6.39564 27.1428 6.3858C27.1938 6.33197 27.238 6.24778 27.3318 6.29333C27.4257 6.33887 27.4091 6.42168 27.4036 6.49759C27.3639 7.02714 27.2929 7.55388 27.1911 8.07506C27.0632 8.67466 26.9038 9.26709 26.7136 9.8499C26.6495 10.1206 26.5296 10.3749 26.3616 10.5965C26.3503 10.6106 26.3368 10.6227 26.3216 10.6324C26.0552 10.6517 25.7944 10.6766 25.5322 10.7042Z" fill="#0070C3"/>
<path d="M23.7546 0.732823C23.8278 0.908036 23.9127 1.07817 24.0085 1.24209C24.206 1.62352 24.3789 2.0172 24.5261 2.42071C24.6817 2.83988 24.8103 3.2686 24.9111 3.70422C24.9512 3.86983 24.9581 4.04649 24.994 4.21072C25.0402 4.47268 25.0701 4.73725 25.0837 5.00291C25.0837 5.01119 25.0919 5.02085 25.0837 5.02913C25.0533 5.29826 25.1568 5.55772 25.1402 5.82546C25.1237 6.09321 25.0933 6.36233 25.0643 6.63145C25.0478 6.78879 25.0892 6.95026 25.034 7.10483C24.8571 7.21817 24.6727 7.31916 24.4819 7.40708C24.4488 7.28389 24.458 7.15313 24.5082 7.03583C24.5533 6.78585 24.5745 6.53214 24.5716 6.27814C24.6016 5.77439 24.5914 5.26906 24.5413 4.76691C24.5129 4.48824 24.4668 4.21166 24.4033 3.93884C24.326 3.63107 24.2542 3.32193 24.1604 3.0183C23.9838 2.43016 23.7422 1.86357 23.4399 1.32903C23.3617 1.15954 23.2558 1.00424 23.1266 0.869454C23.2476 0.811113 23.378 0.774667 23.5117 0.761805C23.5642 0.738343 23.6249 0.761806 23.6759 0.728683C23.6872 0.719335 23.7015 0.714568 23.7161 0.715336C23.7307 0.716104 23.7444 0.722349 23.7546 0.732823Z" fill="#0065BA"/>
<path d="M23.7547 0.732835H23.6994C23.6909 0.740403 23.6798 0.744579 23.6684 0.744579C23.657 0.744579 23.6459 0.740403 23.6373 0.732835C24.0419 0.623982 24.4641 0.596308 24.8794 0.651408C24.9346 0.696952 25.0174 0.636225 25.0671 0.69695C25.2755 0.901208 25.3639 1.17585 25.4812 1.4298C25.7973 2.15621 26.0289 2.9166 26.1712 3.69595C26.2728 4.21376 26.3374 4.73815 26.3644 5.26515C26.3769 5.50667 26.3907 5.74681 26.3879 5.98833C26.3884 6.0474 26.3847 6.10643 26.3769 6.16498C26.3752 6.24292 26.3494 6.31841 26.3029 6.38098C26.2564 6.44355 26.1916 6.4901 26.1174 6.51415C26.0916 6.52371 26.0684 6.53933 26.0498 6.5597C25.9558 6.62496 25.8549 6.67958 25.7489 6.72255C25.8021 6.6483 25.8293 6.55853 25.8262 6.46723C25.8515 5.97975 25.8464 5.49116 25.811 5.0043C25.7528 4.384 25.6476 3.769 25.4964 3.1646C25.4213 2.86289 25.3291 2.56569 25.2203 2.27443C25.099 1.91047 24.9504 1.55616 24.7759 1.2145C24.6945 1.06268 24.6186 0.906728 24.5441 0.750775C24.5344 0.718084 24.513 0.690128 24.4839 0.67229C24.4549 0.654453 24.4203 0.647996 24.3867 0.654167L23.7547 0.732835Z" fill="#006CC0"/>
<path d="M22.496 1.13998C22.6545 1.05497 22.8192 0.982074 22.9887 0.921921C23.0794 1.03599 23.1567 1.16009 23.2192 1.29179C23.6655 2.0753 23.9912 2.92162 24.1853 3.80223C24.2653 4.1859 24.3233 4.57234 24.3812 4.95877C24.3826 4.97669 24.3826 4.99468 24.3812 5.01259C24.3688 5.67505 24.4323 6.34165 24.326 7.00135C24.2955 7.1376 24.2756 7.27603 24.2667 7.41538C24.2667 7.51337 24.1852 7.53821 24.1287 7.58376C23.8318 7.74877 23.521 7.88732 23.1998 7.99779C23.1833 7.94673 23.2274 7.93293 23.255 7.90947C23.3271 7.86992 23.4029 7.83757 23.4814 7.81286C23.5516 7.79295 23.6137 7.75118 23.6586 7.69361C23.7036 7.63604 23.729 7.56566 23.7312 7.49267C23.857 6.77586 23.9033 6.04734 23.8692 5.32036C23.8595 5.00752 23.8277 4.69575 23.774 4.3874C23.7105 4.05203 23.6456 3.71942 23.5504 3.39234C23.3924 2.84565 23.1787 2.3166 22.9128 1.81348C22.8057 1.57078 22.6654 1.34412 22.496 1.13998Z" fill="#0062B7"/>
<path d="M31.3052 9.26473C31.4695 9.135 31.4557 8.93626 31.4902 8.76099C31.5537 8.43942 31.6061 8.11371 31.6475 7.788C31.6737 7.58651 31.6944 7.38363 31.7096 7.18213C31.7595 6.59007 31.7784 5.99581 31.7662 5.40178C31.7662 5.25273 31.7524 5.10367 31.7358 4.956C31.7356 4.91651 31.7218 4.87832 31.6966 4.84788C31.6715 4.81745 31.6366 4.79665 31.5978 4.789C31.4736 4.75588 31.3356 4.77244 31.2266 4.68964C31.6185 4.7396 31.9984 4.85877 32.3486 5.04157C32.5225 5.10781 32.5253 5.24858 32.528 5.4073C32.5371 6.29795 32.4873 7.18822 32.379 8.07231C32.361 8.22136 32.3224 8.36765 32.3058 8.51671C32.2962 8.59813 32.2299 8.63678 32.1858 8.69336C31.919 8.92217 31.6229 9.11432 31.3052 9.26473Z" fill="#008BDB"/>
<path d="M26.3244 10.6186C26.4542 10.4139 26.5567 10.193 26.6294 9.96171C26.813 9.38482 26.9924 8.80655 27.1193 8.21448C27.2146 7.77698 27.2739 7.33396 27.3333 6.89233C27.3526 6.75431 27.3567 6.60388 27.3636 6.45897C27.3636 6.4079 27.3816 6.34442 27.3181 6.32096C27.2546 6.29749 27.2173 6.33752 27.1801 6.37616C27.1596 6.39279 27.1374 6.40713 27.1138 6.41895C27.1772 6.32921 27.2503 6.24682 27.3319 6.17328C27.3861 6.12546 27.4326 6.06961 27.4699 6.00767C27.5417 5.95247 27.4533 5.91244 27.4547 5.86966C27.4585 5.10612 27.3887 4.34399 27.2463 3.59384C27.1508 3.11225 27.0287 2.6363 26.8806 2.16818C26.824 1.98738 26.7743 1.80245 26.7081 1.61613C26.687 1.58086 26.6759 1.54057 26.6759 1.49951C26.6759 1.45845 26.687 1.41815 26.7081 1.38289C26.8775 1.50353 27.0258 1.65136 27.1469 1.82039L27.1704 1.91147C27.1608 2.11297 27.267 2.28687 27.3084 2.47732C27.3733 2.76025 27.4464 3.04317 27.5072 3.32472C27.6162 3.79672 27.6452 4.277 27.7073 4.75176C27.7314 4.9874 27.7383 5.22449 27.728 5.46114C27.728 5.89864 27.7459 6.33614 27.7128 6.77088C27.682 7.21966 27.6277 7.66652 27.55 8.10959C27.4621 8.58727 27.3422 9.05849 27.1911 9.52007C27.0881 9.85464 26.9641 10.1824 26.8199 10.5013C26.8108 10.5174 26.7991 10.5318 26.7854 10.5441C26.6736 10.6007 26.5397 10.5634 26.4307 10.6283H26.421H26.4114C26.3975 10.6355 26.3819 10.6384 26.3664 10.6367C26.3509 10.635 26.3363 10.6287 26.3244 10.6186Z" fill="#0074C7"/>
<path d="M32.1802 8.69337C32.3182 8.48636 32.2989 8.24484 32.3334 8.0185C32.39 7.64862 32.419 7.27323 32.448 6.9006C32.4687 6.62458 32.4714 6.35683 32.477 6.08357C32.477 5.87103 32.477 5.65573 32.477 5.44181C32.477 5.29138 32.4977 5.13819 32.339 5.04158C32.5501 5.1336 32.7392 5.26957 32.8937 5.44045C33.0481 5.61132 33.1644 5.81316 33.2347 6.0325C33.5107 6.79295 33.2968 7.46093 32.8206 8.06956C32.6399 8.30866 32.424 8.51899 32.1802 8.69337Z" fill="#008EDD"/>
<path d="M26.7136 1.37873C26.7521 1.62193 26.8169 1.86025 26.9068 2.08949C27.0158 2.4428 27.1152 2.80025 27.1994 3.16046C27.2937 3.55965 27.366 3.96372 27.416 4.37083C27.448 4.60791 27.4669 4.84657 27.4726 5.08573C27.4726 5.28447 27.4975 5.48182 27.5044 5.68056C27.5071 5.75335 27.4977 5.82609 27.4768 5.89586C27.4409 5.95934 27.3567 5.9345 27.3139 5.98419C27.1999 6.04259 27.0801 6.08885 26.9565 6.1222C27.0448 5.83375 27.002 5.53841 26.9924 5.2472C26.9794 4.88874 26.9471 4.53123 26.8957 4.17623C26.824 3.58943 26.7035 3.00962 26.5355 2.4428C26.3879 1.97356 26.196 1.52226 26.0235 1.06268C26.0023 1.0221 25.9669 0.990685 25.9241 0.974353C25.8827 0.952271 25.8261 0.939849 25.8358 0.872223C26.1598 0.979562 26.4585 1.15191 26.7136 1.37873Z" fill="#0071C5"/>
<path d="M26.0525 6.55558C26.0663 6.53764 26.0774 6.51142 26.0953 6.50451C26.3244 6.42999 26.3479 6.22849 26.3492 6.04355C26.3543 5.32479 26.2915 4.60716 26.1615 3.90023C26.0392 3.17314 25.8426 2.46049 25.575 1.77347C25.4554 1.46494 25.3171 1.16397 25.161 0.872247C25.1264 0.806002 25.034 0.792202 25.0326 0.705254C25.1885 0.662471 25.3307 0.742516 25.4798 0.757697C25.4867 0.757697 25.4936 0.757697 25.4977 0.757697C25.5662 0.803527 25.6181 0.87036 25.6454 0.948154C25.7791 1.22161 25.8967 1.50273 25.9973 1.79003C26.2011 2.34458 26.3676 2.91216 26.4955 3.48895C26.6087 4.03504 26.683 4.58848 26.7177 5.1451C26.7371 5.45424 26.7343 5.76201 26.7412 6.07116C26.7412 6.1236 26.755 6.18157 26.7025 6.22159L26.0525 6.55558Z" fill="#006EC2"/>
<path d="M26.1298 7.39742C26.2361 7.38224 26.2775 7.28425 26.3479 7.22215C26.3843 7.17987 26.4158 7.13356 26.4417 7.08414L26.4831 7.11588C26.4569 7.28977 26.4321 7.46505 26.4017 7.63894C26.2871 8.28977 26.1205 8.93036 25.9035 9.55455C25.8075 9.87199 25.6798 10.179 25.5226 10.471C25.4398 10.609 25.3349 10.7249 25.1458 10.6987C24.9829 10.6766 24.8215 10.7332 24.6572 10.7235C24.954 10.3316 25.0892 9.8637 25.27 9.41792C25.4347 8.97998 25.5693 8.53132 25.673 8.07506C25.6974 7.98482 25.7127 7.89234 25.7185 7.79904C25.8473 7.65691 25.9847 7.52279 26.1298 7.39742Z" fill="#006CC0"/>
<path d="M26.7136 6.22709C26.7136 5.76199 26.7039 5.29689 26.6639 4.83179C26.6104 4.18803 26.4982 3.55052 26.3285 2.92722C26.1648 2.30049 25.9483 1.68875 25.6812 1.09857C25.6274 0.984016 25.5626 0.874987 25.5087 0.760437C25.6246 0.772484 25.7366 0.809188 25.8372 0.868086C26.1643 1.013 26.1739 1.35803 26.2857 1.62577C26.5215 2.17024 26.6947 2.73974 26.8019 3.32332C26.8626 3.66973 26.9206 4.01338 26.962 4.36669C27.0269 4.90632 27.0324 5.4487 27.0531 5.99109C27.0531 6.08356 26.973 6.06424 26.9579 6.11806L26.9123 6.14428C26.8654 6.1636 26.8046 6.15532 26.7743 6.20363L26.7136 6.22709Z" fill="#0070C3"/>
<path d="M24.1369 7.58926C24.2404 7.50922 24.2377 7.39467 24.2501 7.27874C24.2722 7.07724 24.3219 6.8785 24.3398 6.67563C24.3398 6.61766 24.3564 6.5597 24.3564 6.50035V5.17544C24.3448 4.94071 24.3181 4.70698 24.2763 4.47571C24.2349 4.16657 24.1631 3.86294 24.0914 3.55932C23.9824 3.10578 23.8332 2.66285 23.6456 2.23578C23.466 1.82315 23.2599 1.42254 23.0287 1.03646C23.0029 1.00434 22.9888 0.964448 22.9886 0.923286C23.0384 0.917015 23.0858 0.898523 23.1267 0.869462C23.1281 0.867958 23.1298 0.866762 23.1317 0.865943C23.1336 0.865124 23.1356 0.8647 23.1377 0.8647C23.1398 0.8647 23.1418 0.865124 23.1437 0.865943C23.1456 0.866762 23.1473 0.867958 23.1487 0.869462C23.3088 0.881883 23.3378 1.03094 23.3958 1.1303C23.5338 1.36354 23.6566 1.60369 23.7739 1.84797C23.9016 2.11745 24.0141 2.39391 24.1107 2.67604C24.2175 2.96469 24.3096 3.25857 24.3867 3.55655C24.4543 3.84914 24.5247 4.14311 24.562 4.44259C24.6298 5.027 24.6556 5.61552 24.6393 6.20363C24.6379 6.42539 24.6255 6.64694 24.602 6.86746C24.5839 7.05094 24.5516 7.23274 24.5054 7.41123C24.3904 7.48558 24.2666 7.54538 24.1369 7.58926Z" fill="#0064BA"/>
<path d="M24.1369 10.7318L23.2826 10.7622C23.175 10.7221 23.244 10.6614 23.2702 10.6159C23.4647 10.2762 23.6867 9.95314 23.934 9.64978C24.105 9.43153 24.2894 9.22411 24.4861 9.02873L24.9181 8.59675C24.944 8.56473 24.9759 8.53802 25.0119 8.51808C25.0314 8.50598 25.0539 8.49956 25.0768 8.49956C25.0997 8.49956 25.1222 8.50598 25.1417 8.51808C25.1789 8.54845 25.1706 8.59123 25.1637 8.63125C25.143 8.73476 25.0947 8.82723 25.0658 8.92936C24.908 9.45094 24.7024 9.95683 24.4516 10.4406C24.4249 10.51 24.3827 10.5723 24.3281 10.6228C24.2736 10.6733 24.2082 10.7106 24.1369 10.7318Z" fill="#0068BC"/>
<path d="M23.2633 7.94535L23.2095 8.00608C22.9465 8.12509 22.6711 8.21443 22.3883 8.27244C22.3883 8.20895 22.4408 8.20757 22.4794 8.19377C22.5512 8.16893 22.6174 8.13995 22.6933 8.11373C22.7712 8.10983 22.8454 8.07912 22.9032 8.0268C22.9611 7.97449 22.9991 7.90378 23.0108 7.82666C23.1119 7.41119 23.1842 6.98926 23.2274 6.56385C23.2468 6.36925 23.2495 6.17466 23.2537 5.97868C23.2712 5.3875 23.225 4.79614 23.1156 4.21489C22.973 3.46811 22.7146 2.74821 22.3497 2.08122C22.2388 1.86208 22.1168 1.64879 21.9839 1.44223C22.0419 1.39731 22.1054 1.36019 22.173 1.33182C22.2448 1.29732 22.2738 1.35252 22.3028 1.39668C22.6187 1.88043 22.8776 2.39913 23.0742 2.94242C23.2109 3.31347 23.3184 3.69462 23.3958 4.0824C23.5132 4.61002 23.567 5.14982 23.5559 5.69024C23.538 6.03941 23.5766 6.38996 23.5269 6.73775C23.4826 7.10977 23.4143 7.47857 23.3227 7.84184C23.3114 7.88059 23.2911 7.91608 23.2633 7.94535Z" fill="#005EB4"/>
<path d="M7.13112 10.3868C7.33124 10.3868 7.53135 10.3868 7.73147 10.3868C7.81842 10.3868 7.83084 10.413 7.80324 10.4903C7.71215 10.7373 7.62382 10.9857 7.54101 11.2355C7.53525 11.2688 7.51676 11.2985 7.48944 11.3184C7.46213 11.3382 7.42815 11.3466 7.39473 11.3418C6.99449 11.3418 6.59425 11.3418 6.19401 11.3418C6.08912 11.3418 6.08361 11.3087 6.11535 11.2231C6.20782 10.9719 6.2989 10.7208 6.38309 10.4668C6.38873 10.4406 6.4045 10.4176 6.42697 10.4028C6.44945 10.3881 6.47684 10.3828 6.50317 10.3882L7.13112 10.3868Z" fill="#201A17"/>
<path d="M24.1369 10.7318C24.4764 10.5082 24.5427 10.119 24.7124 9.79334C24.8918 9.44555 24.9691 9.0605 25.1085 8.6989C25.1265 8.65336 25.1803 8.57745 25.1085 8.54295C25.0368 8.50845 24.9912 8.54985 24.9388 8.59815C24.7975 8.75605 24.6433 8.90193 24.4778 9.03427C24.7202 8.75574 24.9797 8.49255 25.2548 8.24623C25.4191 8.10821 25.5584 7.94674 25.7144 7.80045C25.7641 7.85151 25.7489 7.90948 25.7351 7.96744C25.5987 8.5864 25.4099 9.19263 25.1706 9.77954C25.0688 10.0653 24.9437 10.3423 24.7966 10.6076C24.7673 10.6645 24.7182 10.7086 24.6586 10.7318H24.1369Z" fill="#006ABE"/>
<path d="M19.8682 4.06446C19.8993 3.95799 19.9458 3.85663 20.0062 3.76359C20.0807 3.69321 20.1 3.77049 20.1207 3.8119C20.1905 3.9651 20.2487 4.12334 20.2946 4.28528C20.3907 4.60029 20.4564 4.9238 20.4906 5.25136C20.5141 5.47632 20.5444 5.70128 20.5527 5.92762C20.5515 5.97351 20.5361 6.01789 20.5086 6.05459C20.4453 6.15223 20.405 6.26293 20.3906 6.37839C20.3763 6.49384 20.3883 6.61104 20.4257 6.72119C20.4358 6.75155 20.4418 6.7831 20.4437 6.81504C20.4492 6.91886 20.4352 7.0228 20.4023 7.12142C20.3079 7.49455 20.1659 7.85402 19.98 8.19102C19.9206 8.29176 19.98 8.32903 20.0407 8.37181V8.39113C19.9055 8.39349 19.7725 8.35605 19.6584 8.28348C19.5521 8.21724 19.5535 8.14547 19.6267 8.04748C19.7091 7.92711 19.7728 7.79496 19.8157 7.65553C19.9298 7.3927 20.0185 7.11957 20.0807 6.83988C20.1302 6.62802 20.157 6.41151 20.1608 6.19398C20.1608 6.09461 20.1994 5.99939 20.1967 5.89726C20.1945 5.27188 20.0833 4.65167 19.8682 4.06446Z" fill="#0849A2"/>
<path d="M18.0685 17.1494C18.1402 17.0787 18.2276 17.0258 18.3235 16.9952C18.4194 16.9645 18.5212 16.9568 18.6206 16.9727C18.7255 16.9784 18.8241 17.0249 18.8952 17.1023C18.9664 17.1796 19.0045 17.2817 19.0015 17.3867C19.0098 17.6227 19.0015 17.8601 19.0015 18.0961C19.0048 18.1213 19.0025 18.1468 18.9947 18.171C18.987 18.1952 18.9741 18.2173 18.9568 18.2359C18.9395 18.2545 18.9184 18.269 18.8949 18.2785C18.8714 18.288 18.846 18.2922 18.8207 18.2907C18.7117 18.2907 18.644 18.2231 18.6399 18.0961C18.6399 17.9057 18.6399 17.7138 18.6399 17.5234C18.6399 17.3067 18.5668 17.2294 18.4011 17.228C18.36 17.2237 18.3183 17.2282 18.279 17.2412C18.2397 17.2543 18.2037 17.2755 18.1732 17.3036C18.1428 17.3317 18.1187 17.366 18.1025 17.4041C18.0864 17.4422 18.0786 17.4834 18.0796 17.5248C18.0699 17.7028 18.0796 17.8808 18.0727 18.0575C18.0727 18.2121 18.0037 18.2907 17.8822 18.2907C17.7608 18.2907 17.7 18.219 17.6987 18.0685C17.6987 17.6131 17.6987 17.1576 17.6987 16.7022C17.6987 16.5642 17.7718 16.4841 17.8905 16.4883C18.0092 16.4924 18.0685 16.5628 18.0713 16.7008C18.0741 16.8388 18.0685 16.9686 18.0685 17.1494Z" fill="#201A17"/>
<path d="M19.8682 4.06444C19.9386 4.06444 19.9331 4.13206 19.9483 4.17485C20.0554 4.4827 20.1298 4.80095 20.1705 5.12437C20.2246 5.42105 20.2418 5.7233 20.2215 6.02421C20.2061 6.33759 20.1598 6.64869 20.0835 6.95303C19.9621 7.34912 19.8586 7.75488 19.6143 8.10129C19.5522 8.18686 19.6267 8.22136 19.6488 8.27656C19.5632 8.2531 19.5315 8.17443 19.4845 8.11233C19.4051 7.78911 19.368 7.45694 19.3741 7.12416C19.4583 7.13658 19.4307 7.20697 19.4418 7.25527C19.4321 7.42917 19.4818 7.59892 19.4749 7.7673C19.689 7.25675 19.8284 6.71803 19.8889 6.16774C19.9455 5.60051 19.8392 5.05536 19.7371 4.5116C19.7371 4.48813 19.7205 4.5116 19.7371 4.5116C19.7468 4.56266 19.7288 4.59026 19.6736 4.5875C19.7207 4.40705 19.7859 4.23181 19.8682 4.06444Z" fill="#0D469F"/>
<path d="M22.9458 17.6918C22.9458 17.5731 22.9458 17.4544 22.9458 17.3371C22.9458 17.2612 22.9376 17.2101 22.8451 17.2239C22.8221 17.2254 22.7991 17.2222 22.7775 17.2142C22.7503 17.2096 22.7257 17.1953 22.7083 17.174C22.6908 17.1527 22.6815 17.1258 22.6823 17.0983C22.6814 17.0843 22.6836 17.0703 22.6887 17.0572C22.6937 17.0441 22.7016 17.0323 22.7117 17.0226C22.7218 17.0129 22.7339 17.0055 22.7472 17.0009C22.7605 16.9964 22.7746 16.9947 22.7885 16.9962C22.9376 17.0072 22.9472 16.923 22.9514 16.8057C22.9472 16.7276 22.9737 16.651 23.0253 16.5922C23.0769 16.5334 23.1494 16.4971 23.2274 16.491C23.3616 16.4622 23.5007 16.466 23.6332 16.5021C23.6925 16.52 23.7463 16.5559 23.7353 16.6277C23.7299 16.6589 23.7123 16.6868 23.6865 16.7051C23.6606 16.7235 23.6286 16.7309 23.5973 16.7257L23.4593 16.7188C23.3406 16.7188 23.3212 16.7947 23.3102 16.8885C23.2936 17.0072 23.3778 16.9796 23.4399 16.9879C23.502 16.9962 23.6083 17.0058 23.6069 17.108C23.6055 17.2101 23.5117 17.228 23.4358 17.2211C23.3143 17.2101 23.3061 17.2694 23.3088 17.3591C23.3088 17.5869 23.3088 17.8146 23.3088 18.0409C23.3088 18.1927 23.2343 18.2769 23.1197 18.2714C23.0052 18.2659 22.9445 18.1858 22.9417 18.0409V17.6862L22.9458 17.6918Z" fill="#211B18"/>
<path d="M28.8679 17.6862C28.8679 17.5634 28.8679 17.4406 28.8679 17.3177C28.8679 17.2487 28.85 17.217 28.7768 17.2239C28.7498 17.2262 28.7225 17.2229 28.6968 17.2142C28.643 17.1963 28.5947 17.1673 28.5961 17.1011C28.5952 17.0871 28.5974 17.0732 28.6024 17.0602C28.6074 17.0471 28.6151 17.0353 28.6251 17.0255C28.635 17.0157 28.6469 17.0082 28.66 17.0033C28.6731 16.9985 28.687 16.9965 28.7009 16.9976C28.8638 17.0086 28.8735 16.9147 28.8748 16.7892C28.8708 16.7194 28.8933 16.6507 28.9379 16.597C28.9824 16.5432 29.0457 16.5083 29.115 16.4993C29.2567 16.4627 29.4053 16.4627 29.547 16.4993C29.6132 16.5173 29.6698 16.5545 29.6574 16.6373C29.6449 16.7201 29.587 16.7367 29.5194 16.7312C29.4832 16.7269 29.4468 16.7246 29.4103 16.7243C29.3819 16.721 29.3532 16.7252 29.3269 16.7365C29.3007 16.7479 29.2779 16.7659 29.2608 16.7888C29.2437 16.8118 29.233 16.8388 29.2297 16.8672C29.2264 16.8956 29.2306 16.9244 29.2419 16.9506C29.2516 16.9824 29.2723 16.9893 29.3027 16.9907C29.3434 16.9908 29.3841 16.9945 29.4241 17.0017C29.4862 17.0141 29.5387 17.0431 29.5359 17.1176C29.5362 17.1316 29.5335 17.1456 29.528 17.1585C29.5225 17.1714 29.5143 17.1829 29.504 17.1925C29.4937 17.202 29.4815 17.2092 29.4682 17.2137C29.4549 17.2181 29.4409 17.2197 29.4269 17.2184C29.2088 17.1935 29.2351 17.3343 29.2392 17.4723C29.2392 17.6669 29.2392 17.8629 29.2392 18.0589C29.2392 18.1969 29.1688 18.2811 29.0543 18.2824C28.9397 18.2838 28.8776 18.2038 28.8721 18.0602V17.6918L28.8679 17.6862Z" fill="#211B18"/>
<path d="M10.8781 17.6048C10.8781 17.5372 10.8781 17.4668 10.8781 17.4005C10.8781 17.3067 10.8974 17.2101 10.7511 17.2059C10.7385 17.2042 10.7264 17.1998 10.7155 17.1931C10.7047 17.1864 10.6953 17.1775 10.688 17.167C10.6808 17.1565 10.6758 17.1446 10.6733 17.132C10.6709 17.1195 10.6711 17.1066 10.6739 17.0942C10.6755 17.0687 10.6863 17.0447 10.7044 17.0267C10.7224 17.0086 10.7464 16.9978 10.7719 16.9962C10.8754 16.9962 10.885 16.9368 10.8781 16.8582C10.874 16.8035 10.874 16.7486 10.8781 16.6939C10.8775 16.671 10.8817 16.6482 10.8903 16.6269C10.899 16.6057 10.912 16.5865 10.9285 16.5705C10.9449 16.5546 10.9646 16.5422 10.9861 16.5342C11.0076 16.5262 11.0305 16.5228 11.0534 16.5242C11.0763 16.5223 11.0993 16.5249 11.1211 16.532C11.1429 16.539 11.1631 16.5503 11.1806 16.5652C11.198 16.58 11.2123 16.5982 11.2227 16.6187C11.2331 16.6391 11.2394 16.6614 11.2411 16.6843C11.2438 16.7113 11.2438 16.7386 11.2411 16.7657C11.2301 16.9037 11.2259 17.0196 11.4219 16.9975C11.4359 16.9972 11.4498 16.9996 11.4629 17.0047C11.4759 17.0098 11.4878 17.0175 11.4978 17.0273C11.5079 17.037 11.5159 17.0487 11.5213 17.0616C11.5267 17.0746 11.5295 17.0884 11.5295 17.1024C11.5306 17.1174 11.5284 17.1325 11.5231 17.1466C11.5177 17.1607 11.5093 17.1734 11.4986 17.1839C11.4878 17.1944 11.4749 17.2024 11.4607 17.2074C11.4465 17.2124 11.4314 17.2143 11.4164 17.2128C11.2176 17.1963 11.2342 17.3205 11.2397 17.4516C11.2452 17.5827 11.2397 17.7414 11.2397 17.8877C11.2397 18.0009 11.2977 18.0409 11.4053 18.0257C11.513 18.0105 11.6179 17.9719 11.6372 18.1085C11.6565 18.2452 11.5254 18.2465 11.4384 18.2659C11.3536 18.2831 11.2665 18.2873 11.1804 18.2783C11.1402 18.28 11.1001 18.2735 11.0626 18.2591C11.025 18.2448 10.9908 18.2229 10.9619 18.1949C10.9331 18.1668 10.9103 18.1332 10.895 18.0961C10.8796 18.0589 10.872 18.019 10.8726 17.9788C10.8712 17.9604 10.8712 17.942 10.8726 17.9236V17.6103L10.8781 17.6048Z" fill="#211B18"/>
<path d="M17.2253 18.2769C16.912 18.2769 16.796 18.1693 16.7919 17.8753C16.7919 17.6987 16.7919 17.5206 16.7919 17.344C16.7919 17.275 16.7919 17.2211 16.6994 17.217C16.6842 17.2174 16.6691 17.2147 16.655 17.2089C16.6409 17.2032 16.6282 17.1946 16.6175 17.1838C16.6069 17.1729 16.5986 17.1599 16.5933 17.1457C16.5879 17.1314 16.5855 17.1163 16.5863 17.1011C16.588 17.0708 16.6016 17.0424 16.624 17.0221C16.6465 17.0017 16.676 16.9909 16.7063 16.992C16.7809 16.992 16.7947 16.9506 16.7919 16.8858C16.7857 16.8178 16.7857 16.7495 16.7919 16.6815C16.7928 16.6596 16.798 16.638 16.8072 16.6181C16.8164 16.5982 16.8295 16.5803 16.8457 16.5654C16.8618 16.5505 16.8807 16.539 16.9013 16.5314C16.922 16.5239 16.9439 16.5205 16.9658 16.5214C16.9885 16.5185 17.0116 16.5204 17.0336 16.5269C17.0556 16.5334 17.076 16.5444 17.0935 16.5592C17.111 16.574 17.1253 16.5922 17.1353 16.6128C17.1454 16.6334 17.1511 16.6558 17.1521 16.6787C17.1548 16.7058 17.1548 16.7331 17.1521 16.7602C17.1438 16.8913 17.1328 17.0183 17.3329 16.9948C17.348 16.9937 17.3632 16.9959 17.3774 17.0014C17.3916 17.0068 17.4044 17.0153 17.415 17.0262C17.4255 17.0371 17.4335 17.0502 17.4384 17.0646C17.4433 17.079 17.445 17.0943 17.4433 17.1093C17.4434 17.1233 17.4405 17.1371 17.4349 17.1499C17.4294 17.1627 17.4212 17.1742 17.4109 17.1837C17.4007 17.1932 17.3886 17.2004 17.3754 17.2049C17.3622 17.2095 17.3482 17.2112 17.3343 17.2101C17.1287 17.1935 17.148 17.326 17.1521 17.4585C17.1562 17.591 17.1521 17.7345 17.1521 17.8726C17.1521 18.0106 17.199 18.0409 17.3315 18.023C17.3591 18.023 17.3853 18.012 17.4129 18.0106C17.4778 18.0106 17.5344 18.023 17.551 18.0934C17.5675 18.1638 17.5289 18.2038 17.4682 18.2314C17.3911 18.2628 17.3085 18.2783 17.2253 18.2769Z" fill="#211B18"/>
<path d="M21.8418 8.38699C21.3068 8.48561 20.7592 8.49401 20.2215 8.41183C20.2358 8.39375 20.2566 8.38188 20.2795 8.37871C20.3254 8.37575 20.3715 8.37575 20.4175 8.37871H20.4616C20.5212 8.37546 20.581 8.37916 20.6397 8.38975C20.8197 8.41389 21.0021 8.41389 21.1821 8.38975C21.232 8.3853 21.2797 8.36689 21.3198 8.33663C21.3598 8.30638 21.3905 8.26548 21.4084 8.21862C21.4875 8.03977 21.553 7.85524 21.6044 7.66657C21.6389 7.54788 21.6554 7.53684 21.7521 7.52856C21.7107 7.52856 21.6651 7.54926 21.614 7.5465C21.563 7.54374 21.5078 7.55892 21.5174 7.47887C21.5285 7.47059 21.5409 7.45955 21.5533 7.46093C21.8321 7.45388 22.1095 7.41921 22.3814 7.35742C22.4462 7.37536 22.4518 7.42643 22.4366 7.47611C22.3662 7.69279 22.3207 7.91499 22.2558 8.13305C22.2359 8.20538 22.192 8.26879 22.1313 8.31292C22.0706 8.35705 21.9968 8.37927 21.9218 8.37595C21.8901 8.37043 21.8611 8.35801 21.8418 8.38699Z" fill="#0058AF"/>
<path d="M27.688 17.3799C27.688 17.6021 27.688 17.8243 27.688 18.0465C27.688 18.1955 27.6148 18.2797 27.4975 18.2769C27.3802 18.2742 27.3181 18.1927 27.3167 18.052C27.3167 17.6021 27.3167 17.1526 27.3167 16.7036C27.3167 16.549 27.3857 16.4717 27.5072 16.4745C27.6286 16.4773 27.6866 16.5532 27.688 16.7119C27.6894 16.9341 27.688 17.1563 27.688 17.3799Z" fill="#211B18"/>
<path d="M21.3532 17.1369C21.5423 16.9479 21.7162 16.9106 21.9053 17.0141C21.9715 17.05 22.0322 17.0983 21.9963 17.1866C21.9903 17.2039 21.9809 17.2199 21.9687 17.2335C21.9564 17.2472 21.9416 17.2582 21.925 17.2661C21.9084 17.2739 21.8904 17.2784 21.8721 17.2792C21.8538 17.28 21.8355 17.2771 21.8183 17.2708C21.5299 17.1673 21.3836 17.2708 21.3767 17.6531C21.3767 17.7911 21.3767 17.9291 21.3767 18.0671C21.3767 18.2052 21.2952 18.288 21.1835 18.2824C21.0717 18.2769 21.0082 18.1996 21.0082 18.0658C21.0082 17.7704 21.0082 17.4751 21.0082 17.1797C21.0082 17.0776 21.0344 16.9865 21.1558 16.9686C21.2773 16.9506 21.3311 17.0114 21.3532 17.1369Z" fill="#211B18"/>
<path d="M25.7875 17.1494C25.8369 17.0622 25.9184 16.9979 26.0147 16.9703C26.111 16.9427 26.2142 16.954 26.3023 17.0017C26.3823 17.0334 26.4569 17.0817 26.4196 17.1852C26.3823 17.2887 26.3051 17.2887 26.2167 17.268C26.1818 17.2581 26.1463 17.2503 26.1105 17.2446C26.0782 17.236 26.0445 17.2346 26.0116 17.2405C25.9788 17.2465 25.9476 17.2596 25.9205 17.279C25.8933 17.2984 25.8708 17.3235 25.8544 17.3527C25.8381 17.3818 25.8285 17.4142 25.8261 17.4475C25.7963 17.6586 25.7857 17.872 25.7944 18.0851C25.7955 18.1269 25.7825 18.1679 25.7575 18.2015C25.7324 18.235 25.6968 18.2592 25.6564 18.27C25.6237 18.2803 25.5887 18.2806 25.5558 18.271C25.5229 18.2615 25.4936 18.2424 25.4715 18.2162C25.4524 18.1934 25.4384 18.1669 25.4304 18.1384C25.4223 18.1098 25.4203 18.0799 25.4245 18.0506C25.4245 17.7745 25.4245 17.4889 25.4245 17.2073C25.4245 17.1024 25.4245 16.9893 25.5626 16.9644C25.7006 16.9396 25.7613 17.0113 25.7875 17.1494Z" fill="#211B18"/>
<path d="M21.8418 8.38699C21.8418 8.38699 21.8528 8.36628 21.8584 8.36628C22.1427 8.35938 22.2241 8.16065 22.2724 7.93155C22.3057 7.77211 22.3491 7.61493 22.4021 7.46093C22.4145 7.42228 22.4242 7.39054 22.3828 7.36708C22.3841 7.35341 22.3892 7.34037 22.3975 7.32941C22.4058 7.31845 22.4169 7.30999 22.4297 7.30497C22.5941 7.21787 22.7433 7.1046 22.8714 6.9696C22.8948 6.94476 22.9224 6.91578 22.9652 6.93372C23.0342 7.05241 22.9652 7.16282 22.939 7.27185C22.8948 7.51613 22.8258 7.75351 22.7637 7.99365C22.7562 8.04648 22.7309 8.09516 22.6919 8.13166C22.6119 8.22137 22.478 8.19377 22.3911 8.26968C22.2139 8.33243 22.0292 8.37186 21.8418 8.38699Z" fill="#005CB2"/>
<path d="M28.4318 17.6158C28.4318 17.7663 28.4318 17.9167 28.4318 18.0671C28.4318 18.1941 28.3559 18.2797 28.2483 18.2755C28.223 18.2767 28.1977 18.2723 28.1742 18.2628C28.1507 18.2532 28.1296 18.2387 28.1123 18.2202C28.095 18.2017 28.0819 18.1797 28.0739 18.1556C28.0659 18.1316 28.0633 18.1061 28.0661 18.0809C28.0661 17.7718 28.0661 17.4612 28.0661 17.1521C28.0661 17.0376 28.1213 16.9603 28.2483 16.9603C28.3752 16.9603 28.4304 17.032 28.4318 17.1659C28.4332 17.2998 28.4318 17.4654 28.4318 17.6158Z" fill="#211B18"/>
<path d="M28.2566 16.8098C28.1489 16.7988 28.0647 16.7643 28.0675 16.6498C28.0703 16.5352 28.1489 16.4938 28.2497 16.4938C28.3504 16.4938 28.4291 16.5366 28.4291 16.6498C28.4291 16.7629 28.3422 16.7947 28.2566 16.8098Z" fill="#26201D"/>
<path d="M26.3244 10.6186H26.4155C26.1237 10.6687 25.8283 10.6955 25.5322 10.6987C25.6277 10.6638 25.7287 10.6465 25.8303 10.6476C25.9932 10.6283 26.1616 10.6283 26.3244 10.6186Z" fill="#0074C7"/>
<path d="M25.7199 7.80045C25.5937 7.97454 25.4382 8.12537 25.2603 8.24623C25.401 8.08528 25.5547 7.93618 25.7199 7.80045Z" fill="#006CC0"/>
<path d="M25.4867 0.756304C25.3335 0.772865 25.1927 0.688677 25.0395 0.703858C24.9995 0.645893 24.9153 0.703858 24.8766 0.647273C25.0849 0.64613 25.2917 0.683082 25.4867 0.756304Z" fill="#0070C3"/>
<path d="M27.3112 5.98418C27.3457 5.91793 27.423 5.93036 27.474 5.89585C27.4989 5.89585 27.5375 5.88619 27.543 5.92069C27.5486 5.9552 27.5071 5.98694 27.4685 6.00212C27.4823 5.95934 27.4685 5.9345 27.4216 5.95106L27.3112 5.98418Z" fill="#0076C8"/>
<path d="M9.07291 13.9599C9.07291 13.9889 9.0591 14.0179 9.02874 14.0179C8.99838 14.0179 9.00804 13.982 9.0108 13.9627C9.0108 13.9047 9.02737 13.8467 9.03703 13.7888C9.06739 13.8371 9.00943 13.913 9.07291 13.9599Z" fill="#9F9C9A"/>
<path d="M27.4699 6.00075C27.4616 6.08908 27.3968 6.1291 27.3319 6.16636C27.3669 6.10282 27.4137 6.0466 27.4699 6.00075Z" fill="#0076C8"/>
<path d="M20.2822 8.40354L20.2215 8.41182C20.1577 8.41508 20.0939 8.4057 20.0338 8.38422C20.0677 8.3623 20.1067 8.34929 20.1469 8.3464C20.1872 8.3435 20.2276 8.35081 20.2643 8.36766C20.271 8.37066 20.2764 8.37587 20.2797 8.38241C20.2829 8.38894 20.2838 8.39641 20.2822 8.40354Z" fill="#0056AD"/>
<path d="M26.7646 6.20363C26.7881 6.12496 26.8516 6.1429 26.9026 6.14428C26.8624 6.17541 26.8149 6.19583 26.7646 6.20363Z" fill="#0071C5"/>
<path d="M23.6373 0.725921H23.6994C23.6483 0.771465 23.5876 0.743862 23.531 0.749383C23.5458 0.737662 23.563 0.729459 23.5815 0.725394C23.5999 0.721329 23.619 0.721509 23.6373 0.725921Z" fill="#0069BD"/>
<path d="M39.2078 11.7393C38.6696 11.6689 38.1244 11.6689 37.5862 11.7393C36.9292 11.8331 36.3979 12.1271 36.0542 12.7137C36.0115 12.7854 36.0101 12.8144 36.1012 12.8241C36.4641 12.8586 36.8257 12.8945 37.1887 12.9359C37.2254 12.9435 37.2636 12.9399 37.2983 12.9257C37.333 12.9114 37.3626 12.8871 37.3833 12.8558C37.6593 12.508 38.0306 12.4887 38.4239 12.5439C38.4471 12.5449 38.4699 12.5506 38.4907 12.5609C38.5116 12.5711 38.5301 12.5856 38.545 12.6034C38.56 12.6212 38.571 12.6419 38.5775 12.6642C38.584 12.6865 38.5857 12.71 38.5826 12.733C38.5716 12.8365 38.595 12.9566 38.4446 13.009C38.1226 13.1066 37.7955 13.1863 37.4647 13.2478C37.1114 13.3168 36.7553 13.3665 36.4089 13.4686C35.8472 13.6342 35.4429 13.9696 35.2897 14.552C35.2621 14.6369 35.252 14.7266 35.2598 14.8155C35.2677 14.9045 35.2934 14.991 35.3354 15.0698C35.3774 15.1486 35.4348 15.2182 35.5042 15.2743C35.5737 15.3305 35.6537 15.3721 35.7396 15.3966C36.2485 15.536 36.7888 15.5069 37.2798 15.3138C37.5058 15.2237 37.7203 15.1069 37.9188 14.966C37.8971 15.0797 37.8929 15.1961 37.9064 15.311C37.9215 15.3745 37.9422 15.4008 38.0126 15.3994C38.4004 15.3994 38.7869 15.3994 39.1747 15.3994C39.234 15.3994 39.2699 15.3994 39.2547 15.3166C39.2259 15.1359 39.2449 14.9507 39.3099 14.7797C39.5289 14.1356 39.7488 13.4957 39.9696 12.86C39.9713 12.851 39.9765 12.8431 39.984 12.8379C39.9915 12.8327 40.0007 12.8307 40.0097 12.8324V12.6943C39.9661 12.5801 39.9661 12.4539 40.0097 12.3396V12.2844C39.8537 11.9367 39.568 11.7835 39.2078 11.7393ZM37.2342 14.6997C37.1495 14.7169 37.0622 14.7169 36.9775 14.6997C36.9326 14.6956 36.8896 14.6796 36.8529 14.6534C36.8162 14.6271 36.7871 14.5916 36.7687 14.5504C36.7503 14.5092 36.7432 14.4639 36.7481 14.419C36.7531 14.3742 36.7698 14.3315 36.7968 14.2953C36.8607 14.1712 36.9662 14.0735 37.0948 14.0193C37.4675 13.8605 37.8732 13.8136 38.2735 13.677C38.1368 14.2663 37.8015 14.6044 37.2342 14.6997Z" fill="#201A17"/>
<path d="M14.788 17.1107C14.7893 17.0925 14.787 17.0741 14.7811 17.0568C14.7753 17.0395 14.7661 17.0235 14.754 17.0097C14.7419 16.996 14.7273 16.9848 14.7108 16.9768C14.6944 16.9687 14.6765 16.9641 14.6583 16.963C14.6177 16.9538 14.5752 16.9602 14.5391 16.9809C14.5031 17.0016 14.4761 17.0352 14.4637 17.0748C14.4637 17.0969 14.4637 17.13 14.4361 17.1424C14.1173 16.9064 13.757 16.9051 13.5335 17.1424C13.4347 17.2651 13.3775 17.4161 13.3703 17.5734C13.3631 17.7307 13.4063 17.8863 13.4934 18.0174C13.7073 18.2935 14.0151 18.3183 14.4222 18.0851C14.4692 18.4756 14.2981 18.5584 13.9544 18.5239C13.8648 18.5066 13.7845 18.4576 13.7281 18.3859C13.7121 18.3654 13.6921 18.3483 13.6693 18.3358C13.6465 18.3233 13.6214 18.3157 13.5955 18.3133C13.5695 18.311 13.5434 18.314 13.5188 18.3222C13.4941 18.3305 13.4714 18.3437 13.452 18.3611C13.3913 18.4315 13.4217 18.5281 13.5279 18.615C13.589 18.6621 13.6589 18.6964 13.7336 18.7158C13.7681 18.7268 13.8219 18.7158 13.8288 18.7724H13.8564C14.0013 18.7351 14.1504 18.7724 14.2967 18.7475C14.5396 18.713 14.7452 18.6095 14.7769 18.3459C14.81 17.935 14.8137 17.5222 14.788 17.1107ZM14.0772 18.0036C13.8716 18.0036 13.7405 17.8449 13.7391 17.6062C13.7377 17.3674 13.8771 17.2045 14.0841 17.2032C14.2911 17.2018 14.4374 17.3591 14.4388 17.6172C14.4422 17.6667 14.4354 17.7164 14.4188 17.7632C14.4021 17.81 14.376 17.8528 14.3421 17.8891C14.3082 17.9254 14.2672 17.9542 14.2216 17.9739C14.176 17.9936 14.1269 18.0038 14.0772 18.0036Z" fill="#201A17"/>
<path d="M22.6878 8.1358C22.7554 7.85978 22.8258 7.59617 22.8838 7.32429C22.91 7.19594 22.9804 7.07173 22.9362 6.93371C22.9224 6.81088 23.0163 6.72394 23.0453 6.61353C23.075 6.51215 23.075 6.40438 23.0453 6.303C22.979 6.13821 22.8962 5.98053 22.7982 5.83238C22.743 5.55636 22.7472 5.26377 22.7168 4.98085C22.6472 4.41304 22.5177 3.85419 22.3303 3.31366C22.1645 2.83134 21.9466 2.36856 21.6803 1.93354C21.6385 1.87408 21.5924 1.8178 21.5423 1.76517C21.6773 1.6418 21.8244 1.53223 21.9812 1.43808C22.1192 1.4919 22.1468 1.62578 22.2048 1.73066C22.4233 2.10778 22.6152 2.49978 22.7789 2.90377C22.8783 3.15909 22.9555 3.42407 23.0328 3.68768C23.1353 4.08522 23.2114 4.48909 23.2606 4.89666C23.2983 5.27125 23.3098 5.64802 23.2951 6.02422C23.2894 6.48795 23.2395 6.95009 23.146 7.40434C23.1165 7.58176 23.075 7.75698 23.0218 7.92878C23.0035 7.99965 22.9585 8.06072 22.8963 8.09928C22.8341 8.13784 22.7594 8.15092 22.6878 8.1358Z" fill="#005DB3"/>
<path d="M23.2633 7.94534C23.3102 7.71072 23.3613 7.4761 23.4013 7.24148C23.4817 6.84228 23.5183 6.43549 23.5103 6.02835C23.5007 5.77855 23.5103 5.52875 23.5103 5.27895C23.5071 5.0443 23.4816 4.81048 23.4344 4.58061C23.3751 4.29354 23.3406 4.00234 23.2674 3.71665C23.056 2.89196 22.714 2.1064 22.2544 1.38977C22.2467 1.37328 22.2347 1.35919 22.2196 1.34898C22.2046 1.33878 22.187 1.33284 22.1688 1.33181C22.2663 1.24878 22.378 1.18423 22.4987 1.14135C22.5539 1.13169 22.5787 1.17033 22.6077 1.20622C22.7272 1.37644 22.832 1.5565 22.921 1.74447C23.0687 2.01929 23.2018 2.30168 23.3199 2.59048C23.4782 2.98902 23.6087 3.39806 23.7104 3.81464C23.7454 4.05511 23.7942 4.29335 23.8567 4.52817C23.8814 4.64798 23.892 4.77025 23.8885 4.89252C23.9299 5.38178 23.9396 5.87321 23.9174 6.36372C23.917 6.58963 23.8962 6.81504 23.8553 7.03722C23.8294 7.25637 23.7888 7.47353 23.7339 7.68726C23.7289 7.71134 23.7181 7.73384 23.7025 7.75284C23.6868 7.77183 23.6668 7.78674 23.6442 7.79629C23.5213 7.85574 23.3939 7.90558 23.2633 7.94534Z" fill="#0060B5"/>
<path d="M21.5382 1.76932C21.563 1.76692 21.588 1.77243 21.6096 1.78507C21.6312 1.7977 21.6482 1.81683 21.6582 1.83971C21.837 2.12384 21.9969 2.41935 22.1371 2.72436C22.304 3.09978 22.4393 3.48848 22.5415 3.88642C22.6391 4.24331 22.7078 4.60745 22.7471 4.97533C22.7789 5.26792 22.7899 5.5605 22.8203 5.85171C22.7789 5.85055 22.7394 5.83379 22.7099 5.80479C22.5492 5.67695 22.3642 5.58304 22.1661 5.52876C22.1302 5.51772 22.0819 5.51358 22.0792 5.45837C22.0908 5.30922 22.0815 5.15918 22.0516 5.0126C22.001 4.62121 21.9212 4.23415 21.8128 3.85468C21.712 3.54352 21.5922 3.23885 21.454 2.94242C21.3458 2.68837 21.2185 2.44292 21.0731 2.2082C21.2079 2.04189 21.3643 1.8943 21.5382 1.76932Z" fill="#005AB0"/>
<path d="M21.0731 2.20682C21.188 2.30234 21.2741 2.42804 21.3215 2.56979C21.4719 2.89412 21.6306 3.21569 21.7493 3.55381C21.8872 3.93546 21.9848 4.33048 22.0405 4.73243C22.0681 4.95325 22.0916 5.17821 22.1413 5.39627C22.1578 5.47218 22.1123 5.45424 22.0778 5.46252C22.0657 5.46803 22.0525 5.47086 22.0391 5.4708C21.9933 5.46623 21.947 5.46623 21.9011 5.4708C21.821 5.47586 21.7405 5.47262 21.661 5.46114C21.6438 5.4557 21.6263 5.45155 21.6086 5.44872C21.3988 5.44872 21.3753 5.46942 21.3477 5.18097C21.274 4.41465 21.0463 3.67109 20.6784 2.99487C20.6439 2.93 20.5969 2.8748 20.5624 2.81131C20.7085 2.59063 20.8799 2.38776 21.0731 2.20682Z" fill="#0056AD"/>
<path d="M19.675 4.59027C19.7205 4.58061 19.7164 4.52679 19.7564 4.50056C20.0806 5.62043 19.9763 6.82088 19.4638 7.86806C19.4231 7.67053 19.4023 7.4694 19.4017 7.2677C19.5906 6.5855 19.6491 5.87381 19.5742 5.16992C19.5645 5.27832 19.5465 5.38582 19.5204 5.49149C19.5135 5.52737 19.5135 5.57844 19.4528 5.5743C19.4861 5.23839 19.5607 4.90788 19.675 4.59027Z" fill="#11439D"/>
<path d="M20.1705 3.43651C20.2159 3.31751 20.2802 3.2066 20.3609 3.10804C20.4258 3.01557 20.4824 3.04317 20.5169 3.12874C20.6383 3.41719 20.7736 3.69873 20.8716 3.99683C21.013 4.41868 21.1056 4.85535 21.1476 5.29829C21.1484 5.32988 21.1559 5.36094 21.1697 5.38938C21.1789 5.40242 21.1852 5.41731 21.1881 5.43301C21.191 5.44872 21.1905 5.46488 21.1866 5.48036C21.1826 5.49584 21.1754 5.51029 21.1653 5.5227C21.1552 5.5351 21.1426 5.54518 21.1283 5.55223C21.0534 5.62197 20.9545 5.66005 20.8523 5.6585C20.8089 5.62073 20.7755 5.57295 20.7548 5.51932C20.7341 5.46569 20.7268 5.40782 20.7336 5.35073C20.7228 5.11739 20.6863 4.88596 20.6245 4.66067C20.5585 4.2979 20.4491 3.94436 20.2988 3.60764C20.2681 3.54251 20.2244 3.48429 20.1705 3.43651Z" fill="#004EA7"/>
<path d="M21.102 5.53841C21.1179 5.51688 21.1284 5.49183 21.1324 5.46539C21.1365 5.43895 21.1341 5.41192 21.1255 5.3866C21.0827 5.1851 21.0648 4.97256 21.0316 4.77244C20.9322 4.24248 20.7623 3.7282 20.5265 3.24327C20.5115 3.21025 20.499 3.1761 20.4893 3.14114C20.4644 3.05695 20.4175 3.06385 20.3609 3.10802L20.5583 2.80853C20.7142 2.86236 20.7335 3.02245 20.7929 3.13976C21.0359 3.61115 21.2085 4.11567 21.3049 4.63719C21.3463 4.8494 21.3767 5.06361 21.396 5.27895C21.4043 5.39626 21.454 5.41696 21.5478 5.40454C21.5837 5.40454 21.6224 5.39626 21.6486 5.43076C21.4767 5.50697 21.29 5.54375 21.102 5.53841Z" fill="#0052AA"/>
<path d="M20.1704 3.43649C20.2367 3.40336 20.2629 3.45029 20.2822 3.49583C20.437 3.81699 20.5488 4.15712 20.6148 4.50746C20.6493 4.73242 20.7363 4.94772 20.7611 5.17682C20.7498 5.27885 20.7592 5.38212 20.7887 5.48044C20.8136 5.53151 20.8343 5.59361 20.8564 5.65158C20.7759 5.77026 20.6654 5.8655 20.5362 5.9276C20.4865 5.88206 20.503 5.81857 20.503 5.76475C20.4898 5.43592 20.4501 5.1087 20.3844 4.78624C20.3203 4.45046 20.2194 4.12277 20.0835 3.80912C20.0683 3.77323 20.0531 3.74011 20.0048 3.76495C20.0439 3.64807 20.0997 3.53743 20.1704 3.43649Z" fill="#024CA5"/>
<path d="M19.4583 5.56739L19.5784 5.0733C19.5917 5.0783 19.603 5.08744 19.6107 5.09937C19.6184 5.11129 19.6221 5.12538 19.6211 5.13955C19.6598 5.83651 19.6819 6.53209 19.4376 7.20973C19.4289 7.22974 19.4187 7.24911 19.4072 7.26769C19.399 7.22215 19.4252 7.16832 19.3769 7.12968C19.3425 6.90128 19.3365 6.6695 19.3589 6.43962C19.37 6.1636 19.4086 5.88757 19.4376 5.61983C19.4417 5.60138 19.4487 5.58369 19.4583 5.56739Z" fill="#13409B"/>
<path d="M18.4991 12.3824C18.4922 12.2868 18.4629 12.1941 18.4135 12.1118C18.3641 12.0296 18.2961 11.9601 18.2148 11.9091C18.1088 11.8374 17.9881 11.7903 17.8615 11.771C17.1607 11.6395 16.4401 11.6555 15.7458 11.818C15.4994 11.8786 15.268 11.989 15.0658 12.1423C14.8636 12.2956 14.6948 12.4886 14.5699 12.7095C14.5244 12.7854 14.5203 12.8172 14.6224 12.8268C14.9854 12.8613 15.347 12.8986 15.7099 12.9386C15.7444 12.9463 15.7804 12.9432 15.813 12.9296C15.8457 12.916 15.8733 12.8926 15.8921 12.8627C16.1516 12.5039 16.6194 12.4873 16.9451 12.5494C16.9675 12.5529 16.9889 12.5609 17.0081 12.5729C17.0273 12.5848 17.0439 12.6006 17.0568 12.6192C17.0697 12.6378 17.0787 12.6588 17.0832 12.681C17.0877 12.7031 17.0877 12.726 17.0831 12.7482C17.0721 12.8503 17.0928 12.9676 16.9451 13.009C16.7436 13.067 16.5435 13.1277 16.3393 13.1746C15.8645 13.2823 15.3732 13.3361 14.9095 13.4713C14.3574 13.6328 13.9516 13.964 13.7888 14.5382C13.7571 14.6254 13.7441 14.7184 13.7508 14.811C13.7575 14.9036 13.7836 14.9938 13.8275 15.0756C13.8714 15.1574 13.9321 15.229 14.0055 15.2857C14.079 15.3425 14.1636 15.3831 14.2539 15.4049C14.7673 15.5608 15.2724 15.4863 15.772 15.3193C16.0029 15.2285 16.222 15.1103 16.4248 14.9674C16.3955 15.08 16.389 15.1973 16.4055 15.3124C16.4166 15.3718 16.4359 15.4049 16.509 15.4049C16.8968 15.4049 17.2833 15.4049 17.6711 15.4049C17.7332 15.4049 17.7635 15.3925 17.7525 15.3207C17.73 15.0703 17.7709 14.8183 17.8712 14.5879C18.0575 14.0607 18.2397 13.5321 18.4232 13.0049C18.4922 12.8051 18.5181 12.5929 18.4991 12.3824ZM15.7279 14.7024C15.6738 14.7086 15.6191 14.7086 15.565 14.7024C15.2724 14.6776 15.1786 14.4692 15.3483 14.2249C15.4663 14.078 15.6326 13.9777 15.8176 13.942C16.1309 13.8523 16.4483 13.7736 16.7837 13.6853C16.7463 13.9483 16.6221 14.1912 16.4308 14.3755C16.2395 14.5598 15.9921 14.6749 15.7279 14.7024Z" fill="#201A17"/>
<path d="M30.6801 11.9146C30.5635 11.8343 30.4297 11.7823 30.2895 11.7628C29.603 11.6409 28.899 11.6583 28.2193 11.8138C27.9705 11.8739 27.7366 11.9843 27.5323 12.1384C27.3279 12.2925 27.1573 12.4869 27.031 12.7095C26.9869 12.7827 26.9827 12.8172 27.0849 12.8255C27.4437 12.8586 27.8016 12.8958 28.1586 12.9372C28.1977 12.9445 28.238 12.9403 28.2748 12.9251C28.3115 12.9099 28.3431 12.8844 28.3656 12.8517C28.4949 12.7105 28.6603 12.6074 28.844 12.5536C29.0277 12.4999 29.2226 12.4975 29.4076 12.5467C29.4536 12.5542 29.4948 12.5792 29.5226 12.6166C29.5504 12.6539 29.5626 12.7006 29.5567 12.7468C29.5429 12.8462 29.5567 12.9662 29.4186 13.0076C29.2171 13.0642 29.017 13.1263 28.8128 13.1732C28.3394 13.2809 27.8467 13.3347 27.3843 13.47C26.8627 13.619 26.4749 13.9185 26.2899 14.4361C26.1878 14.7273 26.1988 15.0033 26.4279 15.2338C26.5629 15.3587 26.7359 15.4345 26.9192 15.4491C27.5996 15.5544 28.294 15.3867 28.8514 14.9826C28.8611 14.966 28.879 14.9536 28.8914 14.9688C28.9033 14.9834 28.909 15.002 28.9075 15.0208C28.906 15.0396 28.8972 15.057 28.8832 15.0695C28.8716 15.1319 28.8684 15.1954 28.8735 15.2586C28.8735 15.369 28.9232 15.3966 29.0322 15.3966C29.3966 15.3966 29.7609 15.3966 30.1253 15.3966C30.2067 15.3966 30.244 15.3842 30.226 15.2917C30.2041 15.1702 30.2093 15.0453 30.2412 14.926C30.3502 14.5023 30.5172 14.0979 30.6552 13.6839C30.7629 13.3513 30.9216 13.0339 30.9658 12.6833C30.992 12.3893 30.9589 12.1078 30.6801 11.9146ZM29.1468 13.9848C29.0584 14.1979 28.9095 14.3805 28.7184 14.5097C28.5272 14.639 28.3024 14.7094 28.0716 14.7121C28.008 14.7109 27.9448 14.7006 27.884 14.6817C27.8273 14.6651 27.7796 14.6267 27.7512 14.575C27.7227 14.5233 27.7159 14.4624 27.7321 14.4057C27.7546 14.3173 27.7987 14.2359 27.8603 14.1687C27.922 14.1015 27.9993 14.0506 28.0854 14.0206C28.3019 13.9387 28.5243 13.8732 28.7507 13.8247L29.2558 13.6866C29.2116 13.804 29.1799 13.8937 29.1468 13.982V13.9848Z" fill="#201A17"/>
<path d="M26.7895 10.54C26.8094 10.433 26.8467 10.3299 26.8999 10.235C27.142 9.59577 27.3358 8.93928 27.4796 8.27105C27.7114 7.22354 27.6962 6.16499 27.6935 5.10368C27.679 4.73816 27.6445 4.37372 27.59 4.012C27.5078 3.33799 27.3561 2.67429 27.1373 2.03153C27.1193 1.97633 27.1138 1.93492 27.1732 1.90732C27.267 1.94044 27.209 2.02601 27.2297 2.08535C27.3404 2.40177 27.4325 2.72434 27.5058 3.05144C27.5982 3.46547 27.6438 3.89193 27.7031 4.31425C27.7792 5.00521 27.8036 5.70088 27.7763 6.39547C27.7651 6.82021 27.7236 7.2436 27.6521 7.66242C27.6286 7.80043 27.6369 7.95363 27.6038 8.09302C27.5209 8.44219 27.4533 8.7955 27.3498 9.14053C27.2309 9.56338 27.0852 9.97826 26.9137 10.3826C26.904 10.4033 26.882 10.4309 26.8889 10.4447C26.933 10.5621 26.8516 10.5427 26.7895 10.54Z" fill="#0074C7"/>
<path d="M20.5362 5.92624C20.635 5.82545 20.7421 5.73312 20.8564 5.65022L21.102 5.53705C21.2815 5.48082 21.4666 5.44472 21.6541 5.4294H21.9149C21.9618 5.45562 22.0198 5.4225 22.0653 5.457C22.0653 5.4639 22.0764 5.46528 22.0833 5.457C22.359 5.52381 22.614 5.65748 22.8258 5.84619C22.9354 5.97059 23.0173 6.11691 23.0659 6.27541C23.1001 6.39029 23.1035 6.51215 23.0756 6.62872L22.9376 6.92821C22.7852 7.10899 22.5973 7.2565 22.3855 7.36157C22.1069 7.45612 21.8124 7.49458 21.5188 7.47473C21.4167 7.5258 21.3242 7.46784 21.2276 7.44851C21.131 7.42919 21.0013 7.36019 20.8867 7.31878C20.6795 7.21176 20.5174 7.03403 20.4299 6.8178C20.3651 6.67352 20.3408 6.51434 20.3595 6.3573C20.3782 6.20025 20.4393 6.05125 20.5362 5.92624Z" fill="#FDFCFD"/>
<path d="M20.423 6.8233C20.5381 7.01307 20.696 7.17329 20.884 7.29117C20.913 7.30635 20.9254 7.33119 20.9033 7.35741C20.7515 7.54235 20.7418 7.78663 20.6383 7.99226C20.5693 8.13028 20.5238 8.26829 20.4451 8.4063H20.4175C20.3761 8.37594 20.3223 8.4132 20.2795 8.38008H20.0352C20.0145 8.3718 19.9938 8.35524 19.9745 8.35524C19.8682 8.35524 19.8751 8.30555 19.9165 8.23517C20.058 7.97673 20.1757 7.70605 20.2685 7.42642C20.3411 7.23139 20.3929 7.02923 20.423 6.8233Z" fill="#014DA6"/>
<path d="M20.441 17.867C20.3809 17.9163 20.3182 17.9623 20.2533 18.005C20.2061 18.0329 20.1537 18.0505 20.0992 18.0566C20.0448 18.0628 19.9897 18.0573 19.9376 18.0406C19.8855 18.0239 19.8374 17.9964 19.7967 17.9598C19.7559 17.9232 19.7234 17.8784 19.7012 17.8284C19.6695 17.747 19.6667 17.6904 19.7854 17.7C19.9041 17.7097 19.9952 17.7 20.0987 17.7C20.227 17.7 20.354 17.7083 20.481 17.7C20.6687 17.6848 20.7294 17.5979 20.6894 17.4143C20.6743 17.3405 20.6431 17.271 20.598 17.2106C20.5529 17.1503 20.495 17.1006 20.4285 17.0652C20.3104 17.0001 20.1785 16.9639 20.0437 16.9596C19.9089 16.9553 19.775 16.983 19.6529 17.0403C19.5774 17.0728 19.51 17.1218 19.4558 17.1836C19.4016 17.2455 19.3619 17.3186 19.3396 17.3978C19.2016 17.8436 19.4514 18.2258 19.9358 18.2769C20.0598 18.3003 20.1876 18.2928 20.308 18.255C20.4284 18.2172 20.5376 18.1503 20.6259 18.0602C20.6756 18.0078 20.7046 17.9346 20.6494 17.8767C20.6371 17.8611 20.6217 17.8484 20.6041 17.8394C20.5865 17.8303 20.5671 17.8252 20.5474 17.8243C20.5276 17.8233 20.5079 17.8267 20.4895 17.8341C20.4712 17.8414 20.4546 17.8527 20.441 17.867ZM19.6819 17.4419C19.6977 17.368 19.739 17.3019 19.7985 17.2553C19.858 17.2086 19.932 17.1843 20.0076 17.1866C20.0806 17.1819 20.1529 17.204 20.2108 17.2487C20.2687 17.2934 20.3083 17.3577 20.3223 17.4295C20.3361 17.4889 20.3223 17.5137 20.2616 17.5123C20.1746 17.5123 20.089 17.5123 20.0035 17.5123C19.9179 17.5123 19.831 17.5123 19.7454 17.5123C19.6916 17.5137 19.675 17.4972 19.6819 17.4419Z" fill="#201A17"/>
<path d="M16.1598 17.8795C16.1043 17.9266 16.0447 17.9686 15.9818 18.0051C15.9336 18.0345 15.8794 18.0528 15.8231 18.0584C15.7669 18.064 15.7102 18.0568 15.6571 18.0375C15.6041 18.0181 15.5561 17.987 15.5167 17.9465C15.4773 17.906 15.4476 17.8571 15.4297 17.8036C15.4118 17.7318 15.4173 17.6931 15.507 17.6973C15.5967 17.7014 15.7264 17.6973 15.8355 17.6973H16.1902C16.4055 17.6793 16.4786 17.5676 16.4096 17.3647C16.3637 17.2423 16.2805 17.1374 16.1718 17.0649C16.0631 16.9923 15.9343 16.9557 15.8037 16.9603C15.4656 16.9465 15.2048 17.0776 15.1026 17.3095C15.0988 17.3175 15.0956 17.3258 15.093 17.3343C14.9425 17.689 15.0736 18.1762 15.5801 18.2562C15.8644 18.3018 16.1322 18.2769 16.3406 18.0685C16.393 18.0175 16.4538 17.9416 16.3737 17.867C16.3435 17.8407 16.3042 17.8273 16.2642 17.8296C16.2242 17.8319 16.1868 17.8498 16.1598 17.8795ZM15.4269 17.4295C15.4409 17.3598 15.479 17.2972 15.5345 17.2528C15.5901 17.2084 15.6595 17.1849 15.7306 17.1866C15.8014 17.1797 15.8724 17.1979 15.9312 17.238C15.9899 17.2781 16.0328 17.3376 16.0521 17.4061C16.0728 17.4765 16.0715 17.5192 15.9776 17.5123C15.8838 17.5054 15.8244 17.5123 15.7471 17.5123C15.6699 17.5123 15.5746 17.5123 15.4877 17.5123C15.4242 17.5137 15.4131 17.4903 15.4269 17.4254V17.4295Z" fill="#201A17"/>
<path d="M30.7311 17.8905C30.6828 17.9321 30.6311 17.9695 30.5765 18.0023C30.3488 18.1334 30.0438 18.0161 30.0093 17.787C29.9997 17.7249 30.0093 17.6945 30.0825 17.6973C30.1956 17.6973 30.3102 17.6973 30.4234 17.6973C30.542 17.6973 30.6607 17.7042 30.778 17.6973C30.9823 17.6835 31.0444 17.5965 30.9975 17.4006C30.9863 17.352 30.9677 17.3054 30.9423 17.2625C30.7146 16.872 30.0024 16.8485 29.7388 17.2225C29.5249 17.5206 29.5691 18.1431 30.1294 18.2507C30.261 18.2871 30.3993 18.292 30.5331 18.2649C30.6669 18.2378 30.7924 18.1795 30.8995 18.0948C30.9616 18.0437 31.0375 17.9568 30.9616 17.8753C30.8857 17.7939 30.8056 17.8284 30.7311 17.8905ZM30.0411 17.355C30.0737 17.2921 30.1266 17.2419 30.1911 17.2126C30.2557 17.1833 30.3283 17.1766 30.3971 17.1935C30.4582 17.2009 30.5153 17.2276 30.5601 17.2699C30.6048 17.3121 30.6348 17.3676 30.6456 17.4282C30.6552 17.4847 30.6456 17.5151 30.5807 17.5124C30.5158 17.5096 30.4096 17.5124 30.3226 17.5124H30.1322C29.9928 17.511 29.9762 17.482 30.0383 17.355H30.0411Z" fill="#201A17"/>
<path d="M12.3604 16.9589C12.2114 16.961 12.0667 17.0092 11.9463 17.0969C11.8498 17.1705 11.7768 17.2707 11.7363 17.3852C11.6959 17.4997 11.6897 17.6235 11.7186 17.7414C11.7345 17.8499 11.7808 17.9517 11.8521 18.0349C11.9234 18.1182 12.0169 18.1796 12.1216 18.2121C12.5356 18.3501 12.9635 18.2217 13.1029 17.8974C13.2823 17.4861 13.078 16.9686 12.3604 16.9589ZM12.4266 18.0299C12.2099 18.0299 12.0719 17.8712 12.0691 17.6158C12.0664 17.3605 12.2072 17.2018 12.4335 17.2018C12.6598 17.2018 12.7882 17.3591 12.7896 17.6158C12.7909 17.8725 12.6585 18.0299 12.4307 18.0299H12.4266Z" fill="#201A17"/>
<path d="M25.0575 17.297C24.9195 17.0458 24.6862 16.9644 24.4005 16.9603C24.2824 16.9509 24.1638 16.9722 24.0562 17.022C23.9486 17.0718 23.8557 17.1484 23.7864 17.2446C23.7373 17.317 23.7032 17.3986 23.686 17.4844C23.6689 17.5702 23.669 17.6586 23.6865 17.7443C23.704 17.8301 23.7385 17.9115 23.7878 17.9838C23.8372 18.056 23.9005 18.1177 23.9741 18.1651C24.3067 18.3777 24.8477 18.281 25.0368 17.9705C25.1022 17.8712 25.1387 17.7556 25.1424 17.6367C25.146 17.5178 25.1167 17.4002 25.0575 17.297ZM24.4295 18.0299C24.3853 18.035 24.3404 18.0312 24.2977 18.0187C24.2549 18.0062 24.2151 17.9852 24.1806 17.957C24.1461 17.9289 24.1176 17.894 24.0968 17.8546C24.0761 17.8152 24.0634 17.772 24.0596 17.7276C24.0182 17.4902 24.101 17.286 24.2639 17.228C24.5399 17.1259 24.7746 17.3108 24.7677 17.6283C24.7663 17.8656 24.6352 18.0216 24.4337 18.0299H24.4295Z" fill="#201A17"/>
<path d="M21.2124 7.42365L21.5119 7.48023C21.6044 7.54234 21.7134 7.48023 21.8211 7.52853C21.6623 7.49679 21.6485 7.61134 21.6251 7.70657C21.5791 7.87721 21.5205 8.0442 21.4498 8.20617C21.4346 8.26827 21.3993 8.32359 21.3494 8.36353C21.2994 8.40347 21.2377 8.42578 21.1738 8.42699C20.995 8.45004 20.8137 8.44398 20.6369 8.40905C20.7749 8.37869 20.8343 8.27104 20.8895 8.15787C20.9709 7.98397 21.0192 7.80042 21.0854 7.62238C21.1144 7.54924 21.1269 7.46229 21.2124 7.42365Z" fill="#0056AD"/>
<path d="M21.2124 7.42367C21.0675 7.69003 21.022 7.99503 20.8798 8.26554C20.8205 8.37733 20.7611 8.43253 20.6369 8.40355H20.4451C20.471 8.27061 20.5176 8.14256 20.5831 8.02402C20.6535 7.83356 20.7335 7.64448 20.7887 7.44989C20.808 7.38226 20.9074 7.37122 20.8812 7.28703L21.2124 7.42367Z" fill="#0052AA"/>
<path d="M20.2809 8.38145C20.3278 8.38835 20.3789 8.36489 20.4189 8.40767H20.2809C20.2809 8.40767 20.2809 8.38973 20.2809 8.38145Z" fill="#0052AA"/>
<path d="M23.0701 6.63422C23.0834 6.51658 23.0802 6.39765 23.0604 6.28091C23.088 6.33544 23.1032 6.3954 23.1049 6.45649C23.1065 6.51757 23.0946 6.57827 23.0701 6.63422Z" fill="#005EB4"/>
<path d="M22.0598 5.46113C22.008 5.46734 21.9556 5.45772 21.9094 5.43353C21.9604 5.43767 22.0212 5.41006 22.0598 5.46113Z" fill="#005AB0"/>
<path d="M21.7065 5.56739C22.0182 5.56139 22.3242 5.6515 22.5829 5.82547C23.0701 6.16912 23.0756 6.76947 22.5829 7.09518C22.3448 7.25905 22.0651 7.3519 21.7763 7.36289C21.4874 7.37389 21.2014 7.30258 20.9516 7.15729C20.6659 7.00823 20.4658 6.77223 20.4823 6.43134C20.4989 6.09045 20.7239 5.8793 21.0137 5.7261C21.2294 5.62086 21.4665 5.56656 21.7065 5.56739Z" fill="#EB0000"/>
</g>
<defs>
<clipPath id="clip0">
<rect width="40" height="18.7641" fill="white"/>
</clipPath>
</defs>
</svg>
