<svg width="40" height="20" viewBox="0 0 40 20" fill="none" xmlns="http://www.w3.org/2000/svg">
<mask id="mask0" mask-type="alpha" maskUnits="userSpaceOnUse" x="0" y="0" width="40" height="20">
<rect width="40" height="20" fill="#C4C4C4"/>
</mask>
<g mask="url(#mask0)">
<path d="M4.70837 19.8727C4.71527 19.8463 4.90536 18.8186 5.13084 17.5892L5.54077 15.3536H6.08236C6.3803 15.3536 6.62405 15.3608 6.62405 15.3702C6.62405 15.3795 6.55201 15.7747 6.46392 16.2482C6.37573 16.7216 6.30358 17.1169 6.30358 17.1265C6.30358 17.136 6.67218 17.1408 7.1226 17.1367L7.9414 17.1295L8.10419 16.2483L8.26687 15.3668L8.80686 15.3596C9.10395 15.3555 9.34695 15.3624 9.34695 15.3751C9.34695 15.3963 8.56321 19.6886 8.53027 19.8474L8.51508 19.9207H7.96946H7.42383L7.43797 19.8606C7.46538 19.7447 7.77182 18.0656 7.77182 18.032C7.77182 18.0049 7.60139 17.998 6.95822 17.998H6.14452L6.13102 18.058C6.10456 18.1766 5.79642 19.8675 5.79642 19.8938C5.79642 19.9112 5.59942 19.9208 5.24612 19.9208C4.73025 19.9206 4.69657 19.9175 4.70837 19.8727Z" fill="#010202"/>
<path d="M4.73718 19.9115C4.70413 19.9061 4.7001 19.9005 4.70615 19.8695C4.71008 19.8499 4.89805 18.8256 5.12416 17.5935L5.53526 15.3536H6.08439H6.63342L6.6213 15.4168C6.52737 15.9078 6.30817 17.1245 6.31295 17.1294C6.32389 17.1412 7.29879 17.1439 7.62457 17.133L7.9376 17.1229L8.10102 16.2414C8.1908 15.7566 8.26465 15.3585 8.26486 15.3565C8.2654 15.3547 8.51191 15.3536 8.81304 15.3536H9.36057L9.35345 15.3834C9.34963 15.3999 9.16336 16.414 8.93969 17.637C8.71603 18.8597 8.52976 19.8739 8.52583 19.8904L8.5186 19.9204H7.97171C7.67079 19.9204 7.4247 19.919 7.4247 19.9169C7.4247 19.915 7.50269 19.4903 7.59811 18.9725C7.71701 18.3258 7.76695 18.0276 7.75749 18.018C7.73954 17.9999 6.14347 17.9904 6.14347 18.0081C6.14347 18.0152 6.08971 18.3115 6.02393 18.6667C5.95827 19.0221 5.88038 19.4441 5.85116 19.6047C5.82173 19.7657 5.79389 19.9008 5.78943 19.9056C5.77933 19.9151 4.79381 19.921 4.73718 19.9115Z" fill="#010202"/>
<path d="M10.3406 19.9868C9.9122 19.9308 9.57292 19.6752 9.46327 19.3262C9.42512 19.2042 9.42279 18.9572 9.45881 18.8256C9.55475 18.4757 9.85216 18.1969 10.2966 18.0401C10.6302 17.9221 11.2007 17.8295 11.7592 17.8021C11.8825 17.7963 11.9541 17.7875 11.9629 17.7768C11.9705 17.768 11.9893 17.7105 12.0047 17.6492C12.0943 17.2947 11.9101 17.0758 11.5232 17.0763C11.2261 17.077 11.0153 17.1845 10.8697 17.4098C10.8403 17.4549 10.8097 17.5124 10.8013 17.5379C10.7925 17.5651 10.7774 17.5838 10.7647 17.5838C10.718 17.5838 9.8205 17.4878 9.81487 17.4819C9.81168 17.4789 9.84292 17.4088 9.88468 17.3261C10.1296 16.8411 10.555 16.5681 11.2014 16.481C11.3899 16.4556 11.7984 16.4524 11.9831 16.475C12.5313 16.5416 12.9113 16.7896 13.0322 17.1584C13.0603 17.2444 13.0641 17.2807 13.0632 17.45C13.0624 17.6669 13.0472 17.7697 12.8847 18.6445C12.7502 19.3688 12.7441 19.4124 12.744 19.6768L12.7439 19.9074H12.2344L11.7249 19.9076L11.7153 19.8172C11.7087 19.7569 11.7128 19.669 11.7278 19.5535C11.7583 19.3139 11.7579 19.3122 11.6929 19.4201C11.6237 19.5346 11.4104 19.7508 11.3065 19.8117C11.0479 19.963 10.6755 20.0308 10.3406 19.9868ZM11.1992 19.345C11.3089 19.3073 11.3849 19.2582 11.4868 19.1604C11.5972 19.0543 11.6788 18.9347 11.7426 18.7854C11.7889 18.6775 11.8586 18.4353 11.8762 18.3216L11.885 18.2647L11.8071 18.2651C11.5961 18.2658 11.2725 18.317 11.0792 18.3808C10.7677 18.4835 10.6032 18.6388 10.5605 18.8706C10.5271 19.0515 10.5994 19.2317 10.7402 19.3191C10.8533 19.3888 11.0411 19.3993 11.1992 19.345Z" fill="#010202"/>
<path d="M13.575 19.8505C13.5812 19.8192 13.7188 19.0692 13.8804 18.1845C14.0421 17.2994 14.1774 16.5615 14.1812 16.5452L14.188 16.5151H14.7016C15.1422 16.5151 15.2152 16.518 15.2152 16.5345C15.2152 16.5453 15.1851 16.7176 15.1485 16.917C15.1117 17.1171 15.0819 17.2841 15.0819 17.2883C15.0819 17.293 15.121 17.2254 15.1687 17.1384C15.273 16.9485 15.3568 16.8285 15.4554 16.7283C15.6267 16.5535 15.7767 16.4946 16.1133 16.4697L16.204 16.4627L16.1969 16.5056C16.1931 16.5293 16.1685 16.7379 16.1426 16.9691C16.1168 17.2005 16.0928 17.4026 16.0894 17.4181C16.0837 17.4439 16.0715 17.4469 15.9461 17.4541C15.6187 17.4723 15.3891 17.6006 15.2051 17.8676C15.0281 18.1246 14.9746 18.3022 14.8215 19.1394C14.7733 19.4039 14.722 19.6821 14.7075 19.7576C14.6931 19.8334 14.6813 19.898 14.6813 19.9014C14.6813 19.9046 14.4297 19.9077 14.1223 19.9077H13.5634L13.575 19.8505Z" fill="#010202"/>
<path d="M17.2436 19.968C17.0241 19.9319 16.8551 19.8495 16.7008 19.7027C16.4269 19.4424 16.2967 19.08 16.2966 18.578C16.2965 18.1513 16.3834 17.7768 16.5712 17.3981C16.9164 16.701 17.396 16.3943 18.054 16.45C18.2835 16.4694 18.4574 16.5427 18.5916 16.6768C18.6678 16.7533 18.7568 16.9028 18.793 17.0158C18.8075 17.0612 18.8115 17.0651 18.8204 17.0427C18.8262 17.0278 18.8988 16.6419 18.9819 16.1846L19.1328 15.3536H19.6696H20.2065L20.1978 15.3967C20.1931 15.4209 20.0052 16.4438 19.78 17.6705L19.3709 19.9006L18.8681 19.904C18.5916 19.9062 18.3652 19.9059 18.3652 19.9033C18.3652 19.9007 18.386 19.7854 18.4115 19.6467C18.4369 19.5081 18.4559 19.3925 18.4536 19.3904C18.4513 19.3879 18.434 19.4088 18.4154 19.4364C18.2434 19.691 17.9837 19.888 17.7313 19.9546C17.6185 19.9841 17.382 19.9908 17.2436 19.968ZM17.9977 19.2724C18.1015 19.2453 18.1943 19.1941 18.2804 19.1149C18.446 18.9641 18.5352 18.7292 18.6175 18.2306C18.6795 17.8531 18.691 17.7262 18.6733 17.6099C18.6432 17.4146 18.5435 17.2648 18.3886 17.1823C18.3187 17.1449 18.2875 17.1369 18.1971 17.1321C18.0012 17.1218 17.8493 17.1966 17.7311 17.3627C17.5344 17.6383 17.3905 18.2445 17.4069 18.7295C17.4121 18.8854 17.4179 18.9244 17.4465 18.9944C17.4854 19.0898 17.5215 19.1377 17.6021 19.1998C17.7155 19.2871 17.8481 19.3113 17.9977 19.2724Z" fill="#010202"/>
<path d="M20.9984 19.8959C20.9984 19.8849 20.4725 16.628 20.4586 16.552L20.4519 16.5151H21.0039C21.5184 16.5151 21.556 16.5168 21.562 16.5386C21.5648 16.5515 21.6304 17.0262 21.7065 17.5935C21.7832 18.1611 21.8485 18.6252 21.8527 18.6252C21.8568 18.6252 22.0586 18.1519 22.3012 17.5735L22.7417 16.5218L23.2377 16.5185L23.7337 16.5151L23.7403 16.5452C23.7438 16.5615 23.7923 17.023 23.8477 17.5702C23.9034 18.1173 23.9521 18.5795 23.9561 18.5971C23.9598 18.6146 23.9675 18.6237 23.9734 18.6171C23.9787 18.6104 24.2081 18.1351 24.4831 17.5605L24.9826 16.5157H25.3924L25.8019 16.5151L25.6373 16.8523C25.5467 17.0378 25.1686 17.8009 24.797 18.5482L24.1214 19.9075H23.6412H23.1611L23.1544 19.8773C23.1471 19.8437 22.8934 17.755 22.8934 17.7284C22.8934 17.7181 22.8891 17.7166 22.8818 17.7242C22.8752 17.7313 22.6614 18.2255 22.4065 18.822L21.9435 19.9075H21.471C21.2111 19.9075 20.9984 19.9021 20.9984 19.8959Z" fill="#010202"/>
<path d="M26.5976 19.9925C26.2809 19.944 26.0774 19.8491 25.894 19.6637C25.7277 19.4954 25.6475 19.2735 25.661 19.0191C25.6882 18.5068 26.074 18.1427 26.7778 17.9643C27.0952 17.8837 27.7763 17.7972 28.0943 17.7972C28.1728 17.7972 28.1799 17.7945 28.1969 17.7601C28.2554 17.6431 28.2703 17.4356 28.2282 17.327C28.1923 17.2338 28.0813 17.1377 27.9705 17.1031C27.8632 17.0698 27.6656 17.0668 27.5398 17.0964C27.3242 17.1476 27.1611 17.2758 27.0643 17.4699C27.0351 17.5289 27.0101 17.5791 27.009 17.5814L26.0454 17.4829C26.034 17.4711 26.1242 17.2862 26.1946 17.1783C26.4008 16.8621 26.717 16.6426 27.1139 16.5413C27.5728 16.4237 28.1803 16.4277 28.5685 16.5499C28.9572 16.6724 29.2085 16.9187 29.282 17.2481C29.3238 17.4368 29.3014 17.6163 29.0955 18.7388C28.9776 19.3822 28.9631 19.4959 28.9691 19.7309L28.9732 19.9075H28.4641C28.0123 19.9075 27.9544 19.9047 27.9471 19.8861C27.9324 19.8478 27.9385 19.6566 27.9598 19.5058C27.9709 19.4241 27.9783 19.3509 27.9757 19.3434C27.9733 19.3356 27.9473 19.3711 27.9185 19.4215C27.8484 19.5433 27.6533 19.7397 27.531 19.8118C27.4178 19.8784 27.2608 19.9376 27.1175 19.9671C27.0145 19.9883 26.6785 20.0048 26.5976 19.9925ZM27.4088 19.3509C27.6097 19.2918 27.8111 19.1053 27.932 18.866C28.0021 18.7271 28.0735 18.5 28.1052 18.3145L28.1138 18.2646H28.0411C27.8322 18.2646 27.4754 18.3215 27.2909 18.3842C27.0524 18.4656 26.9036 18.5805 26.8272 18.7421C26.7889 18.8226 26.7848 18.8444 26.7848 18.9526C26.7853 19.0876 26.8092 19.1584 26.8836 19.2427C26.9999 19.3757 27.1906 19.4149 27.4088 19.3509Z" fill="#010202"/>
<path d="M29.8002 19.8574C29.8054 19.8296 29.9454 19.0678 30.1116 18.1647L30.413 16.5219L30.9297 16.5186C31.2141 16.5166 31.4469 16.5186 31.4469 16.5228C31.4469 16.5274 31.4171 16.695 31.38 16.8958C31.3431 17.0964 31.3135 17.2688 31.3137 17.279C31.3137 17.2884 31.3459 17.2359 31.3851 17.1615C31.4906 16.9608 31.5744 16.8416 31.6939 16.7223C31.8115 16.6048 31.9131 16.5432 32.0439 16.5093C32.1241 16.4887 32.4084 16.4593 32.4206 16.4708C32.4263 16.4757 32.336 17.3084 32.3194 17.4045L32.3124 17.4463L32.1696 17.4545C32.0086 17.4638 31.9036 17.4884 31.7874 17.5442C31.5697 17.6483 31.3546 17.9205 31.2517 18.2228C31.1833 18.4227 31.1371 18.6483 30.9297 19.7908L30.9084 19.9078H30.3495H29.7907L29.8002 19.8574Z" fill="#010202"/>
<path d="M33.9491 19.9925C33.6966 19.9647 33.4997 19.9078 33.302 19.8053C32.7882 19.5388 32.5009 19.046 32.5009 18.4313C32.5009 17.8701 32.7287 17.3479 33.1504 16.9415C33.4996 16.605 33.9178 16.4477 34.4631 16.4464C34.9886 16.4454 35.3535 16.5823 35.6436 16.8904C35.8631 17.1229 35.9947 17.406 36.0395 17.7416C36.0543 17.8536 36.0489 18.1755 36.0293 18.3215L36.0213 18.3847H34.8096H33.5981L33.588 18.5012C33.5754 18.6551 33.588 18.8148 33.6208 18.909C33.7119 19.1721 33.9772 19.3274 34.2902 19.3014C34.5696 19.2776 34.7766 19.1336 34.9165 18.8647L34.969 18.7638L35.4165 18.8322C35.6623 18.8694 35.8661 18.903 35.8698 18.9064C35.8822 18.919 35.7813 19.1154 35.6988 19.2388C35.645 19.3195 35.5649 19.4141 35.4804 19.496C35.2156 19.7529 34.9215 19.9014 34.5435 19.9686C34.4312 19.9883 34.0529 20.0036 33.9491 19.9925ZM35.0421 17.794C35.0581 17.7344 35.0504 17.4953 35.031 17.4287C34.965 17.2069 34.7473 17.0627 34.4779 17.0627C34.2741 17.0627 34.1174 17.1207 33.9823 17.2458C33.8531 17.3656 33.7669 17.5196 33.6978 17.7539L33.6774 17.8241H34.3557H35.0341L35.0421 17.794Z" fill="#010202"/>
<path d="M15.4442 7.99216C15.4396 8.28973 15.3268 8.81035 15.5306 9.76537C15.5306 9.76537 16.152 14.3657 20.8337 14.4565C22.1802 14.3643 22.7484 14.108 23.4414 13.7686C26.0424 12.495 26.475 9.6412 26.475 9.6412H24.0283C22.6127 12.8381 19.8626 11.7653 19.8626 11.7653L21.41 4.49154C24.3827 4.57298 24.4935 7.37511 24.4935 7.37511H26.981C26.981 7.37511 27.1559 4.43137 24.2885 2.68505C23.7009 2.32751 22.7323 2.07587 21.7841 2.05365C21.7841 2.05354 16.489 1.7212 15.4442 7.99216Z" fill="#E73137"/>
<path d="M36.6331 2.84317L36.1483 5.10947H31.9821L31.4968 7.37567H35.6726L35.1977 9.64187H31.0217L30.5464 11.9079H34.7226L34.2372 14.1638H25.8245L28.2207 2.84317H36.6331Z" fill="#E73137"/>
<path d="M10.1676 14.1837L8.81285 6.96017L4 14.1837H10.1676Z" fill="#E73137"/>
<path d="M16.0628 14.1837H11.4621L9.84448 5.40205L13.444 0L16.0628 14.1837Z" fill="#E73137"/>
<path d="M34.67 13.5965C34.67 13.2615 34.9415 13.0141 35.2629 13.0141C35.5802 13.0141 35.8517 13.2614 35.8517 13.5965C35.8517 13.9345 35.5802 14.1814 35.2629 14.1814C34.9414 14.1814 34.67 13.9345 34.67 13.5965ZM35.2629 14.084C35.5264 14.084 35.7346 13.8773 35.7346 13.5965C35.7346 13.3196 35.5264 13.1115 35.2629 13.1115C34.9955 13.1115 34.7872 13.3196 34.7872 13.5965C34.7872 13.8773 34.9955 14.084 35.2629 14.084ZM35.1391 13.9345H35.0372V13.2615H35.293C35.4526 13.2615 35.531 13.3197 35.531 13.453C35.531 13.5734 35.4552 13.6254 35.3568 13.6377L35.5479 13.9345H35.4337L35.2564 13.6431H35.1391V13.9345ZM35.261 13.5561C35.3474 13.5561 35.4246 13.5502 35.4246 13.4461C35.4246 13.3632 35.3488 13.3478 35.2778 13.3478H35.1389V13.5561H35.261Z" fill="#E73137"/>
</g>
</svg>
