<svg width="40" height="20" viewBox="0 0 40 20" fill="none" xmlns="http://www.w3.org/2000/svg">
<mask id="mask0" mask-type="alpha" maskUnits="userSpaceOnUse" x="0" y="0" width="40" height="20">
<rect width="40" height="20" fill="#C4C4C4"/>
</mask>
<g mask="url(#mask0)">
<path d="M1 19.0317H39V1H1V19.0317Z" fill="#AB182F"/>
<path d="M30.9668 12.6177C31.6399 12.6157 32.4841 12.4287 33.1503 12.208L32.7521 13.9139C31.9164 14.0794 30.978 14.2208 29.8758 14.2253C26.4313 14.2403 24.949 12.4763 24.9441 10.6457C24.9362 8.19476 27.5791 5.74873 31.8359 5.80775C32.7389 5.81992 33.5989 5.98116 34.1778 6.16938L33.6148 8.18137H33.3293C32.9773 7.72259 32.4426 7.37475 31.3876 7.37475C29.2302 7.37475 27.8955 8.55172 27.8995 10.1208C27.9036 11.5409 29.1326 12.6228 30.9668 12.6177ZM18.5204 5.88537L18.3859 6.41861C18.3859 6.41861 19.2022 6.50762 18.9518 7.31891L17.0957 14.0439L20.8064 14.0502L20.946 13.4721C20.946 13.4721 20.2522 13.3046 20.4324 12.6669C20.4469 12.6081 20.9771 10.6708 20.9771 10.6708L22.6783 10.6679C23.5252 10.6724 23.8053 11.1101 23.8053 11.1101L24.2986 9.11309H21.4325L21.8588 7.54446L24.3486 7.54162C24.8068 7.54162 25.1277 7.84788 25.1277 8.07119H25.4095L25.9587 5.88538H18.5204V5.88537ZM15.7064 12.8433C15.4873 12.6088 13.5773 9.64132 13.5773 9.64132L17.0693 6.85577C17.6573 6.36638 18.075 6.4183 18.075 6.4183L18.2117 5.88164L13.8683 5.88509L13.7348 6.41831C14.03 6.43819 14.4425 6.70125 14.1047 7.01298C14.0628 7.05213 10.6158 9.67583 10.6158 9.67583L11.3575 6.99716C11.5109 6.47977 12.0684 6.41831 12.0684 6.41831L12.2043 5.88327L8.05738 5.88529L7.92431 6.41975C8.12188 6.46924 8.68773 6.57773 8.49077 7.31987C7.10697 12.307 7.26731 11.8108 7.17392 12.0846C6.79526 13.5248 6.18607 13.4516 5.96469 13.4666L5.82166 14.0438H10.158L10.3043 13.4595C10.3043 13.4595 9.61514 13.3215 9.7472 12.8277C9.87742 12.3385 10.4219 10.3756 10.4219 10.3756C11.1723 11.5791 11.3483 11.7272 12.2529 12.969C13.1582 14.2109 14.1269 14.0467 16.6912 14.0475L16.8336 13.4727C16.2863 13.4753 15.926 13.0776 15.7064 12.8435" fill="white"/>
</g>
</svg>
