<svg width="40" height="20" viewBox="0 0 40 20" fill="none" xmlns="http://www.w3.org/2000/svg">
<mask id="mask0" mask-type="alpha" maskUnits="userSpaceOnUse" x="0" y="0" width="40" height="20">
<rect width="40" height="20" fill="#C4C4C4"/>
</mask>
<g mask="url(#mask0)">
<g clip-path="url(#clip0)">
<path d="M34.3312 10.0483L34.0372 11.2469C33.9122 11.761 33.781 12.2726 33.667 12.789C33.634 12.9407 33.5696 12.9776 33.4249 12.9769C32.6547 12.9698 31.8844 12.9674 31.115 12.9769C30.9256 12.9769 30.8847 12.9321 30.9232 12.7474C31.3791 10.5844 31.831 8.42033 32.279 6.25524C32.3364 5.97779 32.3364 5.97779 32.0432 5.98015H31.7406C31.7296 5.87169 31.7846 5.80724 31.8192 5.7365C32.2083 4.90101 32.6052 4.06867 32.9856 3.23083C33.0068 3.16379 33.0506 3.10617 33.1095 3.06777C33.1684 3.02937 33.2387 3.01255 33.3086 3.02019C34.5442 3.02019 35.7797 3.04062 37.0137 3.00368C38.5919 2.95652 39.631 4.23058 39.8165 5.44412C39.9466 6.28997 39.7918 7.15508 39.3765 7.90335C38.9612 8.65162 38.3089 9.24057 37.5222 9.57753C37.2864 9.67893 37.2361 9.7646 37.3226 10.0114C37.6409 10.9176 37.9286 11.8356 38.2382 12.745C38.3003 12.9266 38.2799 12.9808 38.0771 12.9745C37.2592 12.9635 36.4412 12.9635 35.6233 12.9745C35.4417 12.9745 35.3773 12.9061 35.3231 12.7513C35.0409 11.9504 34.7485 11.1534 34.4585 10.3556C34.4255 10.2739 34.3878 10.1945 34.3312 10.0483ZM34.8743 7.90342C35.0896 7.90342 35.2806 7.90813 35.4716 7.90342C36.0454 7.88613 36.436 7.59532 36.6616 7.07972C36.8793 6.57984 36.6364 6.04617 36.1617 5.99037C35.922 5.97608 35.6817 5.97398 35.4417 5.98408C35.426 5.98211 35.41 5.98331 35.3947 5.9876C35.3794 5.99189 35.3651 5.99919 35.3526 6.00907C35.3402 6.01895 35.3299 6.03121 35.3222 6.04514C35.3146 6.05907 35.3098 6.07438 35.3081 6.09019L34.8743 7.90342Z" fill="#294F93"/>
<path d="M21.1835 12.9509C21.3619 12.5776 21.5332 12.2176 21.7053 11.8584C22.6239 9.94483 23.5424 8.03074 24.461 6.11611C24.5914 5.84338 24.5906 5.84338 24.2983 5.83709C23.9517 5.83081 23.9524 5.83159 24.1277 5.5227C24.5671 4.74931 25.0096 3.97749 25.4426 3.20095C25.4684 3.1447 25.5112 3.09793 25.5649 3.0672C25.6186 3.03647 25.6805 3.02333 25.7421 3.02961C27.1458 3.03511 28.5488 3.03825 29.9526 3.02961C30.1663 3.02961 30.2221 3.09013 30.2284 3.29527C30.2756 4.92222 30.3322 6.54918 30.3856 8.17535C30.4375 9.70564 30.4862 11.2406 30.5428 12.767C30.5499 12.9391 30.5106 12.9839 30.34 12.9823C29.5148 12.9745 28.689 12.9745 27.8626 12.9823C27.6945 12.9823 27.6269 12.9533 27.6206 12.7638C27.6056 12.2514 27.5593 11.7421 27.5349 11.2273C27.5286 11.0772 27.4869 11.019 27.3243 11.0214C26.7479 11.0308 26.1715 11.0308 25.5951 11.0214C25.4458 11.0214 25.3845 11.0772 25.3342 11.2053C25.1235 11.7421 24.9035 12.2758 24.6905 12.811C24.6496 12.9155 24.6056 12.9831 24.4704 12.9823C23.4125 12.9761 22.3538 12.9784 21.2951 12.9776C21.2573 12.9714 21.22 12.9625 21.1835 12.9509ZM27.2834 6.52953L27.2386 6.51617L26.407 8.57698C26.363 8.68545 26.4228 8.6996 26.5084 8.69881C26.756 8.69488 27.0044 8.68781 27.2519 8.69095C27.3667 8.69095 27.4013 8.65165 27.3942 8.53376C27.3494 7.86725 27.314 7.19525 27.2795 6.52953H27.2834Z" fill="#294F93"/>
<path d="M22.1534 9.78897C21.9278 10.4311 21.6205 11.0394 21.3635 11.6682C21.2385 11.9724 21.101 12.2703 20.9705 12.5729C20.958 12.6192 20.9337 12.6614 20.9 12.6955C20.8662 12.7295 20.8241 12.7542 20.7779 12.767C19.3223 13.0877 17.895 13.1231 16.5643 12.3151C15.552 11.6997 14.9775 10.7816 14.9468 9.60505C14.8887 7.36346 15.7619 5.54001 17.5767 4.19679C18.3626 3.6136 19.2901 3.42732 20.2435 3.34165C20.73 3.29764 21.2165 3.2379 21.7046 3.31964C21.8052 3.33694 21.8374 3.27956 21.8618 3.2159C21.9302 3.0587 22.019 3.0642 22.1652 3.1263C22.7677 3.38567 23.3748 3.63613 23.9863 3.87768C24.1434 3.94213 24.1938 3.98929 24.09 4.16299C23.6184 4.94896 23.1665 5.73493 22.7153 6.53269C22.632 6.67967 22.5817 6.68989 22.4347 6.59793C21.3415 5.89055 20.2073 5.74279 19.0739 6.47453C18.3273 6.95633 17.8337 7.63541 17.8164 8.56993C17.8069 9.05756 17.99 9.52928 18.3261 9.88272C18.6621 10.2362 19.1241 10.4428 19.6115 10.4578C20.4612 10.494 21.2401 10.2503 21.9734 9.83848L22.1204 9.75989C22.1308 9.77021 22.1418 9.77992 22.1534 9.78897Z" fill="#294F93"/>
<path d="M4.30231e-06 7.98101C0.00477841 6.39472 0.637369 4.87483 1.7595 3.75358C2.88162 2.63234 4.40202 2.00095 5.98832 1.99742C9.28939 1.99742 11.9931 4.70823 11.9806 8.00617C11.971 9.59304 11.3342 11.1117 10.2091 12.2308C9.08394 13.3499 7.56185 13.9785 5.97495 13.9795C2.68488 13.9764 -0.00392555 11.2821 4.30231e-06 7.98101ZM5.99618 2.32203C2.87352 2.32203 0.315969 4.85835 0.308895 7.97158C0.301821 11.0974 2.85701 13.6644 5.97889 13.6683C9.10076 13.6722 11.6544 11.1265 11.6607 8.00931C11.6625 7.26384 11.5174 6.52531 11.2337 5.83595C10.95 5.14658 10.5332 4.51989 10.0071 3.99171C9.48103 3.46352 8.85602 3.04419 8.1678 2.7577C7.47958 2.47121 6.74165 2.32316 5.99618 2.32203Z" fill="#ED232B"/>
<path d="M32.635 15.8134C32.7559 15.8101 32.8763 15.829 32.9903 15.8692C33.2599 15.9573 33.3511 16.0972 33.2984 16.377C33.23 16.7385 33.1459 17.0969 33.0728 17.4569C33.0524 17.5591 32.9942 17.6644 33.1719 17.7218C33.3228 17.7705 33.2151 17.9049 33.1554 17.9277C33.0155 17.9819 32.8347 18.0173 32.7624 17.8342C32.7011 17.677 32.6398 17.699 32.5399 17.7744C32.3912 17.8848 32.2167 17.9552 32.033 17.9788C31.7972 18.0118 31.5795 17.9882 31.4333 17.7736C31.3154 17.6007 31.3547 17.3021 31.5119 17.0977C31.6528 16.9197 31.858 16.8042 32.0833 16.7762C32.2892 16.7432 32.4959 16.7197 32.7026 16.6977C32.8929 16.6749 32.984 16.5632 32.9958 16.3785C33.0084 16.1766 32.8645 16.1223 32.7089 16.0885C32.5772 16.0525 32.4372 16.0621 32.3116 16.1158C32.1861 16.1694 32.0823 16.264 32.0173 16.384C32.0053 16.4071 31.9887 16.4275 31.9686 16.444C31.9485 16.4605 31.9253 16.4728 31.9004 16.4802C31.8754 16.4875 31.8493 16.4897 31.8234 16.4867C31.7976 16.4837 31.7726 16.4755 31.75 16.4626C31.6392 16.4147 31.7414 16.3243 31.7713 16.2662C31.9513 15.907 32.2814 15.8409 32.635 15.8134ZM32.0299 17.7343C32.4771 17.7343 32.8198 17.427 32.8528 17.027C32.8606 16.9217 32.8433 16.8792 32.7247 16.9051C32.5541 16.9421 32.3788 16.9594 32.2067 16.9916C32.0495 17.0223 31.8923 17.0655 31.7901 17.2046C31.7478 17.2533 31.7196 17.3127 31.7088 17.3764C31.698 17.44 31.7049 17.5054 31.7288 17.5654C31.7878 17.6982 31.9198 17.7226 32.0299 17.7343Z" fill="#9A9C9B"/>
<path d="M20.9587 17.3225C20.7669 17.8137 20.1829 18.1085 19.6893 17.9591C19.5714 17.9297 19.4643 17.8671 19.3808 17.7788C19.2972 17.6905 19.2407 17.5802 19.2178 17.4608C19.0606 16.8108 19.5321 16.0272 20.1711 15.8551C20.48 15.7726 20.7661 15.8142 20.9917 16.0492C21.2173 16.2842 21.156 16.5994 21.1064 16.8926C21.086 17.012 20.9917 16.9814 20.917 16.9814C20.5728 16.9814 20.2285 16.9735 19.885 16.9869C19.7561 16.9916 19.5597 16.8879 19.5298 17.1441C19.4999 17.4003 19.6155 17.6298 19.8127 17.6943C19.9476 17.7364 20.092 17.7364 20.2269 17.6943C20.3617 17.6522 20.4804 17.5699 20.5673 17.4585C20.606 17.3933 20.6665 17.3439 20.7381 17.319C20.8098 17.2941 20.8879 17.2954 20.9587 17.3225ZM20.2254 16.7417H20.5398C20.8376 16.7417 20.9233 16.6002 20.7913 16.3267C20.767 16.2718 20.73 16.2236 20.6834 16.1859C20.6368 16.1482 20.5819 16.1221 20.5233 16.1097C20.3537 16.0754 20.1775 16.1011 20.0248 16.1824C19.8721 16.2637 19.7524 16.3956 19.6862 16.5554C19.643 16.6694 19.6516 16.7432 19.7978 16.7409C19.944 16.7385 20.0831 16.7417 20.2254 16.7417Z" fill="#9A9C9B"/>
<path d="M39.6309 17.3217C39.4368 17.7854 38.9236 18.0762 38.452 17.9827C38.1596 17.9253 37.9615 17.7595 37.8916 17.4592C37.7391 16.7967 38.2146 16.0138 38.8733 15.8496C39.1837 15.771 39.469 15.8229 39.6852 16.0697C39.9013 16.3164 39.8337 16.6112 39.785 16.8957C39.7653 17.012 39.6671 16.9814 39.5924 16.9814C39.2482 16.9814 38.9031 16.9727 38.5589 16.9877C38.4386 16.9932 38.2516 16.8871 38.2123 17.1236C38.1682 17.3948 38.2806 17.6251 38.4929 17.695C38.6275 17.7376 38.772 17.7378 38.9068 17.6956C39.0416 17.6535 39.1602 17.571 39.2466 17.4592C39.2849 17.3955 39.3442 17.3469 39.4142 17.3219C39.4843 17.2968 39.5608 17.2967 39.6309 17.3217ZM38.8992 16.7401C39.0509 16.7401 39.2018 16.7401 39.3535 16.7401C39.4069 16.7401 39.4612 16.7456 39.4902 16.6741C39.5649 16.4933 39.4447 16.2025 39.2545 16.1239C38.9212 15.9903 38.4457 16.23 38.3435 16.579C38.3144 16.6796 38.3317 16.7362 38.4441 16.7362L38.8992 16.7401Z" fill="#9A9C9B"/>
<path d="M26.5116 17.9969C26.0486 17.9969 25.8215 17.8397 25.8042 17.4883C25.8042 17.42 25.7578 17.3083 25.893 17.3107C25.9826 17.3107 26.1029 17.2518 26.1209 17.431C26.1492 17.7068 26.3669 17.7359 26.5847 17.7391C26.8778 17.7391 27.1191 17.5992 27.1663 17.4035C27.2048 17.2463 27.1309 17.1559 26.9902 17.1111C26.8 17.0505 26.6051 17.001 26.4149 16.9397C26.0172 16.8116 25.9237 16.5145 26.1704 16.1773C26.4172 15.8402 26.9745 15.7058 27.3494 15.8857C27.4209 15.9136 27.4834 15.9606 27.53 16.0216C27.5766 16.0826 27.6055 16.1552 27.6135 16.2316C27.619 16.3007 27.6701 16.4108 27.5467 16.4257C27.4571 16.4367 27.3439 16.4839 27.3109 16.3157C27.2677 16.116 27.0877 16.0799 26.9132 16.0752C26.7238 16.0697 26.5391 16.0995 26.4306 16.2811C26.3347 16.4383 26.407 16.5955 26.6192 16.667C26.8079 16.7314 27.0067 16.7684 27.1954 16.8336C27.4995 16.9382 27.5813 17.1323 27.4634 17.4357C27.3187 17.798 26.9831 17.9969 26.5116 17.9969Z" fill="#9A9C9B"/>
<path d="M24.3273 16.0979C24.4979 15.9997 24.6582 15.8802 24.8571 15.837C25.3507 15.7277 25.636 15.973 25.5534 16.4658C25.4796 16.9075 25.3679 17.3429 25.287 17.7839C25.2555 17.9583 25.1392 17.9269 25.0355 17.9151C24.894 17.8978 24.971 17.7894 24.9828 17.728C25.0528 17.3579 25.1329 16.99 25.2084 16.6214C25.243 16.4532 25.2799 16.2693 25.1125 16.16C24.9451 16.0508 24.7541 16.0869 24.582 16.1687C24.4696 16.2233 24.372 16.3042 24.2975 16.4044C24.2229 16.5047 24.1736 16.6215 24.1536 16.7448C24.0821 17.0812 23.9964 17.416 23.9453 17.7563C23.9178 17.9355 23.8141 17.9363 23.6922 17.9135C23.5453 17.8884 23.6215 17.7783 23.6364 17.7068C23.7481 17.1661 23.8636 16.6259 23.9831 16.0862C24.0051 15.9871 23.9831 15.8669 24.163 15.8598C24.3658 15.8535 24.2558 16.0201 24.3273 16.0979Z" fill="#9A9C9B"/>
<path d="M35.5722 16.4116C35.4865 16.8116 35.3797 17.3123 35.2743 17.8137C35.2405 17.9749 35.1124 17.9206 35.022 17.9143C34.89 17.9057 34.967 17.8027 34.9772 17.7485C35.0558 17.3555 35.1439 16.9625 35.213 16.5695C35.2775 16.1993 35.1274 16.0539 34.7595 16.1145C34.6188 16.1337 34.4876 16.196 34.3837 16.2928C34.2799 16.3896 34.2085 16.5162 34.1795 16.6552C34.0852 17.0191 34.0113 17.3885 33.939 17.7556C33.917 17.8695 33.8785 17.9183 33.7543 17.9198C33.6301 17.9214 33.5884 17.8955 33.6191 17.7626C33.7488 17.1928 33.8675 16.6206 33.9932 16.0492C34.0105 15.9706 33.9932 15.8637 34.1315 15.8653C34.2361 15.8653 34.2982 15.8653 34.3131 16.0107C34.3265 16.1365 34.42 16.0382 34.4703 16.0068C34.6856 15.8685 34.9152 15.7836 35.1777 15.826C35.4488 15.8724 35.5801 16.0335 35.5722 16.4116Z" fill="#9A9C9B"/>
<path d="M29.1398 17.6927C28.904 17.8821 28.6462 18.0165 28.3271 17.9623C28.008 17.908 27.8634 17.7265 27.9168 17.4278C28.0033 16.9476 28.118 16.4721 28.21 15.9918C28.2446 15.8134 28.3735 15.8661 28.4709 15.8732C28.6163 15.8842 28.5291 15.9966 28.5181 16.0531C28.4395 16.4461 28.3491 16.8391 28.2689 17.2321C28.1974 17.5858 28.3633 17.7587 28.7185 17.6943C29.1013 17.6243 29.2428 17.3264 29.3269 16.9963C29.4055 16.6819 29.4668 16.355 29.5351 16.0335C29.554 15.9447 29.5689 15.8677 29.6923 15.8692C29.8157 15.8708 29.8817 15.8794 29.8448 16.0398C29.7167 16.6018 29.6035 17.1669 29.4872 17.732C29.4636 17.8475 29.444 17.9293 29.2836 17.9308C29.0746 17.9277 29.2373 17.7634 29.1398 17.6927Z" fill="#9A9C9B"/>
<path d="M37.5403 17.2321C37.4788 17.4618 37.3383 17.6624 37.1435 17.7988C36.9488 17.9352 36.7122 17.9987 36.4753 17.978C36.1279 17.9505 35.9149 17.7493 35.8505 17.3885C35.7475 16.8093 36.1648 16.0744 36.7111 15.8677C36.9077 15.7946 37.1224 15.7861 37.3242 15.8433C37.5914 15.9148 37.7234 16.0972 37.7242 16.3707C37.7242 16.4493 37.7391 16.542 37.6118 16.5279C37.5261 16.5208 37.4326 16.5664 37.3957 16.4147C37.3131 16.0854 36.9956 15.9816 36.6804 16.1616C36.3252 16.3644 36.076 17.0781 36.2254 17.4624C36.322 17.7116 36.6812 17.7933 36.943 17.6196C37.0353 17.5557 37.1141 17.4743 37.1748 17.3799C37.2959 17.2093 37.2959 17.2085 37.5403 17.2321Z" fill="#9A9C9B"/>
<path d="M15.8585 17.9198C15.618 17.9198 15.3775 17.9143 15.1378 17.9198C15.0128 17.9238 14.9673 17.8978 14.9971 17.7626C15.1802 16.9256 15.3595 16.0877 15.5292 15.2475C15.5693 15.0503 15.7061 15.0903 15.8224 15.1029C15.9867 15.121 15.8798 15.2413 15.8672 15.3033C15.7257 16.0021 15.5819 16.7 15.4247 17.3948C15.3846 17.5732 15.4294 17.6243 15.6047 17.6196C15.9489 17.6117 16.294 17.6141 16.6382 17.6196C16.7003 17.6196 16.8237 17.5575 16.8103 17.7021C16.8009 17.8043 16.8041 17.9308 16.628 17.9222C16.3726 17.9104 16.1156 17.9191 15.8585 17.9198Z" fill="#9A9C9B"/>
<path d="M18.2958 17.9151C18.1528 17.9418 18.1229 17.8915 18.1528 17.7579C18.2589 17.2863 18.3532 16.8148 18.4538 16.3432C18.4805 16.2182 18.5151 16.0948 18.3115 16.1121C18.2557 16.1168 18.2148 16.094 18.2329 16.0335C18.251 15.973 18.2439 15.8763 18.3233 15.8857C18.6141 15.9227 18.5874 15.6987 18.6306 15.5321C18.7155 15.2098 18.8861 15.0605 19.2036 15.0526C19.2626 15.0526 19.3734 15.0023 19.3679 15.121C19.3632 15.1996 19.3867 15.3426 19.2398 15.3356C18.9741 15.3222 18.9584 15.521 18.9089 15.6963C18.8743 15.8174 18.9089 15.8795 19.0448 15.8795C19.1077 15.8795 19.202 15.8488 19.1942 15.973C19.1879 16.0814 19.1392 16.1365 19.0268 16.1168C18.8476 16.0846 18.791 16.1828 18.7635 16.3385C18.6731 16.803 18.5733 17.2651 18.4726 17.7273C18.4491 17.8232 18.4569 17.9631 18.2958 17.9151Z" fill="#9A9C9B"/>
<path d="M22.7994 17.9128C22.6461 17.9505 22.6131 17.897 22.6422 17.7556C22.8253 16.9193 23.0077 16.083 23.1759 15.2444C23.2167 15.0392 23.3535 15.0943 23.4659 15.1013C23.6388 15.1123 23.5272 15.2381 23.5154 15.297C23.3488 16.1121 23.1711 16.9248 23.0022 17.7391C22.9786 17.8648 22.9519 17.9631 22.7994 17.9128Z" fill="#9A9C9B"/>
<path d="M30.7841 16.1097C30.9491 16.0429 31.0576 15.8653 31.2478 15.8378C31.3185 15.8276 31.4317 15.7592 31.4404 15.8787C31.4474 15.9691 31.4742 16.142 31.3217 16.1498C30.7888 16.1765 30.634 16.5326 30.5546 16.9751C30.5074 17.2415 30.4343 17.5048 30.3903 17.7721C30.3636 17.934 30.2598 17.9293 30.1475 17.9175C29.9903 17.8963 30.0767 17.7846 30.0909 17.7163C30.1993 17.1839 30.3117 16.6526 30.4281 16.1223C30.4524 16.0115 30.4147 15.8677 30.6245 15.8614C30.8603 15.8543 30.6882 16.0492 30.7841 16.1097Z" fill="#9A9C9B"/>
<path d="M17.3189 17.9167C17.19 17.9395 17.1459 17.8962 17.175 17.7595C17.3031 17.1739 17.4289 16.5884 17.546 16.0005C17.5814 15.8221 17.7087 15.8732 17.8062 15.8818C17.9571 15.8944 17.8628 16.0068 17.851 16.0642C17.7378 16.6285 17.6152 17.1904 17.4988 17.7532C17.4776 17.8569 17.4548 17.9481 17.3189 17.9167Z" fill="#9A9C9B"/>
<path d="M17.8195 15.4425C17.7841 15.4204 17.6576 15.5045 17.6906 15.3639C17.715 15.2578 17.6663 15.0793 17.8761 15.0958C17.9468 15.1013 18.0624 15.0605 18.0333 15.1988C18.0152 15.312 18.0435 15.4833 17.8195 15.4425Z" fill="#9A9C9B"/>
<path d="M22.1204 9.7591C22.1392 9.74338 22.1487 9.69701 22.1832 9.73709C22.1872 9.74181 22.1636 9.76932 22.1534 9.78661C22.1419 9.77806 22.1308 9.76888 22.1204 9.7591Z" fill="#294F93"/>
<path d="M5.98671 2.55804C6.70195 2.55794 7.41019 2.69891 8.07088 2.97288C8.73156 3.24685 9.33173 3.64845 9.83701 4.15468C10.3423 4.6609 10.7428 5.26182 11.0155 5.92302C11.2882 6.58422 11.4279 7.29272 11.4264 8.00796C11.4264 10.9946 8.98204 13.4374 5.97099 13.4367C2.9843 13.4367 0.547791 10.9805 0.547791 7.98753C0.552361 6.54731 1.12716 5.16753 2.14643 4.15002C3.16571 3.13251 4.54649 2.56012 5.98671 2.55804ZM11.1395 7.98124C11.1368 6.61413 10.5914 5.30404 9.62304 4.33897C8.65473 3.3739 7.34282 2.83283 5.97571 2.83471C4.60841 2.84074 3.29928 3.38855 2.33517 4.35811C1.37107 5.32766 0.830634 6.63987 0.832311 8.00718C0.837813 10.828 3.16429 13.1466 5.98907 13.1459C7.3561 13.1413 8.66562 12.5952 9.63094 11.6273C10.5963 10.6593 11.1387 9.34828 11.1395 7.98124Z" fill="#ED232B"/>
<path d="M5.99933 12.8794C5.35467 12.8799 4.71627 12.7529 4.12095 12.5055C3.52563 12.2581 2.98516 11.8954 2.5307 11.4381C2.07624 10.9809 1.71678 10.4382 1.47305 9.84142C1.22931 9.2446 1.10613 8.60544 1.11059 7.96079C1.11531 5.28063 3.31839 3.09249 6.00876 3.09485C6.65334 3.09577 7.29139 3.22401 7.88627 3.4722C8.48115 3.72039 9.02115 4.08365 9.47526 4.54111C9.92936 4.99858 10.2886 5.54123 10.5324 6.13793C10.7762 6.73462 10.8998 7.3736 10.8959 8.01817C10.8899 9.31172 10.3709 10.55 9.45294 11.4614C8.53494 12.3728 7.29289 12.8827 5.99933 12.8794ZM7.80707 6.3189C7.90005 6.31098 7.98747 6.27129 8.05464 6.20651C8.41147 5.87273 8.77197 5.54289 9.13613 5.21697C9.24696 5.11794 9.30747 5.03463 9.17307 4.90258C9.03867 4.77054 8.96715 4.84128 8.87441 4.93952C8.53408 5.30107 8.19376 5.66262 7.84636 6.01787C7.81333 6.05088 7.78857 6.09122 7.77409 6.13561C7.75961 6.18 7.75583 6.22718 7.76305 6.27331C7.72929 6.25422 7.69698 6.23268 7.66637 6.20887C6.83639 5.4732 5.70773 5.3443 4.79207 5.88112C3.85834 6.4313 3.37733 7.46327 3.63591 8.51805C3.9448 9.78975 4.84081 10.3902 6.02212 10.4421C6.5723 10.4657 7.09968 10.2425 7.54297 9.88013C7.59327 9.83926 7.62157 9.75202 7.7151 9.78032C7.72122 9.86761 7.75927 9.94959 7.82199 10.0106C8.15682 10.3774 8.48876 10.7442 8.81782 11.111C8.90978 11.2139 8.98523 11.2682 9.11177 11.1479C9.23832 11.0277 9.19901 10.9522 9.09448 10.8524C8.72769 10.505 8.36667 10.1542 8.01142 9.79997C7.95203 9.74826 7.8824 9.7097 7.80707 9.68679C7.78506 9.58854 7.87465 9.5516 7.91945 9.49501C8.22945 9.09927 8.40946 8.61733 8.43479 8.11526C8.46011 7.6132 8.32953 7.11559 8.06093 6.69067C7.97919 6.56648 7.89038 6.44309 7.80549 6.3189H7.80707ZM6.84739 12.3709C7.38053 12.2548 7.89057 12.0505 8.35646 11.7665C8.50579 11.6721 8.50107 11.5967 8.39968 11.4654C8.10573 11.0858 7.81806 10.7023 7.54297 10.3093C7.42586 10.1411 7.3229 10.0821 7.14999 10.2228C7.06943 10.2751 6.98184 10.3156 6.88983 10.3431C6.74129 10.4004 6.55187 10.4146 6.45127 10.5168C6.3263 10.6433 6.51886 10.8068 6.50707 10.9648C6.50709 10.9967 6.51025 11.0286 6.5165 11.0599C6.5668 11.4481 6.61867 11.8364 6.66819 12.2247C6.67369 12.3135 6.68784 12.3905 6.84582 12.374L6.84739 12.3709ZM3.29481 7.56467C3.42606 7.56467 3.51016 7.52773 3.54631 7.3949C3.60913 7.16323 3.7002 6.94018 3.81748 6.73075C3.83124 6.71402 3.84105 6.6944 3.84621 6.67336C3.85137 6.65232 3.85175 6.63039 3.8473 6.60919C3.84285 6.58799 3.83369 6.56806 3.8205 6.55087C3.80731 6.53369 3.79043 6.51968 3.7711 6.50989C3.34196 6.18922 2.91361 5.86776 2.48997 5.54001C2.38544 5.46141 2.32413 5.48027 2.25968 5.58245C1.95395 6.05221 1.73783 6.57451 1.62226 7.12295C1.60261 7.22041 1.62619 7.27621 1.72915 7.29508C2.25103 7.39568 2.79178 7.40511 3.29323 7.56781L3.29481 7.56467ZM6.51256 5.35766C6.50508 5.37783 6.50239 5.39945 6.50468 5.42084C6.50697 5.44223 6.51418 5.46279 6.52576 5.48092C6.53733 5.49904 6.55296 5.51424 6.5714 5.52531C6.58984 5.53638 6.61059 5.54303 6.63203 5.54472C6.86453 5.60393 7.08775 5.69491 7.2954 5.8151C7.31364 5.83011 7.33502 5.84082 7.35797 5.84643C7.38092 5.85204 7.40484 5.8524 7.42795 5.84749C7.45106 5.84258 7.47277 5.83253 7.49146 5.81807C7.51015 5.80362 7.52534 5.78514 7.5359 5.76401C7.85815 5.33696 8.18407 4.91254 8.51365 4.49073C8.57339 4.41214 8.59224 4.35162 8.49793 4.29267C8.0205 3.96929 7.48475 3.74186 6.92049 3.62302C6.82774 3.60573 6.76958 3.63324 6.75465 3.73935C6.67448 4.28009 6.59273 4.81691 6.51099 5.3608L6.51256 5.35766ZM8.66613 7.57331C9.2163 7.49471 9.7602 7.41612 10.308 7.33752C10.444 7.31866 10.4298 7.22984 10.4102 7.14338C10.2954 6.60122 10.0806 6.0852 9.7767 5.62175C9.70518 5.51564 9.63837 5.51643 9.54091 5.59031C9.12173 5.91203 8.69887 6.23009 8.27235 6.54448C8.16468 6.62307 8.16154 6.69302 8.22834 6.80384C8.35511 6.9899 8.4401 7.20118 8.47749 7.42319C8.49242 7.5741 8.56238 7.5741 8.66455 7.57646L8.66613 7.57331ZM5.41378 10.6001C5.44522 10.4987 5.38077 10.4492 5.27309 10.4177C5.05137 10.3528 4.83718 10.2646 4.63409 10.1544C4.61503 10.1399 4.59312 10.1297 4.56978 10.1243C4.54645 10.1189 4.52224 10.1185 4.49875 10.1232C4.47527 10.1279 4.45305 10.1375 4.43356 10.1514C4.41408 10.1654 4.39778 10.1833 4.38573 10.204C4.05772 10.6273 3.72762 11.0494 3.39541 11.4702C3.34118 11.5393 3.32781 11.5943 3.40877 11.6486C3.8816 11.9809 4.41603 12.2155 4.98071 12.3386C5.08681 12.3599 5.14498 12.3237 5.16227 12.209C5.2393 11.6832 5.32496 11.1542 5.41221 10.6032L5.41378 10.6001ZM8.62997 8.55027C8.49322 8.52276 8.44998 8.56049 8.4264 8.64616C8.36031 8.89336 8.26284 9.13108 8.13638 9.35353C8.12438 9.36934 8.11602 9.38761 8.11192 9.40703C8.10781 9.42645 8.10807 9.44654 8.11266 9.46585C8.11724 9.48517 8.12604 9.50322 8.13844 9.51873C8.15083 9.53423 8.1665 9.5468 8.18433 9.55553C8.61766 9.88511 9.04942 10.216 9.4796 10.5482C9.5582 10.6079 9.61951 10.6174 9.67688 10.5262C9.99049 10.0529 10.2143 9.52589 10.3371 8.97155C10.3591 8.86309 10.3277 8.801 10.2161 8.78449C9.66981 8.70589 9.12435 8.62572 8.6284 8.55342L8.62997 8.55027ZM3.39227 8.50154C2.80515 8.59114 2.25182 8.67681 1.69928 8.76013C1.60104 8.77506 1.58611 8.83872 1.60497 8.91732C1.72621 9.47435 1.95328 10.0029 2.27383 10.4743C2.33828 10.5663 2.40116 10.5734 2.49155 10.5026C2.9199 10.1662 3.35139 9.83455 3.78289 9.5013C3.84577 9.45257 3.889 9.40698 3.83241 9.32288C3.70316 9.1107 3.59924 8.88411 3.52274 8.64773C3.49209 8.57464 3.45593 8.50311 3.39069 8.50469L3.39227 8.50154ZM5.48294 5.34587L5.29588 3.75664C5.28409 3.65918 5.24008 3.61831 5.13398 3.63953C4.58288 3.74413 4.05533 3.94785 3.57697 4.2408C3.47872 4.3021 3.44257 4.36184 3.52195 4.47109C3.84263 4.90966 4.15859 5.35294 4.47534 5.79545C4.48366 5.81348 4.496 5.82936 4.51143 5.84186C4.52686 5.85437 4.54496 5.86316 4.56432 5.86757C4.58369 5.87197 4.60381 5.87187 4.62313 5.86727C4.64245 5.86267 4.66045 5.85369 4.67575 5.84103C4.8932 5.72163 5.1237 5.62774 5.36269 5.56123C5.44757 5.53765 5.51124 5.50778 5.48137 5.34902L5.48294 5.34587ZM2.95762 4.75875C2.8861 4.76582 2.82716 4.83735 2.77607 4.90416C2.72498 4.97096 2.7682 5.03777 2.82244 5.092C3.18922 5.45879 3.55601 5.82557 3.9228 6.19236C3.9896 6.25917 4.05562 6.31576 4.1468 6.23166C4.23797 6.14756 4.19238 6.07447 4.12872 6.00373C3.79075 5.61913 3.45305 5.23426 3.1156 4.84914C3.0977 4.82322 3.07422 4.80164 3.04688 4.786C3.01954 4.77036 2.98904 4.76105 2.95762 4.75875ZM9.47253 7.85469V7.86962H8.70385C8.6001 7.86962 8.50422 7.87984 8.50972 8.01974C8.51522 8.14707 8.5781 8.19659 8.70936 8.19501C9.21353 8.17757 9.71829 8.19122 10.2208 8.23588C10.3678 8.2516 10.4188 8.18401 10.4228 8.04175C10.4267 7.89949 10.356 7.84918 10.2176 7.85233C9.96848 7.85862 9.72011 7.85469 9.47253 7.85469ZM4.28513 9.92651C4.28038 9.8981 4.2693 9.87112 4.2527 9.84758C4.2361 9.82404 4.21441 9.80454 4.18924 9.79053C4.11064 9.74652 4.05326 9.79761 3.99903 9.84791C3.63041 10.193 3.26337 10.5403 2.89082 10.8815C2.78235 10.9813 2.75484 11.0638 2.86881 11.1817C2.98277 11.2996 3.07159 11.2501 3.16433 11.1495C3.50151 10.784 3.84184 10.4225 4.1806 10.0585C4.22068 10.0185 4.25133 9.97209 4.28513 9.92651ZM2.50019 8.23981V8.20209C2.76349 8.20209 3.02679 8.20209 3.28616 8.20209C3.37576 8.20209 3.45122 8.18401 3.45436 8.08026C3.4575 7.97651 3.38519 7.96315 3.29717 7.95136C2.78236 7.88455 2.26282 7.8932 1.74644 7.85705C1.61047 7.8484 1.53895 7.88691 1.5358 8.04018C1.5358 8.20602 1.61439 8.24453 1.75587 8.24139C2.00581 8.2351 2.25496 8.23981 2.50254 8.23981H2.50019ZM6.15023 4.49231H6.15495C6.16753 4.25258 6.17539 4.01287 6.19347 3.77393C6.20368 3.63403 6.18246 3.53814 6.01269 3.53342C5.84292 3.52871 5.81541 3.61909 5.81777 3.75978C5.82563 4.25494 5.82877 4.75089 5.83427 5.24684C5.83427 5.34037 5.81698 5.45119 5.96396 5.45512C6.11094 5.45905 6.11015 5.35687 6.11487 5.25863C6.1298 5.00319 6.1408 4.74775 6.15259 4.49231H6.15023ZM6.08185 11.4953C6.08185 11.2333 6.08185 10.9692 6.08185 10.703C6.08185 10.6095 6.08185 10.5215 5.95138 10.5199C5.84527 10.5199 5.81699 10.5891 5.8107 10.6771C5.77507 11.2037 5.7397 11.7303 5.70459 12.2569C5.69516 12.3937 5.76432 12.4385 5.89322 12.44C6.02212 12.4416 6.08736 12.4031 6.085 12.2632C6.08029 12.0078 6.08421 11.7539 6.08421 11.4953H6.08185Z" fill="#294F93"/>
<path d="M3.94712 7.99067C3.94917 7.71949 4.00465 7.45137 4.11037 7.20164C4.2161 6.95192 4.37001 6.72547 4.5633 6.53525C4.75658 6.34503 4.98545 6.19477 5.23684 6.09305C5.48822 5.99133 5.7572 5.94015 6.02837 5.94243C6.5759 5.95049 7.09812 6.17426 7.48163 6.56513C7.86514 6.95599 8.07894 7.48238 8.0766 8.02996C8.06997 8.57766 7.84639 9.10037 7.45491 9.48346C7.06343 9.86654 6.536 10.0787 5.98829 10.0735C5.71715 10.072 5.449 10.0167 5.19932 9.91101C4.94965 9.80528 4.72339 9.65114 4.53361 9.45749C4.34383 9.26384 4.1943 9.03451 4.09363 8.78275C3.99297 8.53099 3.94317 8.26178 3.94712 7.99067ZM6.02759 9.73709C6.48523 9.73856 6.9248 9.55854 7.24995 9.23648C7.5751 8.91442 7.75931 8.4766 7.76222 8.01896C7.76266 7.5609 7.58241 7.12116 7.26058 6.79521C6.93875 6.46926 6.50133 6.28342 6.0433 6.27803C5.58563 6.28146 5.14746 6.46378 4.82244 6.78601C4.49742 7.10825 4.31133 7.54483 4.30395 8.00245C4.30538 8.46017 4.48708 8.89889 4.80971 9.22358C5.13233 9.54826 5.56989 9.73275 6.02759 9.73709Z" fill="#294F93"/>
<path d="M7.76221 9.73395C7.76692 9.77325 7.75041 9.79211 7.71033 9.78661C7.6954 9.7371 7.71269 9.71902 7.76221 9.73395Z" fill="#294F93"/>
<path d="M7.81022 9.68601C7.82044 9.73081 7.79685 9.74181 7.75834 9.73867C7.74341 9.68915 7.75992 9.67029 7.81022 9.68601Z" fill="#294F93"/>
<path d="M7.75757 6.26939C7.80237 6.25995 7.82437 6.26939 7.81022 6.32205C7.8031 6.32294 7.79586 6.32219 7.78906 6.31986C7.78226 6.31753 7.77609 6.31368 7.77101 6.3086C7.76593 6.30352 7.76208 6.29734 7.75975 6.29055C7.75742 6.28375 7.75668 6.27651 7.75757 6.26939Z" fill="#294F93"/>
<path d="M6.09282 6.53505C6.28766 6.5369 6.48021 6.57712 6.6595 6.65341C6.83879 6.72971 7.00128 6.84059 7.1377 6.97971C7.27412 7.11883 7.38179 7.28347 7.45456 7.46421C7.52733 7.64496 7.56376 7.83827 7.56179 8.03311C7.5521 8.42615 7.3878 8.79952 7.10455 9.07218C6.82129 9.34485 6.44193 9.4948 6.0488 9.48951C5.65976 9.47781 5.29078 9.31421 5.0209 9.03375C4.75102 8.7533 4.60171 8.3783 4.60497 7.98909C4.6122 7.59986 4.77234 7.22911 5.05076 6.95701C5.32919 6.68491 5.70352 6.53333 6.09282 6.53505ZM6.05588 9.06351V9.07766H6.65715C6.7271 9.07766 6.78683 9.06037 6.79312 8.97627C6.79312 8.91261 6.80177 8.85287 6.72317 8.81908C6.49209 8.71297 6.48738 8.6831 6.67287 8.50076C6.73123 8.4436 6.7776 8.37537 6.80926 8.30006C6.84092 8.22475 6.85722 8.14388 6.85722 8.06219C6.85722 7.9805 6.84092 7.89962 6.80926 7.82432C6.7776 7.74901 6.73123 7.68078 6.67287 7.62362C6.56126 7.5128 6.52117 7.39569 6.69094 7.30373C6.77425 7.25893 6.76954 7.1929 6.76325 7.1206C6.7619 7.10879 6.7582 7.09738 6.75239 7.08702C6.74658 7.07666 6.73877 7.06755 6.72941 7.06024C6.72004 7.05293 6.70932 7.04754 6.69786 7.04441C6.6864 7.04128 6.67443 7.04046 6.66265 7.042C6.24608 7.042 5.82873 7.042 5.41217 7.042C5.39815 7.03988 5.38385 7.041 5.37033 7.04527C5.35682 7.04954 5.34448 7.05686 5.33423 7.06665C5.32398 7.07644 5.31611 7.08844 5.31123 7.10175C5.30635 7.11505 5.30458 7.1293 5.30606 7.14339C5.30606 7.20627 5.29663 7.266 5.37837 7.30058C5.60866 7.39804 5.61417 7.43105 5.42789 7.61969C5.37019 7.67733 5.32482 7.74612 5.29454 7.82185C5.26426 7.89759 5.24971 7.9787 5.25177 8.06023C5.25383 8.14177 5.27245 8.22204 5.30651 8.29615C5.34057 8.37026 5.38935 8.43667 5.44989 8.49133C5.55285 8.59115 5.62674 8.71454 5.42553 8.79393C5.39112 8.8042 5.36184 8.82704 5.34349 8.85791C5.32514 8.88878 5.31908 8.92542 5.3265 8.96055C5.33278 9.05958 5.40509 9.06823 5.48369 9.06823L6.05588 9.06351ZM5.20467 7.55838C5.21489 7.46485 5.22433 7.40119 5.14416 7.36896C5.11492 7.35578 5.08224 7.35226 5.05087 7.3589C5.0195 7.36554 4.99105 7.382 4.96966 7.4059C4.71501 7.64169 4.70872 8.47954 4.95866 8.71926C4.98321 8.74573 5.01509 8.76427 5.05023 8.77253C5.08537 8.78079 5.12217 8.77839 5.15594 8.76563C5.23454 8.73812 5.23454 8.66581 5.21254 8.60451C5.08835 8.2461 5.0294 7.88849 5.20467 7.55838ZM7.37945 8.06848C7.38561 7.85741 7.33252 7.64885 7.22619 7.46642C7.17825 7.38075 7.10908 7.33202 7.00848 7.37289C6.90787 7.41376 6.92988 7.50572 6.96211 7.57646C7.08706 7.88388 7.08706 8.22793 6.96211 8.53534C6.9346 8.61394 6.88351 8.71847 6.99983 8.76485C7.11616 8.81122 7.19632 8.7452 7.25134 8.64066C7.34329 8.4644 7.38746 8.26712 7.37945 8.06848ZM6.1054 6.90838C6.17771 6.87144 6.35848 6.98305 6.35062 6.80621C6.34433 6.64901 6.17299 6.72761 6.07238 6.71111C6.04052 6.70756 6.00836 6.70756 5.9765 6.71111C5.8979 6.71111 5.8193 6.72211 5.8248 6.82036C5.8303 6.9186 5.9034 6.90681 5.96707 6.90917C6.00715 6.90995 6.04724 6.90838 6.1054 6.90838ZM6.11247 9.36454C6.18556 9.33939 6.34826 9.42192 6.34826 9.27651C6.35298 9.10674 6.18242 9.18691 6.08496 9.16883C6.04526 9.1645 6.0052 9.1645 5.96549 9.16883C5.89868 9.16883 5.82874 9.17905 5.82245 9.26079C5.8138 9.36926 5.90104 9.35983 5.97178 9.36454C6.01422 9.36611 6.05588 9.36454 6.11247 9.36454Z" fill="#294F93"/>
<path d="M6.03307 8.80021C5.83422 8.81279 5.62908 8.84108 5.68567 8.52984C5.69746 8.46382 5.62044 8.42609 5.57564 8.38208C5.33985 8.15257 5.35085 7.9105 5.61258 7.6975C5.66288 7.65741 5.71161 7.62912 5.7234 7.55445C5.73519 7.47978 5.66524 7.32731 5.802 7.31001C5.99216 7.29469 6.18323 7.29469 6.37339 7.31001C6.38754 7.31001 6.41584 7.34774 6.41191 7.3611C6.35297 7.59139 6.53452 7.69042 6.6477 7.83268C6.76088 7.97494 6.68857 8.25239 6.52273 8.39072C6.47007 8.43474 6.37261 8.45124 6.38361 8.53848C6.41976 8.8458 6.22485 8.82301 6.03307 8.80021ZM6.23271 8.52748C6.23371 8.5042 6.22986 8.48096 6.22141 8.45924C6.21295 8.43752 6.20008 8.4178 6.1836 8.40132C6.16712 8.38484 6.14739 8.37196 6.12567 8.36351C6.10396 8.35506 6.08072 8.35121 6.05744 8.35221C6.03329 8.35102 6.00917 8.35511 5.98676 8.36418C5.96434 8.37325 5.94417 8.38709 5.92765 8.40474C5.91112 8.42239 5.89863 8.44343 5.89104 8.46638C5.88346 8.48934 5.88097 8.51368 5.88373 8.5377C5.88256 8.55982 5.8859 8.58194 5.89354 8.60274C5.90118 8.62353 5.91297 8.64255 5.92818 8.65864C5.9434 8.67474 5.96172 8.68758 5.98205 8.69638C6.00237 8.70517 6.02428 8.70975 6.04643 8.70982C6.15175 8.71454 6.22249 8.65245 6.23271 8.53141V8.52748ZM6.05823 8.25475C6.08144 8.25604 6.10466 8.25237 6.12634 8.24397C6.14802 8.23558 6.16766 8.22266 6.18395 8.20607C6.20024 8.18948 6.21281 8.16961 6.22081 8.14778C6.22881 8.12595 6.23206 8.10266 6.23035 8.07948C6.23333 8.05561 6.23079 8.03138 6.22293 8.00865C6.21507 7.98592 6.20211 7.96529 6.18503 7.94836C6.16794 7.93143 6.1472 7.91865 6.1244 7.91099C6.1016 7.90334 6.07734 7.90102 6.05351 7.90421C6.03149 7.90254 6.00937 7.90553 5.98859 7.91298C5.96781 7.92043 5.94882 7.93217 5.93288 7.94745C5.91693 7.96272 5.90439 7.98119 5.89606 8.00163C5.88773 8.02208 5.88379 8.04405 5.88452 8.06612C5.87666 8.17772 5.93561 8.2406 6.05823 8.25475ZM6.23192 7.60161C6.23284 7.57774 6.22862 7.55394 6.21954 7.53185C6.21045 7.50975 6.19672 7.48986 6.17928 7.47354C6.16183 7.45721 6.14108 7.44483 6.11843 7.43723C6.09578 7.42963 6.07177 7.42699 6.04801 7.42948C6.02562 7.42922 6.00342 7.43358 5.9828 7.44229C5.96217 7.45101 5.94357 7.46388 5.92816 7.48011C5.91274 7.49634 5.90084 7.51558 5.89319 7.53662C5.88555 7.55766 5.88233 7.58005 5.88373 7.60239C5.88038 7.62693 5.88288 7.65191 5.89102 7.6753C5.89915 7.69869 5.91269 7.71982 5.93054 7.73698C5.9484 7.75414 5.97004 7.76685 5.99373 7.77405C6.01742 7.78126 6.04249 7.78277 6.06687 7.77845C6.08964 7.77875 6.11222 7.77428 6.13317 7.76534C6.15411 7.7564 6.17296 7.74318 6.1885 7.72653C6.20404 7.70988 6.21593 7.69017 6.2234 7.66866C6.23088 7.64714 6.23379 7.62431 6.23192 7.60161Z" fill="#294F93"/>
</g>
</g>
<defs>
<clipPath id="clip0">
<rect width="39.8573" height="16" fill="white" transform="translate(0 2)"/>
</clipPath>
</defs>
</svg>
