<svg width="40" height="20" viewBox="0 0 40 20" fill="none" xmlns="http://www.w3.org/2000/svg">
<mask id="mask0" mask-type="alpha" maskUnits="userSpaceOnUse" x="0" y="0" width="40" height="20">
<rect width="40" height="20" fill="#C4C4C4"/>
</mask>
<g mask="url(#mask0)">
<g clip-path="url(#clip0)">
<path d="M28.8491 19.9856C28.2776 19.9407 27.7217 19.8145 27.1698 19.6653C26.3421 19.4413 25.5316 19.1599 24.7093 18.9175C24.0922 18.7357 23.4678 18.5848 22.8277 18.5131C21.8276 18.4012 20.852 18.5043 19.9072 18.8632C19.3737 19.066 18.8416 19.2727 18.3056 19.4686C17.5324 19.7511 16.7128 19.8833 15.8905 19.8582C14.3929 19.818 12.9723 19.4509 11.6006 18.8636C10.7611 18.5041 9.90726 18.1883 9.01561 17.9787C8.12723 17.7705 7.23126 17.6491 6.31909 17.6989C5.3057 17.7534 4.32938 17.9635 3.436 18.4718C3.07389 18.6778 2.72299 18.9026 2.36588 19.1169C2.27001 19.1745 2.17 19.2253 2.07154 19.2782C2.05222 19.2886 2.02825 19.3051 2.00894 19.2841C1.98963 19.2631 2.00342 19.2406 2.0117 19.2191C2.03653 19.1552 2.0824 19.1075 2.1312 19.0629C2.34915 18.8608 2.58884 18.6864 2.83059 18.5152C3.3891 18.1191 3.95503 17.7322 4.57717 17.444C5.5409 16.9974 6.53722 16.6428 7.58855 16.4695C8.68833 16.2883 9.77069 16.3447 10.8313 16.7198C11.3554 16.9051 11.8546 17.1423 12.3472 17.3959C13.1149 17.7913 13.9239 18.0552 14.7775 18.1736C15.492 18.2721 16.2075 18.2603 16.9241 18.1715C17.6521 18.0807 18.3331 17.8396 19.0074 17.5663C19.6475 17.3061 20.2815 17.0299 20.9592 16.8758C21.6224 16.7252 22.2918 16.6806 22.9693 16.7196C23.8013 16.767 24.6033 16.9492 25.3811 17.2438C25.8487 17.4204 26.2886 17.6579 26.7294 17.8941C27.2573 18.1763 27.8052 18.4099 28.383 18.5693C29.0373 18.7521 29.7184 18.8183 30.3955 18.7649C31.2869 18.6935 32.1238 18.4208 32.9202 18.0157C33.8353 17.5504 34.6661 16.9631 35.4324 16.2807C35.599 16.1298 35.7803 15.9961 35.9735 15.8816C36.0101 15.8605 36.0447 15.8331 36.0942 15.8331C36.0977 15.8851 36.0687 15.9264 36.0477 15.9682C35.8763 16.3069 35.6402 16.5968 35.3667 16.8551C34.6463 17.5358 33.9098 18.1979 33.069 18.7289C32.1453 19.3126 31.154 19.7316 30.0801 19.9434C29.9635 19.9665 29.843 19.9639 29.7288 20.0007H29.6771C29.6381 19.9865 29.5954 19.9865 29.5564 20.0007H28.9529C28.921 19.9786 28.8825 20.0012 28.8491 19.9856Z" fill="#00ABE8"/>
<path d="M37.9322 14.8699C37.8387 14.9784 37.7092 14.9671 37.5884 14.9647C37.2607 14.9579 36.9393 14.8977 36.6207 14.821C36.3736 14.7615 36.1392 14.676 35.9242 14.536C35.7616 14.4299 35.6754 14.284 35.6618 14.0937C35.5978 13.2047 36.1665 12.5867 36.9924 12.5392C37 12.5372 37.0081 12.5375 37.0155 12.54C37.023 12.5425 37.0296 12.5471 37.0345 12.5532C36.9616 12.6675 36.8852 12.7814 36.8148 12.8988C36.7298 13.0409 36.6665 13.1912 36.6626 13.3612C36.6577 13.5682 36.7446 13.7342 36.884 13.8786C37.0729 14.0765 37.2826 14.2533 37.5094 14.4057C37.6646 14.5085 37.8249 14.6059 37.9322 14.766V14.8699Z" fill="#00ABE8"/>
<path d="M29.5561 20C29.5963 19.9754 29.6368 19.9693 29.677 20H29.5561Z" fill="#4DC4EE"/>
<path d="M28.8491 19.9856C28.8849 19.984 28.9222 19.9715 28.9538 20H28.8502C28.85 19.9952 28.8491 19.9905 28.8491 19.9856Z" fill="#B3E6F8"/>
<path d="M18.7645 12.3967C18.5988 12.2999 18.4308 12.2059 18.2677 12.1056C17.8994 11.8776 17.4992 11.7534 17.0695 11.7183C17.0005 11.7126 16.9733 11.7138 16.9896 11.8037C17.1841 12.8655 17.3873 13.9256 17.6104 14.9815C17.6127 14.9958 17.6142 15.0101 17.6149 15.0246C17.624 15.0419 17.6149 15.0442 17.6001 15.0419C17.3687 14.5124 17.2195 13.9567 17.0798 13.398C16.9367 12.8255 16.7762 12.2576 16.5153 11.7246C16.5015 11.6967 16.498 11.6649 16.4534 11.6677C16.1445 11.6869 15.8326 11.6795 15.5291 11.752C15.5034 11.7822 15.4679 11.7923 15.4315 11.8001C15.2729 11.8348 15.1151 11.8726 14.9551 11.8998C14.9206 11.9057 14.8875 11.9102 14.8554 11.892C14.268 12.034 13.6941 12.2276 13.1404 12.4706C12.1775 12.889 11.2914 13.4398 10.4332 14.0412C10.0873 14.2841 9.74347 14.5299 9.3986 14.774C9.38343 14.7848 9.37067 14.8047 9.33256 14.7914C9.41085 14.7102 9.48137 14.6297 9.55931 14.557C10.2958 13.8699 11.0124 13.1603 11.8239 12.5588C12.4021 12.1267 13.0304 11.767 13.695 11.4876C13.9597 11.3766 14.2322 11.2853 14.5102 11.2143C14.5235 11.21 14.5364 11.2048 14.5488 11.1985C14.5806 11.1638 14.6254 11.1638 14.6666 11.1562C14.8908 11.116 15.1149 11.083 15.342 11.0613C15.5826 11.0486 15.824 11.0389 16.0638 11.0655C16.2794 11.0892 16.2868 11.0856 16.2209 10.8847C15.9485 10.0538 15.6571 9.22967 15.3277 8.41977C14.9839 7.57413 14.5909 6.75279 14.1126 5.97481C13.7875 5.44344 13.4153 4.94282 13.0004 4.47907C12.7107 4.15636 12.3969 3.86159 12.0453 3.60949C11.6549 3.33016 11.2286 3.13618 10.747 3.09437C10.368 3.06005 9.98616 3.11102 9.62915 3.24358C9.1872 3.40771 8.80147 3.66501 8.4466 3.97228C8.02345 4.33958 7.6553 4.75806 7.31095 5.19875C7.11765 5.44616 6.93005 5.69808 6.75313 5.95764C6.71744 6.00969 6.68019 6.06174 6.66002 6.12229C6.6526 6.16501 6.63483 6.20523 6.60829 6.2394C6.26756 6.73353 5.96097 7.24847 5.67249 7.77487C5.43936 8.19995 5.22313 8.63352 5.01345 9.0704C4.74905 9.62143 4.50052 10.1799 4.26785 10.7459C3.96666 11.4746 3.68243 12.2091 3.41516 12.9493C3.41122 12.9602 3.40637 12.9708 3.40068 12.9809C3.39628 12.9884 3.39042 12.9949 3.38343 13C3.36861 13.0014 3.35688 13 3.36309 12.9799C3.45568 12.6292 3.57294 12.2859 3.6795 11.9389C3.88539 11.2702 4.13714 10.6175 4.36596 9.95663C4.51856 9.51646 4.62133 9.05981 4.78773 8.62329C5.02155 8.01014 5.29176 7.41226 5.53523 6.8031C6.0008 5.63631 6.53173 4.50076 7.15369 3.40892C7.57529 2.66877 8.04121 1.96003 8.61093 1.32484C8.98166 0.911741 9.37912 0.529001 9.86969 0.260423C10.1789 0.091261 10.5077 -0.0130124 10.8645 0.000173625C11.2073 0.0123186 11.5097 0.148863 11.7987 0.319066C12.252 0.586083 12.6035 0.964659 12.9307 1.37065C13.6755 2.29436 14.2279 3.32998 14.7006 4.41418C15.3474 5.89795 15.8324 7.43672 16.2525 8.99787C16.4422 9.70141 16.6136 10.4096 16.7831 11.1182C16.7865 11.1408 16.7961 11.1619 16.8109 11.1791C16.8257 11.1964 16.8451 11.2092 16.8667 11.2159C17.4062 11.4142 17.8946 11.709 18.3733 12.0227C18.5074 12.1106 18.6478 12.1894 18.7852 12.2723C18.8174 12.3211 18.8036 12.361 18.7645 12.3967Z" fill="#004A85"/>
<path d="M15.3598 11.0778C15.2077 11.0995 15.0558 11.1205 14.9039 11.143C14.7854 11.1604 14.6672 11.1798 14.5489 11.1982C14.1497 10.2717 13.6714 9.38895 13.0971 8.55997C12.8289 8.17477 12.5306 7.8117 12.205 7.47421C11.8749 7.13033 11.5259 6.81144 11.1204 6.56039C10.7048 6.30291 10.2654 6.0961 9.77625 6.03572C9.21705 5.96632 8.69527 6.09055 8.21573 6.39261C7.79034 6.66067 7.43978 7.01252 7.10629 7.38347C6.89075 7.6229 6.67297 7.8599 6.46829 8.10922C6.12808 8.52353 5.82425 8.9637 5.53266 9.41289C5.20004 9.92541 4.89983 10.457 4.61515 10.9978C4.2858 11.6224 3.97628 12.257 3.68659 12.9016C3.33586 13.6789 2.99674 14.4613 2.66923 15.2489C2.65389 15.2534 2.64596 15.2503 2.65199 15.2324C2.74528 14.8937 2.86288 14.5632 2.97306 14.2301C3.06531 13.9515 3.16274 13.6749 3.25844 13.3973C3.26568 13.3257 3.31017 13.263 3.30776 13.1891C3.30889 13.1719 3.31487 13.1553 3.325 13.1414C3.32741 13.1209 3.32121 13.0979 3.34224 13.0824C3.3619 13.0515 3.38104 13.0205 3.38087 12.9818C3.60917 12.3378 3.85454 11.7001 4.11112 11.067C4.59549 9.87249 5.13124 8.70259 5.75631 7.57519C6.01186 7.1083 6.29171 6.6553 6.59468 6.21807C6.61589 6.18771 6.64003 6.15821 6.63589 6.11709C6.70952 6.05463 6.75246 5.96788 6.80833 5.89154C7.10957 5.48642 7.42374 5.09206 7.78982 4.74402C8.28574 4.27227 8.85287 3.92857 9.53829 3.8184C10.0247 3.74067 10.4996 3.80105 10.959 3.97819C11.4345 4.16245 11.8437 4.44837 12.2189 4.79225C12.8195 5.34276 13.2639 6.00796 13.6458 6.7207C13.9771 7.33568 14.2747 7.96845 14.5371 8.61618C14.6427 8.87834 14.7396 9.14397 14.8325 9.41116C15.0236 9.96167 15.1924 10.5203 15.3598 11.0778Z" fill="#A6BBD7"/>
<path d="M34.729 13.0588C34.9015 13.2687 35.1134 13.4405 35.2831 13.6518C35.3874 13.7821 35.4783 13.9155 35.4555 14.0972C35.4481 14.1555 35.4284 14.1761 35.3707 14.1777C35.0853 14.185 34.8382 14.0736 34.6063 13.9242C34.1371 13.6218 33.7234 13.2528 33.3497 12.8378C32.9313 12.3729 32.526 11.8979 32.1893 11.3679C31.9953 11.0644 31.8381 10.7387 31.7209 10.3977C31.6997 10.3355 31.6718 10.3296 31.6156 10.3354C31.2335 10.3742 30.8526 10.4348 30.467 10.4294C30.2976 10.4294 30.1289 10.4081 29.9647 10.3661C29.9307 10.36 29.8987 10.3454 29.8719 10.3234C29.9558 10.2072 30.0768 10.1662 30.2053 10.1405C30.3149 10.1188 30.4249 10.0998 30.5351 10.0807C30.8572 10.0252 31.0792 9.82042 31.2683 9.57353C31.4978 9.27355 31.6201 8.92204 31.7278 8.56498C31.8703 8.09341 31.9693 7.61073 32.1177 7.13985C32.2384 6.75728 32.3955 6.3938 32.6776 6.10007C32.8104 5.97862 32.9644 5.88875 33.117 5.79766C33.3875 5.63578 33.68 5.53741 33.9964 5.5237C34.2152 5.51416 34.398 5.59189 34.5482 5.75654C34.8108 6.04385 34.9573 6.37524 34.938 6.7696C34.9254 7.02985 34.8416 7.27275 34.7484 7.51305C34.6047 7.88434 34.39 8.21642 34.1804 8.55092C33.8781 9.03291 33.6003 9.5279 33.403 10.064C33.2759 10.4098 33.1858 10.7669 33.1846 11.1366C33.183 11.5703 33.3503 11.9453 33.6417 12.2643C33.9276 12.5766 34.2788 12.7999 34.6485 12.9967C34.6789 13.013 34.7104 13.0265 34.729 13.0588Z" fill="#FEC400"/>
<path d="M18.7645 12.3967C18.7714 12.3554 18.7785 12.3143 18.7854 12.2732C18.849 12.028 18.9021 11.7801 18.9923 11.5426C19.0935 11.2811 19.2467 11.043 19.4423 10.843C19.761 10.5104 20.151 10.4407 20.5823 10.5307C21.0592 10.6298 21.4767 10.8646 21.8835 11.1217C22.5108 11.5183 23.0679 11.9953 23.5201 12.589C23.7142 12.8469 23.8656 13.1347 23.9684 13.4412C24.1236 13.8911 24.032 14.296 23.739 14.6566C23.4757 14.9808 23.1326 15.1552 22.7115 15.1458C22.5098 15.1413 22.3215 15.0907 22.1802 14.9246C22.0119 14.7268 21.9969 14.499 22.0538 14.2638C22.1358 13.9253 22.2518 13.5947 22.3068 13.2498C22.3463 13.0022 22.3832 12.7521 22.3185 12.5022C22.2496 12.2329 22.0954 12.0967 21.8212 12.0591C21.5341 12.0197 21.2556 12.0804 20.9775 12.1384C20.8484 12.165 20.7213 12.201 20.5973 12.246C20.2317 12.3797 19.9869 12.6473 19.8031 12.978C19.5994 13.3444 19.473 13.7434 19.3347 14.1371C19.2327 14.4274 19.1414 14.7228 18.9706 14.9834C18.9119 15.073 18.8498 15.1597 18.77 15.2312C18.6902 15.3027 18.6276 15.2806 18.6052 15.1755C18.5852 15.0818 18.5857 14.9859 18.5879 14.8908C18.5986 14.241 18.6109 13.5913 18.6841 12.945C18.7052 12.7611 18.7374 12.5793 18.7645 12.3967Z" fill="#00AF40"/>
<path d="M26.8692 11.3606C26.6601 11.3779 26.4499 11.3514 26.2414 11.3854C25.8291 11.4531 25.3856 11.7622 25.2811 12.2288C25.2354 12.439 25.2575 12.6583 25.3444 12.855C25.4312 13.0516 25.5782 13.2152 25.7639 13.3218C25.9922 13.4516 26.2501 13.5195 26.5123 13.5189C26.7073 13.5189 26.9023 13.5004 27.0975 13.517C27.1231 13.5194 27.1485 13.5235 27.1736 13.5295C27.337 13.5671 27.3396 13.5791 27.3386 13.7464C27.3345 14.4763 26.6904 15.0587 26.1852 15.1203C25.5244 15.2008 24.958 15.0145 24.5712 14.4263C24.3151 14.0373 24.1591 13.6152 24.166 13.1443C24.1743 12.5935 24.3848 12.1196 24.735 11.7043C25.2237 11.1231 25.8638 10.7971 26.5773 10.5885C26.9354 10.4844 27.2786 10.5035 27.6167 10.656C27.7436 10.7131 27.848 10.7938 27.9007 10.9293C27.9583 11.0778 27.9078 11.2056 27.7628 11.2716C27.5881 11.3505 27.4007 11.3528 27.2144 11.3608C27.0989 11.3646 26.9841 11.3606 26.8692 11.3606Z" fill="#E90000"/>
<path d="M34.7291 13.0588C34.3057 12.8536 33.9097 12.6077 33.5972 12.2484C33.2444 11.8434 33.1061 11.374 33.1854 10.8338C33.2927 10.1052 33.6146 9.46511 33.9767 8.84017C34.1795 8.49022 34.4189 8.16196 34.5954 7.79639C34.7366 7.50405 34.8577 7.20545 34.9022 6.87927C34.9579 6.47224 34.8286 6.12993 34.5746 5.81815C34.3594 5.55443 34.0895 5.51331 33.7784 5.56935C33.396 5.63875 33.0773 5.8355 32.7659 6.05203C32.7388 6.07094 32.7161 6.10078 32.6778 6.10009C32.6697 6.03069 32.7137 5.99599 32.7592 5.95383C32.9785 5.74702 33.2227 5.57404 33.4739 5.41112C33.9728 5.0872 34.5228 4.99802 35.0989 5.09882C35.3725 5.14853 35.623 5.28524 35.8137 5.48885C35.8504 5.52736 35.8776 5.53101 35.9233 5.5062C36.0865 5.41424 36.2008 5.26729 36.3356 5.14393C36.4299 5.05718 36.5239 4.97477 36.6532 4.94649C36.7826 4.91821 36.8084 4.93937 36.8322 5.06603C36.8679 5.25913 36.7888 5.4224 36.7031 5.5834C36.4075 6.1386 36.0434 6.6506 35.6797 7.16225C35.2464 7.77193 34.8015 8.3731 34.4264 9.02355C34.1452 9.51109 34.0183 10.0299 34.0005 10.5906C33.9731 11.448 34.2074 12.2236 34.6665 12.9386C34.6908 12.9757 34.727 13.0087 34.7291 13.0588Z" fill="#00ABE8"/>
<path d="M14.8558 11.891C15.0829 11.8563 15.3057 11.8007 15.5295 11.7509C15.5408 11.9244 15.6028 12.0872 15.6374 12.2558C15.7767 12.9313 15.9207 13.606 16.0645 14.2806C16.1076 14.4829 16.1559 14.6841 16.2025 14.8859C16.2118 14.9043 16.2164 14.9206 16.1852 14.9187C15.9543 14.379 15.73 13.8362 15.4836 13.3031C15.2784 12.8589 15.087 12.4085 14.8889 11.9609C14.8789 11.938 14.867 11.9149 14.8558 11.891Z" fill="#A6BBD7"/>
<path d="M3.32703 13.1854C3.31854 13.2599 3.29578 13.3321 3.26 13.3979C3.23927 13.3335 3.28954 13.2831 3.29317 13.224C3.29662 13.2039 3.2987 13.183 3.32703 13.1854Z" fill="#D5E0EB"/>
<path d="M10.5506 12.6528L10.426 12.6999L10.4061 12.6826C10.4397 12.6611 10.4769 12.6458 10.5158 12.6375C10.5257 12.6468 10.5433 12.6379 10.5506 12.6528Z" fill="#F9BFBF"/>
<path d="M2.6536 15.2324L2.67087 15.2489L2.61801 15.3777C2.61519 15.3268 2.62758 15.2762 2.6536 15.2324Z" fill="#C3D2E4"/>
<path d="M3.38208 12.9821C3.40281 13.0289 3.39556 13.0645 3.34338 13.0829C3.34338 13.0734 3.34338 13.0636 3.34338 13.0541C3.35686 13.0367 3.35254 13.0101 3.37396 12.9974C3.37718 12.9926 3.3799 12.9875 3.38208 12.9821Z" fill="#DAE3ED"/>
<path d="M3.32697 13.1855L3.29242 13.2238C3.26892 13.1819 3.29397 13.1603 3.32697 13.1417V13.1855Z" fill="#185B91"/>
<path d="M16.1856 14.9195C16.1998 14.9129 16.1999 14.8993 16.2029 14.8866C16.2245 14.9063 16.2202 14.9311 16.217 14.9595C16.1925 14.9548 16.1911 14.9355 16.1856 14.9195Z" fill="#CEDAE9"/>
<path d="M3.37438 12.9974C3.36799 13.0183 3.36626 13.0417 3.3438 13.0541C3.34114 13.0412 3.3414 13.0279 3.34457 13.0152C3.34774 13.0025 3.35374 12.9906 3.36211 12.9806L3.37438 12.9974Z" fill="#044C87"/>
<path d="M17.6004 15.0416L17.6153 15.0242C17.6227 15.0326 17.6277 15.0429 17.6297 15.054C17.6318 15.065 17.6308 15.0764 17.6268 15.087C17.6077 15.0774 17.6049 15.059 17.6004 15.0416Z" fill="#4379A5"/>
<path d="M13.3115 10.0819C13.2889 9.90683 13.2208 9.74086 13.114 9.60079C13.0633 9.53348 13.0028 9.47466 12.9085 9.44881C13.1018 9.70906 13.1535 10.3127 12.9997 10.4591C12.9868 10.2887 12.9713 10.1197 12.9271 9.95456C12.8226 9.56314 12.5883 9.30966 12.1817 9.23298C11.8872 9.17906 11.5847 9.18971 11.2947 9.2642C10.827 9.37923 10.4153 9.6112 10.0359 9.89887C9.64968 10.1916 9.31533 10.5339 9.09789 10.9766C8.89942 11.3806 8.89097 11.7921 9.09375 12.1911C9.27446 12.5465 9.55397 12.7781 9.97833 12.7696C10.1258 12.7666 10.2677 12.7312 10.4063 12.6828C10.4476 12.6761 10.488 12.6652 10.527 12.65L10.5353 12.6464L10.5162 12.6379C10.7327 12.5512 10.9379 12.4339 11.1693 12.386C11.2055 12.3785 11.2421 12.3723 11.2787 12.3669C11.2857 12.3657 11.2935 12.3707 11.3173 12.3777C11.0774 12.5409 10.8064 12.576 10.5508 12.6532L10.5386 12.6478C10.5001 12.6627 10.4556 12.6651 10.4265 12.6998L10.2956 12.7705C10.4379 12.7729 10.58 12.7606 10.7198 12.7337C11.7544 12.548 12.5491 12.0015 13.1125 11.1128C13.3128 10.7969 13.3591 10.448 13.3115 10.0819Z" fill="#E90000"/>
<path d="M31.6135 12.2184C31.5228 11.7117 31.2169 11.3819 30.7462 11.1937C30.4358 11.0694 30.1165 11.0457 29.7904 11.0927C29.2681 11.1682 28.7982 11.3595 28.433 11.7568C28.0104 12.2168 27.8159 12.7673 27.8145 13.3898C27.8126 13.7452 27.8673 14.0861 28.0531 14.3961C28.2573 14.7358 28.5472 14.9425 28.9472 14.9798C29.3793 15.0202 29.794 14.9451 30.1925 14.7806C30.5988 14.6121 30.9673 14.3788 31.2373 14.0261C31.6484 13.4884 31.7299 12.8697 31.6135 12.2184ZM30.8767 13.242C30.8131 13.5479 30.6296 13.75 30.3422 13.8588C30.1356 13.9396 29.9144 13.9759 29.693 13.9653C29.3383 13.9462 29.1288 13.7398 29.0064 13.4244C28.8857 13.1145 28.8684 12.7942 28.9396 12.4715C29.0189 12.1144 29.2997 11.8675 29.6797 11.8023C29.8898 11.766 30.1053 11.7786 30.3098 11.8391C30.4002 11.8635 30.4845 11.9067 30.5574 11.9657C30.6303 12.0248 30.6902 12.0985 30.7333 12.1821C30.8534 12.4077 30.9121 12.6614 30.9033 12.9172C30.9068 13.0263 30.8979 13.1355 30.8767 13.2425V13.242Z" fill="#00ABE8"/>
</g>
</g>
<defs>
<clipPath id="clip0">
<rect width="35.9322" height="20" fill="white" transform="translate(2)"/>
</clipPath>
</defs>
</svg>
