<svg width="40" height="20" viewBox="0 0 40 20" fill="none" xmlns="http://www.w3.org/2000/svg">
<mask id="mask0" mask-type="alpha" maskUnits="userSpaceOnUse" x="0" y="0" width="40" height="20">
<rect width="40" height="20" fill="#C4C4C4"/>
</mask>
<g mask="url(#mask0)">
<g clip-path="url(#clip0)">
<path d="M4.00431 7H2.5636V7.12885H4.00431V7Z" fill="#00AB4E"/>
<path d="M2.29729 11.1025V11.5651H0.184082V11.694H6.49916V11.5651H4.27183V11.1025H2.29729Z" fill="#00AB4E"/>
<path d="M0.546082 12.3235V12.445H6.10644V12.3235H4.27181V11.8805H2.29727V12.3235H0.546082Z" fill="#00AB4E"/>
<path d="M2.29724 12.6315V13.0672H1.24432V13.1899H5.48301V13.0672H4.27178V12.6315H2.29724Z" fill="#00AB4E"/>
<path d="M4.00431 13.7164H2.5636V13.909H4.00431V13.7164Z" fill="#00AB4E"/>
<path d="M1.24432 7.71912H2.33774C2.64699 7.58658 2.98201 7.50804 3.33176 7.50804C3.6901 7.50804 4.03371 7.5829 4.34909 7.71912H5.48301V7.84797H1.24432V7.71912Z" fill="#00AB4E"/>
<path d="M0.546082 8.46403H1.30448C1.44561 8.30327 1.60146 8.15969 1.76835 8.03452H4.89767C5.07193 8.16337 5.23269 8.29836 5.3775 8.46403H6.10522V8.59288H0.546082V8.46403Z" fill="#00AB4E"/>
<path d="M0.184082 9.28012H0.782947C0.862714 9.10217 0.958434 8.93528 1.06397 8.7782L5.60823 8.78311C5.71254 8.93896 5.80458 9.10463 5.88312 9.28012H6.49916V9.40161H0.184082V9.28012Z" fill="#00AB4E"/>
<path d="M0 10.0115H0.547323C0.57923 9.85811 0.619727 9.70962 0.668814 9.56604L6.0046 9.56727C6.05246 9.70839 6.0905 9.85934 6.11996 10.0103H6.66483V10.1391H0V10.0115Z" fill="#00AB4E"/>
<path d="M0 10.7687H0.471238V10.7515C0.471238 10.6079 0.479828 10.4656 0.495782 10.3269L6.17027 10.3281C6.18622 10.4668 6.19236 10.6079 6.19236 10.7515V10.7687H6.6636V10.9037H0V10.7687Z" fill="#00AB4E"/>
<path d="M22.3581 10.2324C22.3765 10.2361 22.3937 10.2373 22.4108 10.2398C22.428 10.241 22.4489 10.2422 22.4734 10.2422C22.5655 10.2422 22.6366 10.2079 22.6906 10.1416C22.7434 10.0741 22.7704 9.98084 22.7704 9.86058C22.7704 9.75627 22.7434 9.67037 22.6894 9.60287C22.6366 9.53537 22.5667 9.50101 22.4832 9.50101C22.4722 9.50101 22.4562 9.50224 22.4354 9.5047C22.4145 9.50715 22.3887 9.51083 22.3593 9.51697V10.2324H22.3581ZM22.3581 11.7357C22.3937 11.7418 22.4268 11.7468 22.455 11.7504C22.4845 11.7529 22.5078 11.7553 22.5274 11.7553C22.6526 11.7553 22.7557 11.7063 22.8354 11.6093C22.9152 11.5124 22.9557 11.3872 22.9557 11.2326C22.9557 11.0657 22.9164 10.9319 22.8379 10.8313C22.7594 10.7307 22.655 10.6803 22.5237 10.6803C22.5053 10.6803 22.4673 10.6852 22.4084 10.6938C22.3863 10.6975 22.3691 10.6987 22.3593 10.7012V11.7357H22.3581ZM21.3788 12.2155C21.4401 12.153 21.4819 12.0842 21.5076 12.0094C21.5322 11.9357 21.5445 11.8155 21.5445 11.6498V9.58201C21.5445 9.41634 21.5322 9.2973 21.5076 9.22367C21.4831 9.15127 21.4401 9.08254 21.3788 9.01996H22.4477C22.7974 9.01996 23.0661 9.085 23.2527 9.21508C23.4392 9.34516 23.5325 9.53169 23.5325 9.77468C23.5325 9.91457 23.4957 10.0385 23.422 10.1465C23.3484 10.2545 23.2404 10.3429 23.1005 10.4128C23.2944 10.4754 23.4404 10.5773 23.5398 10.7184C23.6392 10.8595 23.6883 11.035 23.6883 11.2448C23.6883 11.3688 23.6687 11.4878 23.6306 11.6007C23.5914 11.7136 23.5349 11.8155 23.4601 11.9051C23.3644 12.0167 23.2551 12.0965 23.13 12.1444C23.006 12.1922 22.8342 12.2155 22.6145 12.2155H21.3788Z" fill="#0089CF"/>
<path d="M24.864 11.1197C24.864 11.3258 24.9008 11.4841 24.9732 11.5921C25.0456 11.7001 25.1524 11.7541 25.2923 11.7541C25.4408 11.7541 25.5537 11.7014 25.6285 11.5946C25.7034 11.4878 25.7414 11.3295 25.7414 11.1197V9.58201C25.7414 9.44579 25.7304 9.33534 25.7071 9.25067C25.685 9.16599 25.6396 9.08991 25.5721 9.01996H26.7122C26.6532 9.08132 26.6103 9.14759 26.5845 9.21753C26.5588 9.28748 26.5465 9.40898 26.5465 9.58078V11.651C26.5465 11.8167 26.5588 11.937 26.5845 12.0106C26.6103 12.0855 26.652 12.1542 26.7122 12.2168H25.7586V11.8793C25.642 12.0253 25.5181 12.1321 25.3843 12.1996C25.2506 12.2683 25.0984 12.3027 24.929 12.3027C24.7842 12.3027 24.6554 12.2769 24.5437 12.2241C24.432 12.1726 24.3351 12.0953 24.2541 11.9922C24.1841 11.9002 24.1338 11.7934 24.1032 11.6731C24.0737 11.5516 24.059 11.3774 24.059 11.1491V9.58201C24.059 9.4102 24.0467 9.28871 24.0222 9.21876C23.9976 9.14759 23.9547 9.08254 23.8945 9.02119H25.0309C24.9708 9.08377 24.9278 9.15249 24.9033 9.2249C24.8775 9.2973 24.8665 9.41634 24.8665 9.58324V11.1197H24.864Z" fill="#0089CF"/>
<path d="M27.9846 11.6498C27.9846 11.8155 27.9969 11.9357 28.0227 12.0094C28.0484 12.0842 28.0902 12.153 28.1503 12.2155H27.0139C27.074 12.153 27.117 12.0842 27.1428 12.0094C27.1673 11.9345 27.1796 11.8155 27.1796 11.6498V9.58201C27.1796 9.4102 27.1673 9.28871 27.1428 9.21876C27.1182 9.14759 27.0753 9.08254 27.0139 9.02119H28.1503C28.0889 9.08377 28.0472 9.15249 28.0227 9.2249C27.9981 9.2973 27.9858 9.41634 27.9858 9.58201V10.4864L28.6129 9.58201C28.6596 9.51574 28.6915 9.46297 28.7087 9.42247C28.7246 9.38198 28.7332 9.34271 28.7332 9.30344C28.7332 9.26785 28.7222 9.23103 28.7013 9.19176C28.6804 9.15249 28.635 9.09604 28.5675 9.01996H29.5849L28.6338 10.3588L29.7505 12.2155H29.3173C29.0915 12.2155 28.9332 12.1898 28.8412 12.1358C28.7492 12.083 28.6412 11.9517 28.5197 11.7431L27.9871 10.8301V11.6498H27.9846Z" fill="#0089CF"/>
<path d="M31.5681 12.2916C31.0932 12.2916 30.7042 12.1345 30.3999 11.8204C30.0955 11.5062 29.9446 11.1037 29.9446 10.6141C29.9446 10.3907 29.9888 10.1723 30.0783 9.95996C30.1667 9.74766 30.2931 9.5599 30.4563 9.39669C30.6048 9.25065 30.7754 9.13898 30.9656 9.06167C31.1558 8.98435 31.3571 8.94508 31.5681 8.94508C32.0467 8.94508 32.4382 9.10094 32.7413 9.41264C33.0444 9.72434 33.1954 10.1256 33.1954 10.619C33.1954 10.8423 33.15 11.0632 33.0592 11.278C32.9683 11.4927 32.8432 11.6805 32.6836 11.8388C32.5364 11.986 32.367 12.0989 32.1768 12.1763C31.9866 12.2523 31.7829 12.2916 31.5681 12.2916ZM30.7999 10.511C30.7999 10.9073 30.8723 11.2252 31.0184 11.4645C31.1644 11.705 31.3546 11.8253 31.5927 11.8253C31.8234 11.8253 32.005 11.7308 32.1388 11.543C32.2725 11.3553 32.34 11.0951 32.34 10.7638C32.34 10.3674 32.2664 10.0508 32.1204 9.81147C31.9743 9.57217 31.7817 9.45314 31.5436 9.45314C31.3166 9.45314 31.1349 9.54763 31.0012 9.73662C30.8674 9.9256 30.7999 10.1833 30.7999 10.511Z" fill="#0089CF"/>
<path d="M34.6582 9.01996C34.9417 9.01996 35.1675 9.09727 35.3331 9.2519C35.4988 9.40652 35.581 9.61514 35.581 9.87776C35.581 10.1723 35.4927 10.4042 35.316 10.5723C35.1392 10.7405 34.8975 10.8251 34.5895 10.8251C34.5551 10.8251 34.4987 10.8227 34.4213 10.8166C34.4164 10.8166 34.414 10.8166 34.4115 10.8166C34.5453 10.7368 34.6447 10.6374 34.7085 10.5171C34.7723 10.3969 34.8054 10.2484 34.8054 10.0729C34.8054 9.89985 34.765 9.7624 34.6864 9.66055C34.6066 9.55869 34.4987 9.50715 34.36 9.50592V11.6498C34.36 11.8155 34.3723 11.9357 34.398 12.0106C34.4238 12.0855 34.4655 12.1542 34.5257 12.2168H33.3893C33.4494 12.1542 33.4924 12.0855 33.5169 12.0106C33.5415 11.9357 33.5537 11.8155 33.5537 11.6498V9.58446C33.5537 9.41879 33.5415 9.29853 33.5169 9.2249C33.4911 9.15127 33.4494 9.08377 33.3893 9.01996H34.6582Z" fill="#0089CF"/>
<path d="M36.7394 11.6498C36.7394 11.8155 36.7517 11.9357 36.7774 12.0094C36.8032 12.0842 36.8449 12.1529 36.9051 12.2155H35.7687C35.83 12.1529 35.8718 12.0842 35.8975 12.0094C35.9221 11.9345 35.9343 11.8155 35.9343 11.6498V9.582C35.9343 9.4102 35.9221 9.2887 35.8975 9.21876C35.873 9.14758 35.83 9.08254 35.7687 9.02118H36.9051C36.8449 9.08377 36.802 9.15249 36.7774 9.22489C36.7529 9.29729 36.7406 9.41633 36.7406 9.582V11.6498H36.7394Z" fill="#0089CF"/>
<path d="M37.2179 12.2155C37.2916 12.1284 37.3431 12.0339 37.3726 11.9333C37.402 11.8327 37.4167 11.6596 37.4167 11.4142V9.69981C37.4167 9.53169 37.3996 9.40038 37.364 9.30834C37.3284 9.2163 37.2707 9.12058 37.1885 9.02118H38.0745L39.3802 10.9761V9.71576C39.3802 9.56114 39.3643 9.43229 39.3324 9.33043C39.3005 9.22857 39.2489 9.12549 39.1765 9.02118H39.9987C39.9398 9.1304 39.8969 9.23716 39.8699 9.34147C39.8429 9.44701 39.8294 9.57587 39.8294 9.72926V9.86057V12.2965C39.4281 12.245 39.071 11.9934 38.7605 11.5418C38.7495 11.5246 38.7409 11.5124 38.736 11.505L37.8671 10.2459V11.6032C37.8671 11.7652 37.8818 11.8891 37.9101 11.975C37.9383 12.0597 37.9874 12.1407 38.0573 12.2155H37.2179Z" fill="#0089CF"/>
<path d="M8.82963 10.2324C8.84804 10.2361 8.86522 10.2373 8.8824 10.2398C8.89958 10.241 8.92044 10.2422 8.94498 10.2422C9.0358 10.2422 9.1082 10.2079 9.16097 10.1416C9.21374 10.0741 9.24073 9.98084 9.24073 9.86058C9.24073 9.75627 9.21374 9.67037 9.15974 9.60287C9.10574 9.53537 9.03702 9.50101 8.95357 9.50101C8.94253 9.50101 8.92658 9.50224 8.90571 9.5047C8.88485 9.50715 8.86031 9.51083 8.82963 9.51697V10.2324ZM8.82963 11.7357C8.86522 11.7418 8.89835 11.7468 8.92658 11.7504C8.95603 11.7529 8.97935 11.7553 8.99898 11.7553C9.12415 11.7553 9.22724 11.7063 9.307 11.6093C9.38677 11.5124 9.42727 11.3872 9.42727 11.2326C9.42727 11.0657 9.388 10.9319 9.30946 10.8313C9.23092 10.7307 9.12661 10.6803 8.9953 10.6803C8.97689 10.6803 8.93885 10.6852 8.87994 10.6938C8.85786 10.6975 8.8419 10.6987 8.83086 10.7012V11.7357H8.82963ZM7.85034 12.2155C7.91047 12.153 7.95342 12.0842 7.97797 12.0094C8.00251 11.9357 8.01478 11.8155 8.01478 11.6498V9.58201C8.01478 9.41634 8.00251 9.2973 7.97797 9.22367C7.95342 9.15127 7.91047 9.08254 7.85034 9.01996H8.91799C9.26773 9.01996 9.53648 9.085 9.72302 9.21508C9.90955 9.34516 10.0028 9.53169 10.0028 9.77468C10.0028 9.91457 9.966 10.0385 9.89237 10.1465C9.81874 10.2545 9.71197 10.3429 9.57085 10.4128C9.76474 10.4754 9.91077 10.5773 10.0102 10.7184C10.1096 10.8595 10.1599 11.035 10.1599 11.2448C10.1599 11.3688 10.1403 11.4878 10.1022 11.6007C10.0629 11.7136 10.0065 11.8155 9.93286 11.9051C9.83714 12.0167 9.72792 12.0965 9.60398 12.1444C9.48003 12.1922 9.307 12.2155 9.08856 12.2155H7.85034Z" fill="#0089CF"/>
<path d="M11.3871 10.8215H11.9774L11.6829 9.83726L11.3871 10.8215ZM10.3661 12.2155C10.4311 12.1309 10.4839 12.0511 10.5256 11.9738C10.5673 11.8977 10.6005 11.8192 10.625 11.7394L11.2987 9.59428C11.3037 9.58078 11.3086 9.56115 11.3172 9.5366C11.3478 9.44947 11.3626 9.37952 11.3626 9.32798C11.3626 9.28012 11.3527 9.23472 11.3331 9.19054C11.3135 9.14636 11.2767 9.08991 11.2227 9.01996H12.24L13.0561 11.6412C13.0917 11.7566 13.1371 11.8621 13.1923 11.9603C13.2463 12.0585 13.3064 12.1431 13.3727 12.2155H12.1259C12.1897 12.1358 12.2302 12.0732 12.2498 12.029C12.2694 11.9848 12.2793 11.937 12.2793 11.8867C12.2793 11.856 12.278 11.8265 12.2744 11.7995C12.2707 11.7725 12.2658 11.748 12.2584 11.7283L12.1136 11.2682H11.2472L11.1122 11.7075C11.0963 11.7639 11.0852 11.8057 11.0803 11.8314C11.0754 11.8572 11.0729 11.8805 11.0729 11.9002C11.0729 11.9554 11.084 12.0094 11.1073 12.0609C11.1294 12.1137 11.1638 12.164 11.2092 12.2155H10.3661Z" fill="#0089CF"/>
<path d="M13.6341 12.2155C13.7077 12.1284 13.7592 12.0339 13.7887 11.9333C13.8181 11.8327 13.8341 11.6596 13.8341 11.4142V9.69981C13.8341 9.53169 13.8169 9.40038 13.7813 9.30834C13.7457 9.2163 13.6868 9.12058 13.6058 9.02118H14.4931L15.7976 10.9773V9.71576C15.7976 9.56114 15.7816 9.43229 15.7497 9.33043C15.7178 9.22857 15.6663 9.12549 15.5939 9.02118H16.4161C16.3572 9.1304 16.313 9.23716 16.2872 9.34147C16.2602 9.44701 16.2467 9.57587 16.2467 9.72926V9.86057V12.2965C15.8442 12.245 15.4883 11.9934 15.1779 11.5418C15.1668 11.5246 15.1582 11.5124 15.1533 11.505L14.2832 10.2459V11.6032C14.2832 11.7652 14.298 11.8891 14.3262 11.975C14.3556 12.0597 14.4047 12.1407 14.4735 12.2155H13.6341Z" fill="#0089CF"/>
<path d="M17.7524 11.6498C17.7524 11.8155 17.7647 11.9357 17.7905 12.0094C17.8163 12.0842 17.858 12.153 17.9181 12.2155H16.7817C16.8431 12.153 16.8848 12.0842 16.9094 12.0094C16.9339 11.9345 16.9462 11.8155 16.9462 11.6498V9.58201C16.9462 9.4102 16.9339 9.28871 16.9094 9.21876C16.8848 9.14759 16.8419 9.08254 16.7817 9.02119H17.9181C17.858 9.08377 17.815 9.15249 17.7905 9.2249C17.7659 9.2973 17.7537 9.41634 17.7537 9.58201V10.4864L18.3795 9.58201C18.4262 9.51574 18.4581 9.46297 18.4752 9.42247C18.4912 9.38198 18.4998 9.34271 18.4998 9.30344C18.4998 9.26785 18.4887 9.23103 18.4679 9.19176C18.447 9.15249 18.4016 9.09604 18.3341 9.01996H19.3515L18.4004 10.3588L19.5171 12.2155H19.0839C18.8594 12.2155 18.6998 12.1898 18.6078 12.1358C18.5145 12.083 18.4078 11.9517 18.2863 11.7431L17.7524 10.8301V11.6498Z" fill="#0089CF"/>
</g>
</g>
<defs>
<clipPath id="clip0">
<rect width="40" height="6.90903" fill="white" transform="translate(0 7)"/>
</clipPath>
</defs>
</svg>
