<svg width="40" height="20" viewBox="0 0 40 20" fill="none" xmlns="http://www.w3.org/2000/svg">
<mask id="mask0" mask-type="alpha" maskUnits="userSpaceOnUse" x="0" y="0" width="40" height="20">
<rect width="40" height="20" fill="#C4C4C4"/>
</mask>
<g mask="url(#mask0)">
<g clip-path="url(#clip0)">
<path d="M39.0768 3C39.4811 3.19411 39.5979 3.61399 39.1292 3.94806C38.4269 4.44811 37.7508 4.98262 37.0613 5.50025C36.982 5.55933 36.902 5.64091 36.7427 5.57058C37.4847 4.72661 38.0347 3.75254 38.8666 2.9986L39.0768 3Z" fill="#F50111"/>
<path d="M8.03156 8.64894C8.6595 7.5335 9.29877 7.12418 10.343 7.20576C11.2435 7.27609 11.7327 7.65166 11.9875 8.46538C12.1192 8.47874 12.0902 8.35918 12.1235 8.29799C12.7287 7.17271 14.2827 6.81402 15.2957 7.58273C15.7962 7.96252 15.9251 8.52375 15.9378 9.09906C15.9647 10.3559 15.964 11.6141 15.9548 12.8723C15.9548 13.1381 16.0122 13.2514 16.2968 13.2141C16.4727 13.2007 16.6494 13.1993 16.8256 13.2099C16.8964 13.2099 16.9672 13.2141 16.9636 13.3182C16.9601 13.4223 16.8928 13.4188 16.822 13.4188H13.8891C13.8183 13.4188 13.7475 13.4103 13.7475 13.3104C13.7475 13.2106 13.8253 13.2106 13.8961 13.2106C14.1085 13.2106 14.3209 13.2007 14.5333 13.2106C14.7039 13.2204 14.7804 13.1874 14.7789 12.989C14.7704 11.4164 14.7853 9.84315 14.7697 8.27056C14.7619 7.52576 14.0243 7.17974 13.2222 7.52647C12.4583 7.85983 12.0597 8.47734 12.0335 9.27488C11.9868 10.5078 12.0173 11.7435 12.0052 12.9778C12.0052 13.1585 12.0498 13.2282 12.2396 13.2134C12.4293 13.1986 12.6395 13.2078 12.8392 13.2134C12.9149 13.2134 13.0147 13.1867 13.0105 13.3224C13.0105 13.4265 12.9348 13.4216 12.8689 13.4216H9.96636C9.89557 13.4216 9.82477 13.4181 9.82831 13.314C9.83185 13.2099 9.89911 13.2141 9.9699 13.2127C10.0407 13.2113 10.0881 13.2127 10.1469 13.2127C10.8279 13.2092 10.8279 13.2092 10.8279 12.5185C10.8279 11.2026 10.8279 9.88606 10.8279 8.56947C10.8279 8.11443 10.7571 7.66502 10.2616 7.4688C9.78017 7.27961 9.36037 7.48708 8.99578 7.77333C8.34447 8.28533 8.08891 9.0027 8.07121 9.79744C8.04785 10.8454 8.07121 11.894 8.06059 12.9419C8.06059 13.1459 8.09315 13.2436 8.32536 13.2169C8.51388 13.2031 8.70318 13.2031 8.89171 13.2169C8.97525 13.2169 9.10409 13.1775 9.08993 13.3344C9.08002 13.4603 8.97171 13.423 8.89808 13.4237C8.52217 13.4237 8.14554 13.4237 7.76892 13.4237C7.21531 13.4237 6.66241 13.4237 6.10951 13.4237C6.0196 13.4237 5.86952 13.4849 5.87943 13.3055C5.88721 13.1599 6.01535 13.2268 6.09181 13.219C6.34596 13.193 6.69356 13.3287 6.8309 13.1599C6.95974 13.0031 6.87833 12.6733 6.87833 12.4194C6.87833 10.9044 6.87337 9.39023 6.88541 7.87601C6.88541 7.62774 6.84647 7.50889 6.56542 7.54757C6.37694 7.56127 6.18776 7.56291 5.99907 7.55249C5.91412 7.55249 5.86881 7.52225 5.87659 7.43012C5.88438 7.34923 5.9396 7.34361 5.99907 7.34361C6.63385 7.34361 7.26935 7.34361 7.90555 7.34361C8.07758 7.34361 8.03156 7.48005 8.03298 7.57429C8.03439 7.92806 8.03156 8.28815 8.03156 8.64894Z" fill="#241F20"/>
<path d="M25.1304 8.65034C25.5318 8.04057 25.9693 7.52505 26.6709 7.30773C27.3484 7.09674 28.016 7.14737 28.6404 7.50114C29.1359 7.78246 29.366 8.23117 29.4007 8.79029C29.4856 10.1624 29.4241 11.5332 29.4333 12.9081C29.4333 13.1508 29.4927 13.2422 29.7419 13.2134C29.918 13.2007 30.0947 13.2007 30.2707 13.2134C30.3415 13.2134 30.4484 13.1733 30.4569 13.3048C30.4661 13.4659 30.3408 13.4194 30.2594 13.4194C29.589 13.423 28.9179 13.4194 28.2475 13.4194C27.9643 13.4194 27.6811 13.4194 27.3979 13.4194C27.3229 13.4194 27.2188 13.4441 27.2238 13.3118C27.2287 13.1796 27.3321 13.2141 27.4057 13.2127C27.618 13.202 27.8306 13.202 28.0429 13.2127C28.2375 13.2288 28.2736 13.1501 28.2729 12.9757C28.2666 11.5079 28.2814 10.0401 28.2652 8.57297C28.2538 7.58835 27.531 7.13471 26.6107 7.52997C25.6904 7.92523 25.2316 8.68831 25.1736 9.62793C25.1028 10.742 25.1538 11.863 25.141 12.9806C25.141 13.1656 25.1927 13.2274 25.3782 13.2127C25.5771 13.1979 25.7782 13.2085 25.9778 13.2127C26.0557 13.2127 26.1527 13.1902 26.1463 13.3238C26.142 13.4279 26.067 13.4208 25.999 13.4208H23.0689C22.9981 13.4208 22.9273 13.4096 22.9322 13.309C22.9372 13.2085 23.0144 13.2148 23.0837 13.212C23.1312 13.212 23.1779 13.212 23.2253 13.212C23.9701 13.2035 23.9701 13.2035 23.9701 12.477C23.9701 10.9396 23.963 9.40217 23.9772 7.86474C23.9772 7.60452 23.917 7.51309 23.6501 7.54333C23.4616 7.55656 23.2724 7.55773 23.0837 7.54685C23.013 7.54685 22.9379 7.55318 22.9301 7.4519C22.9223 7.35063 22.9896 7.33867 23.0653 7.33867C23.7025 7.33867 24.3354 7.33867 24.9711 7.33867C25.1346 7.33867 25.1261 7.43854 25.1254 7.54966C25.1304 7.91468 25.1304 8.2811 25.1304 8.65034Z" fill="#241F20"/>
<path d="M32.3337 5.44116C32.3337 6.00381 32.3437 6.52636 32.3288 7.04681C32.3224 7.26624 32.3713 7.35134 32.612 7.34149C33.0934 7.32109 33.5769 7.33375 34.0597 7.33727C34.1305 7.33727 34.2402 7.3 34.2508 7.42589C34.265 7.58272 34.1376 7.54334 34.0547 7.54334C33.5592 7.54756 33.0636 7.55178 32.5681 7.54334C32.3932 7.54334 32.3217 7.57639 32.3238 7.7698C32.3373 9.31707 32.3352 10.8693 32.3514 12.4186C32.3514 12.745 32.4222 13.079 32.7097 13.2879C33.0636 13.5453 33.6045 13.4286 33.8969 13.0474C34.0287 12.8711 34.1304 12.6743 34.1977 12.4651C34.2268 12.38 34.2069 12.214 34.3599 12.2674C34.4915 12.3139 34.4087 12.4552 34.3853 12.5445C34.214 13.1979 33.6831 13.6051 33.0006 13.6227C32.7302 13.6288 32.4601 13.5986 32.1978 13.5327C31.6704 13.4019 31.3483 13.0643 31.2357 12.5396C31.1931 12.323 31.172 12.1027 31.1727 11.882C31.1678 10.5303 31.1642 9.17852 31.1727 7.82677C31.1727 7.59468 31.1076 7.52013 30.8796 7.54545C30.7035 7.5567 30.5269 7.5567 30.3508 7.54545C30.28 7.54545 30.1759 7.58272 30.1667 7.4505C30.1575 7.31828 30.2552 7.34149 30.3338 7.33727C30.3451 7.33727 30.3572 7.33727 30.3692 7.33727C30.6248 7.32039 30.9717 7.4491 31.114 7.28804C31.2803 7.09955 31.1501 6.75564 31.1671 6.47994C31.1671 6.43352 31.1671 6.38711 31.1671 6.33928C31.1671 6.10649 31.0899 5.82798 31.1918 5.65286C31.3009 5.46648 31.5925 5.64512 31.8056 5.61699C31.9902 5.58764 32.1686 5.52823 32.3337 5.44116Z" fill="#241F20"/>
<path d="M20.5855 17.417C20.2067 17.3952 20.0779 17.2363 20.1551 16.9149C20.2167 16.6582 20.2967 16.405 20.3582 16.149C20.3873 16.0329 20.5147 15.8873 20.2641 15.8381C20.2011 15.8262 20.1933 15.6763 20.2641 15.6785C20.5912 15.6883 20.5359 15.4203 20.6117 15.2487C20.645 15.1742 20.6648 15.0792 20.7745 15.1081C20.8842 15.1369 20.8644 15.253 20.8396 15.3085C20.7051 15.6138 20.8191 15.7038 21.1228 15.6602C21.1936 15.6503 21.2701 15.6602 21.2679 15.7607C21.2658 15.8613 21.1908 15.8789 21.1207 15.8648C20.669 15.7762 20.6053 16.0709 20.5543 16.4008C20.5267 16.5815 20.4566 16.7524 20.4255 16.936C20.4021 17.0717 20.4255 17.1934 20.6173 17.1976C20.7108 17.1976 20.8772 17.1519 20.8602 17.3031C20.8439 17.4796 20.6591 17.3882 20.5855 17.417Z" fill="#FE0396"/>
<path d="M14.1262 16.0203C14.316 15.8402 14.4682 15.6461 14.7421 15.6482C14.8179 15.6482 14.8837 15.6377 14.9035 15.7256C14.9065 15.755 14.8981 15.7843 14.8801 15.8078C14.8621 15.8313 14.8358 15.8472 14.8066 15.8522C14.071 16.0168 13.9032 16.597 13.7786 17.2124C13.7574 17.3172 13.7163 17.4402 13.5797 17.3952C13.4431 17.3502 13.5153 17.2342 13.5415 17.1378C13.6519 16.7292 13.7489 16.3178 13.8671 15.912C13.8947 15.8177 13.887 15.6306 14.0498 15.6686C14.2423 15.7101 14.0923 15.8726 14.1262 16.0203Z" fill="#FE0497"/>
<path d="M5.78171 13.1993C5.72579 13.1079 5.64791 13.1543 5.56933 13.1944C5.47554 13.2397 5.37701 13.2746 5.27554 13.2985C4.89325 13.3948 4.70423 13.2633 4.65963 12.8695C4.64689 12.7423 4.64122 12.6146 4.64264 12.4869C4.64264 11.4038 4.64618 10.3214 4.64264 9.23831C4.63698 8.21923 4.21788 7.5335 3.41932 7.30001C2.82354 7.11861 2.18705 7.11641 1.59 7.29368C0.927374 7.49412 0.46792 7.9161 0.398542 8.64332C0.37518 8.88807 0.379427 9.16095 0.652692 9.27629C0.890559 9.37686 1.1617 9.41695 1.3932 9.24535C1.62469 9.07374 1.57797 8.83884 1.54753 8.60534C1.52189 8.45714 1.50534 8.30753 1.49797 8.15733C1.49302 7.71003 1.66788 7.47794 2.11034 7.41535C2.85438 7.30985 3.43277 7.37948 3.50073 8.4056C3.50498 8.47593 3.5333 8.54274 3.53117 8.61097C3.50144 9.61247 3.48516 9.94724 2.50537 10.2898C1.92203 10.493 1.31108 10.6323 0.762424 10.9227C0.328457 11.1541 0.0219174 11.4896 0.00421888 12.0128V12.3765C0.00202089 12.5745 0.0527641 12.7697 0.151266 12.9419C0.249768 13.1141 0.392504 13.2573 0.564908 13.3569C1.17232 13.7352 2.32909 13.7085 2.90889 13.2929C3.16942 13.1079 3.34003 12.8491 3.48587 12.5424C3.82568 13.5777 4.80192 13.9322 5.66986 13.366C5.72295 13.3301 5.85251 13.3147 5.78171 13.1993ZM3.26711 12.5664C3.15947 12.8439 2.95157 13.0716 2.684 13.205C2.41643 13.3385 2.10841 13.368 1.82009 13.2879C1.72362 13.2649 1.63268 13.2232 1.55249 13.1651C1.47231 13.1071 1.40446 13.0338 1.35284 12.9497C1.01657 12.4116 0.969142 11.2617 1.89513 10.8186C2.20945 10.6688 2.53227 10.5373 2.85297 10.4016C3.08762 10.3079 3.30128 10.1691 3.48162 9.99296C3.41649 10.903 3.60905 11.7526 3.26711 12.5692V12.5664Z" fill="#241F20"/>
<path d="M22.7822 13.1831C22.7072 13.053 22.6187 13.1916 22.5465 13.2211C21.9801 13.4525 21.6566 13.3104 21.6517 12.7499C21.6517 12.6346 21.6276 12.5192 21.6276 12.4039C21.6276 11.2392 21.6396 10.0745 21.6212 8.90986C21.6099 8.21851 21.2998 7.66501 20.6372 7.39494C19.811 7.05806 18.9671 7.06228 18.1714 7.49129C17.6504 7.77261 17.3651 8.23047 17.4076 8.83812C17.4337 9.21579 17.6907 9.39443 18.0999 9.34942C18.4638 9.30933 18.6174 9.10467 18.5714 8.71645C18.5495 8.53218 18.5162 8.34792 18.5091 8.16295C18.4928 7.7276 18.6571 7.52153 19.0818 7.41745C19.9653 7.20223 20.439 7.53701 20.5083 8.4295C20.5225 8.60392 20.5274 8.78115 20.5253 8.95276C20.5161 9.72639 20.3434 9.97536 19.6107 10.2468C19.0082 10.4698 18.3888 10.6526 17.7998 10.9065C17.2405 11.1471 17.0005 11.6331 16.9969 12.2252C16.9969 12.7035 17.1442 13.1107 17.5987 13.3632C18.6429 13.9441 19.9214 13.5995 20.4935 12.5607C20.5222 12.5988 20.546 12.6404 20.5643 12.6845C20.8255 13.7521 21.966 13.7859 22.6272 13.4005C22.7058 13.3547 22.8566 13.3132 22.7822 13.1831ZM20.4248 12.1064C20.3073 12.7745 19.9349 13.2042 19.3735 13.302C18.7123 13.4201 18.2231 13.0481 18.165 12.3828C18.0879 11.505 18.3774 11.0388 19.1852 10.6815C19.6177 10.4902 20.0963 10.3769 20.4984 9.97818C20.4765 10.723 20.5459 11.4164 20.4248 12.1064Z" fill="#241F20"/>
<path d="M36.1141 9.92403C36.7258 9.92403 37.3367 9.92403 37.9484 9.92403C38.5721 9.92403 39.1951 9.91981 39.8181 9.92403C39.9597 9.92403 40.0014 9.90082 40 9.74117C39.9901 8.75654 39.6014 7.96322 38.7257 7.4906C37.7962 6.99125 36.8695 7.06861 35.9909 7.684C34.8448 8.4907 34.3138 9.86425 34.6459 11.3074C34.8936 12.3729 35.6887 13.3766 37.2412 13.6016C38.4447 13.776 39.5568 13.1438 39.8542 12.0543C39.8754 11.9763 39.9667 11.8729 39.8089 11.8307C39.6913 11.7997 39.6807 11.9066 39.6503 11.9713C39.5795 12.1296 39.5278 12.2991 39.4443 12.451C39.0301 13.2071 38.3356 13.4511 37.5243 13.4124C36.8022 13.378 36.3463 12.9658 36.1184 12.2977C35.8692 11.5684 35.901 10.8123 35.8968 10.0591C35.8911 9.88394 36.0171 9.92473 36.1141 9.92403ZM35.9287 9.54354C35.9825 9.06037 36.0377 8.57931 36.255 8.13693C36.5679 7.49763 37.261 7.20365 37.9385 7.44418C38.4525 7.62704 38.5898 8.07715 38.6464 8.54977C38.6797 8.83672 38.6464 9.1307 38.662 9.41976C38.6783 9.67436 38.565 9.73132 38.3307 9.72007C37.9767 9.70249 37.627 9.71515 37.2744 9.71515C36.8992 9.71515 36.5233 9.71515 36.1481 9.71515C36.0327 9.71234 35.9067 9.74328 35.9287 9.54354Z" fill="#241F20"/>
<path d="M10.1306 14.9041C10.023 14.8823 9.98905 14.992 9.9664 15.0884C9.8956 15.3739 9.81136 15.6574 9.72216 15.9788C9.09138 15.4302 8.44079 15.5568 8.13213 16.239C7.98063 16.5752 8.01956 17.0534 8.23124 17.2461C8.51795 17.5064 8.83724 17.5014 9.1636 17.3165C9.18761 17.2952 9.21884 17.2837 9.25101 17.2844C9.28318 17.285 9.31392 17.2978 9.33704 17.32C9.5296 17.4536 9.56358 17.4417 9.62659 17.2194C9.82269 16.5246 10.0011 15.8234 10.1929 15.1278C10.2255 15.0251 10.2354 14.9259 10.1306 14.9041ZM8.81316 17.2117C8.74036 17.211 8.66844 17.1958 8.60169 17.1669C8.53494 17.138 8.47472 17.096 8.42465 17.0435C8.37457 16.991 8.33565 16.929 8.3102 16.8612C8.28476 16.7935 8.27331 16.7213 8.27655 16.649C8.29566 16.2024 8.62485 15.8529 9.03262 15.8487C9.37456 15.8445 9.61667 16.0716 9.61597 16.3958C9.61526 16.8002 9.21244 17.2089 8.81316 17.2117Z" fill="#FE0396"/>
<path d="M28.4578 15.9148C28.2454 15.5765 27.8872 15.5547 27.2033 15.8508C27.2741 15.606 27.3491 15.3796 27.4072 15.1475C27.4284 15.0652 27.4638 14.9449 27.3484 14.9063C27.2203 14.8634 27.1934 14.9956 27.1693 15.0729C27.0985 15.3128 27.0412 15.5596 26.9746 15.8023C26.8465 16.265 26.7134 16.7271 26.5874 17.1899C26.5668 17.2602 26.535 17.3573 26.6454 17.3945C26.7559 17.4318 26.7998 17.3601 26.8295 17.2806C26.8514 17.2064 26.8679 17.1307 26.879 17.0541C27.3583 17.5113 27.747 17.557 28.1682 17.2335C28.5286 16.9599 28.6779 16.27 28.4578 15.9148ZM27.5445 17.2117C27.2097 17.2075 26.9923 16.9782 26.9959 16.6336C27.0008 16.2172 27.3888 15.8409 27.8043 15.8501C28.1229 15.8571 28.2914 16.0442 28.2921 16.3923C28.2914 16.8854 27.9884 17.2173 27.5438 17.2117H27.5445Z" fill="#FE0396"/>
<path d="M16.0999 16.6209C16.2281 16.6139 16.3576 16.6209 16.4865 16.6209C16.6153 16.6209 16.7449 16.6209 16.8737 16.6209C17.268 16.6209 17.3537 16.5112 17.2617 16.1363C17.1541 15.6982 16.8256 15.523 16.3201 15.663C15.8791 15.7854 15.6646 16.1237 15.5718 16.5407C15.5067 16.8326 15.5839 17.1034 15.833 17.2841C16.1403 17.5028 16.4801 17.5148 16.8171 17.3347C16.9141 17.2834 17.084 17.2405 17.0146 17.1027C16.953 16.9803 16.8291 17.1027 16.7392 17.1357C16.3852 17.2764 16.0546 17.23 15.9095 17.0133C15.843 16.9135 15.7998 16.7981 15.8493 16.6849C15.8989 16.5717 16.0129 16.6265 16.0999 16.6209ZM16.1637 15.9802C16.4412 15.7361 16.7534 15.7601 16.958 16.0118C16.9951 16.057 17.0209 16.1102 17.0332 16.1672C17.0455 16.2242 17.044 16.2833 17.0288 16.3396C16.9948 16.4936 16.8567 16.4099 16.7654 16.4226C16.6598 16.4296 16.5539 16.4296 16.4482 16.4226C16.4011 16.4261 16.3538 16.4261 16.3067 16.4226C16.1757 16.4008 15.981 16.4992 15.9251 16.3621C15.8522 16.1891 16.0476 16.0829 16.1637 15.9802Z" fill="#FE0597"/>
<path d="M30.8832 15.656C30.2559 15.445 29.6089 15.9682 29.6089 16.6863C29.6089 17.3123 30.166 17.6323 30.7968 17.3594C30.9002 17.3144 31.097 17.2834 31.0205 17.1174C30.9441 16.9515 30.818 17.1069 30.7225 17.1442C30.3119 17.3045 30.0145 17.2089 29.8666 16.8762C29.7852 16.6955 29.8163 16.6167 30.023 16.6188C30.3522 16.6188 30.6814 16.6188 31.0099 16.6188C31.1302 16.6188 31.2456 16.6188 31.2973 16.4781C31.4063 16.1757 31.2003 15.7622 30.8832 15.656ZM31.0304 16.3248C30.9979 16.4971 30.8435 16.4099 30.7416 16.4226C30.6369 16.4293 30.5319 16.4293 30.4273 16.4226C30.3802 16.4273 30.3328 16.4273 30.2857 16.4226C30.1575 16.3987 29.9593 16.5028 29.9154 16.3558C29.8772 16.225 30.0287 16.0927 30.1441 15.9957C30.4138 15.7685 30.7303 15.7509 30.9278 15.9401C30.9775 15.9895 31.0133 16.0512 31.0313 16.1187C31.0493 16.1863 31.049 16.2574 31.0304 16.3248Z" fill="#FE0597"/>
<path d="M23.0498 15.6046C22.4877 15.6222 21.9878 16.1124 21.9878 16.6476C21.9866 16.7547 22.007 16.8609 22.0478 16.96C22.0886 17.0591 22.149 17.1491 22.2255 17.2245C22.3019 17.3 22.3928 17.3595 22.4928 17.3995C22.5928 17.4394 22.6999 17.459 22.8076 17.4571C23.3598 17.4452 23.8844 16.9107 23.8696 16.3776C23.8627 16.1675 23.7728 15.9686 23.6194 15.8239C23.4659 15.6792 23.2613 15.6004 23.0498 15.6046ZM22.8084 17.211C22.4735 17.211 22.2583 16.981 22.2625 16.6307C22.2675 16.2088 22.6236 15.8466 23.0328 15.848C23.3726 15.848 23.6097 16.0822 23.6034 16.4106C23.5949 16.8403 23.2275 17.2117 22.8084 17.211Z" fill="#FE0597"/>
<path d="M12.2459 15.6897C12.0602 15.6251 11.8602 15.612 11.6675 15.6517C11.5118 15.6757 11.2654 15.6517 11.2782 15.8205C11.2923 16.0041 11.5146 15.8276 11.6399 15.8656C11.6976 15.8713 11.7557 15.8713 11.8134 15.8656C11.8693 15.8817 11.9967 15.8459 12.1227 15.9085C12.3089 16.0013 12.3288 16.1602 12.2969 16.3206C12.2516 16.5478 12.1171 16.3438 12.0258 16.3508C11.8134 16.367 11.601 16.341 11.3886 16.3593C11.2421 16.3754 11.1061 16.4428 11.005 16.5493C10.9038 16.6559 10.8441 16.7947 10.8364 16.9409C10.8364 17.2595 11.0488 17.3938 11.3178 17.4417C11.4924 17.4629 11.6691 17.4268 11.8212 17.339C11.887 17.3045 11.9309 17.2236 12.0243 17.327C12.1872 17.5078 12.258 17.365 12.299 17.2187C12.3875 16.8987 12.4788 16.578 12.5475 16.2531C12.578 16.1387 12.5639 16.0171 12.508 15.9126C12.4521 15.8081 12.3584 15.7285 12.2459 15.6897ZM12.0109 17.0323C11.8934 17.1589 11.7362 17.2082 11.5812 17.2483C11.49 17.2751 11.3919 17.2665 11.3068 17.2244C11.2217 17.1822 11.1558 17.1096 11.1224 17.0211C11.0375 16.8291 11.1663 16.687 11.3228 16.5907C11.4297 16.5245 11.5493 16.4683 11.6428 16.4908C11.744 16.4985 11.8148 16.4838 11.8551 16.5119C11.9698 16.5871 12.1886 16.495 12.2091 16.6448C12.2254 16.7763 12.1135 16.917 12.0074 17.0323H12.0109Z" fill="#FE0497"/>
</g>
</g>
<defs>
<clipPath id="clip0">
<rect width="40" height="14.4578" fill="white" transform="translate(0 3)"/>
</clipPath>
</defs>
</svg>
