<svg width="40" height="20" viewBox="0 0 40 20" fill="none" xmlns="http://www.w3.org/2000/svg">
<mask id="mask0" mask-type="alpha" maskUnits="userSpaceOnUse" x="0" y="0" width="40" height="20">
<rect width="40" height="20" fill="#C4C4C4"/>
</mask>
<g mask="url(#mask0)">
<g clip-path="url(#clip0)">
<path d="M30.4022 7.74988C31.0204 6.96651 31.7546 6.71753 32.6351 6.91428C33.3827 7.08128 33.8855 7.70373 34.0148 8.57576C34.1089 9.21096 34.0579 9.85102 34.0676 10.4844C34.0762 11.071 34.0634 11.6582 34.0725 12.2455C34.0755 12.4131 34.0288 12.4787 33.8545 12.475C33.4294 12.4647 33.0043 12.4598 32.5792 12.475C32.3971 12.4805 32.3667 12.4088 32.3673 12.2479C32.374 11.317 32.3673 10.3866 32.3709 9.45447C32.3742 9.29277 32.3591 9.13122 32.326 8.97291C32.2082 8.45067 31.9276 8.21444 31.4467 8.24419C31.2222 8.26079 31.012 8.36057 30.8572 8.52399C30.7025 8.68742 30.6143 8.90272 30.6099 9.12777C30.5929 9.93664 30.6099 10.7461 30.5953 11.5568C30.591 11.855 30.7301 12.2534 30.5297 12.4228C30.356 12.5697 29.9704 12.4756 29.6795 12.472C29.43 12.472 29.1057 12.5801 28.9508 12.4216C28.796 12.2631 28.9083 11.9406 28.9053 11.6898C28.8877 10.2032 28.9417 8.71422 28.8567 7.22945C28.8458 7.03938 28.8828 6.95861 29.0947 6.97136C29.4184 6.98961 29.7428 6.98961 30.0664 6.97136C30.2741 6.95983 30.3615 7.02663 30.3615 7.23431C30.3603 7.37884 30.3834 7.52701 30.4022 7.74988Z" fill="#4A4A4A"/>
<path d="M20.3665 8.03468C20.627 7.4347 20.9659 7.03148 21.5452 6.89302C21.5847 6.88391 21.6229 6.86873 21.6624 6.86266C22.1774 6.78129 22.2302 6.82622 22.2302 7.34422C22.2302 7.62721 22.2193 7.9108 22.2344 8.19439C22.246 8.41787 22.2162 8.50592 21.9454 8.46402C21.292 8.362 20.7551 8.68992 20.6209 9.24678C20.5827 9.44497 20.5672 9.64688 20.5748 9.84859C20.5699 10.6271 20.5651 11.405 20.5748 12.1829C20.5784 12.4009 20.5329 12.4908 20.2936 12.478C19.911 12.458 19.526 12.4623 19.1398 12.478C18.9279 12.4859 18.8659 12.4173 18.8678 12.2054C18.8799 10.8919 18.8805 9.57835 18.8787 8.26484C18.8787 7.91141 18.8666 7.55737 18.8362 7.20516C18.8198 7.01022 18.8823 6.96225 19.0663 6.97075C19.4094 6.98472 19.7538 6.98047 20.0987 6.97075C20.2371 6.96771 20.2942 7.00354 20.2979 7.15293C20.3076 7.41466 20.338 7.67579 20.3665 8.03468Z" fill="#4A4A4A"/>
<path d="M0.192507 12.9262C-0.0108937 12.4394 -0.0553136 11.9009 0.0655891 11.3874C0.0923088 11.402 0.110526 11.4378 0.135424 11.4426C0.290884 11.4742 0.241696 11.1074 0.469421 11.2696C0.859893 10.8244 1.30563 10.4346 1.71978 10.0137C2.10782 9.61963 2.48008 9.2073 2.90395 8.84962C3.05941 8.71845 2.97075 8.60064 2.93613 8.47129C2.96682 8.4443 3.00583 8.42865 3.04666 8.42696C3.7189 8.47068 4.13427 8.09358 4.46037 7.5689C4.67656 7.48388 4.75186 7.29866 4.7968 7.09219C4.80889 7.0854 4.82225 7.08119 4.83605 7.07983C4.84985 7.07848 4.86378 7.08 4.87696 7.0843C4.99112 7.24583 5.08282 7.13895 5.16784 7.05515C5.56135 6.66589 5.95728 6.27724 6.3429 5.8807C6.89794 5.31169 7.49184 4.77972 8.00984 4.17428C8.15741 4.00182 8.31348 4.06801 8.46711 4.16578C8.53088 4.27083 8.49748 4.36132 8.41914 4.43905C7.91875 4.93518 7.45845 5.47929 6.93559 5.94385C6.28642 6.52076 5.74717 7.20575 5.07068 7.74986C5.03697 7.77235 5.00942 7.8029 4.99054 7.83875C4.97166 7.8746 4.96205 7.9146 4.96258 7.95512C4.96623 8.04256 4.92432 8.08204 4.83384 8.07657C4.64498 8.07293 4.56361 8.2041 4.53021 8.35834C4.49742 8.50105 4.44215 8.59578 4.2873 8.62797C4.11787 8.66319 4.02861 8.81926 3.91748 8.9316C3.44381 9.3992 2.975 9.87226 2.50316 10.3423C2.43757 10.4073 2.37138 10.4753 2.43514 10.5791C2.46072 10.6122 2.47364 10.6533 2.47158 10.6951C2.28393 10.9058 2.04649 11.0649 1.85945 11.275C1.43437 11.5538 1.09308 11.926 0.735403 12.2801C0.52286 12.4908 0.605449 12.7792 0.513752 13.0197C0.479138 13.0932 0.416589 13.2074 0.352219 13.1618C0.209511 13.0592 0.344932 12.9104 0.334001 12.7938C0.299387 12.8388 0.319426 12.9578 0.192507 12.9262Z" fill="#006281"/>
<path d="M2.68836 14.9727C2.45628 14.9515 2.22944 14.8913 2.01733 14.7948C2.06409 14.6235 2.09021 14.5901 2.23291 14.6733C2.40112 14.7705 2.48068 14.6885 2.58756 14.5889C2.89605 14.3004 3.1851 13.9914 3.48934 13.698C3.56404 13.6258 3.6782 13.5657 3.60776 13.3974C3.55614 13.276 3.73772 13.2499 3.81362 13.1794C3.9958 13.1078 4.15612 13.0203 4.19438 12.7963C4.20713 12.7234 4.26968 12.6195 4.34862 12.6274C4.61096 12.6554 4.71784 12.4495 4.86419 12.3092C5.34515 11.8483 5.78177 11.3437 6.29673 10.9186C6.44855 10.7941 6.27973 10.5937 6.46312 10.5148C6.59733 10.454 6.74975 10.4886 6.86817 10.3326C7.06012 10.0725 7.29336 9.84563 7.55863 9.66094C7.61485 9.64464 7.66615 9.61464 7.70791 9.57362C7.74967 9.5326 7.78059 9.48185 7.79789 9.42592C7.99768 9.14476 8.2752 8.94011 8.50657 8.69053C8.51637 8.68274 8.52445 8.67301 8.53032 8.66196C8.53619 8.6509 8.53972 8.63876 8.54069 8.62628C8.54166 8.6138 8.54005 8.60126 8.53595 8.58943C8.53186 8.5776 8.52537 8.56674 8.51689 8.55753C8.50232 8.40511 8.63835 8.43001 8.71486 8.396C8.85636 8.33528 9.02275 8.31949 9.10898 8.16524C9.15999 8.06079 9.13691 7.90837 9.29116 7.87011C9.57657 7.66303 9.79397 7.3843 10.0545 7.14989C10.2398 6.9933 10.4141 6.82408 10.5761 6.64343C10.5974 6.61461 10.6263 6.59233 10.6596 6.57913C10.6928 6.56592 10.7292 6.56232 10.7644 6.56874C10.8919 6.61489 10.929 6.7321 10.9775 6.84019C11.0249 7.01265 10.8883 7.04605 10.7905 7.14018C10.6041 7.32236 10.4261 7.51 10.244 7.69643C9.48427 8.4707 8.68814 9.21034 7.9655 10.0174C7.81149 10.1947 7.6466 10.3622 7.47179 10.519C7.14569 10.7795 6.8038 11.0249 6.59672 11.4032C6.22872 11.756 5.85039 12.0979 5.49393 12.4635C4.91156 13.0604 4.30915 13.6373 3.72922 14.2373C3.54036 14.4322 3.32356 14.6017 3.15596 14.8154C3.03754 14.9751 2.85536 14.9508 2.68836 14.9727Z" fill="#007F67"/>
<path d="M2.38168 10.615C2.18857 10.4522 2.37136 10.3587 2.4588 10.2706C3.00534 9.72409 3.5786 9.19335 4.09538 8.61219C4.11507 8.58969 4.13999 8.57238 4.16795 8.56179C4.19591 8.5512 4.22605 8.54766 4.2557 8.55147C4.40327 8.56057 4.4312 8.48284 4.45124 8.35046C4.49496 8.07051 4.67775 7.94602 4.93705 8.01768C4.83868 7.89258 4.85811 7.8355 4.9741 7.72619C5.50363 7.23552 6.07507 6.78068 6.48133 6.16855C6.50016 6.14001 6.54631 6.12847 6.58153 6.11208C6.97929 5.9299 7.19244 5.5376 7.50275 5.25583C7.79606 4.98985 8.05658 4.68136 8.35292 4.41537C8.38783 4.38727 8.41532 4.35105 8.43299 4.30987C8.45067 4.26869 8.458 4.22381 8.45434 4.17915C8.53935 4.06863 8.66324 4.18704 8.75797 4.12692L8.94015 4.18765C9.21645 4.35343 9.22435 4.36011 8.97598 4.63642C8.74765 4.89086 8.51203 5.13924 8.26062 5.37303C8.05779 5.56129 7.92176 5.82545 7.63756 5.91957C7.48818 5.99548 7.35519 6.10175 7.19305 6.15641C6.98232 6.27786 6.75156 6.38717 6.70723 6.67015C6.69955 6.71024 6.68281 6.74804 6.65829 6.78067C6.63377 6.8133 6.60211 6.83989 6.56574 6.85841C5.98216 7.19848 5.59411 7.75048 5.11923 8.20411C4.51197 8.78101 3.92656 9.38099 3.34419 9.98097C3.41221 10.0751 3.45168 10.1631 3.29683 10.2087C3.27072 10.2178 3.24096 10.2142 3.21363 10.2233C3.2419 10.2207 3.27028 10.2197 3.29865 10.2202C3.31152 10.2205 3.32416 10.2238 3.33555 10.2298C3.34693 10.2358 3.35676 10.2444 3.36424 10.2548C3.36788 10.3411 3.30351 10.3733 3.24278 10.4121C3.16957 10.4563 3.08535 10.4788 2.99988 10.4771C2.78855 10.4935 2.60758 10.6593 2.38168 10.615Z" fill="#00667F"/>
<path d="M3.55264 4.05697C3.65891 4.05697 3.76761 4.04603 3.86174 4.11283C3.49988 4.55829 3.10244 4.97361 2.67332 5.35469C2.59741 5.42392 2.52696 5.50044 2.52271 5.60914C2.51725 5.74091 2.42373 5.79982 2.33264 5.86419C2.07941 5.91216 1.90755 6.10163 1.75999 6.27288C1.3179 6.77752 0.785326 7.19167 0.363276 7.71332C0.256397 7.81837 0.308015 7.99812 0.181096 8.09346C0.0177415 7.737 -0.0156576 7.36171 0.0165275 6.9767C0.563067 6.43016 1.14118 5.91338 1.68894 5.36623C1.99622 5.0626 2.2707 4.72374 2.59133 4.43165C2.6138 4.411 2.64538 4.3946 2.6557 4.37092C2.83971 3.92762 3.20589 4.01992 3.55264 4.05697Z" fill="#174699"/>
<path d="M11.0079 12.3942C11.0055 12.6268 10.9428 12.8546 10.8257 13.0556C10.7486 12.9991 10.765 12.9171 10.765 12.8327C10.7055 12.9746 10.6179 13.1031 10.5077 13.2105C10.3974 13.3178 10.2666 13.4019 10.1231 13.4576C9.99438 13.5098 9.89358 13.579 9.84925 13.7169C9.8371 13.7551 9.82192 13.8074 9.78852 13.8195C9.40898 13.9604 9.32882 14.3867 9.03247 14.6089C9.10656 14.6496 9.21465 14.595 9.26809 14.6952C9.04342 14.8331 8.78847 14.9139 8.52541 14.9308C8.1987 14.9806 7.8726 14.9514 7.50763 14.9502C8.51448 14.0205 9.41384 13.058 10.3569 12.1404C10.42 12.0897 10.4761 12.0309 10.5239 11.9655C10.6138 11.8101 10.8172 11.824 10.9217 11.6734C10.986 11.5805 11.0346 11.6844 11.0316 11.7603C11.0225 11.9728 11.0589 12.1853 11.0079 12.3942Z" fill="#009E47"/>
<path d="M2.68835 14.9727C3.16202 14.9004 3.35938 14.4662 3.66484 14.1875C3.8871 13.9841 4.10146 13.7515 4.31583 13.5329C4.94313 12.8946 5.58744 12.2734 6.21414 11.6333C6.29855 11.5471 6.39632 11.3941 6.56696 11.4068C6.69327 11.6497 6.57121 11.9042 6.61494 12.1501C5.85342 12.659 5.2917 13.3804 4.64436 14.0108C4.53641 14.1289 4.41399 14.233 4.28 14.3205C4.11725 14.4122 4.113 14.6132 3.95025 14.6976C3.86038 14.7444 3.95997 14.819 3.98244 14.8767C3.55978 15.048 3.12437 15.0109 2.68835 14.9727Z" fill="#008364"/>
<path d="M7.42623 10.5148C7.42623 10.4947 7.42198 10.4601 7.43048 10.454C7.66428 10.3544 7.74505 10.1097 7.91205 9.95062C8.10698 9.76479 8.3007 9.57047 8.47984 9.37797C9.01788 8.80046 9.58992 8.25695 10.1462 7.70009C10.3818 7.46508 10.5579 7.14201 10.9053 7.01934C10.9338 7.00902 10.9302 6.90943 10.9417 6.85113C10.9484 6.84332 10.9567 6.83704 10.966 6.83273C10.9753 6.82843 10.9855 6.8262 10.9957 6.8262C11.006 6.8262 11.0162 6.82843 11.0255 6.83273C11.0348 6.83704 11.0431 6.84332 11.0498 6.85113C11.0601 7.09404 11.1008 7.34241 11.0067 7.57985C10.9678 7.87863 10.7164 8.0183 10.5209 8.18165C9.87655 8.71847 9.33366 9.35853 8.71485 9.91965C8.66438 9.96921 8.60904 10.0136 8.54968 10.052C8.44826 10.1128 8.24969 10.0769 8.34806 10.3223C8.38511 10.4146 8.20171 10.4589 8.09787 10.4947C7.8744 10.4972 7.65274 10.615 7.42623 10.5148Z" fill="#008364"/>
<path d="M11.0079 12.3942V11.6734C9.80307 12.7143 8.79501 13.8972 7.64606 14.9326H8.52417C8.12236 15.0383 7.69988 15.037 7.29871 14.929C7.23798 14.6575 7.32603 14.4516 7.58169 14.3369C7.63328 14.3179 7.6799 14.2875 7.71808 14.248C7.75625 14.2084 7.78499 14.1608 7.80213 14.1085C7.82096 14.0478 7.85193 13.981 7.90354 13.9628C8.23147 13.8474 8.3013 13.4691 8.58064 13.3088C8.67416 13.2547 8.65777 13.1509 8.7021 13.0744C8.7196 13.0525 8.74267 13.0357 8.7689 13.0258C8.93347 12.993 9.14176 13.0185 9.10957 12.7404C9.1035 12.6863 9.17334 12.6432 9.2207 12.605C9.57717 12.4386 9.73324 12.0208 10.1207 11.8902C10.1869 11.8677 10.202 11.7803 10.2294 11.7153C10.2567 11.6503 10.281 11.5605 10.3429 11.5447C10.5858 11.4839 10.7437 11.2896 10.9447 11.1639C11.0638 11.569 11.1299 11.9764 11.0079 12.3942Z" fill="#00994B"/>
<path d="M8.75494 4.12994C8.66628 4.218 8.55394 4.16881 8.45131 4.18217C8.24666 4.08197 8.11914 4.1603 7.9655 4.32244C7.33516 4.99044 6.68477 5.63778 6.03864 6.28999C5.73501 6.59362 5.42652 6.89118 5.12471 7.19603C5.06398 7.25675 5.01115 7.33387 4.92856 7.30837C4.82715 7.2774 4.88362 7.16991 4.86784 7.09643C4.73788 6.77883 4.76581 6.69382 5.02512 6.53471C5.28442 6.37561 5.4672 6.1236 5.68218 5.91348C6.16435 5.44103 6.63073 4.95157 7.12079 4.48701C7.26532 4.34977 7.28232 4.09411 7.52705 4.05403C7.94667 3.94655 8.35172 4.01638 8.75494 4.12994Z" fill="#006182"/>
<path d="M2.92766 8.50773C2.99871 8.58182 3.10316 8.53384 3.22583 8.58728C2.31128 9.54676 1.38156 10.4595 0.412969 11.4026C0.399002 11.4026 0.459122 11.2586 0.33949 11.2854C0.284229 11.3655 0.353457 11.5283 0.223502 11.5823C-0.00968785 11.6758 0.114194 11.4572 0.0656128 11.3874C0.0971828 11.022 0.225229 10.6717 0.436653 10.372C0.575717 10.4218 0.663771 10.3593 0.740287 10.2469C0.884209 10.0344 1.02024 9.80728 1.31415 9.78056C1.36091 9.7757 1.34816 9.75688 1.34573 9.73016C1.32873 9.53462 1.48358 9.51093 1.61414 9.46478C1.65179 9.45082 1.70705 9.45628 1.7277 9.42895C1.92871 9.15933 2.22505 8.97836 2.41695 8.7057C2.49103 8.60004 2.5469 8.48466 2.65196 8.40207C2.7637 8.38506 2.86268 8.40267 2.92766 8.50773Z" fill="#005D86"/>
<path d="M7.53129 4.05649C7.2064 4.58845 6.7133 4.96739 6.29125 5.41191C5.91961 5.80299 5.56254 6.22625 5.12955 6.53535C4.88665 6.71024 4.86661 6.86934 4.87207 7.09889H4.81135C4.77127 7.06124 4.7828 7.01387 4.78706 6.96833C4.7737 7.01509 4.78402 7.06488 4.76823 7.11164C4.74333 7.17601 4.75305 7.25678 4.67896 7.29747C4.66444 7.29891 4.64978 7.29692 4.63617 7.29164C4.62256 7.28637 4.61038 7.27796 4.60062 7.2671C4.50346 7.11104 4.60427 6.90699 4.47553 6.75943C4.4312 6.67988 4.3899 6.59972 4.4148 6.50438C4.78645 6.12787 5.18846 5.78234 5.54917 5.3949C5.64148 5.29592 5.85767 5.19815 5.60686 5.03662C5.64183 4.9582 5.70455 4.89547 5.78297 4.86051C5.96515 4.97103 6.11515 4.94188 6.17709 4.7257C6.22931 4.54352 6.48558 4.56538 6.50198 4.36134C6.8127 4.17187 7.1675 4.06679 7.53129 4.05649Z" fill="#005D86"/>
<path d="M3.55413 4.05691C3.43267 4.05691 3.31122 4.05691 3.18977 4.06359C3.02216 4.06966 2.92257 4.12007 2.81387 4.29314C2.63776 4.57491 2.37238 4.81174 2.12887 5.04068C1.68678 5.45727 1.29388 5.92547 0.825676 6.31594C0.619604 6.48356 0.431185 6.67177 0.263349 6.87766C0.206873 6.9475 0.147968 7.05984 0.0204425 6.9815C-0.000236727 6.81703 0.0206418 6.65001 0.0811691 6.49569C0.183797 6.39003 0.141896 6.24307 0.189262 6.1204H0.185619C0.270636 6.04571 0.367798 6.24186 0.452208 6.10704C0.461317 6.09186 0.508684 6.12708 0.498361 6.10704C0.399376 5.94247 0.381159 5.84835 0.603419 5.74268C0.759486 5.66738 0.967777 5.54593 0.928912 5.27266C0.905836 5.10323 0.965956 5.0759 1.1281 5.17124C1.19793 5.21193 1.18882 5.17125 1.19975 5.14331C1.30542 4.8749 1.71107 4.87308 1.7384 4.53605C2.06996 4.55366 2.16348 4.18201 2.43858 4.10732C2.79882 3.9888 3.18466 3.97137 3.55413 4.05691V4.05691Z" fill="#1C429C"/>
<path d="M3.98001 14.8768C3.9041 14.8616 3.79783 14.8907 3.76746 14.8002C3.73285 14.6879 3.87495 14.6788 3.91807 14.6108C4.11482 14.3071 4.43667 14.1389 4.67047 13.876C4.90427 13.613 5.15628 13.3847 5.40344 13.14C5.65059 12.8952 5.90565 12.6803 6.11151 12.4149C6.24086 12.2491 6.36474 12.172 6.5621 12.1963C6.71817 12.2613 6.73213 12.3949 6.72667 12.5382C6.23721 13.0744 5.75504 13.6161 5.18543 14.0752C5.06823 14.1699 5.02147 14.3235 4.93098 14.4395C4.63585 14.6351 4.34254 14.8312 3.98001 14.8768Z" fill="#008660"/>
<path d="M3.83856 13.2262C3.77783 13.3058 3.59201 13.3222 3.72075 13.5007C3.742 13.5292 3.6333 13.6738 3.56286 13.7436C3.21732 14.0806 2.85479 14.4007 2.51957 14.748C2.42606 14.8446 2.39812 14.8361 2.29974 14.7766C2.22019 14.728 2.09449 14.5749 2.01737 14.7948C1.81262 14.7407 1.62202 14.6429 1.45868 14.5081C1.57467 14.363 1.74713 14.3691 1.89956 14.3144C2.00401 14.2774 1.96028 13.9731 2.13821 13.9094C2.44184 13.8007 2.47828 13.4436 2.74548 13.3064C2.80924 13.2736 2.68111 13.174 2.77888 13.1284C3.10255 13.0762 3.42804 13.044 3.7505 13.007C3.79012 13.0257 3.82122 13.0587 3.83755 13.0993C3.85388 13.14 3.85424 13.1853 3.83856 13.2262V13.2262Z" fill="#007A6C"/>
<path d="M2.62402 8.4367C2.48495 8.66929 2.51653 9.04397 2.1042 9.05126C2.08611 9.05661 2.06969 9.06651 2.05651 9.08001C2.04333 9.09351 2.03382 9.11017 2.0289 9.12838C2.01372 9.41804 1.84125 9.5146 1.5777 9.54618C1.47385 9.55893 1.28317 9.60265 1.4611 9.79637C1.55037 9.89293 1.39552 9.93422 1.38034 9.92329C1.26435 9.83766 1.17387 9.77694 1.0931 9.9658C1.04087 10.0872 0.854444 10.0903 0.819222 10.2579C0.801612 10.3429 0.705664 10.4219 0.627934 10.4802C0.499801 10.5755 0.450613 10.4941 0.436646 10.3702C0.560367 10.0952 0.74895 9.85434 0.98622 9.66824C1.14957 9.53464 1.09735 9.45084 0.98622 9.34153C1.08399 9.22008 1.22913 9.13506 1.22123 8.94924C1.22312 8.90829 1.23647 8.86871 1.25977 8.83499C1.28307 8.80128 1.31538 8.77479 1.35301 8.75855C1.63417 8.62495 1.72526 8.28853 2.00703 8.15675C2.03679 8.14279 2.04286 8.08753 2.0714 8.05777C2.30885 8.1106 2.47888 8.25513 2.62402 8.4367Z" fill="#015A89"/>
<path d="M8.74586 13.0319C8.77318 13.2092 8.79444 13.3835 8.54364 13.4169C8.52724 13.4169 8.51206 13.4412 8.49991 13.4569C8.33534 13.6652 8.24122 13.9385 7.94183 14.0223C7.86957 14.0423 7.84953 14.1438 7.84406 14.23C7.84103 14.2749 7.81006 14.3569 7.79184 14.3575C7.40319 14.3575 7.37465 14.6612 7.30056 14.929C7.0408 14.9149 6.78938 14.8324 6.57184 14.6897C6.37387 14.4614 6.37934 14.4267 6.65322 14.332C6.72917 14.3059 6.79572 14.258 6.84451 14.1942C7.10016 13.8826 7.44874 13.6555 7.65703 13.2997C7.70257 13.2219 7.79427 13.2213 7.87504 13.2165C7.98556 13.2098 8.09851 13.2195 8.20357 13.1715C8.3815 13.1296 8.53756 12.9833 8.74586 13.0319Z" fill="#009551"/>
<path d="M8.14893 10.4279C8.18901 10.3581 8.33111 10.3921 8.31957 10.2834C8.30985 10.1619 8.21512 10.2397 8.15621 10.2281C8.14335 10.2228 8.13193 10.2145 8.12285 10.204C8.11378 10.1934 8.10732 10.1809 8.10399 10.1674C8.1015 10.1576 8.10113 10.1473 8.10293 10.1374C8.10472 10.1274 8.10862 10.1179 8.11437 10.1096C8.12012 10.1013 8.12759 10.0942 8.13627 10.089C8.14495 10.0838 8.15465 10.0805 8.16471 10.0793C8.83696 9.96761 9.11387 9.35063 9.5675 8.96684C9.98712 8.60855 10.3375 8.16889 10.8112 7.87376C10.9326 7.79906 10.8039 7.58348 11.0061 7.58105C10.9587 8.09866 10.7479 8.58779 10.4043 8.97777C10.1523 8.95773 10.0114 9.13505 9.85352 9.28565C9.41143 9.70709 8.99181 10.1516 8.55822 10.5822C8.39426 10.6058 8.25095 10.5706 8.14893 10.4279Z" fill="#008660"/>
<path d="M10.7595 6.61064C10.5338 6.77286 10.3297 6.96326 10.1523 7.17722C9.93668 7.42498 9.62455 7.57376 9.46241 7.87375C9.44437 7.89853 9.42026 7.91825 9.3924 7.93102C9.36453 7.94378 9.33385 7.94915 9.30331 7.94662C9.16971 7.86828 9.23894 7.73286 9.21161 7.62477C9.21932 7.55586 9.23543 7.48815 9.25958 7.42316C9.28205 6.99321 9.49459 6.70112 9.83831 6.43514C10.1098 6.22563 10.4456 6.03799 10.5597 5.6633C10.5755 5.61047 10.6314 5.59954 10.6812 5.63962C10.7705 5.79083 10.8634 5.94325 10.8834 6.12057C10.9405 6.30882 10.8713 6.46489 10.7595 6.61064Z" fill="#007A6B"/>
<path d="M8.20964 13.2371C7.64489 13.2055 7.49246 13.7575 7.12203 13.9998C6.92467 14.1292 6.90706 14.4717 6.54209 14.4249C6.41578 14.4085 6.56153 14.5956 6.56942 14.6909C6.31738 14.6018 6.08894 14.4564 5.90143 14.2658C6.08664 13.8687 6.3842 13.5735 6.73278 13.3167C6.86941 13.2159 6.87184 12.976 7.08863 12.9414C7.45178 13.0774 7.84286 13.1114 8.20964 13.2371Z" fill="#008F57"/>
<path d="M9.81704 4.65829C10.0247 4.77922 10.2025 4.94525 10.3375 5.1441C10.3867 5.22122 10.3982 5.31049 10.3217 5.36211C9.92391 5.62688 9.66522 6.05318 9.23831 6.28272C9.18724 6.31569 9.12927 6.33646 9.06888 6.34345C8.8612 6.26147 8.67598 6.14973 8.55939 5.94873C8.77011 5.46292 9.1952 5.15321 9.53769 4.77549C9.6136 4.69412 9.68344 4.60303 9.81704 4.65829Z" fill="#007175"/>
<path d="M2.07688 8.07111L2.09814 8.24601C1.73742 8.25329 1.72953 8.67838 1.43986 8.79255C1.20849 8.88606 1.19695 9.12958 1.25768 9.3652C1.16173 9.41803 1.08643 9.23949 0.988662 9.33848C0.748815 9.14965 0.556971 8.90683 0.428762 8.6298C0.39597 8.54964 0.456696 8.52535 0.509528 8.49681C0.575113 8.47312 0.654664 8.47069 0.702638 8.41665C0.974086 8.11302 1.28501 7.84764 1.58925 7.5768C1.59775 7.48996 1.59775 7.39766 1.7107 7.37033C1.92689 7.55615 2.02162 7.80331 2.07688 8.07111Z" fill="#01548E"/>
<path d="M9.81704 4.65829C9.412 4.95342 9.07982 5.32628 8.7689 5.71129C8.70817 5.78841 8.77922 5.97545 8.57093 5.94387C8.24529 5.95655 7.91926 5.93169 7.5993 5.86978C8.12884 5.51514 8.48713 4.98318 8.95229 4.56173C9.07375 4.4506 8.81991 4.501 8.86485 4.39655C8.94683 4.3 9.04217 4.43117 9.14905 4.39109C9.07314 4.31883 9.00452 4.25385 8.93651 4.18826C9.28568 4.24474 9.53527 4.48157 9.81704 4.65829Z" fill="#006C7A"/>
<path d="M7.06674 12.9578C6.96047 13.3537 6.48134 13.4503 6.3611 13.8432C6.3277 13.9531 6.06293 13.848 6.08297 13.9968C6.10726 14.179 5.99856 14.2045 5.90079 14.2671C5.53643 13.9804 5.54008 13.9816 5.17754 14.2749C5.10041 14.3357 5.01418 14.3873 4.93463 14.4426C4.94495 14.0575 5.29535 13.9355 5.50425 13.7035C5.81213 13.3622 6.21293 13.1041 6.44551 12.7003C6.52081 12.5697 6.63437 12.6165 6.71331 12.554C6.904 12.622 6.99751 12.7793 7.06674 12.9578Z" fill="#008B5C"/>
<path d="M1.11377 14.2586C0.885066 14.1016 0.6959 13.8937 0.561157 13.6513C0.626135 13.6045 0.727548 13.6215 0.771879 13.5438C0.971062 13.1928 1.36578 13.0021 1.53218 12.6268C1.60991 12.4513 1.75444 12.4835 1.89168 12.4762C2.05503 12.5491 2.14066 12.6961 2.23296 12.8369C2.25649 12.8925 2.29051 12.943 2.33316 12.9857C2.38356 13.0398 2.48498 13.0817 2.42607 13.1794C2.4028 13.2129 2.37056 13.239 2.33306 13.2549C2.29557 13.2708 2.25434 13.2758 2.21414 13.2693C2.19106 13.2693 2.13641 13.2086 2.14369 13.2693C2.17588 13.5541 1.87467 13.5511 1.76719 13.7175C1.6846 13.8462 1.53035 13.9112 1.47145 14.0818C1.42955 14.2081 1.23279 14.193 1.11377 14.2586Z" fill="#007076"/>
<path d="M9.03918 6.31489C9.42298 6.14243 9.7005 5.83758 9.97194 5.53516C10.0934 5.40278 10.36 5.40703 10.3363 5.1459C10.4814 5.28688 10.5979 5.45451 10.6794 5.63961C10.4335 6.16065 9.93187 6.42906 9.53046 6.79342C9.39322 6.91851 9.41205 7.08248 9.3665 7.23004C9.34342 7.30352 9.37986 7.39279 9.31245 7.45777C9.29545 7.44562 9.27116 7.43348 9.26934 7.41708C9.23169 7.04361 9.12906 6.68047 9.03918 6.31489Z" fill="#00776F"/>
<path d="M8.57397 10.5542C8.60312 10.3453 8.79441 10.2506 8.91465 10.117C9.28812 9.70829 9.7041 9.33968 10.0946 8.94496C10.2336 8.80468 10.3059 8.94496 10.4049 8.98504C10.3587 9.12471 10.2045 9.16722 10.134 9.28321C10.0241 9.2741 9.97555 9.32754 9.9804 9.43502C9.93425 9.68522 10.2324 9.70283 10.284 9.88683C9.77454 9.99432 9.56625 10.4334 9.28569 10.7947C9.23225 10.8627 9.22011 10.9623 9.12719 11.0024C8.87882 10.9313 8.71122 10.7607 8.57397 10.5542Z" fill="#008A5E"/>
<path d="M5.60813 5.03417C5.80853 5.02324 5.95913 5.053 5.74963 5.27283C5.44114 5.5965 5.1375 5.92868 4.79561 6.21409C4.68631 6.30579 4.62801 6.48554 4.44704 6.48918C4.23475 6.37328 4.07659 6.17848 4.00677 5.9469C4.2679 5.62808 4.7191 5.49873 4.88245 5.0864C4.95047 4.91454 5.10532 4.90786 5.23467 4.84349C5.39984 4.82831 5.40591 5.12283 5.60813 5.03417Z" fill="#01598A"/>
<path d="M5.23461 4.84593C5.27165 4.91516 5.28076 4.98682 5.20242 5.02811C5.07247 5.09552 5.16234 4.95463 5.12773 4.94249C5.02874 4.90909 4.99838 4.99714 4.98441 5.05605C4.90972 5.38033 4.61337 5.53032 4.4069 5.73436C4.34132 5.79995 4.26237 5.80237 4.24537 5.93719C4.23565 6.01613 4.08323 5.9299 3.99639 5.95358C3.87494 6.00399 3.80206 5.93051 3.72616 5.85763C3.48325 5.65177 3.49418 5.65845 3.70976 5.41008C3.92534 5.16171 4.19861 4.97164 4.38747 4.70262C4.36379 4.60424 4.16035 4.68744 4.20529 4.55444C4.25812 4.40263 4.40447 4.3504 4.5654 4.36376C4.83988 4.45485 5.04939 4.634 5.23461 4.84593Z" fill="#015290"/>
<path d="M9.26687 14.697C9.1278 14.618 8.92376 14.8294 8.86425 14.6818C8.81324 14.5567 9.08469 14.5367 9.1521 14.3909C9.19582 14.2962 9.30998 14.2361 9.30695 14.1104C9.30695 14.0909 9.31363 14.0563 9.32274 14.0545C9.6956 13.9762 9.73142 13.5128 10.08 13.3999C10.4116 13.2924 10.5895 13.0015 10.8245 12.6651V13.0555C10.5415 13.8268 10.0102 14.3624 9.26687 14.697Z" fill="#00A243"/>
<path d="M1.11371 14.2586C1.19873 14.1656 1.24366 13.9889 1.43009 14.1037C1.35904 13.8001 1.68515 13.7849 1.79445 13.6106C1.84486 13.5304 1.94263 13.48 2.02096 13.4187C2.04343 13.4005 2.08473 13.3981 2.09687 13.3768C2.14728 13.2894 1.92684 13.2226 2.07137 13.1272C2.17399 13.0592 2.18128 13.3094 2.30577 13.2062C2.33343 13.1851 2.36267 13.1663 2.39322 13.1497C2.35435 13.0216 2.12298 13.058 2.18553 12.8679C2.42844 12.8679 2.60333 12.9851 2.74543 13.1685C2.78976 13.2535 2.90028 13.205 2.97255 13.2936C2.72235 13.3896 2.50981 13.5219 2.47034 13.8134C2.4667 13.8414 2.41386 13.879 2.38046 13.8839C2.0489 13.9282 1.99182 14.1571 2.01914 14.4839C1.79688 14.2859 1.64081 14.4948 1.45803 14.5094C1.32285 14.4581 1.20393 14.3715 1.11371 14.2586V14.2586Z" fill="#007670"/>
<path d="M10.9441 11.1615C10.8227 11.3546 10.7012 11.4912 10.4425 11.5829C10.2397 11.6558 10.0733 11.9552 9.86685 12.141C9.66038 12.3268 9.43751 12.4859 9.24197 12.6797C9.15938 12.5819 9.23225 12.4768 9.22497 12.376C9.23109 12.3018 9.2546 12.23 9.29359 12.1665C9.35444 12.0868 9.38596 11.9886 9.38286 11.8884C9.38286 11.7852 9.40532 11.6783 9.55593 11.7244C9.57475 11.7305 9.58872 11.7469 9.60572 11.7524C9.60147 11.3795 10.0266 11.4317 10.1614 11.1919C10.2191 11.088 10.2889 10.9969 10.3211 10.8749C10.3648 10.7067 10.6526 10.6356 10.8154 10.7364C10.8105 10.8937 10.9927 10.9951 10.9441 11.1615Z" fill="#00964F"/>
<path d="M2.43697 4.10504C2.19407 4.20281 2.22929 4.67041 1.82971 4.55442C1.8127 4.54895 1.79145 4.55928 1.76898 4.56231C1.86736 5.00076 1.21212 4.88477 1.23945 5.27889C1.23625 5.29381 1.23006 5.30794 1.22126 5.3204C1.21245 5.33287 1.20122 5.34342 1.18822 5.35143C1.17522 5.35943 1.16074 5.36472 1.14564 5.36696C1.13054 5.36921 1.11515 5.36838 1.10038 5.36451C0.991682 5.31714 1.07609 5.2048 1.05605 5.1216C0.836221 5.2218 1.17325 5.48597 0.895126 5.5722C0.73663 5.62139 0.773673 5.97967 0.485222 5.83636C0.465182 5.99182 0.586028 6.10113 0.540483 6.2578C0.38563 6.02461 0.382594 6.19707 0.36559 6.31853C0.241101 6.30092 0.332798 6.10173 0.183411 6.11874C0.559915 5.02809 1.31718 4.36009 2.43697 4.10504Z" fill="#20409F"/>
<path d="M1.89103 12.4975C1.62322 12.509 1.60136 12.7653 1.46959 12.914C1.32263 13.0804 1.09065 13.1503 1.00321 13.3999C0.942479 13.5705 0.787626 13.7071 0.561116 13.6537C0.382307 13.4434 0.255973 13.1936 0.192505 12.925L0.349181 12.7276C0.420231 12.8649 0.349179 12.9936 0.338248 13.1229C0.435411 13.1096 0.428733 13.0416 0.438449 12.9845C0.757264 12.8588 0.937622 12.5685 1.18235 12.3554C1.23275 12.311 1.26069 12.2394 1.30927 12.1872C1.43072 12.0596 1.5291 11.892 1.74954 12.0001C1.81584 12.0625 1.86401 12.1417 1.88892 12.2293C1.91383 12.3168 1.91456 12.4095 1.89103 12.4975Z" fill="#006C7A"/>
<path d="M0.559871 8.55328C0.532539 8.55132 0.505274 8.55793 0.481873 8.57218C0.458472 8.58644 0.440097 8.60764 0.429308 8.63283C0.304657 8.4759 0.221162 8.29034 0.186401 8.09297C0.212514 7.93751 0.151787 7.75654 0.319393 7.64299C0.619382 7.68124 0.501574 7.91565 0.529508 8.05289C0.529508 7.94905 0.550154 7.81666 0.483355 7.68853C0.476448 7.67485 0.472546 7.65985 0.471911 7.64454C0.471277 7.62923 0.473924 7.61396 0.479675 7.59975C0.485426 7.58554 0.494148 7.57274 0.505257 7.56218C0.516365 7.55162 0.529603 7.54356 0.544082 7.53854C0.807635 7.41344 0.946698 7.15292 1.16167 6.97499C1.52117 6.67743 1.62684 6.70658 1.76894 7.16628C1.78108 7.24826 1.78715 7.32964 1.72278 7.39644C1.62501 7.45716 1.66206 7.55615 1.65356 7.63934C1.48474 7.58469 1.33049 7.6193 1.23454 7.76444C1.04143 8.05896 0.672823 8.19681 0.559871 8.55328Z" fill="#0C4D94"/>
<path d="M4.56666 4.36437L4.23813 4.55201C4.31708 4.65403 4.41181 4.55201 4.47497 4.5842C4.58245 4.63581 4.51019 4.65768 4.44582 4.668C4.06142 4.87994 3.80151 5.22851 3.49787 5.52971C3.42014 5.60683 3.3661 5.70703 3.25801 5.75197C3.10339 5.79449 2.94017 5.79449 2.78555 5.75197C2.60337 5.64934 2.64892 5.51271 2.75823 5.40279C3.13959 5.01778 3.47055 4.57752 3.94482 4.29089C3.99948 4.25809 3.95333 4.09049 4.09846 4.1749C4.26827 4.19656 4.42958 4.26183 4.56666 4.36437V4.36437Z" fill="#0C4D94"/>
<path d="M10.8154 10.7364C10.6478 10.7206 10.4845 10.8506 10.4153 10.9587C10.2817 11.1657 10.1632 11.4202 9.90636 11.4852C9.73086 11.5289 9.67682 11.5987 9.69018 11.7566C9.69625 11.8307 9.69018 11.9139 9.60455 11.9157C9.51893 11.9175 9.57783 11.7888 9.49403 11.7487C9.34707 11.8623 9.53836 12.0924 9.35679 12.192C9.21954 11.9892 9.28634 11.7669 9.29059 11.5489C9.28634 11.306 9.43209 11.1621 9.59423 10.9963C9.82742 10.7534 10.0479 10.4978 10.3072 10.2791C10.3727 10.2239 10.4055 10.1134 10.5227 10.1893C10.6633 10.3452 10.7637 10.533 10.8154 10.7364V10.7364Z" fill="#009254"/>
<path d="M10.5203 10.1899C10.3314 10.5044 9.86625 10.5585 9.78123 10.9726C9.77455 11.0072 9.73933 11.0601 9.71322 11.0625C9.46485 11.0886 9.41444 11.2835 9.3525 11.47C9.17032 11.3619 9.11992 11.1876 9.11688 10.9908C9.23044 10.5287 9.65796 10.2876 9.89418 9.90991C9.93487 9.84494 10.1505 9.88987 10.2853 9.8838C10.3889 9.96364 10.4699 10.0691 10.5203 10.1899Z" fill="#008E58"/>
<path d="M4.09845 4.17794C3.68733 4.58298 3.28046 4.99471 2.86145 5.39247C2.75457 5.49449 2.68291 5.58072 2.75457 5.72646C2.67745 5.86431 2.53777 5.8795 2.40296 5.90439C2.38239 5.90007 2.36356 5.88974 2.34886 5.87472C2.33416 5.85969 2.32425 5.84064 2.32037 5.81998C2.58332 5.1028 3.33269 4.78763 3.69887 4.15729C3.7353 4.09656 3.80757 4.12753 3.86161 4.10931C3.94845 4.11235 4.03226 4.10871 4.09845 4.17794Z" fill="#134A96"/>
<path d="M6.50318 4.36011C6.70115 4.44087 6.41088 4.49553 6.49225 4.57022C6.31007 4.6103 6.2457 4.7524 6.16008 4.89814C6.02344 5.1283 5.89045 5.04571 5.78418 4.85624C5.98142 4.63653 6.22778 4.46654 6.50318 4.36011Z" fill="#01598A"/>
<path d="M10.7595 6.61064C10.7037 6.42299 10.9065 6.30033 10.881 6.12057C11.0024 6.35012 11.0267 6.60153 11.048 6.85354H10.9399L10.7595 6.61064Z" fill="#007F67"/>
<path d="M0.187627 6.1145C0.187627 6.22077 0.1937 6.32644 0.195522 6.4321C0.197344 6.53776 0.134795 6.50862 0.0795339 6.49283C0.0745721 6.35845 0.112423 6.22597 0.187627 6.1145V6.1145Z" fill="#20409F"/>
<path d="M9.98043 9.43322C9.93185 9.2808 9.95432 9.20125 10.1341 9.2814C10.1092 9.35913 10.0436 9.39496 9.98043 9.43322Z" fill="#008660"/>
<path d="M17.5773 12.1884C17.5378 12.0669 17.5542 11.9279 17.5518 11.7961C17.5348 10.7953 17.5433 9.7921 17.4959 8.79315C17.454 7.89318 16.9494 7.22155 16.16 6.99443C15.147 6.70355 14.1596 6.84504 13.202 7.25616C13.0805 7.3096 13.0325 7.37761 13.0744 7.5106C13.168 7.80816 13.2518 8.10815 13.3441 8.4215C13.4558 8.37292 13.556 8.32738 13.6574 8.28608C14.1529 8.08629 14.6624 7.98245 15.1974 8.06686C15.4604 8.10876 15.6833 8.22353 15.7883 8.48405C15.8685 8.67959 15.877 8.80469 15.5776 8.81197C14.8361 8.8308 14.1044 8.93343 13.4631 9.35851C13.1248 9.57756 12.8694 9.90332 12.7374 10.2841C12.6053 10.6649 12.6043 11.0788 12.7344 11.4603C12.9882 12.209 13.6884 12.6347 14.5471 12.5873C15.093 12.5633 15.6079 12.3268 15.982 11.9285C16.0094 12.0082 16.0283 12.0907 16.0385 12.1744C16.0336 12.4325 16.1648 12.4938 16.4029 12.478C16.7065 12.4592 17.0101 12.4659 17.3138 12.478C17.5184 12.4811 17.669 12.472 17.5773 12.1884ZM15.8879 10.2797C15.8879 10.9429 15.628 11.2927 15.0985 11.3771C14.7845 11.4269 14.4973 11.2951 14.3807 11.0473C14.2538 10.7789 14.3199 10.3988 14.5465 10.2129C14.9047 9.92084 15.342 9.85708 15.778 9.89837C16.0094 9.92024 15.8241 10.1716 15.8879 10.2797V10.2797Z" fill="#4A4A4A"/>
<path d="M39.983 12.0323C39.963 11.8113 39.9605 11.5878 39.9593 11.3643C39.9557 10.6052 39.9678 9.84615 39.9514 9.08767C39.9229 7.76566 39.2452 6.99686 37.9821 6.86751C37.2272 6.78978 36.4949 6.91366 35.7801 7.17783C35.4965 7.28288 35.4285 7.42073 35.5451 7.68975C35.6173 7.86761 35.6712 8.05236 35.706 8.24114C35.7412 8.41847 35.808 8.41239 35.9489 8.34499C36.4706 8.10208 37.0177 7.98063 37.5971 8.06322C37.9493 8.11544 38.1721 8.29883 38.2395 8.57939C38.2729 8.71785 38.2693 8.8059 38.081 8.8053C37.8484 8.80722 37.6161 8.82466 37.3857 8.85752C36.7487 8.94072 36.1335 9.09678 35.641 9.54616C35.106 10.0356 34.9518 10.6599 35.1237 11.3455C35.2846 11.9874 35.7212 12.4052 36.3692 12.5363C37.1246 12.6894 37.8163 12.5327 38.4102 11.9078C38.4308 12.0262 38.4466 12.0833 38.4497 12.1404C38.4648 12.3918 38.5711 12.5078 38.845 12.4744C39.0836 12.4452 39.3308 12.4714 39.5737 12.4714C40.0291 12.472 40.0237 12.472 39.983 12.0323ZM38.3161 10.2603C38.3161 10.9247 38.0671 11.275 37.5466 11.371C37.2023 11.4317 36.9102 11.2975 36.7918 11.0182C36.7264 10.8692 36.7148 10.7021 36.7592 10.5455C36.8035 10.3889 36.9009 10.2527 37.0347 10.1601C37.3827 9.92266 37.7859 9.86254 38.1885 9.89291C38.4551 9.91295 38.2456 10.1601 38.3161 10.2603V10.2603Z" fill="#4A4A4A"/>
<path d="M27.8747 9.24497C27.7727 8.25694 27.4333 7.38552 26.4228 7.01873C25.3904 6.64344 24.3903 6.78189 23.5826 7.57438C22.7828 8.35775 22.5958 9.35488 22.7737 10.4328C22.9559 11.5338 23.6992 12.2959 24.7923 12.4975C25.6206 12.6511 26.4404 12.5843 27.2517 12.3596C27.5037 12.2904 27.6391 12.1969 27.5292 11.9048C27.4723 11.7319 27.4384 11.5522 27.4284 11.3704C27.4072 11.139 27.3367 11.071 27.0883 11.15C26.5831 11.3109 26.056 11.3321 25.5277 11.2848C24.958 11.2319 24.4868 10.8998 24.3739 10.4874C24.3307 10.3338 24.3405 10.2445 24.5451 10.2518C25.0601 10.2646 25.5775 10.2561 26.0918 10.2561V10.2634C26.5977 10.2634 27.1035 10.2542 27.61 10.2682C27.797 10.2737 27.8699 10.2075 27.8723 10.0332C27.8747 9.77025 27.8996 9.50488 27.8747 9.24497ZM26.0663 9.09679C25.8149 9.07918 25.5611 9.09315 25.3084 9.09254C25.0455 9.09254 24.7825 9.09254 24.519 9.09254C24.4042 9.09254 24.3326 9.08465 24.3459 8.92858C24.3872 8.44277 24.8366 8.00371 25.3346 7.98732C25.8525 7.96971 26.2181 8.29763 26.2995 8.83749C26.3293 9.03607 26.2758 9.10894 26.0663 9.09679Z" fill="#4A4A4A"/>
<path d="M1.84126 11.2271C1.76583 11.4761 1.72596 11.7345 1.72285 11.9947C1.70524 12.0688 1.73438 12.1611 1.64208 12.2096C1.54249 12.1708 1.63297 12.0584 1.58135 12.0214C1.31112 12.1993 1.24736 12.5679 0.918221 12.6894C0.823487 12.724 0.792516 12.8187 0.756688 12.9001C0.684423 13.0641 0.574507 13.0683 0.439087 12.9875C0.570864 12.8436 0.452447 12.6645 0.514995 12.5017C0.636448 12.1738 0.936438 12.0074 1.14777 11.7639C1.33676 11.5363 1.57352 11.353 1.84126 11.2271V11.2271Z" fill="#00687D"/>
<path d="M4.50713 7.58227C4.4798 7.46932 4.5472 7.37823 4.57514 7.27863C4.59275 7.24827 4.61036 7.24949 4.62797 7.27863H4.6887C4.7646 7.23613 4.68323 7.142 4.74942 7.09646C4.75307 7.05152 4.75732 7.00719 4.76157 6.96225H4.7974L4.81015 7.09646C4.80954 7.10637 4.80954 7.1163 4.81015 7.12621C4.83687 7.36304 4.83748 7.58227 4.50713 7.58227Z" fill="#006182"/>
<path d="M2.99201 10.5057L2.44244 10.6787C2.42179 10.6587 2.40175 10.638 2.38171 10.618C2.5809 10.547 2.76186 10.4152 2.98898 10.4358C3.02359 10.4571 3.0242 10.4808 2.99201 10.5057Z" fill="#00687D"/>
<path d="M3.77478 13.0373C4.11303 12.7222 4.32132 12.3286 4.45613 11.8926C4.68203 11.8064 4.69297 11.5847 4.75673 11.4007C4.80106 11.2726 4.82474 11.1433 4.99963 11.1414C5.02007 11.1397 5.03993 11.1338 5.05799 11.124C5.07606 11.1143 5.09195 11.101 5.10469 11.085C5.82369 10.2743 6.69816 9.61417 7.36068 8.74881C7.58623 8.62032 7.83308 8.53351 8.0894 8.49254C8.15013 8.42453 8.25883 8.51441 8.30802 8.41907C8.34263 8.36563 8.39729 8.36745 8.45133 8.36623C8.62562 8.31868 8.79422 8.2523 8.95415 8.16827C9.03674 8.12029 9.11629 8.06867 9.18187 8.18891C9.06042 8.44761 8.79565 8.43182 8.57461 8.50226C8.57068 8.50503 8.56744 8.50865 8.56512 8.51286C8.5628 8.51707 8.56148 8.52175 8.56125 8.52655C8.56125 8.53566 8.56914 8.54477 8.574 8.55327C8.59692 8.57807 8.60965 8.61059 8.60965 8.64436C8.60965 8.67813 8.59692 8.71065 8.574 8.73545L7.84528 9.46417C7.78292 9.56183 7.70003 9.64472 7.60238 9.70708C7.32495 9.94159 7.06628 10.1974 6.82872 10.4722C6.78803 10.5178 6.73824 10.7534 6.58035 10.5402C6.55423 10.505 6.37448 10.6435 6.45525 10.7121C6.58217 10.8214 6.47893 10.8299 6.42914 10.8785C5.85952 11.4378 5.29294 12.0001 4.71908 12.5545C4.63163 12.6396 4.56969 12.8163 4.37537 12.6906C4.30857 12.6475 4.25391 12.8011 4.25391 12.8181C4.25877 13.1084 4.05473 13.174 3.83551 13.228L3.77478 13.0373Z" fill="#007A6B"/>
<path d="M9.18122 8.18892C8.95897 8.17313 8.79197 8.34256 8.58185 8.3711C8.53631 8.37718 8.4938 8.42333 8.45068 8.3711C8.778 8.1956 9.12596 8.04257 9.26381 7.6521C9.35551 7.74137 9.22252 7.86039 9.30268 7.95148C9.13872 7.96545 9.27414 8.13427 9.18122 8.18892Z" fill="#007F67"/>
<path d="M7.60297 9.70708C7.65949 9.60489 7.74368 9.5207 7.84587 9.46417C7.84347 9.52783 7.8171 9.58822 7.77206 9.63327C7.72702 9.67831 7.66662 9.70467 7.60297 9.70708V9.70708Z" fill="#007F67"/>
<path d="M8.57397 8.73546V8.55328C8.76466 8.61401 8.66871 8.67474 8.57397 8.73546Z" fill="#007F67"/>
<path d="M6.51596 7.34058C6.11334 8.59337 5.30689 9.50609 4.15309 10.1176C3.99824 10.1996 3.84946 10.3174 3.65453 10.3065C3.56161 10.2457 3.43712 10.3623 3.35089 10.2536H3.29017C3.26891 10.2397 3.26162 10.2263 3.26891 10.213C3.2762 10.1996 3.28288 10.1929 3.29017 10.1929C3.43955 10.0587 3.29442 10.0781 3.22154 10.0587C3.21669 10.0587 3.21244 10.0411 3.21365 10.0332C3.21486 10.0253 3.22397 10.018 3.22944 10.0107C3.41648 9.86256 3.54461 10.0381 3.71525 10.1024C3.65878 9.97065 3.64663 9.85223 3.75351 9.75203C3.92294 9.59354 4.06625 9.40893 4.23628 9.25226C4.78282 8.74944 5.2905 8.20958 5.81518 7.68612C5.99614 7.50697 6.15767 7.19848 6.51596 7.34058Z" fill="#006C7A"/>
<path d="M6.51596 7.34059C6.06537 7.40739 5.87165 7.80332 5.56498 8.05959C5.30507 8.27699 5.08585 8.53386 4.85084 8.76887C4.55206 9.06765 4.22232 9.3391 3.95026 9.67006C3.81545 9.83463 3.58955 9.93057 3.86768 10.1625C3.61141 10.2342 3.46567 9.93908 3.23126 10.0107C3.75047 9.48241 4.26786 8.95287 4.7889 8.42698C5.17573 8.0359 5.56255 7.64483 5.95728 7.26164C6.11942 7.10436 6.23966 6.88514 6.49896 6.85538C6.48378 6.74486 6.72061 6.74971 6.62041 6.57482C6.59794 6.53656 6.73458 6.36775 6.82931 6.30823C6.92404 6.24872 7.01149 6.21775 7.03335 6.06533C7.05157 5.95238 7.11473 6.11694 7.17181 6.12059C6.83235 6.46369 6.69207 6.91064 6.51596 7.34059Z" fill="#00687D"/>
<path d="M2.99199 10.5057L2.98834 10.4358L3.23125 10.3751C3.31687 10.335 3.40189 10.3071 3.48569 10.3793C3.33605 10.4665 3.16509 10.5102 2.99199 10.5057Z" fill="#006C7A"/>
<path d="M3.48571 10.3787L3.23126 10.3745L3.35271 10.253C3.45413 10.2664 3.56647 10.216 3.65635 10.3058L3.48571 10.3787Z" fill="#00687D"/>
<path d="M3.29203 10.1929V10.2536C3.20154 10.2384 3.11895 10.3587 3.01025 10.2621C3.08616 10.151 3.19972 10.2087 3.29203 10.1929Z" fill="#00687D"/>
<path d="M2.38051 5.87829L2.21594 6.0131C2.03376 6.07383 1.9791 6.23536 1.89955 6.37746C1.79146 6.62644 1.7028 6.87967 1.7028 7.15597C1.62628 7.05031 1.64632 6.83594 1.47386 6.8487C1.28257 6.86327 1.2018 7.08067 1.05363 7.19059C0.895132 7.3084 0.824084 7.53369 0.601825 7.58653C0.495553 7.61142 0.530774 7.67822 0.544133 7.74927C0.575464 7.89573 0.567289 8.04789 0.520449 8.19015C0.482799 7.95635 0.544741 7.73531 0.317017 7.64361C0.734208 7.13715 1.2516 6.73271 1.68579 6.23779C1.84429 6.05561 2.01432 5.8127 2.32039 5.82181L2.38051 5.87829Z" fill="#134A96"/>
<path d="M8.74585 13.0306C8.97043 12.8473 9.15833 12.6231 9.29968 12.3699C9.28024 12.474 9.26 12.578 9.23895 12.6821C9.20494 12.7161 9.14361 12.7495 9.14179 12.7859C9.13754 12.88 8.99301 13.1229 8.90617 13.1418C8.81933 13.1606 8.80658 13.0586 8.74585 13.0306Z" fill="#009551"/>
<path d="M4.62799 7.27863H4.57515C4.56058 7.09645 4.5454 6.91427 4.53082 6.73209C4.73426 6.8839 4.57758 7.09948 4.62799 7.27863Z" fill="#006281"/>
<path d="M4.74945 7.09644C4.74945 7.17234 4.7701 7.26161 4.73791 7.32113C4.70572 7.38064 4.70026 7.3023 4.68872 7.27862C4.69054 7.21425 4.67718 7.14016 4.74945 7.09644Z" fill="#006281"/>
<path d="M0.559912 8.55327C0.494327 8.4561 0.499185 8.34558 0.587845 8.28668C0.873868 8.10085 1.06212 7.81665 1.3111 7.59379C1.47324 7.44865 1.55826 7.49359 1.65299 7.64298L1.69064 7.71524C1.26555 7.80755 1.07426 8.18466 0.796137 8.45428C0.766699 8.48743 0.730184 8.51354 0.689295 8.53068C0.648405 8.54781 0.604188 8.55553 0.559912 8.55327V8.55327Z" fill="#064F91"/>
<path d="M9.29664 4.54836C9.26203 4.57205 9.24198 4.59573 9.22012 4.59695C9.19826 4.59816 9.18429 4.57144 9.16608 4.55747C9.18551 4.53926 9.20251 4.51253 9.2268 4.50707C9.25109 4.5016 9.26445 4.52832 9.29664 4.54836Z" fill="#00667F"/>
<path d="M3.77781 5.82241L3.29199 5.69063C3.4936 5.30563 3.88408 5.09248 4.14216 4.75848C4.21989 4.65828 4.33406 4.66496 4.4458 4.668C4.49195 4.89208 4.27516 4.96192 4.16828 5.0609C3.96666 5.24672 3.80027 5.46352 3.57558 5.66817C3.64481 5.72161 3.79116 5.68882 3.77781 5.82241Z" fill="#065091"/>
<path d="M7.36006 8.74884C7.28719 9.10713 6.99084 9.29538 6.75948 9.53221C6.39512 9.90325 6.04594 10.2846 5.66154 10.6301C5.46296 10.8087 5.30993 11.0953 5.09982 11.1724C4.76157 11.2969 4.80165 11.5684 4.7221 11.7852C4.65591 11.9673 4.5721 11.9267 4.45612 11.8927C4.96986 10.4249 5.94817 9.38647 7.36006 8.74884Z" fill="#01776F"/>
<path d="M8.30736 8.41907C8.30433 8.49255 8.30432 8.49254 8.08875 8.49254C8.14765 8.42878 8.22781 8.42332 8.30736 8.41907Z" fill="#007F67"/>
<path d="M1.89954 6.37684C1.93233 6.19163 1.9882 6.02706 2.21592 6.01248L1.89954 6.37684Z" fill="#174699"/>
</g>
</g>
<defs>
<clipPath id="clip0">
<rect width="40" height="11.0109" fill="white" transform="translate(0 4)"/>
</clipPath>
</defs>
</svg>
