<svg width="40" height="20" viewBox="0 0 40 20" fill="none" xmlns="http://www.w3.org/2000/svg">
<mask id="mask0" mask-type="alpha" maskUnits="userSpaceOnUse" x="0" y="0" width="40" height="20">
<rect width="40" height="20" fill="#C4C4C4"/>
</mask>
<g mask="url(#mask0)">
<g clip-path="url(#clip0)">
<path d="M0.957489 11.4266H1.38986C1.63665 11.4266 1.83599 11.4462 2.05583 11.7C2.21138 11.8755 2.38236 12.2633 2.38236 12.8905C2.38236 13.1157 2.38401 13.3386 2.34137 13.5677C2.27287 13.929 2.10609 14.5082 1.15234 14.5082C0.897126 14.5082 0.957489 14.5016 0.957489 14.5016V11.427V11.4266ZM1.44798 15.0428C2.73163 15.0428 3.30635 14.4701 3.30635 12.9056C3.30635 12.4921 3.18478 11.7989 2.79958 11.376C2.40117 10.942 1.88597 10.8878 1.45079 10.8878H0.0200195V15.0428H1.44798Z" fill="#046148"/>
<path d="M5.49935 13.9666C5.49935 14.1042 5.4954 14.2889 5.34942 14.4212C5.22699 14.5289 5.05462 14.5371 4.98892 14.5371C4.82608 14.5371 4.67952 14.4779 4.61775 14.2766C4.60231 14.2131 4.59611 14.1491 4.59611 14.0879C4.59611 13.7844 4.79742 13.6567 5.02119 13.6022C5.13848 13.575 5.21744 13.5699 5.49933 13.5464V13.9667L5.49935 13.9666ZM5.49935 13.1718L5.0316 13.2178C4.52763 13.2756 4.33474 13.3216 4.11912 13.4649C3.77096 13.7016 3.76648 14.0477 3.76648 14.1614C3.76648 14.4453 3.85263 14.659 3.97004 14.7819C4.12472 14.9622 4.36984 15.0282 4.60652 15.0282C5.18686 15.0282 5.46369 14.7645 5.46369 14.7645L5.46766 14.9521H6.25015V12.9864C6.25015 12.7652 6.25544 12.4541 6.00167 12.234C5.86887 12.1203 5.75263 12.0678 5.57295 12.0422C5.39438 12.0102 5.33233 11.9973 5.15825 11.9973C4.63042 11.9973 4.2323 12.0901 4.00544 12.4939C3.90808 12.6689 3.91309 12.8443 3.91309 12.9785H4.63044C4.63704 12.8615 4.6423 12.6994 4.73374 12.5869C4.78005 12.5229 4.88844 12.4316 5.08919 12.4316C5.15462 12.4316 5.34469 12.4316 5.44155 12.59C5.49551 12.6835 5.49999 12.805 5.49999 12.9429V13.1717L5.49935 13.1718Z" fill="#046148"/>
<path d="M11.7288 13.9666C11.7288 14.1042 11.7248 14.2889 11.5777 14.4212C11.4585 14.5289 11.2855 14.5371 11.2155 14.5371C11.0538 14.5371 10.9095 14.4779 10.8469 14.2766C10.8312 14.2131 10.8267 14.1491 10.8267 14.0879C10.8267 13.7844 11.0269 13.6567 11.2518 13.6022C11.3691 13.575 11.4472 13.5699 11.7288 13.5464V13.9667L11.7288 13.9666ZM11.7288 13.1718L11.263 13.2178C10.7559 13.2756 10.5659 13.3216 10.3488 13.4649C10.0027 13.7016 9.99731 14.0477 9.99731 14.1614C9.99731 14.4453 10.081 14.659 10.1972 14.7819C10.3542 14.9622 10.6007 15.0282 10.8362 15.0282C11.418 15.0282 11.6942 14.7645 11.6942 14.7645L11.6982 14.9521H12.4779V12.9864C12.4779 12.7652 12.4845 12.4541 12.2322 12.234C12.0994 12.1203 11.981 12.0678 11.8035 12.0422C11.6241 12.0102 11.5629 11.9973 11.3877 11.9973C10.8601 11.9973 10.4629 12.0901 10.2346 12.4939C10.1386 12.6689 10.1448 12.8443 10.1448 12.9785H10.8601C10.8667 12.8615 10.872 12.6994 10.9637 12.5869C11.0095 12.5229 11.1178 12.4316 11.3189 12.4316C11.3843 12.4316 11.5741 12.4316 11.6735 12.59C11.7248 12.6835 11.7293 12.805 11.7293 12.9429V13.1717L11.7288 13.1718Z" fill="#046148"/>
<path d="M23.517 14.952H22.7005V13.1928C22.7005 13.0802 22.7005 12.9864 22.6913 12.8906C22.6834 12.7986 22.657 12.4998 22.301 12.4998C22.2067 12.4998 22.1267 12.5232 22.0756 12.5448C21.835 12.6551 21.8288 12.8506 21.8229 13.0058V14.9521H21.0048V12.0731H21.8229V12.4005C22.0284 12.2166 22.2143 12.0153 22.6733 12.0153C23.0588 12.0153 23.2498 12.1647 23.3286 12.257C23.5103 12.4611 23.5103 12.7259 23.5173 12.9323V14.9521L23.517 14.952Z" fill="#046148"/>
<path d="M9.39657 14.952H8.58067V13.1928C8.58067 13.0802 8.58067 12.9864 8.56721 12.8906C8.56192 12.7986 8.5341 12.4998 8.17612 12.4998C8.08482 12.4998 8.00484 12.5232 7.95374 12.5448C7.71256 12.6551 7.70554 12.8506 7.69882 13.0058V14.9521H6.88123V12.0731H7.69882V12.4005C7.90826 12.2166 8.09188 12.0153 8.55036 12.0153C8.93811 12.0153 9.12564 12.1647 9.2068 12.257C9.39013 12.4611 9.39013 12.7259 9.39659 12.9323V14.9521L9.39657 14.952Z" fill="#046148"/>
<path d="M13.0778 12.0717H13.8951V12.4067C14.052 12.2666 14.3288 12.0128 14.8196 12.0128C15.3812 12.0128 15.5373 12.348 15.5754 12.4586C15.9098 12.1352 16.1297 12.0128 16.45 12.0128C16.607 12.0128 16.7145 12.0384 16.8184 12.0762C17.2586 12.2452 17.2682 12.6366 17.2763 12.8904V14.9501H16.4447V13.0741C16.4407 12.8702 16.4341 12.7548 16.3812 12.6644C16.3707 12.6411 16.2894 12.4976 16.0828 12.4976C16.0128 12.4976 15.8795 12.5145 15.8169 12.549C15.5881 12.6582 15.5794 12.8483 15.5754 13.0024V14.9501H14.7652V13.0861C14.7652 12.8645 14.7678 12.4976 14.3988 12.4976C14.3154 12.4976 14.1702 12.5212 14.0986 12.5608C13.8951 12.6863 13.8895 12.8702 13.8951 13.1262V14.9501H13.0778V12.0717V12.0717Z" fill="#046148"/>
<path d="M19.6899 13.4503C19.6899 13.6137 19.6833 13.7707 19.6663 13.929C19.6492 14.0879 19.6213 14.4074 19.3766 14.5416C19.3061 14.5753 19.232 14.593 19.1559 14.593C18.6924 14.593 18.6505 14.1067 18.641 13.929C18.6304 13.7964 18.6221 13.6667 18.6221 13.5379C18.6221 13.4227 18.63 13.2627 18.6468 13.074C18.6634 12.9216 18.6973 12.6299 18.9332 12.492C19.0138 12.4513 19.0912 12.4345 19.1814 12.4345C19.6213 12.4345 19.6612 12.8961 19.6716 13.0741C19.6834 13.2002 19.6898 13.3271 19.6898 13.4503L19.6899 13.4503ZM20.5234 13.4649C20.5234 13.2094 20.5234 12.7313 20.2392 12.4067C19.8964 11.9974 19.4056 11.9974 19.2319 11.9974C19.0303 11.9974 18.5667 12.0053 18.2029 12.3354C17.7913 12.7024 17.7913 13.2883 17.7913 13.5848C17.7913 14.1475 17.9182 14.7424 18.6299 14.9502C18.8371 15.0134 18.9472 15.0246 19.1558 15.0246C19.3509 15.0246 19.8389 15.0246 20.2013 14.6217C20.5234 14.2651 20.5234 13.7306 20.5234 13.465" fill="#046148"/>
<path d="M6.34302 7.95514H13.9057L7.19824 5.89788L6.34302 6.35733L3.44043 7.10631L6.34302 7.95514Z" fill="#EF9826"/>
<path d="M0.0200195 5.02001V7.95511H6.34393V6.35728L0.0200195 5.02001Z" fill="#EB712D"/>
<path d="M13.9088 7.95514L6.34302 5.02005L6.34419 6.35733L13.9088 7.95514H13.9088Z" fill="#FEC02B"/>
<path d="M39.98 13.4725V7.9533H29.7939L27.6768 9.47962L29.7939 11.3188L39.98 13.4725Z" fill="#EF9826"/>
<path d="M29.7938 11.3188L27.025 8.93159L13.9097 7.95724L29.7938 13.4759V11.3188Z" fill="#FEC02B"/>
<path d="M13.9062 7.95324V7.95587L29.7938 11.318V7.95391H13.9062V7.95324Z" fill="#EB712D"/>
</g>
</g>
<defs>
<clipPath id="clip0">
<rect width="40" height="10.0628" fill="white" transform="translate(0 5)"/>
</clipPath>
</defs>
</svg>
