<svg width="40" height="20" viewBox="0 0 40 20" fill="none" xmlns="http://www.w3.org/2000/svg">
<mask id="mask0" mask-type="alpha" maskUnits="userSpaceOnUse" x="0" y="0" width="40" height="20">
<rect width="40" height="20" fill="#C4C4C4"/>
</mask>
<g mask="url(#mask0)">
<g clip-path="url(#clip0)">
<path fill-rule="evenodd" clip-rule="evenodd" d="M13.8118 18.3056C18.3714 18.8259 23.05 17.5477 25.5182 17.2849C26.2168 17.2099 26.7375 17.2617 27.0335 17.4874C27.4821 17.8302 27.471 18.2613 27.1003 19.0327C26.7196 19.8206 27.2182 20.1742 28.0907 19.8738C30.3253 19.1038 34.8564 15.0631 34.1975 9.23808C33.5278 3.32736 28.0053 -0.517279 19.6496 0.0562926C11.155 0.641293 5.64068 4.99701 5.03854 9.95986C4.66461 13.0463 6.88247 17.5142 13.8121 18.3056H13.8118Z" fill="#753C94"/>
<path fill-rule="evenodd" clip-rule="evenodd" d="M13.4535 10.4211L12.5064 8.81357L11.5607 10.4207H13.4535V10.4211ZM15.6407 11.9346C15.6772 11.9972 15.7009 12.0665 15.7102 12.1384C15.7196 12.2102 15.7144 12.2832 15.6951 12.3531C15.6757 12.4229 15.6426 12.4882 15.5976 12.545C15.5526 12.6018 15.4967 12.6491 15.4332 12.6839C15.3482 12.7322 15.252 12.7573 15.1543 12.7568C15.056 12.7573 14.9593 12.7321 14.8737 12.6839C14.7881 12.6357 14.7166 12.566 14.666 12.4818L14.0993 11.5186H10.915L10.3471 12.4821C10.1928 12.7443 9.84889 12.8346 9.58068 12.6839C9.51692 12.6493 9.4608 12.6022 9.41564 12.5454C9.37049 12.4886 9.33724 12.4233 9.31788 12.3533C9.29851 12.2834 9.29343 12.2103 9.30293 12.1384C9.31243 12.0664 9.33632 11.9971 9.37318 11.9346L10.0946 10.7086L10.0968 10.7043L12.0196 7.43893C12.1196 7.26821 12.305 7.16393 12.5064 7.16393C12.7082 7.16393 12.8932 7.26821 12.9943 7.43893L14.915 10.7014L14.9203 10.7104L15.6407 11.9346V11.9346ZM19.7346 9.94321L21.6464 8.07607C21.6985 8.02577 21.74 7.96549 21.7683 7.89882C21.7966 7.83215 21.8112 7.76047 21.8112 7.68804C21.8112 7.61561 21.7966 7.54392 21.7683 7.47725C21.74 7.41058 21.6985 7.3503 21.6464 7.3C21.5401 7.19659 21.3976 7.13873 21.2493 7.13873C21.1009 7.13873 20.9584 7.19659 20.8521 7.3L18.9389 9.16679L17.0271 7.3C16.9205 7.19658 16.7778 7.13874 16.6293 7.13874C16.4807 7.13874 16.338 7.19658 16.2314 7.3C16.1795 7.35037 16.1383 7.41063 16.1101 7.47722C16.082 7.54381 16.0675 7.61538 16.0675 7.68768C16.0675 7.75998 16.082 7.83155 16.1101 7.89814C16.1383 7.96473 16.1795 8.02499 16.2314 8.07536L18.1439 9.94321L16.2307 11.8111C16.179 11.8615 16.1378 11.9217 16.1098 11.9883C16.0817 12.0548 16.0672 12.1263 16.0672 12.1986C16.0672 12.2708 16.0817 12.3423 16.1098 12.4089C16.1378 12.4754 16.179 12.5357 16.2307 12.5861C16.3414 12.695 16.485 12.7479 16.6278 12.7479C16.7732 12.7479 16.916 12.695 17.026 12.5864L18.9389 10.7189L20.8521 12.5864C20.9621 12.695 21.106 12.7479 21.2493 12.7479C21.3978 12.7488 21.5406 12.6907 21.6464 12.5864C21.6985 12.5362 21.74 12.476 21.7683 12.4094C21.7967 12.3428 21.8113 12.2711 21.8113 12.1987C21.8113 12.1264 21.7967 12.0547 21.7683 11.9881C21.74 11.9215 21.6985 11.8613 21.6464 11.8111L19.7346 9.94321V9.94321ZM22.8853 7.13893C22.575 7.13893 22.3239 7.38536 22.3239 7.68714V12.2086C22.3239 12.5118 22.575 12.7568 22.8853 12.7568C23.196 12.7568 23.4471 12.5118 23.4471 12.2086V7.68714C23.4471 7.385 23.1964 7.13893 22.8853 7.13893V7.13893ZM30.0621 11.0786C30.0621 12.0046 29.291 12.7568 28.3435 12.7568H24.7214C24.4093 12.7568 24.1585 12.5118 24.1585 12.2086C24.1585 11.9054 24.4093 11.6593 24.7214 11.6593H28.3435C28.6714 11.6593 28.9385 11.3993 28.9385 11.0786C28.9385 10.7582 28.6714 10.4986 28.3435 10.4986H25.7239C24.776 10.4986 24.0046 9.74571 24.0046 8.82C24.0046 7.895 24.776 7.14214 25.7239 7.14214H29.3328C29.6435 7.14214 29.895 7.38714 29.895 7.69071C29.895 7.99393 29.6435 8.23929 29.3328 8.23929H25.7239C25.395 8.23929 25.1285 8.49929 25.1285 8.81964C25.1285 9.14 25.395 9.40107 25.7239 9.40107H28.3435C29.291 9.40107 30.0621 10.1532 30.0621 11.0786V11.0786Z" fill="white"/>
</g>
</g>
<defs>
<clipPath id="clip0">
<rect width="29.2857" height="20" fill="white" transform="translate(5)"/>
</clipPath>
</defs>
</svg>
