<svg width="40" height="20" viewBox="0 0 40 20" fill="none" xmlns="http://www.w3.org/2000/svg">
<mask id="mask0" mask-type="alpha" maskUnits="userSpaceOnUse" x="0" y="0" width="40" height="20">
<rect width="40" height="20" fill="#C4C4C4"/>
</mask>
<g mask="url(#mask0)">
<g clip-path="url(#clip0)">
<path d="M20.0016 4.00317H39.7777C39.9976 4.00317 39.9973 4.00317 39.9973 4.22274C39.9973 8.09821 39.9984 11.9736 40.0008 15.8489C40.0008 15.983 39.9638 16.0122 39.8346 16.0122C26.612 16.0093 13.3894 16.0093 0.166668 16.0122C0.0362544 16.0122 0.00134277 15.981 0.00134277 15.848C0.00538213 11.9583 0.00538213 8.06849 0.00134277 4.1786C0.00134277 4.0303 0.0400052 4 0.182825 4C6.7889 4.00385 13.3952 4.0049 20.0016 4.00317Z" fill="#860000"/>
<path d="M20.0577 15.4642C13.6103 15.4642 7.16293 15.4654 0.715535 15.4677C0.576177 15.4677 0.542419 15.4354 0.542419 15.2946C0.546651 11.7896 0.547901 8.28458 0.54617 4.77958C0.54617 4.57501 0.521357 4.59752 0.732846 4.59752C13.6182 4.59752 26.5034 4.59636 39.3884 4.59406C39.5289 4.59406 39.5615 4.63156 39.5615 4.76717C39.5576 8.27679 39.5576 11.7865 39.5615 15.2963C39.5615 15.4207 39.541 15.4654 39.4008 15.4654C32.9528 15.4627 26.5051 15.4623 20.0577 15.4642Z" fill="#FBFAFB"/>
<path d="M0.583659 4.55339C0.523934 4.54848 0.493062 4.57272 0.497101 4.6359C0.497101 4.65956 0.49335 4.68986 0.460747 4.68437C0.421507 4.67774 0.428432 4.64715 0.435356 4.61686C0.462189 4.50145 0.566058 4.49568 0.646268 4.49568C13.5214 4.49356 26.3964 4.49356 39.2711 4.49568C39.3695 4.49568 39.4691 4.52453 39.568 4.46683C39.562 4.53982 39.4904 4.51097 39.4742 4.55339C39.4243 4.58079 39.3704 4.56723 39.3184 4.56723C26.4591 4.56723 13.5998 4.56723 0.740616 4.56723C0.687527 4.56695 0.634727 4.57993 0.583659 4.55339Z" fill="#8B0000"/>
<path d="M0.583679 4.55341H39.4732C39.4778 4.55341 39.4841 4.55341 39.487 4.55629C39.4918 4.56198 39.4959 4.56817 39.4994 4.57476C39.4625 4.57735 39.4255 4.58226 39.3886 4.58226C26.5035 4.58226 13.6183 4.58226 0.733135 4.58226C0.682643 4.58139 0.626092 4.60072 0.583679 4.55341Z" fill="#780004"/>
<path d="M39.3571 15.3088C39.3043 15.3111 39.2518 15.3154 39.199 15.3154H0.899919C0.842214 15.3154 0.784509 15.3099 0.726804 15.307C0.699971 15.2571 0.713243 15.2032 0.713243 15.1515C0.713243 11.7525 0.713243 8.35346 0.713243 4.95444C0.713243 4.75248 0.687853 4.77036 0.899342 4.77036H39.2218C39.3949 4.77036 39.3949 4.77036 39.4004 4.9481C39.4004 4.98157 39.4004 5.01532 39.4004 5.04908C39.4004 8.34692 39.4004 11.645 39.4004 14.9432C39.3993 15.0655 39.4226 15.1931 39.3571 15.3088Z" fill="#860000"/>
<path d="M39.3572 15.3088C39.3441 15.2965 39.3322 15.2832 39.3214 15.2689C39.395 15.1798 39.3852 15.071 39.3852 14.9692C39.3871 11.6517 39.3886 8.33423 39.3898 5.01676C39.3898 4.95156 39.352 4.89443 39.3681 4.82951C39.3794 4.78364 39.3442 4.78623 39.3168 4.78508C39.2735 4.78335 39.2302 4.78508 39.1869 4.78508H0.935409C0.704589 4.78508 0.728248 4.76401 0.728248 4.99484C0.728248 8.43233 0.728248 11.8699 0.728248 15.3076C0.665638 15.2724 0.699395 15.213 0.699395 15.1671C0.697472 11.7394 0.696125 8.31163 0.695356 4.88375C0.695356 4.77613 0.721035 4.74497 0.830386 4.74728C1.19566 4.75421 1.56122 4.74988 1.92678 4.74988C14.3593 4.74988 26.7919 4.74882 39.2244 4.7467C39.3748 4.7467 39.4126 4.78306 39.4126 4.93425C39.408 8.35269 39.4061 11.7709 39.4071 15.189C39.4059 15.2288 39.4475 15.2998 39.3572 15.3088Z" fill="#7C0005"/>
<path d="M19.9838 11.4131H1.73921C1.70545 11.4131 1.67199 11.4131 1.63823 11.4131C1.57677 11.4131 1.5736 11.3701 1.57331 11.3233C1.57302 11.2766 1.58168 11.2368 1.64227 11.2385C1.70978 11.24 1.77701 11.2385 1.84424 11.2385C13.9833 11.2385 26.1224 11.2393 38.2616 11.2408C38.3193 11.2408 38.4174 11.1869 38.4269 11.3135C38.4313 11.3741 38.4209 11.4177 38.3441 11.4142C38.2625 11.4105 38.1805 11.4142 38.0989 11.4142H19.9838V11.4131Z" fill="#F6EDEF"/>
<path d="M11.0794 10.1387L11.1348 10.0608C11.2147 10.0111 11.1674 9.92198 11.1982 9.85879C11.2006 9.04659 11.2052 8.23439 11.2043 7.4219C11.2043 7.03182 11.1221 6.92391 10.7481 6.78715C10.7124 6.77417 10.6671 6.77273 10.6803 6.71675C10.6919 6.66857 10.734 6.68415 10.7637 6.68617C11.3365 6.72973 11.9063 6.67549 12.4767 6.63539C12.8004 6.61288 13.1207 6.64635 13.4231 6.77763C13.6669 6.88352 13.8559 7.04769 13.941 7.30678C14.1063 7.80795 13.8642 8.22747 13.338 8.35557C13.2468 8.37779 13.1536 8.39193 13.0229 8.41703C13.6072 8.66602 13.8458 9.18537 14.1545 9.64326C14.334 9.90928 14.5007 10.186 14.7826 10.3672C14.8403 10.4041 14.9702 10.4047 14.939 10.4982C14.9142 10.5732 14.8019 10.5247 14.7307 10.5204C14.1369 10.4858 13.7292 10.1488 13.3974 9.69058C13.2156 9.43985 13.0855 9.16085 12.9617 8.87982C12.8296 8.57976 12.6201 8.42626 12.2851 8.46348C12.1443 8.47935 11.9605 8.40174 11.872 8.49753C11.7909 8.58408 11.85 8.76412 11.8492 8.90146C11.8474 9.17527 11.8457 9.44966 11.8549 9.72318C11.8665 10.0645 11.9813 10.2027 12.3088 10.3025C12.3495 10.3147 12.4228 10.3025 12.4129 10.3741C12.4031 10.4456 12.3348 10.4136 12.2932 10.4139C11.7931 10.4162 11.293 10.4162 10.7929 10.4139C10.7531 10.4139 10.6858 10.4465 10.6801 10.3677C10.6752 10.3034 10.7401 10.3187 10.7753 10.3034C10.8364 10.2766 10.9005 10.2564 10.9637 10.2333C11.0093 10.2278 11.028 10.1563 11.0866 10.1822C11.1051 10.2278 11.1238 10.2688 11.1864 10.2656C11.3781 10.2548 11.5703 10.2548 11.762 10.2656C11.7811 10.2656 11.762 10.2722 11.7727 10.2601C11.7834 10.248 11.7568 10.2469 11.7479 10.2382C11.608 10.1652 11.5589 10.0483 11.5592 9.89428C11.5617 9.00197 11.5617 8.10975 11.5592 7.21763C11.5592 7.06067 11.6074 6.93661 11.7612 6.84255C11.5658 6.85265 11.3927 6.83937 11.2049 6.8538C11.2548 6.92391 11.3203 6.96777 11.3203 7.04625C11.3318 7.94356 11.3232 8.84058 11.3258 9.73761C11.3258 9.82416 11.3278 9.91072 11.3232 9.99728C11.322 10.0139 11.3188 10.0302 11.3137 10.046C11.2897 10.1037 11.2404 10.1427 11.1982 10.186C11.1827 10.2008 11.1641 10.2122 11.1437 10.2192C11.11 10.2241 11.0978 10.1941 11.0774 10.1776C11.0735 10.1717 11.0717 10.1648 11.072 10.1578C11.0724 10.1508 11.075 10.1441 11.0794 10.1387V10.1387Z" fill="#FBFCFC"/>
<path d="M7.51753 10.4174C7.24834 10.4174 6.97914 10.4174 6.70966 10.4174C6.67532 10.4174 6.6257 10.4364 6.61329 10.3825C6.59829 10.3161 6.65801 10.3204 6.69494 10.3077C7.02242 10.1961 7.12773 10.0628 7.13177 9.7154C7.13716 8.93215 7.13716 8.14881 7.13177 7.36537C7.13177 7.04366 7.01348 6.89825 6.70447 6.79582C6.66898 6.78399 6.60406 6.79582 6.61127 6.73004C6.61993 6.65098 6.68658 6.68704 6.72668 6.68935C7.25613 6.72369 7.78268 6.68589 8.30982 6.64088C8.65605 6.61203 9.00228 6.63424 9.32918 6.77216C9.70657 6.93085 9.9094 7.22918 9.90306 7.62071C9.90252 7.80944 9.84499 7.99361 9.73801 8.14909C9.63102 8.30457 9.47958 8.42411 9.3035 8.49206C9.02969 8.59708 8.74203 8.61583 8.45322 8.62074C8.26596 8.62391 8.07813 8.62507 7.89088 8.62074C7.8075 8.61843 7.76912 8.63661 7.77143 8.73038C7.77951 9.06651 7.77143 9.40322 7.78672 9.74021C7.80057 10.0596 7.92666 10.2019 8.23625 10.2919C8.27289 10.3026 8.31069 10.3101 8.34819 10.3187C8.3857 10.3274 8.43187 10.3279 8.42119 10.3845C8.41225 10.4307 8.37012 10.4197 8.33867 10.4197C8.06515 10.4177 7.79019 10.4174 7.51753 10.4174Z" fill="#FCFBFB"/>
<path d="M28.2178 10.4959C27.8239 10.4823 27.45 10.3825 27.0844 10.2417C27.014 10.2146 27.0059 10.1684 27.001 10.109C26.9788 9.82649 26.9549 9.54432 26.9335 9.26185C26.9309 9.22752 26.913 9.17818 26.9748 9.17529C27.0284 9.17183 27.0299 9.21828 27.042 9.25348C27.1548 9.58731 27.3248 9.88622 27.6003 10.1116C27.9341 10.3842 28.3072 10.4223 28.6936 10.2411C29.1373 10.0331 29.2279 9.46209 28.8779 9.11586C28.6604 8.90235 28.3799 8.79473 28.1084 8.67268C27.916 8.58612 27.718 8.51111 27.5374 8.39945C27.139 8.15362 26.9681 7.81201 27.0443 7.41182C27.1185 7.02433 27.4543 6.7133 27.8761 6.6328C28.1396 6.58202 28.3926 6.62819 28.6439 6.6983C28.7728 6.73742 28.9059 6.76058 29.0404 6.76726C29.1108 6.76928 29.1402 6.7912 29.1517 6.86333C29.1904 7.10512 29.2383 7.34546 29.279 7.58696C29.2848 7.61985 29.3116 7.6689 29.2556 7.68448C29.1996 7.70006 29.1867 7.65101 29.1708 7.60975C29.1275 7.4978 29.0906 7.38268 29.0369 7.27593C28.8214 6.84949 28.3378 6.63396 27.8984 6.76437C27.6788 6.82958 27.5259 6.96634 27.482 7.19716C27.4382 7.42798 27.5146 7.61379 27.7001 7.75459C27.9483 7.943 28.2385 8.04802 28.5216 8.16718C28.7163 8.24913 28.912 8.32847 29.0917 8.44215C29.4455 8.66633 29.6333 8.98054 29.6076 9.40554C29.5819 9.83053 29.3537 10.1303 28.9832 10.3248C28.7443 10.4483 28.4861 10.497 28.2178 10.4959Z" fill="#FBFBFB"/>
<path d="M32.2015 6.68445C32.7448 6.68445 33.2878 6.68705 33.8308 6.68185C33.9381 6.68185 33.982 6.70609 33.9874 6.82092C33.9987 7.06559 34.0284 7.30911 34.0452 7.55349C34.048 7.60225 34.0939 7.68188 34.0108 7.69775C33.9396 7.71189 33.9447 7.62937 33.9274 7.58465C33.8247 7.32036 33.6903 7.0806 33.4447 6.92104C33.3082 6.82885 33.1449 6.78442 32.9805 6.79467C32.7171 6.81054 32.5497 6.96317 32.5269 7.22486C32.5139 7.37287 32.5157 7.52262 32.5157 7.6715C32.5157 8.32991 32.5099 8.98833 32.518 9.64674C32.5229 10.0619 32.6446 10.2016 33.0408 10.306C33.0812 10.3167 33.1562 10.2982 33.1513 10.3683C33.1461 10.4532 33.0696 10.4148 33.0267 10.4151C32.4688 10.418 31.911 10.418 31.3532 10.4151C31.3117 10.4151 31.2441 10.4457 31.2326 10.3773C31.2205 10.304 31.2949 10.3196 31.3353 10.3078C31.756 10.199 31.8725 10.0536 31.8734 9.61731C31.8748 8.87234 31.8748 8.12746 31.8734 7.38268C31.8734 7.20293 31.8636 7.02001 31.704 6.89854C31.5119 6.75225 31.2961 6.76178 31.0875 6.84833C30.8059 6.96374 30.6342 7.19456 30.5104 7.46491C30.4816 7.52608 30.4611 7.58984 30.4389 7.65332C30.4364 7.66765 30.4286 7.68051 30.417 7.68934C30.4055 7.69816 30.391 7.7023 30.3765 7.70093C30.3263 7.69689 30.3333 7.65765 30.3361 7.62504C30.361 7.33652 30.3901 7.05088 30.4103 6.76351C30.4175 6.65935 30.4859 6.68416 30.5427 6.68416C31.0959 6.68359 31.6488 6.68368 32.2015 6.68445Z" fill="#FCFCFC"/>
<path d="M37.4535 10.418C37.1987 10.418 36.9439 10.418 36.6892 10.418C36.6517 10.418 36.5916 10.4431 36.585 10.3773C36.5784 10.3115 36.641 10.3271 36.6785 10.3196C37.0986 10.2521 37.169 10.1271 37.0014 9.73185C36.9194 9.5371 36.8282 9.34581 36.7498 9.1499C36.7166 9.06825 36.6739 9.03449 36.5801 9.03449C36.1909 9.04026 35.8011 9.03882 35.4119 9.03449C35.3282 9.03449 35.2806 9.05699 35.2497 9.13836C35.19 9.29531 35.1083 9.4439 35.065 9.60721C34.9759 9.94507 35.089 10.1491 35.4162 10.2726C35.4866 10.2994 35.63 10.2691 35.6124 10.3807C35.6003 10.4566 35.4681 10.4116 35.3934 10.4128C35.033 10.4177 34.6721 10.4157 34.312 10.4128C34.2733 10.4128 34.2176 10.4361 34.2035 10.3747C34.1894 10.3132 34.2505 10.3103 34.2854 10.2945C34.5994 10.1502 34.7759 9.88275 34.911 9.58644C35.2589 8.82127 35.5974 8.05177 35.9396 7.28372C36.0261 7.09069 36.1098 6.89709 36.1969 6.70465C36.2137 6.668 36.2154 6.61347 36.2725 6.6103C36.3403 6.60655 36.3418 6.67002 36.3591 6.70926C36.7203 7.51713 37.0784 8.32501 37.4396 9.13057C37.5533 9.38476 37.6739 9.63606 37.7919 9.88852C37.8857 10.0905 38.0277 10.2371 38.2452 10.3028C38.2804 10.3132 38.3295 10.317 38.322 10.3704C38.3127 10.4361 38.2556 10.4131 38.2175 10.4134C37.9627 10.4188 37.7083 10.4177 37.4535 10.418Z" fill="#FBFBFB"/>
<path d="M25.3037 10.4174C25.0489 10.4174 24.7941 10.4174 24.5397 10.4174C24.5019 10.4174 24.4401 10.4408 24.437 10.3744C24.4338 10.308 24.4967 10.3268 24.5348 10.3207C24.9554 10.2515 25.0276 10.1231 24.8605 9.73445C24.7768 9.54027 24.6891 9.34812 24.6086 9.15278C24.5752 9.07171 24.5307 9.03564 24.4378 9.03737C24.0486 9.04257 23.6588 9.0417 23.2702 9.03737C23.1871 9.03737 23.14 9.05757 23.1083 9.14067C23.0486 9.29734 22.9666 9.44535 22.9236 9.60894C22.8342 9.94883 22.9424 10.1473 23.2728 10.274C23.3432 10.3008 23.4834 10.2827 23.4698 10.3704C23.4548 10.4696 23.3256 10.4136 23.2479 10.4151C22.8925 10.4214 22.5367 10.4191 22.1804 10.4171C22.1377 10.4171 22.0734 10.446 22.0584 10.3784C22.0457 10.3207 22.1065 10.3147 22.1432 10.2979C22.3922 10.1854 22.5552 9.98691 22.681 9.75494C22.9632 9.23559 23.1729 8.68133 23.417 8.14352C23.6314 7.67149 23.8365 7.19514 24.048 6.72138C24.0659 6.68099 24.0665 6.61665 24.1297 6.6152C24.2001 6.6152 24.2032 6.68301 24.2232 6.72744C24.6325 7.6438 25.041 8.56034 25.4488 9.47709C25.5134 9.62135 25.5841 9.76388 25.6545 9.90584C25.7477 10.0934 25.8801 10.2388 26.0873 10.302C26.126 10.3135 26.1834 10.317 26.1739 10.3776C26.1643 10.4382 26.1052 10.4171 26.0671 10.4174C25.8138 10.4183 25.559 10.4174 25.3037 10.4174Z" fill="#FBFAFB"/>
<path d="M4.96666 10.4171C4.71189 10.4171 4.45712 10.4171 4.20265 10.4171C4.16571 10.4171 4.10455 10.4413 4.1057 10.3695C4.1057 10.3118 4.15879 10.3273 4.1937 10.3219C4.62649 10.2538 4.6966 10.134 4.52781 9.73039C4.4427 9.52669 4.3472 9.32645 4.26266 9.12448C4.25489 9.097 4.23758 9.07319 4.21384 9.05733C4.19009 9.04146 4.16147 9.03458 4.13311 9.03792C3.72917 9.04004 3.32524 9.04004 2.9213 9.03792C2.84946 9.03792 2.80589 9.06072 2.78021 9.13025C2.72914 9.265 2.66307 9.39397 2.61575 9.52986C2.47668 9.92976 2.59873 10.1646 3.00065 10.293C3.05287 10.3097 3.15501 10.2893 3.14174 10.3761C3.12933 10.4566 3.037 10.4156 2.98218 10.4162C2.6071 10.42 2.23202 10.4191 1.85693 10.4162C1.81423 10.4162 1.74989 10.4451 1.732 10.3822C1.71411 10.3193 1.78047 10.31 1.82115 10.2916C2.08083 10.1733 2.24356 9.96207 2.36935 9.71913C2.68875 9.09967 2.94294 8.44962 3.2306 7.81486C3.39535 7.4519 3.55144 7.08519 3.71446 6.72136C3.73379 6.67779 3.73696 6.60595 3.80996 6.61258C3.8694 6.61777 3.87228 6.67981 3.89075 6.72107C4.35354 7.75033 4.81519 8.77998 5.27567 9.81002C5.37954 10.0408 5.51832 10.2362 5.78002 10.3077C5.81175 10.3164 5.84955 10.3262 5.84638 10.3706C5.84205 10.4303 5.79271 10.4151 5.75809 10.4153C5.49524 10.4179 5.23095 10.4174 4.96666 10.4171Z" fill="#FBFAFA"/>
<path d="M18.7267 9.82358C18.7283 9.06938 18.7297 8.31517 18.7311 7.56097C18.7311 7.48393 18.7293 7.40718 18.7247 7.33015C18.7074 7.03066 18.5934 6.88755 18.3081 6.79637C18.2671 6.7831 18.1927 6.79378 18.1996 6.72799C18.208 6.64778 18.2839 6.68615 18.328 6.68586C18.8323 6.68298 19.3369 6.68298 19.8416 6.68586C19.8817 6.68586 19.9492 6.65297 19.957 6.72885C19.9628 6.79146 19.8993 6.78079 19.8612 6.79118C19.5012 6.88985 19.3745 7.04537 19.3728 7.41814C19.3693 8.17254 19.3693 8.92704 19.3728 9.68163C19.3735 9.76808 19.3825 9.85426 19.3996 9.93899C19.4104 10.0135 19.4442 10.0827 19.4963 10.137C19.5484 10.1914 19.6162 10.228 19.6901 10.2419C19.9613 10.3066 20.2239 10.2659 20.4821 10.1759C20.5318 10.1542 20.5687 10.1741 20.6039 10.2085C20.7222 10.2927 20.8491 10.2587 20.9749 10.2359C21.0526 10.1493 21.0384 10.0241 21.0955 9.92861C21.1073 9.91071 21.113 9.88955 21.1119 9.86818C21.1108 9.84682 21.103 9.82635 21.0895 9.80973C21.0808 9.79558 21.0769 9.77904 21.0782 9.76249C21.0795 9.74594 21.0861 9.73025 21.097 9.7177L21.4193 9.33338C21.4481 9.29991 21.4804 9.25952 21.5266 9.28895C21.5728 9.31838 21.5324 9.35964 21.5234 9.39195C21.4346 9.70529 21.3411 10.0175 21.2528 10.3311C21.2361 10.3888 21.2127 10.4177 21.1463 10.4177C20.2931 10.4138 19.44 10.4113 18.5871 10.4102C18.5251 10.3799 18.4587 10.4027 18.3949 10.3949C18.3424 10.3888 18.2778 10.4029 18.2683 10.3222C18.326 10.2999 18.399 10.3265 18.4428 10.2645L18.4881 10.2321C18.5222 10.2205 18.5536 10.2019 18.5802 10.1776C18.6068 10.1532 18.6281 10.1237 18.6428 10.0908V10.0908C18.7129 10.016 18.7103 9.91678 18.7267 9.82358Z" fill="#FBFBFB"/>
<path d="M16.1635 8.52292C16.1635 8.15794 16.1652 7.79295 16.1635 7.42653C16.1612 7.03615 16.0769 6.9193 15.714 6.78745C15.6802 6.77504 15.6306 6.7759 15.6418 6.71935C15.6531 6.6628 15.7018 6.68329 15.7359 6.68329C16.236 6.68213 16.7355 6.68213 17.2345 6.68329C17.2711 6.68329 17.3309 6.65674 17.3389 6.72339C17.347 6.79004 17.283 6.77735 17.2469 6.78889C16.9362 6.8893 16.8254 7.01163 16.8164 7.3391C16.7943 8.14563 16.7943 8.95244 16.8164 9.75954C16.8251 10.072 16.9445 10.2059 17.2403 10.302C17.2807 10.315 17.3522 10.3049 17.3378 10.3784C17.3257 10.439 17.2665 10.4128 17.2284 10.4128C16.7385 10.4149 16.2485 10.4149 15.7584 10.4128C15.7177 10.4128 15.6513 10.4416 15.643 10.3689C15.6352 10.3057 15.6984 10.315 15.7356 10.3025C16.0489 10.1984 16.1574 10.0544 16.1626 9.70212C16.1684 9.30829 16.1626 8.91445 16.1626 8.51917L16.1635 8.52292Z" fill="#FBFBFC"/>
<path d="M22.7289 12.7795C22.7385 12.7803 22.7482 12.7803 22.7578 12.7795C22.866 12.7683 23.0348 12.8309 23.0705 12.7533C23.1337 12.6165 23.0994 12.4437 23.0801 12.2864C23.0731 12.2328 23.0273 12.21 22.9791 12.1947C22.965 12.1914 22.9528 12.1828 22.945 12.1706C22.9373 12.1584 22.9347 12.1436 22.9378 12.1295C22.9444 12.0954 22.9756 12.0868 23.0053 12.0894C23.139 12.1049 23.2739 12.1061 23.4078 12.0928C23.4224 12.0901 23.4374 12.0933 23.4496 12.1016C23.4618 12.1099 23.4702 12.1228 23.473 12.1373C23.4746 12.1444 23.4746 12.1518 23.4731 12.1589C23.4716 12.166 23.4685 12.1728 23.4642 12.1787C23.4599 12.1846 23.4544 12.1895 23.4481 12.1931C23.4417 12.1967 23.4347 12.1989 23.4274 12.1996C23.3337 12.2209 23.3293 12.2916 23.3293 12.3672C23.3293 12.7036 23.3308 13.0404 23.3293 13.3771C23.3293 13.4763 23.3418 13.5611 23.4624 13.579C23.4912 13.5836 23.5201 13.6004 23.5146 13.6367C23.5138 13.6453 23.5112 13.6536 23.507 13.661C23.5027 13.6685 23.497 13.6749 23.49 13.68C23.4831 13.685 23.4751 13.6885 23.4667 13.6902C23.4583 13.6919 23.4497 13.6918 23.4413 13.6898C23.3026 13.6753 23.1628 13.6753 23.0241 13.6898C23.0098 13.6933 22.9948 13.6917 22.9815 13.6853C22.9683 13.6788 22.9578 13.668 22.9517 13.6546C22.9358 13.6125 22.9658 13.5935 22.9993 13.5808C23.0749 13.5519 23.0913 13.4899 23.0916 13.418C23.0916 13.2931 23.0893 13.1679 23.0951 13.0429C23.0988 12.9564 23.063 12.9368 22.984 12.9388C22.8062 12.9434 22.6284 12.9434 22.4505 12.9388C22.3706 12.9371 22.3371 12.9622 22.3417 13.0455C22.3475 13.1511 22.346 13.2573 22.3417 13.3629C22.3374 13.4685 22.3582 13.5548 22.4845 13.5724C22.5194 13.5773 22.5512 13.594 22.5437 13.6382C22.5362 13.6823 22.5018 13.6904 22.4672 13.6869C22.3233 13.6728 22.1783 13.6728 22.0344 13.6869C21.9961 13.6907 21.9528 13.6869 21.9438 13.637C21.9357 13.5929 21.9727 13.5793 22.0059 13.5721C22.0841 13.5539 22.0999 13.4951 22.1002 13.4301C22.1025 13.0698 22.1028 12.7088 22.1037 12.3485C22.1037 12.2654 22.0667 12.2111 21.9813 12.1964C21.945 12.1904 21.9124 12.1745 21.9158 12.1338C21.9205 12.0804 21.9666 12.083 22.0041 12.0856C22.1334 12.0949 22.2624 12.1076 22.3922 12.0876C22.4317 12.0816 22.4736 12.0856 22.4831 12.1344C22.4912 12.1759 22.46 12.1921 22.4254 12.2019C22.357 12.2209 22.3423 12.2749 22.342 12.3366C22.342 12.457 22.3443 12.5773 22.342 12.6973C22.3403 12.7596 22.3639 12.7839 22.426 12.7813C22.5267 12.7772 22.6279 12.7795 22.7289 12.7795Z" fill="#FBFBFB"/>
<path d="M9.13414 12.0937C9.2634 12.0859 9.39381 12.0787 9.52163 12.1041C9.68262 12.1358 9.81159 12.2077 9.85574 12.3796C9.89988 12.5516 9.8618 12.7103 9.72013 12.8202C9.63357 12.8871 9.63184 12.933 9.69359 13.0144C9.78332 13.1327 9.85949 13.2614 9.94576 13.3825C10.0035 13.4648 10.0661 13.5461 10.1766 13.5658C10.21 13.5721 10.2487 13.5831 10.2447 13.6255C10.2406 13.6679 10.2031 13.6765 10.1705 13.6832C10.0038 13.7218 9.86411 13.6728 9.7637 13.5357C9.66329 13.3987 9.56952 13.2498 9.47287 13.1067C9.45273 13.074 9.43097 13.0423 9.40766 13.0118C9.35976 12.9541 9.29225 12.9674 9.23455 12.9806C9.17684 12.9939 9.20367 13.0528 9.20194 13.092C9.19848 13.1734 9.20512 13.2556 9.20021 13.337C9.19242 13.4665 9.21723 13.5678 9.37333 13.579C9.40218 13.5816 9.44517 13.5943 9.43103 13.6419C9.42642 13.6585 9.41566 13.6726 9.40096 13.6814C9.38626 13.6903 9.36874 13.6932 9.35197 13.6895C9.19424 13.6741 9.03537 13.6741 8.87764 13.6895C8.86334 13.693 8.84826 13.6912 8.83517 13.6845C8.82208 13.6778 8.81186 13.6666 8.80637 13.6529C8.79281 13.6125 8.81561 13.59 8.85312 13.579C8.93217 13.5565 8.95352 13.4942 8.9541 13.4229C8.95679 13.0679 8.95814 12.7125 8.95814 12.3568C8.95814 12.2766 8.92352 12.2192 8.83378 12.2082C8.79483 12.2033 8.75155 12.1878 8.76512 12.137C8.77694 12.0928 8.82022 12.0923 8.86062 12.0928C8.95179 12.0946 9.04296 12.0937 9.13414 12.0937Z" fill="#FBFAFB"/>
<path d="M3.38125 12.7842C3.61207 12.9227 3.69574 13.0883 3.65217 13.2911C3.60486 13.511 3.42395 13.6685 3.18274 13.6916C2.9675 13.7121 2.75226 13.6596 2.53645 13.687C2.52201 13.6898 2.50705 13.6873 2.49422 13.6802C2.48139 13.673 2.47151 13.6615 2.46633 13.6477C2.45393 13.6065 2.48134 13.5863 2.51683 13.5756C2.59877 13.5511 2.60887 13.4824 2.60944 13.4146C2.61175 13.0741 2.6129 12.7337 2.60944 12.3929C2.60944 12.2957 2.57799 12.2117 2.45854 12.2016C2.42075 12.1988 2.39334 12.1783 2.40084 12.1361C2.40834 12.094 2.44498 12.0897 2.47903 12.0897C2.68994 12.0897 2.90172 12.075 3.11148 12.0911C3.4 12.1133 3.55956 12.2974 3.5284 12.5355C3.51599 12.6362 3.45915 12.7112 3.38125 12.7842Z" fill="#FBFAFB"/>
<path d="M6.06765 13.0406C6.06765 13.1786 6.06592 13.3104 6.06765 13.4423C6.0691 13.5337 6.13661 13.56 6.21192 13.5773C6.24971 13.5862 6.29328 13.5949 6.27914 13.6486C6.26847 13.6887 6.2324 13.6892 6.19662 13.689C6.05236 13.689 5.9081 13.689 5.76384 13.689C5.72806 13.689 5.69546 13.6797 5.68651 13.6399C5.67814 13.6044 5.70296 13.5868 5.7321 13.5779C5.81317 13.5533 5.82674 13.4855 5.82702 13.4177C5.82991 13.0672 5.82933 12.7163 5.82904 12.3655C5.82904 12.2789 5.795 12.2181 5.6995 12.2051C5.66632 12.2007 5.63025 12.1883 5.63515 12.143C5.64093 12.0894 5.68392 12.0926 5.72171 12.0928C5.84635 12.0928 5.971 12.0966 6.09679 12.096C6.13171 12.096 6.16662 12.0905 6.18335 12.1286C6.20009 12.1667 6.17239 12.1909 6.14123 12.2068C6.0815 12.2357 6.06506 12.289 6.06506 12.3511V12.7839C6.25894 12.6055 6.42715 12.4546 6.59017 12.298C6.64788 12.2434 6.60027 12.2169 6.5466 12.2019C6.51573 12.1932 6.49467 12.1751 6.50246 12.1399C6.50582 12.1256 6.51428 12.1131 6.52623 12.1046C6.53819 12.0962 6.55282 12.0924 6.56738 12.094C6.71568 12.094 6.86427 12.094 7.01257 12.094C7.02476 12.0942 7.0365 12.0986 7.04573 12.1066C7.05496 12.1146 7.0611 12.1255 7.06306 12.1376C7.06607 12.1495 7.06443 12.162 7.05848 12.1728C7.05253 12.1835 7.04272 12.1915 7.03104 12.1953C6.74626 12.3205 6.55843 12.568 6.32242 12.7544C6.24625 12.8147 6.25058 12.858 6.3155 12.9232C6.48861 13.0963 6.6574 13.2741 6.82503 13.4524C6.88232 13.5108 6.95525 13.5515 7.03508 13.5695C7.06768 13.5782 7.10548 13.5897 7.10201 13.6318C7.10085 13.6403 7.09801 13.6485 7.09364 13.6558C7.08928 13.6632 7.08348 13.6696 7.07659 13.6747C7.06971 13.6798 7.06187 13.6834 7.05355 13.6854C7.04523 13.6874 7.0366 13.6877 7.02815 13.6864C6.86485 13.6809 6.70587 13.7051 6.57574 13.5421C6.43408 13.3586 6.24596 13.212 6.06765 13.0406Z" fill="#FCFBFB"/>
<path d="M17.1672 12.7812C17.3594 12.6064 17.5192 12.4639 17.6756 12.3173C17.7166 12.2789 17.7509 12.2287 17.66 12.2042C17.6222 12.1941 17.5968 12.1753 17.6078 12.1341C17.6123 12.1202 17.6216 12.1083 17.634 12.1006C17.6464 12.0928 17.6611 12.0897 17.6756 12.0917C17.8199 12.0917 17.9641 12.0917 18.1069 12.0917C18.1191 12.0909 18.1312 12.0942 18.1413 12.101C18.1514 12.1079 18.1589 12.1179 18.1626 12.1295C18.1724 12.1624 18.1528 12.184 18.1243 12.197C17.8412 12.3251 17.6519 12.5721 17.4168 12.7593C17.3559 12.8081 17.3424 12.8459 17.4047 12.9073C17.5841 13.0879 17.757 13.2749 17.9338 13.4581C17.988 13.5136 18.0575 13.5515 18.1335 13.5669C18.1704 13.5753 18.2149 13.5854 18.2013 13.6396C18.1915 13.678 18.1566 13.684 18.1208 13.6861C17.939 13.697 17.7826 13.6737 17.6514 13.5129C17.5146 13.345 17.34 13.2077 17.1733 13.0487C17.1733 13.191 17.1692 13.332 17.175 13.4728C17.1776 13.5447 17.2448 13.5557 17.2999 13.573C17.3354 13.5842 17.3839 13.5854 17.3784 13.6387C17.3729 13.6921 17.3288 13.6884 17.2898 13.6884C17.1505 13.6884 17.0114 13.6884 16.8721 13.6884C16.8383 13.6884 16.8011 13.6866 16.7887 13.6468C16.7763 13.607 16.8057 13.5871 16.84 13.5764C16.915 13.5528 16.9266 13.4899 16.9266 13.4261C16.9292 13.0703 16.9292 12.7146 16.9289 12.3586C16.9289 12.2775 16.896 12.2204 16.808 12.2059C16.7691 12.1996 16.7278 12.1852 16.7393 12.1332C16.7483 12.0928 16.7855 12.0876 16.8207 12.092C16.9498 12.1048 17.0798 12.1054 17.2091 12.0937C17.2232 12.0905 17.238 12.0918 17.2514 12.0974C17.2648 12.103 17.2761 12.1126 17.2838 12.1249C17.2873 12.1299 17.2897 12.1355 17.2909 12.1415C17.2922 12.1475 17.2922 12.1536 17.2909 12.1596C17.2897 12.1656 17.2872 12.1712 17.2837 12.1762C17.2802 12.1812 17.2757 12.1854 17.2705 12.1886C17.1337 12.2489 17.1713 12.3701 17.1675 12.4771C17.1646 12.5623 17.1672 12.6488 17.1672 12.7812Z" fill="#FBFBFB"/>
<path d="M24.6401 13.7014C24.1513 13.7037 23.8123 13.3771 23.8091 12.9007C23.8059 12.416 24.1553 12.0703 24.6499 12.0721C25.1303 12.0721 25.4681 12.4047 25.4664 12.8721C25.4655 13.3548 25.1225 13.6993 24.6401 13.7014Z" fill="#FBFAFB"/>
<path d="M31.1971 13.7011C30.7095 13.7011 30.3725 13.3751 30.3681 12.897C30.3638 12.4189 30.7121 12.0767 31.2 12.0715C31.6806 12.0666 32.0223 12.3941 32.0237 12.8612C32.0263 13.3586 31.6893 13.6999 31.1971 13.7011Z" fill="#FBFBFB"/>
<path d="M18.8118 13.2328C18.8118 13.5536 18.8222 13.5617 19.1465 13.5141C19.2819 13.4942 19.412 13.4654 19.5014 13.3479C19.5083 13.335 19.5199 13.3252 19.5338 13.3205C19.5477 13.3157 19.5628 13.3165 19.5762 13.3225C19.614 13.3413 19.6088 13.3765 19.605 13.4105C19.588 13.5381 19.4356 13.6875 19.2928 13.6901C19.0297 13.6944 18.7665 13.6416 18.5028 13.6901C18.4883 13.6932 18.4731 13.6905 18.4605 13.6827C18.4478 13.6748 18.4387 13.6624 18.435 13.648C18.4206 13.6053 18.4474 13.5851 18.4829 13.5753C18.5594 13.5542 18.5695 13.4971 18.5695 13.431C18.5695 13.0848 18.5695 12.7386 18.5695 12.3923C18.5695 12.2963 18.5626 12.2045 18.4333 12.1984C18.426 12.1986 18.4187 12.1972 18.412 12.1942C18.4053 12.1913 18.3993 12.1869 18.3944 12.1814C18.3895 12.1759 18.3859 12.1695 18.3838 12.1624C18.3817 12.1554 18.3812 12.148 18.3822 12.1407C18.3822 12.105 18.4088 12.0917 18.4399 12.0882C18.4687 12.0852 18.4977 12.0852 18.5265 12.0882C18.7991 12.1155 19.0736 12.1155 19.3462 12.0882C19.4616 12.0775 19.5092 12.1171 19.4884 12.2325C19.4832 12.2613 19.4847 12.2902 19.4809 12.319C19.4743 12.3687 19.4916 12.4388 19.4232 12.4489C19.3549 12.459 19.3655 12.3889 19.3537 12.3459C19.3519 12.329 19.3453 12.3131 19.3347 12.2998C19.3241 12.2866 19.31 12.2766 19.294 12.2712C19.1526 12.2351 19.0078 12.2469 18.8641 12.253C18.8124 12.2553 18.8165 12.3049 18.8159 12.3427C18.8103 12.4196 18.8112 12.4968 18.8185 12.5735C18.8297 12.6459 18.7625 12.7466 18.8672 12.7876C18.9951 12.8375 19.2187 12.7726 19.2744 12.6823C19.2896 12.6575 19.3012 12.6289 19.3364 12.6347C19.351 12.6369 19.3643 12.6443 19.3737 12.6557C19.3832 12.667 19.3882 12.6814 19.3877 12.6961C19.3877 12.8205 19.3877 12.9449 19.3843 13.0695C19.3848 13.0768 19.3838 13.0841 19.3813 13.0909C19.3789 13.0978 19.3752 13.1041 19.3703 13.1095C19.3654 13.1149 19.3594 13.1192 19.3528 13.1223C19.3462 13.1253 19.3391 13.127 19.3318 13.1272C19.3197 13.1284 19.3077 13.1253 19.2976 13.1186C19.2875 13.1119 19.2801 13.1019 19.2767 13.0903C19.2568 13.0372 19.2504 12.9668 19.1797 12.9613C19.0747 12.9529 18.9688 12.9561 18.8623 12.9578C18.8162 12.9578 18.8156 12.9979 18.8153 13.0323C18.8118 13.0984 18.8118 13.1656 18.8118 13.2328Z" fill="#FBFAFA"/>
<path d="M36.9146 12.5274C36.9146 12.8096 36.9146 12.8096 37.1944 12.7871C37.2749 12.7801 37.3626 12.7871 37.3823 12.6757C37.3837 12.6685 37.3867 12.6617 37.391 12.6558C37.3953 12.6499 37.4008 12.6449 37.4072 12.6414C37.4136 12.6378 37.4207 12.6357 37.428 12.6351C37.4353 12.6346 37.4426 12.6356 37.4495 12.6382C37.4612 12.6415 37.4715 12.6487 37.4786 12.6586C37.4857 12.6685 37.4892 12.6805 37.4884 12.6927C37.4884 12.8176 37.4884 12.9426 37.4884 13.0678C37.489 13.075 37.4882 13.0822 37.4859 13.089C37.4836 13.0959 37.48 13.1022 37.4752 13.1075C37.4704 13.1129 37.4646 13.1173 37.4581 13.1204C37.4516 13.1235 37.4446 13.1252 37.4374 13.1255C37.4254 13.1282 37.4129 13.126 37.4025 13.1195C37.3921 13.1129 37.3847 13.1025 37.382 13.0906C37.3629 12.9362 37.2484 12.953 37.1431 12.9547C36.8834 12.9587 36.9192 12.9155 36.9151 13.1855C36.9151 13.2144 36.9151 13.2432 36.9151 13.2721C36.9151 13.5375 36.9232 13.547 37.1921 13.5228C37.3456 13.5092 37.5003 13.4893 37.6067 13.3552C37.6293 13.3263 37.6564 13.305 37.6933 13.3263C37.7302 13.3477 37.7222 13.384 37.7155 13.4172C37.6927 13.5563 37.5268 13.6968 37.3693 13.693C37.12 13.6873 36.8713 13.6457 36.6217 13.6899C36.605 13.694 36.5872 13.6915 36.5723 13.6828C36.5574 13.6742 36.5464 13.66 36.5418 13.6434C36.5279 13.5998 36.5634 13.5825 36.5949 13.573C36.6785 13.5473 36.6814 13.4824 36.6814 13.412C36.6814 13.0756 36.6814 12.739 36.6814 12.4022C36.6814 12.3003 36.6733 12.2054 36.5372 12.1964C36.5298 12.1964 36.5226 12.1947 36.516 12.1915C36.5094 12.1883 36.5036 12.1837 36.499 12.178C36.4944 12.1723 36.4912 12.1656 36.4895 12.1584C36.4878 12.1513 36.4877 12.1439 36.4893 12.1367C36.4909 12.1222 36.4982 12.1089 36.5095 12.0997C36.5208 12.0905 36.5353 12.0861 36.5499 12.0874C36.5835 12.0862 36.6171 12.0871 36.6506 12.0903C36.9097 12.1127 37.1703 12.1136 37.4296 12.0932C37.6027 12.0816 37.6067 12.0833 37.5949 12.2634C37.5948 12.2874 37.5933 12.3114 37.5906 12.3352C37.5825 12.3811 37.5883 12.4469 37.5288 12.4506C37.4694 12.4544 37.4619 12.3947 37.4593 12.3456C37.4586 12.3261 37.451 12.3074 37.4378 12.293C37.4247 12.2785 37.4068 12.2691 37.3875 12.2666C37.2498 12.2351 37.1102 12.2466 36.9714 12.2524C36.9226 12.2544 36.9172 12.2997 36.9169 12.339C36.914 12.4025 36.9146 12.4651 36.9146 12.5274Z" fill="#FCFAFC"/>
<path d="M35.1877 12.916C35.1877 12.738 35.1877 12.5603 35.1877 12.3823C35.1877 12.2925 35.1764 12.2048 35.0549 12.1985C35.0464 12.1992 35.0378 12.1978 35.0299 12.1945C35.022 12.1911 35.015 12.1859 35.0096 12.1792C35.0042 12.1726 35.0004 12.1647 34.9987 12.1563C34.997 12.1479 34.9974 12.1392 34.9998 12.131C35.0076 12.0897 35.046 12.0842 35.0795 12.0856C35.1802 12.0903 35.2814 12.1041 35.3813 12.1038C35.5734 12.1038 35.7659 12.1009 35.9583 12.0888C36.0694 12.0819 36.1259 12.1079 36.1026 12.2302C36.0957 12.2677 36.1003 12.3072 36.0951 12.3456C36.0899 12.384 36.0913 12.4414 36.0374 12.4492C35.9756 12.4578 35.9736 12.4019 35.9687 12.3606C35.9598 12.2899 35.9173 12.2596 35.8533 12.257C35.7379 12.2527 35.6225 12.2516 35.5071 12.2484C35.4421 12.2466 35.4266 12.2853 35.4277 12.341C35.4277 12.418 35.4188 12.4962 35.4303 12.5718C35.4419 12.6474 35.3746 12.7449 35.4788 12.7862C35.6023 12.8361 35.8325 12.7712 35.8865 12.6832C35.9021 12.6581 35.9153 12.6292 35.9485 12.6341C35.988 12.6396 36.0027 12.6702 36.0025 12.7077C36.0025 12.8231 36.0018 12.9385 36.0004 13.0539C36.0004 13.0906 35.9898 13.122 35.9474 13.1267C35.9329 13.1284 35.9182 13.1245 35.9065 13.1159C35.8947 13.1073 35.8866 13.0945 35.8839 13.0802C35.8671 13.0248 35.8585 12.9599 35.7829 12.9587C35.6732 12.9523 35.5631 12.9556 35.454 12.9685C35.3994 12.9775 35.4199 13.4859 35.4736 13.5127C35.4913 13.5202 35.5104 13.5238 35.5296 13.5231C35.7416 13.5231 35.9572 13.5335 36.1164 13.3526C36.1407 13.3237 36.1698 13.3041 36.203 13.3283C36.2362 13.3526 36.2275 13.386 36.2206 13.4215C36.1938 13.556 36.0475 13.6919 35.9003 13.6925C35.6406 13.6925 35.3833 13.6448 35.1239 13.6899C35.1156 13.6918 35.1069 13.692 35.0985 13.6904C35.0901 13.6888 35.0821 13.6856 35.075 13.6808C35.0679 13.676 35.0619 13.6698 35.0573 13.6626C35.0527 13.6553 35.0496 13.6472 35.0483 13.6388C35.0408 13.6027 35.0656 13.586 35.0948 13.5779C35.1854 13.5537 35.1911 13.4827 35.1911 13.4077V12.9172L35.1877 12.916Z" fill="#FBFBFA"/>
<path d="M7.70563 13.2282C7.70736 13.5439 7.72871 13.5629 8.04147 13.515C8.17564 13.4945 8.30807 13.4688 8.39665 13.3494C8.41829 13.3205 8.44714 13.3021 8.48321 13.3275C8.51927 13.3528 8.51206 13.3831 8.5034 13.4181C8.46993 13.5594 8.31932 13.6927 8.16871 13.6916C7.91452 13.6893 7.6612 13.6443 7.40643 13.6881C7.39812 13.6901 7.3895 13.6904 7.38108 13.689C7.37265 13.6876 7.36459 13.6845 7.35738 13.68C7.35017 13.6754 7.34395 13.6694 7.33909 13.6624C7.33423 13.6554 7.33084 13.6474 7.3291 13.6391C7.32707 13.6321 7.32661 13.6248 7.32774 13.6176C7.32888 13.6104 7.33158 13.6036 7.33566 13.5976C7.33974 13.5916 7.34509 13.5865 7.35134 13.5828C7.35759 13.5791 7.36458 13.5769 7.3718 13.5762C7.46211 13.5531 7.47221 13.4836 7.47221 13.408C7.47221 13.0762 7.47481 12.7443 7.47048 12.4128C7.47048 12.3199 7.47683 12.2109 7.33603 12.1985C7.29881 12.1953 7.27082 12.1734 7.27832 12.1312C7.28582 12.0891 7.32333 12.0836 7.35795 12.0854C7.46327 12.0908 7.56887 12.1044 7.67533 12.1041C7.86259 12.1041 8.05042 12.1041 8.23709 12.0888C8.36347 12.079 8.40819 12.1206 8.38136 12.2432C8.37616 12.2663 8.38136 12.2914 8.37703 12.315C8.36924 12.3644 8.38857 12.4376 8.32221 12.4486C8.23998 12.4625 8.2645 12.3808 8.24921 12.3361C8.24341 12.315 8.2309 12.2963 8.21358 12.2829C8.19626 12.2694 8.17505 12.262 8.15313 12.2616C8.02849 12.255 7.90356 12.2527 7.77805 12.249C7.72034 12.2472 7.70592 12.283 7.70592 12.3329C7.70592 12.4578 7.70592 12.5828 7.70592 12.708C7.70398 12.7313 7.70965 12.7546 7.72207 12.7744C7.77545 12.8321 8.12139 12.7781 8.15861 12.7071C8.17593 12.6739 8.17852 12.6249 8.23017 12.6341C8.28787 12.6442 8.28095 12.6939 8.28037 12.7377C8.28037 12.8433 8.28037 12.9489 8.27864 13.0551C8.27864 13.0914 8.2671 13.1226 8.22382 13.1261C8.21675 13.1269 8.20958 13.1262 8.20278 13.1241C8.19597 13.122 8.18966 13.1186 8.18425 13.1139C8.17884 13.1093 8.17444 13.1036 8.17132 13.0972C8.1682 13.0908 8.16643 13.0838 8.16612 13.0767C8.14736 12.9642 8.06917 12.9524 7.97367 12.9527C7.70361 12.9527 7.70361 12.9504 7.70563 13.2282Z" fill="#FBFBFA"/>
<path d="M5.1721 13.6682C5.10804 13.6722 5.03649 13.6771 4.96465 13.6803C4.95024 13.6828 4.93542 13.6799 4.92292 13.6724C4.91042 13.6648 4.90106 13.653 4.89656 13.6391C4.88559 13.6039 4.90723 13.5842 4.93724 13.5756C5.0212 13.5522 5.00273 13.4931 4.98427 13.438C4.95541 13.3468 4.91733 13.2579 4.88732 13.1667C4.88192 13.1432 4.86774 13.1227 4.84768 13.1093C4.82763 13.0958 4.80321 13.0906 4.77941 13.0946C4.7269 13.0972 4.67381 13.0946 4.62101 13.0946C4.29412 13.0946 4.29585 13.0946 4.18592 13.399C4.15505 13.4856 4.14899 13.5482 4.25545 13.5747C4.28921 13.5831 4.32326 13.5966 4.31316 13.6411C4.30306 13.6855 4.2693 13.6881 4.2341 13.6875C4.12389 13.6875 4.01396 13.6844 3.90374 13.6812C3.87489 13.6812 3.84604 13.6751 3.83248 13.6431C3.82982 13.6365 3.82861 13.6293 3.8289 13.6222C3.82919 13.615 3.83099 13.608 3.83418 13.6016C3.83737 13.5952 3.84187 13.5896 3.84739 13.585C3.85292 13.5805 3.85934 13.5772 3.86623 13.5753C3.97126 13.5311 4.00126 13.431 4.04252 13.3401C4.22054 12.9469 4.39654 12.5528 4.57485 12.1598C4.5936 12.1182 4.59937 12.0576 4.65939 12.0545C4.73152 12.0507 4.73412 12.1194 4.752 12.1653C4.90463 12.5536 5.05438 12.9443 5.20672 13.3315C5.24856 13.4377 5.28001 13.5551 5.4234 13.5721C5.43072 13.5726 5.43787 13.5745 5.44439 13.5779C5.45092 13.5812 5.45667 13.5859 5.46128 13.5916C5.4659 13.5973 5.46927 13.6039 5.4712 13.611C5.47312 13.6181 5.47355 13.6255 5.47245 13.6327C5.46697 13.6763 5.43004 13.68 5.3957 13.6789C5.32415 13.6766 5.25115 13.6722 5.1721 13.6682Z" fill="#FBFBFB"/>
<path d="M16.2633 13.6679C16.2088 13.6722 16.1418 13.6783 16.0749 13.6818C16.04 13.6838 16.0056 13.6771 15.9967 13.6356C15.9886 13.5995 16.0152 13.5865 16.0429 13.5744C16.0602 13.5669 16.0879 13.5571 16.0896 13.5456C16.1104 13.4042 16.0195 13.2923 15.986 13.1647C15.9661 13.0891 15.9055 13.0946 15.8472 13.0955C15.7993 13.0955 15.7515 13.0955 15.703 13.0955C15.3925 13.0955 15.3934 13.0955 15.2898 13.3898C15.261 13.4746 15.2413 13.5496 15.3622 13.5762C15.396 13.5834 15.4263 13.605 15.4121 13.6483C15.4066 13.6617 15.3966 13.6729 15.3839 13.6799C15.3711 13.687 15.3564 13.6894 15.342 13.687C15.2266 13.6852 15.1112 13.6838 14.9975 13.6809C14.9687 13.6809 14.9398 13.6728 14.9292 13.6396C14.9185 13.6065 14.941 13.5857 14.969 13.5736C15.0555 13.5361 15.0904 13.4582 15.1262 13.3771C15.3047 12.9793 15.4842 12.5816 15.6646 12.184C15.6874 12.1338 15.6935 12.0571 15.7624 12.0556C15.8452 12.0536 15.8426 12.1405 15.8637 12.1936C16.0199 12.5856 16.1738 12.9784 16.3253 13.3722C16.3608 13.4639 16.3963 13.5511 16.5114 13.5675C16.5452 13.5724 16.5784 13.5929 16.5691 13.635C16.5599 13.6771 16.5238 13.6795 16.4895 13.6783C16.4197 13.676 16.3478 13.672 16.2633 13.6679Z" fill="#FBFBFB"/>
<path d="M29.4113 13.7011C29.0778 13.6962 28.8023 13.5744 28.6678 13.2556C28.5288 12.9252 28.5643 12.5989 28.8141 12.3277C29.0718 12.0481 29.3966 12.0219 29.7443 12.1257C29.8205 12.1488 29.8834 12.2123 29.9751 12.1961C30.0149 12.1895 30.0299 12.2299 30.0351 12.2642C30.0475 12.3508 30.0582 12.4356 30.0686 12.5216C30.0721 12.5505 30.0703 12.5813 30.0397 12.596C30.0005 12.6142 29.9771 12.5891 29.9575 12.5597C29.9379 12.5303 29.9168 12.4942 29.8943 12.4633C29.7273 12.2348 29.4852 12.1511 29.2221 12.2308C28.9936 12.2997 28.8571 12.5072 28.8519 12.7896C28.8446 12.9245 28.8678 13.0593 28.9197 13.1841C29.0126 13.3901 29.1577 13.5361 29.3932 13.5554C29.6355 13.575 29.8363 13.4928 29.9728 13.281C29.9953 13.2461 30.0112 13.1921 30.0663 13.2152C30.1214 13.2383 30.0925 13.2888 30.0908 13.3306C30.0856 13.4602 30.0187 13.5404 29.9018 13.5923C29.7437 13.6616 29.5842 13.7072 29.4113 13.7011Z" fill="#FBFAFB"/>
<path d="M26.0781 13.6679C26.0059 13.6725 25.9295 13.6792 25.853 13.6812C25.8204 13.6812 25.7815 13.6812 25.774 13.637C25.7682 13.6027 25.7913 13.5839 25.8213 13.575C25.9185 13.5462 25.939 13.4654 25.9399 13.382C25.9433 13.0412 25.9422 12.7005 25.9419 12.3597C25.9419 12.2801 25.915 12.2186 25.8265 12.2042C25.7904 12.1985 25.7592 12.1835 25.7688 12.1396C25.7783 12.0905 25.8198 12.0819 25.8585 12.09C26.0123 12.1188 26.1649 12.0882 26.3181 12.0856C26.3708 12.0854 26.4234 12.0905 26.4751 12.1009C26.7469 12.1523 26.894 12.3318 26.8689 12.5793C26.8458 12.8101 26.6231 12.9913 26.3706 12.9861C26.1814 12.9821 26.1805 12.9821 26.1816 13.1771C26.1816 13.2539 26.1877 13.3303 26.1897 13.4079C26.1917 13.4945 26.2243 13.5548 26.321 13.5649C26.3582 13.5687 26.4058 13.577 26.4009 13.6284C26.3949 13.6878 26.3418 13.682 26.3002 13.6812C26.2269 13.6786 26.1548 13.6725 26.0781 13.6679Z" fill="#FAFBFB"/>
<path d="M14.0976 13.7011C13.7572 13.6953 13.4805 13.5658 13.3512 13.2394C13.222 12.9131 13.2574 12.592 13.5059 12.3263C13.7655 12.0487 14.0887 12.0224 14.4355 12.1269C14.5117 12.15 14.574 12.2134 14.6663 12.1964C14.7061 12.1889 14.7177 12.2322 14.724 12.2662C14.7361 12.3467 14.7471 12.4275 14.7575 12.5086C14.7618 12.5421 14.767 12.5799 14.7269 12.5952C14.679 12.6133 14.66 12.5729 14.6377 12.5424C14.6069 12.4997 14.58 12.4558 14.5451 12.4143C14.3784 12.2155 14.1646 12.1621 13.9222 12.231C13.6856 12.2983 13.578 12.4766 13.5471 12.7094C13.4998 13.0683 13.6669 13.4172 13.9346 13.5216C14.0636 13.57 14.2052 13.5735 14.3364 13.5317C14.4677 13.4898 14.5811 13.4049 14.6582 13.2908C14.6833 13.2533 14.6983 13.1887 14.7609 13.2178C14.81 13.2409 14.7814 13.2943 14.7797 13.3352C14.7754 13.4587 14.7139 13.5372 14.6011 13.588C14.4387 13.6601 14.2751 13.7074 14.0976 13.7011Z" fill="#FBFAFB"/>
<path d="M21.0271 13.7008C21.0078 13.6991 20.9642 13.6982 20.9218 13.6913C20.6973 13.6544 20.5632 13.481 20.5837 13.2553C20.5865 13.2265 20.594 13.1933 20.6252 13.1858C20.6855 13.1717 20.6927 13.2256 20.7118 13.2625C20.8228 13.4962 21.0193 13.5987 21.2328 13.5329C21.3534 13.496 21.4365 13.4227 21.4443 13.2902C21.4521 13.1578 21.3716 13.0909 21.2597 13.0461C21.1218 12.9907 20.9758 12.9555 20.8462 12.8788C20.6656 12.7715 20.5897 12.6226 20.6223 12.4362C20.6538 12.2582 20.7917 12.135 20.9798 12.0839C21.157 12.0357 21.3174 12.1341 21.4888 12.1208C21.5205 12.1185 21.5297 12.1566 21.5338 12.186C21.5445 12.2622 21.5563 12.3381 21.5647 12.4146C21.5693 12.4564 21.5814 12.5092 21.5286 12.5268C21.4691 12.5467 21.4616 12.489 21.4438 12.4524C21.3607 12.2792 21.2167 12.2109 21.0341 12.2155C20.9235 12.2181 20.8367 12.2668 20.8116 12.3828C20.7865 12.4988 20.8376 12.5848 20.9374 12.6327C21.0295 12.6737 21.1238 12.7095 21.2199 12.74C21.5312 12.8508 21.6648 13.0409 21.6151 13.3047C21.569 13.5433 21.3428 13.7022 21.0271 13.7008Z" fill="#FBFAFA"/>
<path d="M32.69 13.6714C32.6201 13.6714 32.5864 13.6734 32.5529 13.6714C32.4935 13.6673 32.4144 13.7169 32.3798 13.6515C32.3371 13.5715 32.443 13.5782 32.4739 13.5384C32.4983 13.5022 32.5098 13.4589 32.5065 13.4154C32.5065 13.0692 32.5065 12.723 32.5065 12.3767C32.5065 12.2902 32.4848 12.2126 32.3784 12.1996C32.3414 12.195 32.3114 12.1806 32.3172 12.1367C32.3244 12.0842 32.3683 12.0851 32.4058 12.0865C32.4874 12.0891 32.5688 12.1009 32.6501 12.1001C32.8567 12.0975 33.0633 12.0963 33.2693 12.0825C33.3847 12.0744 33.4485 12.0951 33.4136 12.2267C33.4099 12.2406 33.4136 12.2556 33.4093 12.2697C33.3974 12.3274 33.4332 12.414 33.3576 12.4336C33.2711 12.4547 33.2947 12.3577 33.2711 12.3124C33.2506 12.2717 33.216 12.2642 33.1776 12.2547C32.7884 12.1722 32.7477 12.2045 32.7474 12.5989C32.7474 12.7818 32.7474 12.7844 32.9358 12.7772C33.0446 12.7732 33.1767 12.8156 33.2191 12.6526C33.2211 12.6468 33.2243 12.6415 33.2287 12.6372C33.233 12.6329 33.2383 12.6297 33.2441 12.6278C33.2499 12.6259 33.256 12.6254 33.2621 12.6263C33.2681 12.6272 33.2739 12.6295 33.2789 12.633C33.2881 12.6398 33.2959 12.6484 33.3017 12.6583C33.3075 12.6683 33.3112 12.6793 33.3126 12.6907C33.3146 12.8104 33.3126 12.9301 33.31 13.0499C33.31 13.0787 33.2973 13.1076 33.2613 13.111C33.2252 13.1145 33.2154 13.0822 33.2012 13.0585C33.145 12.9593 32.8735 12.8877 32.7762 12.9451C32.739 12.9671 32.7474 13.0028 32.7474 13.0343C32.7474 13.1255 32.7474 13.2169 32.7474 13.3081C32.7448 13.431 32.7321 13.5577 32.9064 13.577C32.9124 13.5779 32.9182 13.58 32.9234 13.5832C32.9286 13.5864 32.9332 13.5905 32.9368 13.5955C32.9404 13.6004 32.943 13.606 32.9444 13.612C32.9458 13.6179 32.946 13.6241 32.945 13.6301C32.9433 13.6447 32.9359 13.6581 32.9244 13.6672C32.9129 13.6764 32.8982 13.6807 32.8836 13.6792C32.8083 13.6797 32.7318 13.6737 32.69 13.6714Z" fill="#FBFBFB"/>
<path d="M34.083 13.2279C34.083 13.2761 34.083 13.324 34.083 13.3722C34.0809 13.4737 34.1118 13.5531 34.2232 13.5741C34.2584 13.5808 34.2916 13.5894 34.2855 13.6344C34.2845 13.6417 34.2821 13.6487 34.2785 13.6551C34.2748 13.6614 34.2699 13.667 34.264 13.6714C34.2582 13.6758 34.2515 13.6791 34.2444 13.6809C34.2373 13.6827 34.2299 13.6831 34.2226 13.6821C34.0697 13.6687 33.916 13.668 33.763 13.68C33.7508 13.6809 33.7386 13.6777 33.7286 13.6707C33.7185 13.6638 33.7111 13.6537 33.7076 13.6419C33.6969 13.6067 33.7182 13.5863 33.7474 13.577C33.8403 13.5482 33.8513 13.476 33.851 13.3941C33.851 13.0629 33.851 12.7305 33.851 12.4001C33.851 12.3064 33.8426 12.2123 33.7165 12.1982C33.6781 12.1941 33.651 12.1725 33.6588 12.1321C33.6666 12.0917 33.7015 12.0833 33.7373 12.0851C33.8091 12.0888 33.8816 12.0998 33.9528 12.0986C34.1836 12.0954 34.4145 12.0923 34.6436 12.0802C34.7512 12.0747 34.7878 12.1107 34.759 12.2129C34.7541 12.2313 34.7523 12.2507 34.7483 12.2706C34.7359 12.3283 34.7772 12.4172 34.7001 12.435C34.6159 12.4547 34.6378 12.3583 34.6162 12.3118C34.5965 12.2703 34.5613 12.2639 34.5227 12.2562C34.1187 12.1762 34.0899 12.2034 34.0812 12.6099C34.0786 12.7458 34.1101 12.807 34.2543 12.7816C34.3677 12.7617 34.514 12.8295 34.5639 12.6523C34.5668 12.6416 34.5965 12.6307 34.6118 12.6327C34.647 12.637 34.6545 12.6687 34.6548 12.6979C34.6548 12.8133 34.6548 12.9287 34.6548 13.0441C34.657 13.0585 34.6538 13.0731 34.646 13.0854C34.6383 13.0976 34.6263 13.1066 34.6124 13.1108C34.6053 13.1124 34.5979 13.1126 34.5907 13.1113C34.5835 13.1101 34.5767 13.1073 34.5706 13.1034C34.5645 13.0994 34.5592 13.0942 34.5551 13.0881C34.5511 13.0821 34.5483 13.0752 34.5469 13.0681C34.5299 13.0104 34.5181 12.9547 34.4427 12.9492C34.3328 12.9411 34.2223 12.9276 34.1135 12.9529C34.0806 12.9607 34.0847 12.9985 34.0847 13.0265C34.0821 13.0935 34.0827 13.1607 34.083 13.2279Z" fill="#FBFBFB"/>
<path d="M10.9325 13.6737C10.8635 13.6783 10.7966 13.6844 10.7305 13.6858C10.6971 13.6858 10.6598 13.6832 10.6541 13.6385C10.6531 13.6314 10.6536 13.6241 10.6557 13.6172C10.6577 13.6103 10.6612 13.6039 10.6659 13.5984C10.6706 13.593 10.6764 13.5886 10.6829 13.5855C10.6894 13.5825 10.6965 13.5809 10.7037 13.5808C10.822 13.5638 10.811 13.4752 10.8272 13.388C10.9114 12.9322 10.6235 12.6206 10.4085 12.2807C10.3918 12.2569 10.3699 12.2372 10.3445 12.2232C10.319 12.2091 10.2907 12.201 10.2617 12.1996C10.2256 12.1956 10.193 12.1823 10.195 12.1396C10.1971 12.0969 10.2351 12.0862 10.2683 12.0891C10.4164 12.1027 10.5653 12.1034 10.7135 12.0911C10.7255 12.0896 10.7377 12.092 10.7484 12.0979C10.759 12.1037 10.7675 12.1128 10.7727 12.1237C10.7765 12.1299 10.779 12.1368 10.7797 12.1441C10.7805 12.1513 10.7797 12.1586 10.7772 12.1655C10.7748 12.1724 10.7708 12.1786 10.7656 12.1837C10.7604 12.1888 10.7542 12.1927 10.7473 12.195C10.6673 12.2261 10.6965 12.2732 10.7256 12.3199C10.7989 12.4382 10.8768 12.5536 10.9464 12.6742C10.996 12.7608 11.0245 12.727 11.0618 12.6664C11.1117 12.5845 11.1671 12.506 11.2179 12.4244C11.2724 12.3378 11.3422 12.244 11.1711 12.2016C11.1593 12.1986 11.1491 12.1912 11.1425 12.1809C11.136 12.1706 11.1336 12.1582 11.1359 12.1462C11.1399 12.1099 11.1682 12.1012 11.1985 12.1012C11.3278 12.1012 11.4582 12.1012 11.5869 12.1012C11.6177 12.1012 11.6446 12.1102 11.6532 12.1433C11.6619 12.1765 11.6342 12.1918 11.6094 12.2091C11.3529 12.3889 11.2135 12.665 11.0822 12.9304C11.002 13.0917 11.0563 13.3078 11.0687 13.4991C11.0721 13.5525 11.1111 13.5681 11.1573 13.5767C11.1951 13.5839 11.2398 13.5932 11.2268 13.6471C11.2153 13.6947 11.1711 13.6942 11.1324 13.6919C11.0644 13.6875 10.9977 13.6795 10.9325 13.6737Z" fill="#FBFBFB"/>
<path d="M27.7706 13.1491C27.7311 13.1504 27.6918 13.1437 27.6549 13.1294C27.6181 13.1152 27.5846 13.0936 27.5563 13.066C27.528 13.0385 27.5056 13.0055 27.4903 12.9691C27.4751 12.9326 27.4674 12.8935 27.4676 12.854C27.4666 12.8144 27.4737 12.775 27.4883 12.7382C27.5029 12.7014 27.5249 12.6679 27.5528 12.6398C27.5806 12.6117 27.6139 12.5895 27.6506 12.5746C27.6873 12.5597 27.7266 12.5524 27.7662 12.5531C27.8438 12.5524 27.9185 12.5823 27.9742 12.6363C28.0299 12.6903 28.0622 12.764 28.064 12.8416C28.0655 12.8812 28.0591 12.9207 28.0451 12.9578C28.0311 12.9949 28.0097 13.0288 27.9824 13.0575C27.955 13.0862 27.9221 13.109 27.8858 13.1248C27.8494 13.1405 27.8102 13.1488 27.7706 13.1491V13.1491Z" fill="#FCFBFB"/>
<path d="M12.7554 12.8439C12.7557 12.9237 12.7246 13.0005 12.6688 13.0576C12.613 13.1148 12.5369 13.1476 12.4571 13.1491C12.3797 13.1482 12.3057 13.1175 12.2503 13.0635C12.195 13.0094 12.1625 12.9362 12.1596 12.8589C12.1591 12.779 12.19 12.7021 12.2457 12.6448C12.3014 12.5875 12.3775 12.5544 12.4574 12.5528C12.5348 12.554 12.6089 12.5849 12.6643 12.639C12.7197 12.6932 12.7523 12.7665 12.7554 12.8439V12.8439Z" fill="#FCFBFB"/>
<path d="M20.5796 10.2417C20.5716 10.2221 20.5579 10.2054 20.5404 10.1936C20.5228 10.1818 20.5021 10.1755 20.481 10.1756C20.7083 10.053 20.9048 9.88879 21.0958 9.71741C21.0978 9.75088 21.0923 9.78694 21.1293 9.80714C21.1308 9.83405 21.126 9.86094 21.1151 9.88562C20.9832 10.0397 20.8211 10.1651 20.6388 10.2541C20.6182 10.2572 20.5972 10.2528 20.5796 10.2417Z" fill="#F5EFEF"/>
<path d="M18.2672 10.3222C18.3133 10.3799 18.3768 10.3799 18.4429 10.3822C18.4913 10.3822 18.5459 10.3634 18.5871 10.411C18.4795 10.4136 18.3716 10.4165 18.264 10.4182C18.2296 10.4182 18.1942 10.4159 18.1976 10.3683C18.2011 10.3207 18.2305 10.3167 18.2672 10.3222Z" fill="#F4EFED"/>
<path d="M18.7268 9.82358C18.7317 9.9237 18.7507 10.0279 18.6402 10.0913L18.7268 9.82358Z" fill="#F4EFED"/>
<path d="M18.6416 10.0908C18.6416 10.1941 18.5703 10.2197 18.4869 10.2321L18.6416 10.0908Z" fill="#F4EFED"/>
<path d="M18.4417 10.2644C18.4083 10.3588 18.3341 10.3291 18.2672 10.3221C18.3206 10.2909 18.3801 10.2712 18.4417 10.2644V10.2644Z" fill="#F4EFED"/>
<path d="M11.1985 9.85764C11.1919 9.93005 11.2386 10.0189 11.1351 10.0596C11.1557 9.99285 11.1768 9.92553 11.1985 9.85764Z" fill="#F3E7E6"/>
<path d="M11.0794 10.1387L11.0846 10.1791C11.0436 10.1958 11.0177 10.2454 10.964 10.2348L11.0794 10.1387Z" fill="#F3E7E6"/>
<path d="M12.837 8.30075C12.5485 8.35528 12.2554 8.34143 11.9637 8.34662C11.8771 8.34662 11.8454 8.32556 11.8483 8.23468C11.8543 7.92336 11.8454 7.61175 11.8555 7.30072C11.8679 6.9115 12.0609 6.73781 12.4498 6.74646C12.677 6.74886 12.896 6.83177 13.0679 6.98046C13.2713 7.09789 13.3134 7.30447 13.3356 7.50788C13.3508 7.61982 13.3414 7.73371 13.3082 7.84168C13.275 7.94964 13.2187 8.04908 13.1432 8.13311C13.0595 8.22515 12.9637 8.29036 12.837 8.30075Z" fill="#860000"/>
<path d="M11.1394 10.2074L11.1714 10.1785C11.2219 10.1522 11.2548 10.1072 11.2914 10.0663V10.068C11.3093 10.0316 11.3024 9.99269 11.3024 9.9549C11.3024 8.99718 11.3024 8.03966 11.3024 7.08233C11.303 7.06318 11.2993 7.04414 11.2914 7.02665C11.2583 6.92711 11.1472 6.90662 11.0779 6.81256H11.8373C11.8373 6.8166 11.8373 6.83016 11.8333 6.83276C11.6345 6.94182 11.5984 7.11436 11.601 7.32902C11.6111 8.17383 11.6097 9.01863 11.601 9.86343C11.5996 10.0391 11.6561 10.158 11.8082 10.2365C11.8082 10.2899 11.7655 10.2806 11.7355 10.2806C11.5534 10.2806 11.3714 10.2806 11.1893 10.2806C11.1475 10.2804 11.073 10.2879 11.1394 10.2074Z" fill="#870202"/>
<path d="M12.9645 8.55811C13.3047 8.74969 13.4949 9.07341 13.6859 9.39194C13.8769 9.71048 14.08 10.0232 14.3754 10.2636C14.393 10.2783 14.4141 10.2965 14.4023 10.319C14.3905 10.3415 14.3656 10.3406 14.3446 10.3247C13.981 10.1955 13.7242 9.93697 13.5044 9.63228C13.3313 9.39396 13.2121 9.12679 13.0748 8.86914C13.0298 8.7846 12.9804 8.70237 12.9331 8.61927C12.9091 8.58061 12.9149 8.55811 12.9645 8.55811Z" fill="#850102"/>
<path d="M13.1071 6.82926C13.2078 6.88697 13.3221 6.91582 13.4144 6.99458C13.8414 7.3538 13.7973 7.99865 13.2197 8.24794C13.2139 8.25312 13.2069 8.25667 13.1993 8.25819C13.1917 8.25971 13.1838 8.25916 13.1766 8.25659C13.1693 8.25401 13.1628 8.24952 13.1578 8.24359C13.1529 8.23765 13.1496 8.23048 13.1484 8.22284C13.1446 8.181 13.1703 8.15186 13.192 8.12041C13.4346 7.76957 13.4363 7.389 13.1966 7.04133C13.1749 7.00988 13.1542 6.97814 13.1345 6.94524L13.0696 6.86705C13.0653 6.83791 13.0754 6.82291 13.1071 6.82926Z" fill="#860202"/>
<path d="M13.1345 6.94525C13.2283 6.98016 13.2661 7.06643 13.3076 7.14462C13.3958 7.31668 13.4289 7.51172 13.4023 7.70324C13.3758 7.89475 13.291 8.07345 13.1593 8.21505C13.1535 8.26987 13.0696 8.26295 13.0728 8.32469C13.035 8.37518 12.9833 8.3824 12.9493 8.33421C12.9152 8.28603 12.8725 8.31546 12.837 8.30075C13.3209 8.06242 13.4504 7.48364 13.1172 7.04912C13.0999 7.02662 13.0834 7.00354 13.0667 6.98045C13.0801 6.98088 13.0933 6.97786 13.1052 6.9717C13.1171 6.96554 13.1272 6.95643 13.1345 6.94525V6.94525Z" fill="#F7F2F2"/>
<path d="M11.2906 7.02661C11.3341 7.09124 11.3194 7.16597 11.3208 7.23608C11.3226 8.11051 11.3226 8.98502 11.3208 9.85964C11.3208 9.92889 11.3376 10.0039 11.2906 10.0677C11.2892 9.15362 11.2882 8.23996 11.2877 7.32668C11.2877 7.22598 11.2637 7.12586 11.2906 7.02661Z" fill="#F3E7E6"/>
<path d="M11.1394 10.2073L11.1362 10.2587C11.3607 10.2619 11.586 10.3022 11.8082 10.2365C11.8416 10.2942 11.8416 10.2994 11.7836 10.3002C11.5626 10.3037 11.3413 10.3083 11.12 10.3031C11.0046 10.3005 11.099 10.2203 11.0848 10.179L11.1394 10.2073Z" fill="#F3E7E6"/>
<path d="M13.0728 8.3247C13.046 8.32066 13.0197 8.312 13.0532 8.28402C13.0869 8.25878 13.1223 8.23574 13.1591 8.21506C13.1692 8.24391 13.1971 8.24102 13.2196 8.24795L13.0728 8.3247Z" fill="#975056"/>
<path d="M14.3444 10.3247C14.392 10.3247 14.3897 10.2959 14.3755 10.2636L14.4854 10.3296C14.4872 10.3848 14.4505 10.3608 14.4246 10.3585C14.3986 10.3562 14.3646 10.3519 14.3444 10.3247Z" fill="#954147"/>
<path d="M12.9646 8.55811C12.9334 8.56792 12.9357 8.59447 12.9328 8.61957C12.9128 8.60779 12.8953 8.59201 12.8816 8.57319C12.8679 8.55438 12.8583 8.53294 12.8532 8.51022C12.8745 8.50522 12.8967 8.50717 12.9168 8.51579C12.9368 8.52442 12.9536 8.53925 12.9646 8.55811Z" fill="#A35E66"/>
<path d="M11.2914 10.0663C11.2856 10.0952 11.271 10.1215 11.2494 10.1416C11.2279 10.1618 11.2006 10.1747 11.1714 10.1785C11.1974 10.1285 11.2398 10.0888 11.2914 10.0663Z" fill="#F3E7E6"/>
<path d="M14.4246 10.3588L14.4854 10.33C14.5186 10.3392 14.5492 10.3513 14.5579 10.3934C14.5345 10.3969 14.5106 10.3956 14.4877 10.3897C14.4648 10.3837 14.4433 10.3732 14.4246 10.3588V10.3588Z" fill="#A47274"/>
<path d="M13.1072 6.82926C13.0945 6.84167 13.0821 6.85436 13.0696 6.86706C13.0408 6.85725 12.9943 6.84369 13.0157 6.81109C13.037 6.77848 13.0806 6.7981 13.1072 6.82926Z" fill="#AE6F79"/>
<path d="M7.77315 7.8593C7.77776 7.63396 7.76247 7.40833 7.79277 7.18357C7.82508 6.94583 7.94973 6.81368 8.18545 6.76983C8.60468 6.69193 8.98755 6.85956 9.15172 7.19685C9.28675 7.47412 9.31012 8.00991 8.94052 8.3221C8.8228 8.42135 8.66787 8.45799 8.5135 8.47732C8.29855 8.50618 8.08216 8.48886 7.86634 8.49607C7.78757 8.49867 7.77055 8.46347 7.77199 8.39221C7.77603 8.21332 7.77344 8.03559 7.77315 7.8593Z" fill="#860000"/>
<path d="M6.98779 6.80679H7.76507C7.76507 6.81228 7.76825 6.82699 7.76507 6.82901C7.55041 6.9424 7.52387 7.1311 7.52618 7.35211C7.53483 8.1545 7.53022 8.95718 7.52877 9.75957C7.52877 9.94884 7.51377 10.1413 7.72266 10.259H7.05906C7.05906 10.2062 7.1084 10.1921 7.13927 10.1693C7.17325 10.1465 7.20091 10.1155 7.21968 10.0792C7.23845 10.0429 7.24771 10.0024 7.2466 9.96153C7.2466 9.01979 7.24371 8.07804 7.2466 7.13629C7.24746 6.96721 7.10638 6.92163 6.98779 6.80679Z" fill="#880102"/>
<path d="M9.09837 6.85901C9.42614 6.98308 9.61772 7.21736 9.62983 7.56936C9.6434 7.96089 9.44633 8.23008 9.09607 8.3931C9.06 8.40897 9.03288 8.40954 9.03346 8.35905C9.31736 8.09938 9.38632 7.77161 9.32862 7.40692C9.29572 7.19832 9.19041 7.03184 9.03634 6.89161C9.03432 6.83506 9.06606 6.8466 9.09837 6.85901Z" fill="#860202"/>
<path d="M9.03343 8.35904C9.04439 8.38789 9.07267 8.38587 9.09604 8.39309C9.05478 8.43579 9.00169 8.44906 8.92639 8.46089C8.95871 8.40751 8.97313 8.36221 9.03343 8.35904Z" fill="#A1656C"/>
<path d="M9.09834 6.85898C9.07613 6.86648 9.04872 6.86331 9.03631 6.89014L8.9812 6.85812C8.97832 6.80416 9.01005 6.82003 9.03891 6.82926L9.09834 6.85898Z" fill="#933A43"/>
<path d="M9.04008 6.82841L8.98237 6.85726C8.95929 6.85235 8.92697 6.83302 8.9388 6.8186C8.9691 6.78109 9.00748 6.80273 9.04008 6.82841Z" fill="#AB767D"/>
<path d="M29.1411 9.91621C29.279 9.46928 29.1341 9.09478 28.7273 8.84867C28.4596 8.68738 28.1679 8.5763 27.8842 8.44877C27.7388 8.38676 27.6004 8.30938 27.4714 8.21795C27.094 7.93923 27.0233 7.47701 27.2982 7.08981C27.347 7.08981 27.3476 7.11492 27.3291 7.14983C27.2261 7.53761 27.3184 7.79122 27.6488 8.0206C27.8635 8.16948 28.1104 8.25142 28.3473 8.35702C28.5536 8.4479 28.7611 8.53591 28.9498 8.6617C29.4146 8.97129 29.5069 9.49987 29.1731 9.94593C29.1454 9.95372 29.1315 9.94708 29.1411 9.91621Z" fill="#850101"/>
<path d="M27.1214 9.80685C27.2348 9.95958 27.3617 10.1018 27.5005 10.2319C27.2056 10.1837 27.0992 10.0991 27.0905 9.92198C27.0902 9.88043 27.0484 9.82821 27.1214 9.80685Z" fill="#8A1316"/>
<path d="M27.3285 7.15039C27.321 7.12904 27.3254 7.10134 27.2977 7.09038C27.3104 7.0396 27.3554 7.01363 27.3842 6.97497C27.4113 6.96919 27.4229 6.97987 27.418 7.00757L27.3285 7.15039Z" fill="#995A5D"/>
<path d="M29.1145 10.0328C29.1001 10.0804 29.0606 10.0925 29.0158 10.1081C29.008 10.0484 29.0505 10.0302 29.0799 10.0033C29.101 10.0022 29.1059 10.0198 29.1145 10.0328Z" fill="#D7C9CC"/>
<path d="M27.1214 9.80687C27.0793 9.83572 27.1093 9.88593 27.0905 9.92228C27.0714 9.88419 27.0632 9.84154 27.0669 9.79908C27.0669 9.77946 27.0709 9.75955 27.0957 9.76446C27.1003 9.76526 27.1047 9.76705 27.1086 9.7697C27.1125 9.77235 27.1158 9.7758 27.1182 9.77982C27.1206 9.78384 27.1222 9.78833 27.1227 9.793C27.1233 9.79766 27.1228 9.80239 27.1214 9.80687V9.80687Z" fill="#9C6F72"/>
<path d="M29.1145 10.0328L29.0799 10.0039C29.1004 9.97507 29.1209 9.94621 29.1411 9.91736L29.1725 9.94621L29.1145 10.0328Z" fill="#AA757B"/>
<path d="M27.4183 7.00729L27.3845 6.97468C27.4018 6.94785 27.4252 6.90486 27.4555 6.93371C27.4858 6.96257 27.4434 6.98796 27.4183 7.00729Z" fill="#D4BCBF"/>
<path d="M32.5402 6.80474C32.4718 6.85697 32.4323 6.8913 32.389 6.92015C32.3484 6.9461 32.3155 6.9824 32.2936 7.0253C32.2718 7.06821 32.2618 7.11618 32.2646 7.16425C32.2646 8.09099 32.2681 9.01773 32.2646 9.94448C32.2646 10.0991 32.3757 10.1643 32.4937 10.2619H31.788C32.0076 10.1427 31.9879 9.93871 31.9882 9.74251C31.9882 8.94041 31.9882 8.1385 31.9882 7.33679C31.9882 7.13655 31.9963 6.93574 31.7863 6.80417L32.5402 6.80474Z" fill="#840001"/>
<path d="M33.7907 7.10915C33.6784 6.9773 33.5757 6.88295 33.428 6.81284C33.8034 6.76292 33.7719 6.75629 33.7907 7.10915Z" fill="#8F2224"/>
<path d="M30.4954 7.0047C30.5093 6.75686 30.5107 6.75571 30.8188 6.81024C30.7088 6.88965 30.612 6.98595 30.5321 7.09559C30.462 7.08866 30.4922 7.04106 30.4954 7.0047Z" fill="#850E11"/>
<path d="M30.4954 7.0047C30.5115 7.03355 30.4905 7.07712 30.532 7.09559C30.5234 7.1103 30.5179 7.13223 30.5052 7.138C30.4844 7.14752 30.4732 7.12963 30.4723 7.10915C30.4712 7.0725 30.4683 7.03528 30.4954 7.0047Z" fill="#AE838A"/>
<path d="M36.201 6.99057C36.7425 8.08235 37.1303 9.22174 37.7301 10.261H37.0991C37.2979 10.0564 37.1857 9.86919 37.1023 9.67991C36.78 8.95658 36.4676 8.22892 36.13 7.51251C36.0342 7.30881 36.1127 7.16686 36.201 6.99057Z" fill="#850001"/>
<path d="M35.9901 7.44672C36.2039 7.9274 36.4035 8.37894 36.6061 8.82875C36.641 8.90608 36.6136 8.91762 36.5432 8.91704C36.1785 8.91531 35.8138 8.91473 35.4491 8.91704C35.3694 8.91704 35.3588 8.89079 35.3885 8.82298C35.5853 8.37635 35.78 7.92855 35.9901 7.44672Z" fill="#860000"/>
<path d="M35.0653 10.263H34.5748C34.6824 10.1514 34.7852 10.061 34.8535 9.94073C34.8761 9.9012 34.9113 9.90639 34.9211 9.95487C34.943 10.0634 34.9981 10.1571 35.0653 10.263Z" fill="#86070A"/>
<path d="M24.0662 7.00153C24.5951 8.08494 24.9955 9.21739 25.5873 10.2705H24.9447C25.1467 10.0685 25.0547 9.88995 24.9736 9.70731C24.6562 8.99783 24.3501 8.28344 24.0215 7.58002C23.9211 7.36882 23.9144 7.19339 24.0662 7.00153Z" fill="#860101"/>
<path d="M23.8914 7.55462C24.0792 7.97442 24.2664 8.39509 24.456 8.81345C24.4952 8.90001 24.4785 8.91848 24.3876 8.91761C24.0327 8.91386 23.6779 8.91444 23.323 8.91761C23.2402 8.91761 23.2076 8.90723 23.2491 8.8149C23.4378 8.39538 23.6216 7.97385 23.8071 7.55318C23.836 7.51307 23.8642 7.5021 23.8914 7.55462Z" fill="#860000"/>
<path d="M22.7612 9.88474C22.7791 10.0232 22.8408 10.1358 22.9213 10.2575C22.7598 10.2832 22.6117 10.2679 22.4285 10.2685C22.5627 10.1369 22.6749 10.0232 22.7612 9.88474Z" fill="#860709"/>
<path d="M23.8914 7.55462C23.8794 7.54524 23.8647 7.54 23.8496 7.53969C23.8344 7.53938 23.8195 7.54401 23.8071 7.55289C23.8048 7.51711 23.8175 7.47498 23.8496 7.47556C23.8816 7.47614 23.8931 7.51913 23.8914 7.55462Z" fill="#8A463E"/>
<path d="M5.29649 10.2656H4.61355C4.81552 10.0737 4.72405 9.89283 4.6424 9.71019C4.30223 8.94791 3.96725 8.1836 3.62131 7.42421C3.54168 7.24907 3.69142 7.15068 3.70325 7.00873C3.7748 7.01883 3.7725 7.07134 3.78808 7.10625C4.19086 8.00299 4.59278 8.90011 4.99383 9.79761C5.0729 9.96668 5.17473 10.1241 5.29649 10.2656V10.2656Z" fill="#860101"/>
<path d="M4.16946 8.91588C3.75312 8.91588 3.35958 8.91588 2.96603 8.91588C2.89823 8.91588 2.88265 8.8977 2.91208 8.83134C3.11116 8.3795 3.30678 7.92623 3.51596 7.44641L4.16946 8.91588Z" fill="#860000"/>
<path d="M2.42734 9.88995C2.44956 10.0284 2.51159 10.1392 2.59094 10.2607H2.09265C2.22198 10.1544 2.33477 10.0294 2.42734 9.88995V9.88995Z" fill="#870B0E"/>
<path d="M19.365 6.80619C19.0744 6.93545 19.1243 7.19252 19.124 7.42882C19.124 8.20784 19.124 8.98455 19.124 9.7627C19.124 9.95255 19.1096 10.1427 19.3162 10.2604H18.6157C18.6592 10.2157 18.6947 10.1739 18.7513 10.145C18.8309 10.1066 18.8378 10.0247 18.8378 9.94563C18.8394 9.53746 18.8406 9.1293 18.8416 8.72113C18.8416 8.27449 18.839 7.8267 18.8436 7.38122C18.8459 7.15502 18.8609 6.9291 18.5986 6.80417L19.365 6.80619Z" fill="#870001"/>
<path d="M20.6319 10.2347C20.8023 10.1317 20.9587 10.007 21.097 9.86369C21.1515 9.85936 21.1394 9.89023 21.1276 9.92139C21.0854 10.0368 21.0814 10.1623 21.0095 10.2676C20.8982 10.2965 20.7848 10.2754 20.6723 10.28C20.6663 10.2811 20.6601 10.2807 20.6543 10.2787C20.6485 10.2767 20.6434 10.2733 20.6393 10.2688C20.6353 10.2642 20.6324 10.2587 20.6311 10.2527C20.6298 10.2468 20.6301 10.2406 20.6319 10.2347Z" fill="#870B0D"/>
<path d="M20.6319 10.2347C20.7536 10.2925 20.8849 10.2394 21.0095 10.2659C20.8653 10.2844 20.7184 10.3303 20.5797 10.2417L20.6319 10.2347Z" fill="#B0747D"/>
<path d="M21.1276 9.9211C21.1175 9.90206 21.1074 9.88273 21.097 9.8634L21.129 9.80569C21.1778 9.8458 21.1599 9.8836 21.1276 9.9211Z" fill="#B57C83"/>
<path d="M16.7517 10.2619H16.0881C16.3106 10.1335 16.2777 9.9246 16.2771 9.72465C16.2757 8.95082 16.2745 8.177 16.2771 7.40317C16.2771 7.17062 16.3103 6.93144 16.0342 6.80362H16.7979C16.7979 6.81372 16.7979 6.82814 16.7947 6.83045C16.5835 6.93865 16.5541 7.12186 16.5564 7.33854C16.5645 8.15074 16.5596 8.96294 16.5596 9.77514C16.5596 9.95951 16.54 10.152 16.7517 10.2619Z" fill="#870101"/>
<path d="M9.19934 12.5363C9.19934 12.4884 9.19934 12.4408 9.19934 12.3921C9.19934 12.223 9.23338 12.1979 9.39323 12.2443C9.56634 12.2948 9.66761 12.4446 9.64049 12.6122C9.61626 12.7614 9.50171 12.8303 9.30407 12.8295C9.22126 12.8295 9.19212 12.8006 9.19847 12.7216C9.20395 12.6607 9.19934 12.5984 9.19934 12.5363Z" fill="#850202"/>
<path d="M2.84746 13.206C2.84469 13.1919 2.84469 13.1774 2.84746 13.1633C2.88554 13.0802 2.75773 12.9325 2.92825 12.9065C3.20378 12.8632 3.37142 12.959 3.41873 13.1636C3.46057 13.343 3.39536 13.4873 3.24562 13.5413C3.14319 13.5782 3.03731 13.5701 2.93315 13.5505C2.87227 13.5401 2.84659 13.4971 2.84659 13.4351C2.84832 13.3595 2.84746 13.2836 2.84746 13.206Z" fill="#860101"/>
<path d="M2.84717 12.4939V12.4073C2.84717 12.2054 2.9118 12.1632 3.09934 12.2417C3.20523 12.2862 3.28486 12.3571 3.30909 12.4772C3.34227 12.6425 3.27563 12.7368 3.10944 12.7541C2.84717 12.783 2.84717 12.783 2.84717 12.4939Z" fill="#870304"/>
<path d="M24.0547 12.8563C24.0518 12.5155 24.1848 12.2983 24.4104 12.2316C24.6652 12.1566 24.9485 12.2639 25.1029 12.4948C25.2405 12.699 25.2688 12.9238 25.2053 13.1566C25.1499 13.36 25.0207 13.5029 24.8092 13.5542C24.5977 13.6056 24.4107 13.5392 24.261 13.3811C24.1254 13.2404 24.0513 13.0516 24.0547 12.8563V12.8563Z" fill="#860000"/>
<path d="M31.7975 12.9065C31.7975 13.2905 31.5816 13.5502 31.2741 13.5718C30.9665 13.5935 30.6818 13.3309 30.6232 12.9786C30.616 12.9309 30.6123 12.8826 30.6122 12.8344C30.6056 12.5069 30.7504 12.2804 31.0014 12.2233C31.1483 12.1927 31.3012 12.2142 31.4338 12.2842C31.5665 12.3541 31.6707 12.468 31.7285 12.6064C31.7713 12.7008 31.7947 12.8029 31.7975 12.9065Z" fill="#860000"/>
<path d="M4.60719 12.459C4.66893 12.6116 4.71798 12.7311 4.76617 12.8508C4.77655 12.8771 4.79185 12.9189 4.75318 12.9212C4.64811 12.9277 4.54269 12.9262 4.43783 12.9169C4.40061 12.9137 4.41907 12.8696 4.43004 12.8453C4.48255 12.7276 4.53708 12.611 4.60719 12.459Z" fill="#840305"/>
<path d="M15.7197 12.4832C15.767 12.6032 15.8089 12.7195 15.8591 12.832C15.8969 12.9169 15.8608 12.9261 15.7867 12.929C15.4866 12.94 15.4852 12.9411 15.6101 12.6734C15.6395 12.6107 15.649 12.5349 15.7197 12.4832Z" fill="#850708"/>
<path d="M26.1793 12.5591C26.1793 12.4922 26.1825 12.425 26.1793 12.3571C26.1721 12.2302 26.235 12.2129 26.3412 12.2417C26.5691 12.2994 26.6915 12.4974 26.6159 12.693C26.5625 12.8306 26.3429 12.9198 26.2145 12.8589C26.173 12.839 26.1805 12.8055 26.1799 12.7741C26.1782 12.7022 26.1799 12.6298 26.1799 12.5585L26.1793 12.5591Z" fill="#870203"/>
<path d="M19.0804 9.96755V7.13077H19.0946V9.97361L19.0804 9.96755Z" fill="#7B0101"/>
</g>
</g>
<defs>
<clipPath id="clip0">
<rect width="40" height="12.0122" fill="white" transform="translate(0 4)"/>
</clipPath>
</defs>
</svg>
