<svg width="40" height="20" viewBox="0 0 40 20" fill="none" xmlns="http://www.w3.org/2000/svg">
<mask id="mask0" mask-type="alpha" maskUnits="userSpaceOnUse" x="0" y="0" width="40" height="20">
<rect width="40" height="20" fill="#C4C4C4"/>
</mask>
<g mask="url(#mask0)">
<g clip-path="url(#clip0)">
<path d="M6.97605 4.00085C6.41452 4.00085 6.0874 4.43012 6.0874 5.04507V5.44241V9.34131V9.74991C6.0874 10.3512 6.41452 10.7868 6.97605 10.7868C7.52693 10.7868 7.86861 10.3512 7.86861 9.74991V9.34131V5.44241V5.04507C7.86861 4.43012 7.52689 4.00085 6.97605 4.00085Z" fill="#1756C2"/>
<path d="M10.7456 5.86403H10.3269V5.60596C10.3269 5.3164 10.497 5.19443 10.9472 5.2451C11.4261 5.28926 11.5338 4.98703 11.5338 4.74558C11.5338 4.55882 11.4787 4.46399 11.3334 4.29677C11.0231 3.99165 10.2377 4.0007 10.2377 4.0007C10.2377 4.0007 9.52588 3.96812 9.04316 4.34816C8.56238 4.71807 8.60437 5.39162 8.60437 5.39162V5.86392H8.52734C8.20789 5.86392 7.86865 6.06118 7.86865 6.46583C7.86865 6.87342 8.25349 7.06022 8.56235 7.06022H8.60433V9.86815C8.60433 10.3511 8.90297 10.7867 9.49185 10.7867C10.0928 10.7867 10.3268 10.3647 10.3268 9.89537V7.06022H10.7455C10.977 7.06022 11.4367 6.94838 11.4367 6.48947C11.4367 6.01304 11.0741 5.86392 10.7455 5.86392" fill="#1756C2"/>
<path d="M15.8882 5.7085C15.6002 5.7085 15.3698 5.83699 15.219 6.03171C14.9419 5.84097 14.5768 5.7085 14.1512 5.7085C12.3374 5.7085 11.5338 7.06032 11.5338 8.36553C11.5338 9.76293 12.5101 10.844 14.1512 10.844C14.54 10.844 14.9145 10.7155 15.2168 10.5183C15.3646 10.7181 15.5965 10.844 15.8882 10.844C16.4523 10.844 16.7739 10.413 16.7739 9.80455V6.75159C16.7739 6.15362 16.4523 5.7085 15.8882 5.7085ZM13.2955 8.2981C13.2955 7.18621 13.8397 6.98906 14.2051 6.98906C14.2197 6.98906 14.238 6.98906 14.2508 6.98906C14.6709 7.02163 15.0018 7.29924 15.0018 8.34624C15.0018 9.37641 14.6433 9.58276 14.2715 9.60331C14.2496 9.60331 14.2387 9.60331 14.2153 9.60331C13.798 9.60331 13.2953 9.40605 13.2953 8.2981" fill="#1756C2"/>
<path d="M5.98753 9.45024C5.89516 9.17516 4.39642 4.93896 4.32198 4.73913C4.23947 4.53825 4.16353 4.39274 3.98245 4.26722C3.68308 4.04209 3.04203 4.05548 3.04203 4.05548C3.04203 4.05548 2.40963 4.04101 2.10479 4.26722C1.92662 4.39282 1.85069 4.53832 1.77219 4.73913C1.69626 4.93892 0.197587 9.1752 0.0942682 9.45024C0.0102986 9.71916 -0.062353 10.0486 0.0942682 10.3171C0.266223 10.5686 0.54982 10.7869 0.916364 10.7869C1.28806 10.7869 1.61776 10.6269 1.76164 10.1782C1.90184 9.71916 1.97522 9.49479 1.97522 9.49479H3.04203H4.11461C4.11461 9.49479 4.18434 9.7192 4.32563 10.1782C4.46692 10.627 4.80462 10.7869 5.16616 10.7869C5.54647 10.7869 5.83715 10.5686 5.9876 10.3171C6.15043 10.0485 6.08727 9.71916 5.9876 9.45024H5.98753ZM2.3782 8.03572L3.04203 5.88729L3.70787 8.03572H2.3782Z" fill="#1756C2"/>
<path d="M37.6686 15.8885H0V16.6946H37.6686C38.8245 16.6946 39.7927 15.8523 39.9694 14.7611C39.4514 15.4477 38.6084 15.8885 37.6686 15.8885Z" fill="#EFCF00"/>
<path d="M39.9982 13.0238V12.3777H2.33657C1.05082 12.3777 0 13.4203 0 14.6962V15.3423H37.6686C38.9567 15.3423 39.9982 14.2981 39.9982 13.0238Z" fill="#D60F27"/>
<path d="M23.7418 5.65627C22.7888 5.65627 21.8623 6.92127 21.5337 7.41069C21.5483 7.29921 21.5728 7.12909 21.6254 6.93466C21.6947 6.61253 21.755 6.15619 21.5337 5.88726C21.4041 5.73163 21.2132 5.65634 20.9569 5.65634C20.0745 5.65634 19.2027 6.77233 18.83 7.31843C18.8741 7.15881 18.9267 6.95902 18.9621 6.84359C19.0198 6.57503 19.1337 6.15626 18.9512 5.91224C18.8424 5.76167 18.6631 5.69398 18.4091 5.69398C17.994 5.69398 17.5321 5.88726 17.5128 5.88726L17.4186 5.92925L17.5047 5.97956C17.5047 5.97956 17.6318 6.10551 17.534 6.77222C17.3664 7.94412 16.9805 9.34127 16.8301 9.89544C16.7436 10.1781 16.7567 10.409 16.8706 10.5621C16.9907 10.7181 17.2094 10.8075 17.4823 10.8075C17.8626 10.8075 18.2084 10.6815 18.2277 10.6634L18.2839 10.6489L18.2394 10.5921C18.2394 10.5885 18.0408 10.296 18.3026 9.72782C19.1846 7.78266 19.8977 7.0081 20.0969 6.87595C20.144 6.85423 20.1714 6.82817 20.2053 6.82817C20.2273 6.82817 20.2382 6.84265 20.2382 6.85351C20.2601 6.86437 20.2638 6.91214 20.2601 6.95594C20.1882 7.63202 19.9001 8.76103 19.7148 9.51601C19.675 9.68866 19.6323 9.82909 19.6096 9.94709C19.5417 10.2363 19.5644 10.4607 19.675 10.6098C19.7852 10.7332 19.9634 10.8045 20.2156 10.8045C20.6111 10.8045 20.9607 10.6604 20.975 10.6579L21.0469 10.629L20.9933 10.5808C20.9933 10.5627 20.8023 10.3159 21.0703 9.71436C21.7222 8.21811 22.6028 7.04903 22.8318 6.87895C22.9092 6.82502 22.9486 6.81815 22.972 6.81815C22.9793 6.81815 22.9829 6.81815 22.9975 6.83986C23.0158 6.85796 23.0231 6.92203 23.0158 6.99948C23.0121 7.02844 22.9866 7.12146 22.9661 7.26008C22.8354 7.77795 22.6036 8.84862 22.4766 9.59354C22.4006 10.0384 22.4375 10.3717 22.6036 10.5614C22.7383 10.7145 22.9494 10.8039 23.2057 10.8039C23.6533 10.8039 24.0669 10.5274 24.0851 10.5172L24.1505 10.4731L24.0906 10.4329C24.0906 10.4329 23.7737 10.1368 23.9292 9.26381C24.0395 8.67851 24.1819 8.00533 24.2892 7.51591C24.3403 7.27051 24.3732 7.06673 24.4006 6.95525L24.4079 6.91146C24.4652 6.64289 24.5517 6.15249 24.3173 5.87452C24.1932 5.71382 24.0059 5.65265 23.7456 5.65265" fill="#D60F27"/>
<path d="M29.0435 5.70846C28.773 5.70846 28.5529 5.78013 28.4024 5.9249C28.2922 5.85758 27.9165 5.65634 27.4233 5.65634C27.1419 5.65634 26.7281 5.70846 26.2638 6.00019C25.7483 6.31689 25.3134 6.82285 24.959 7.51569C24.1568 9.0663 24.5413 10.1988 24.7428 10.4767C24.9184 10.7181 25.1616 10.8271 25.5124 10.8271C26.0085 10.8271 26.6682 10.6338 27.6744 9.0663C27.6452 9.28708 27.612 9.59723 27.612 9.86178C27.612 10.7156 28.2187 10.8075 28.4689 10.8075C29.1168 10.8075 29.3429 10.5079 29.3447 10.4977L29.3702 10.4651L29.3447 10.4326C29.3374 10.4217 29.0427 10.1235 29.2366 8.53529C29.4235 7.02232 29.9532 5.97927 29.9532 5.96649L29.9788 5.92451L29.9339 5.89555C29.9156 5.88831 29.4786 5.70879 29.0442 5.70879L29.0435 5.70846ZM26.2441 9.66445C26.1119 9.66445 26.0415 9.44004 26.0415 9.20514C26.0415 8.95069 26.1696 7.48587 26.7951 6.73454C26.9338 6.58831 27.0988 6.49602 27.2635 6.49602C27.664 6.49602 28.0386 6.92119 28.1313 7.03061C27.6457 8.00895 26.9638 9.02239 26.4785 9.51898C26.3894 9.61779 26.3033 9.66448 26.2441 9.66448" fill="#D60F27"/>
<path d="M33.993 5.65628C33.2923 5.65628 32.4512 6.80585 32.0952 7.33907C32.154 7.10851 32.2405 6.76857 32.3069 6.45549C32.3529 6.22095 32.3215 6.03781 32.2299 5.91475C32.1094 5.7801 31.9108 5.70844 31.6331 5.70844C31.2355 5.70844 30.7553 5.88072 30.7382 5.88724L30.6685 5.91619L30.7302 5.96831C30.7302 5.97555 30.8598 6.15761 30.7798 6.79724C30.6685 7.49402 30.2212 9.23132 30.0326 9.93461C29.946 10.2173 29.9672 10.4235 30.072 10.5701C30.2315 10.7844 30.5418 10.809 30.7554 10.809C31.1186 10.809 31.4801 10.683 31.4958 10.6649L31.5652 10.6505L31.5235 10.5936C31.5209 10.59 31.3505 10.3207 31.5491 9.80059C32.0842 8.46143 32.679 7.67923 33.036 7.4107C33.1186 7.35351 33.2025 7.3184 33.285 7.3184C33.4811 7.3184 33.6056 7.53666 33.6056 7.53666L33.6348 7.59131L33.6782 7.54715C33.8652 7.36292 34.1988 6.97191 34.3204 6.61913C34.4044 6.40775 34.5132 6.03165 34.3496 5.81344C34.2817 5.70449 34.1601 5.65635 33.9926 5.65635" fill="#D60F27"/>
<path d="M37.956 6.28575C37.7596 6.35307 37.2769 6.39723 36.6289 6.39723C36.5559 6.39723 36.4957 6.39723 36.4552 6.39723C36.4844 6.2311 36.6016 5.76162 36.7286 5.3165C36.8086 5.04794 36.7994 4.82748 36.6852 4.68484C36.5727 4.54838 36.3884 4.48721 36.1083 4.48721C35.7155 4.48721 35.1501 4.66131 35.128 4.67144L35.0441 4.69678L35.1164 4.76193C35.3332 4.98199 35.0981 6.04249 34.997 6.43668C34.986 6.4584 34.4344 8.56202 34.4344 9.5674C34.4344 10.4108 34.9002 10.8288 35.7928 10.8288C36.2091 10.8288 36.8162 10.7173 37.2243 10.3666C37.4025 10.2139 37.481 9.99565 37.4339 9.76469C37.4083 9.59892 37.3254 9.46899 37.3254 9.46247L37.2962 9.4013L37.244 9.44944C37.2367 9.44944 37.0531 9.6286 36.6861 9.75166C36.5477 9.79184 36.4389 9.81935 36.3265 9.81935C36.2086 9.81935 36.1093 9.77121 36.0162 9.69339C35.8095 9.4831 35.9428 8.73207 35.987 8.49061C36.0563 8.10919 36.2261 7.39938 36.263 7.22167C36.3272 7.22167 36.4619 7.2191 36.6347 7.2191C36.7829 7.2191 36.9096 7.22167 37.0337 7.22167C37.8018 7.23615 38.0169 6.64437 38.0245 6.33168V6.2535L37.956 6.28575Z" fill="#D60F27"/>
</g>
</g>
<defs>
<clipPath id="clip0">
<rect width="40" height="12.6946" fill="white" transform="translate(0 4)"/>
</clipPath>
</defs>
</svg>
